<svg xmlns:sodipodi="http://sodipodi.sourceforge.net/DTD/sodipodi-0.dtd" width="1404" height="1872"><path d="M 2407.559055,-1912.440945 2445.354331,-1912.440945" style="stroke:#FF0000;fill:none"/><path d="M 2407.559055,-4947.401575 2445.354331,-4947.401575" style="stroke:#FF0000;fill:none"/><path d="M 2407.559055,-5223.307087 2445.354331,-5223.307087" style="stroke:#FF0000;fill:none"/><path d="M 2407.559055,-4395.590551 2445.354331,-4395.590551" style="stroke:#FF0000;fill:none"/><path d="M 2407.559055,-4671.496063 2445.354331,-4671.496063" style="stroke:#FF0000;fill:none"/><path d="M 2407.559055,-3843.779528 2445.354331,-3843.779528" style="stroke:#FF0000;fill:none"/><path d="M 2407.559055,-4119.685039 2445.354331,-4119.685039" style="stroke:#FF0000;fill:none"/><path d="M 1046.929134,-2169.448819 1046.929134,-2207.244094" style="stroke:#FF0000;fill:none"/><path d="M 771.023622,-2169.448819 771.023622,-2207.244094" style="stroke:#FF0000;fill:none"/><path d="M 1598.740157,-2169.448819 1598.740157,-2207.244094" style="stroke:#FF0000;fill:none"/><path d="M 1322.834646,-2169.448819 1322.834646,-2207.244094" style="stroke:#FF0000;fill:none"/><path d="M 2150.551181,-2169.448819 2150.551181,-2207.244094" style="stroke:#FF0000;fill:none"/><path d="M 1874.645669,-2169.448819 1874.645669,-2207.244094" style="stroke:#FF0000;fill:none"/><path d="M 495.118110,-2169.448819 495.118110,-2207.244094" style="stroke:#FF0000;fill:none"/><path d="M 219.212598,-2169.448819 219.212598,-2207.244094" style="stroke:#FF0000;fill:none"/><path d="M 2702.362205,-2169.448819 2702.362205,-2207.244094" style="stroke:#FF0000;fill:none"/><path d="M 2978.267717,-2169.448819 2978.267717,-2207.244094" style="stroke:#FF0000;fill:none"/><path d="M 4357.795276,-2169.448819 4357.795276,-2207.244094" style="stroke:#FF0000;fill:none"/><path d="M 4633.700787,-2169.448819 4633.700787,-2207.244094" style="stroke:#FF0000;fill:none"/><path d="M 3805.984252,-2169.448819 3805.984252,-2207.244094" style="stroke:#FF0000;fill:none"/><path d="M 4081.889764,-2169.448819 4081.889764,-2207.244094" style="stroke:#FF0000;fill:none"/><path d="M 3254.173228,-2169.448819 3254.173228,-2207.244094" style="stroke:#FF0000;fill:none"/><path d="M 3530.078740,-2169.448819 3530.078740,-2207.244094" style="stroke:#FF0000;fill:none"/><path d="M 2407.559055,18.897638 2445.354331,18.897638" style="stroke:#FF0000;fill:none"/><path d="M 2407.559055,294.803150 2445.354331,294.803150" style="stroke:#FF0000;fill:none"/><path d="M 2407.559055,-532.913386 2445.354331,-532.913386" style="stroke:#FF0000;fill:none"/><path d="M 2407.559055,-257.007874 2445.354331,-257.007874" style="stroke:#FF0000;fill:none"/><path d="M 2407.559055,-1084.724409 2445.354331,-1084.724409" style="stroke:#FF0000;fill:none"/><path d="M 2407.559055,-808.818898 2445.354331,-808.818898" style="stroke:#FF0000;fill:none"/><path d="M 2407.559055,-1636.535433 2445.354331,-1636.535433" style="stroke:#FF0000;fill:none"/><path d="M 2407.559055,-1360.629921 2445.354331,-1360.629921" style="stroke:#FF0000;fill:none"/><path d="M 2407.559055,1122.519685 2445.354331,1122.519685" style="stroke:#FF0000;fill:none"/><path d="M 2407.559055,570.708661 2445.354331,570.708661" style="stroke:#FF0000;fill:none"/><path d="M 2407.559055,846.614173 2445.354331,846.614173" style="stroke:#FF0000;fill:none"/><path d="M 2407.559055,-3291.968504 2445.354331,-3291.968504" style="stroke:#FF0000;fill:none"/><path d="M 2407.559055,-3567.874016 2445.354331,-3567.874016" style="stroke:#FF0000;fill:none"/><path d="M 2407.559055,-2740.157480 2445.354331,-2740.157480" style="stroke:#FF0000;fill:none"/><path d="M 2407.559055,-3016.062992 2445.354331,-3016.062992" style="stroke:#FF0000;fill:none"/><path d="M 2407.559055,-2464.251969 2445.354331,-2464.251969" style="stroke:#FF0000;fill:none"/><path d="M 502.677165,1122.519685 A 7.559055,7.559055 -0.000000 1 0 487.559055,1122.519685 7.559055,7.559055 -0.000000 1 0 502.677165,1122.519685 z" style="stroke:#FF0000;fill:none"/><path d="M 1054.488189,1122.519685 A 7.559055,7.559055 -0.000000 1 0 1039.370079,1122.519685 7.559055,7.559055 -0.000000 1 0 1054.488189,1122.519685 z" style="stroke:#FF0000;fill:none"/><path d="M 4365.354331,1122.519685 A 7.559055,7.559055 -0.000000 1 0 4350.236220,1122.519685 7.559055,7.559055 -0.000000 1 0 4365.354331,1122.519685 z" style="stroke:#FF0000;fill:none"/><path d="M 4641.259843,1122.519685 A 7.559055,7.559055 -0.000000 1 0 4626.141732,1122.519685 7.559055,7.559055 -0.000000 1 0 4641.259843,1122.519685 z" style="stroke:#FF0000;fill:none"/><path d="M 2158.110236,1122.519685 A 7.559055,7.559055 -0.000000 1 0 2142.992126,1122.519685 7.559055,7.559055 -0.000000 1 0 2158.110236,1122.519685 z" style="stroke:#FF0000;fill:none"/><path d="M 1330.393701,1122.519685 A 7.559055,7.559055 -0.000000 1 0 1315.275591,1122.519685 7.559055,7.559055 -0.000000 1 0 1330.393701,1122.519685 z" style="stroke:#FF0000;fill:none"/><path d="M 1606.299213,1122.519685 A 7.559055,7.559055 -0.000000 1 0 1591.181102,1122.519685 7.559055,7.559055 -0.000000 1 0 1606.299213,1122.519685 z" style="stroke:#FF0000;fill:none"/><path d="M 778.582677,1122.519685 A 7.559055,7.559055 -0.000000 1 0 763.464567,1122.519685 7.559055,7.559055 -0.000000 1 0 778.582677,1122.519685 z" style="stroke:#FF0000;fill:none"/><path d="M 1054.488189,846.614173 A 7.559055,7.559055 -0.000000 1 0 1039.370079,846.614173 7.559055,7.559055 -0.000000 1 0 1054.488189,846.614173 z" style="stroke:#FF0000;fill:none"/><path d="M 226.771654,1122.519685 A 7.559055,7.559055 -0.000000 1 0 211.653543,1122.519685 7.559055,7.559055 -0.000000 1 0 226.771654,1122.519685 z" style="stroke:#FF0000;fill:none"/><path d="M 4641.259843,846.614173 A 7.559055,7.559055 -0.000000 1 0 4626.141732,846.614173 7.559055,7.559055 -0.000000 1 0 4641.259843,846.614173 z" style="stroke:#FF0000;fill:none"/><path d="M 502.677165,846.614173 A 7.559055,7.559055 -0.000000 1 0 487.559055,846.614173 7.559055,7.559055 -0.000000 1 0 502.677165,846.614173 z" style="stroke:#FF0000;fill:none"/><path d="M 3813.543307,1122.519685 A 7.559055,7.559055 -0.000000 1 0 3798.425197,1122.519685 7.559055,7.559055 -0.000000 1 0 3813.543307,1122.519685 z" style="stroke:#FF0000;fill:none"/><path d="M 4089.448819,1122.519685 A 7.559055,7.559055 -0.000000 1 0 4074.330709,1122.519685 7.559055,7.559055 -0.000000 1 0 4089.448819,1122.519685 z" style="stroke:#FF0000;fill:none"/><path d="M 3261.732283,1122.519685 A 7.559055,7.559055 -0.000000 1 0 3246.614173,1122.519685 7.559055,7.559055 -0.000000 1 0 3261.732283,1122.519685 z" style="stroke:#FF0000;fill:none"/><path d="M 3537.637795,1122.519685 A 7.559055,7.559055 -0.000000 1 0 3522.519685,1122.519685 7.559055,7.559055 -0.000000 1 0 3537.637795,1122.519685 z" style="stroke:#FF0000;fill:none"/><path d="M 2709.921260,1122.519685 A 7.559055,7.559055 -0.000000 1 0 2694.803150,1122.519685 7.559055,7.559055 -0.000000 1 0 2709.921260,1122.519685 z" style="stroke:#FF0000;fill:none"/><path d="M 2985.826772,1122.519685 A 7.559055,7.559055 -0.000000 1 0 2970.708661,1122.519685 7.559055,7.559055 -0.000000 1 0 2985.826772,1122.519685 z" style="stroke:#FF0000;fill:none"/><path d="M 1882.204724,1122.519685 A 7.559055,7.559055 -0.000000 1 0 1867.086614,1122.519685 7.559055,7.559055 -0.000000 1 0 1882.204724,1122.519685 z" style="stroke:#FF0000;fill:none"/><path d="M 1330.393701,846.614173 A 7.559055,7.559055 -0.000000 1 0 1315.275591,846.614173 7.559055,7.559055 -0.000000 1 0 1330.393701,846.614173 z" style="stroke:#FF0000;fill:none"/><path d="M 778.582677,846.614173 A 7.559055,7.559055 -0.000000 1 0 763.464567,846.614173 7.559055,7.559055 -0.000000 1 0 778.582677,846.614173 z" style="stroke:#FF0000;fill:none"/><path d="M 2158.110236,846.614173 A 7.559055,7.559055 -0.000000 1 0 2142.992126,846.614173 7.559055,7.559055 -0.000000 1 0 2158.110236,846.614173 z" style="stroke:#FF0000;fill:none"/><path d="M 226.771654,846.614173 A 7.559055,7.559055 -0.000000 1 0 211.653543,846.614173 7.559055,7.559055 -0.000000 1 0 226.771654,846.614173 z" style="stroke:#FF0000;fill:none"/><path d="M 1606.299213,846.614173 A 7.559055,7.559055 -0.000000 1 0 1591.181102,846.614173 7.559055,7.559055 -0.000000 1 0 1606.299213,846.614173 z" style="stroke:#FF0000;fill:none"/><path d="M 502.677165,570.708661 A 7.559055,7.559055 -0.000000 1 0 487.559055,570.708661 7.559055,7.559055 -0.000000 1 0 502.677165,570.708661 z" style="stroke:#FF0000;fill:none"/><path d="M 1054.488189,570.708661 A 7.559055,7.559055 -0.000000 1 0 1039.370079,570.708661 7.559055,7.559055 -0.000000 1 0 1054.488189,570.708661 z" style="stroke:#FF0000;fill:none"/><path d="M 4089.448819,846.614173 A 7.559055,7.559055 -0.000000 1 0 4074.330709,846.614173 7.559055,7.559055 -0.000000 1 0 4089.448819,846.614173 z" style="stroke:#FF0000;fill:none"/><path d="M 4365.354331,846.614173 A 7.559055,7.559055 -0.000000 1 0 4350.236220,846.614173 7.559055,7.559055 -0.000000 1 0 4365.354331,846.614173 z" style="stroke:#FF0000;fill:none"/><path d="M 3537.637795,846.614173 A 7.559055,7.559055 -0.000000 1 0 3522.519685,846.614173 7.559055,7.559055 -0.000000 1 0 3537.637795,846.614173 z" style="stroke:#FF0000;fill:none"/><path d="M 3813.543307,846.614173 A 7.559055,7.559055 -0.000000 1 0 3798.425197,846.614173 7.559055,7.559055 -0.000000 1 0 3813.543307,846.614173 z" style="stroke:#FF0000;fill:none"/><path d="M 2985.826772,846.614173 A 7.559055,7.559055 -0.000000 1 0 2970.708661,846.614173 7.559055,7.559055 -0.000000 1 0 2985.826772,846.614173 z" style="stroke:#FF0000;fill:none"/><path d="M 3261.732283,846.614173 A 7.559055,7.559055 -0.000000 1 0 3246.614173,846.614173 7.559055,7.559055 -0.000000 1 0 3261.732283,846.614173 z" style="stroke:#FF0000;fill:none"/><path d="M 1882.204724,846.614173 A 7.559055,7.559055 -0.000000 1 0 1867.086614,846.614173 7.559055,7.559055 -0.000000 1 0 1882.204724,846.614173 z" style="stroke:#FF0000;fill:none"/><path d="M 2709.921260,846.614173 A 7.559055,7.559055 -0.000000 1 0 2694.803150,846.614173 7.559055,7.559055 -0.000000 1 0 2709.921260,846.614173 z" style="stroke:#FF0000;fill:none"/><path d="M 1882.204724,570.708661 A 7.559055,7.559055 -0.000000 1 0 1867.086614,570.708661 7.559055,7.559055 -0.000000 1 0 1882.204724,570.708661 z" style="stroke:#FF0000;fill:none"/><path d="M 2158.110236,570.708661 A 7.559055,7.559055 -0.000000 1 0 2142.992126,570.708661 7.559055,7.559055 -0.000000 1 0 2158.110236,570.708661 z" style="stroke:#FF0000;fill:none"/><path d="M 1330.393701,570.708661 A 7.559055,7.559055 -0.000000 1 0 1315.275591,570.708661 7.559055,7.559055 -0.000000 1 0 1330.393701,570.708661 z" style="stroke:#FF0000;fill:none"/><path d="M 1606.299213,570.708661 A 7.559055,7.559055 -0.000000 1 0 1591.181102,570.708661 7.559055,7.559055 -0.000000 1 0 1606.299213,570.708661 z" style="stroke:#FF0000;fill:none"/><path d="M 778.582677,570.708661 A 7.559055,7.559055 -0.000000 1 0 763.464567,570.708661 7.559055,7.559055 -0.000000 1 0 778.582677,570.708661 z" style="stroke:#FF0000;fill:none"/><path d="M 1054.488189,294.803150 A 7.559055,7.559055 -0.000000 1 0 1039.370079,294.803150 7.559055,7.559055 -0.000000 1 0 1054.488189,294.803150 z" style="stroke:#FF0000;fill:none"/><path d="M 226.771654,570.708661 A 7.559055,7.559055 -0.000000 1 0 211.653543,570.708661 7.559055,7.559055 -0.000000 1 0 226.771654,570.708661 z" style="stroke:#FF0000;fill:none"/><path d="M 4365.354331,570.708661 A 7.559055,7.559055 -0.000000 1 0 4350.236220,570.708661 7.559055,7.559055 -0.000000 1 0 4365.354331,570.708661 z" style="stroke:#FF0000;fill:none"/><path d="M 4641.259843,570.708661 A 7.559055,7.559055 -0.000000 1 0 4626.141732,570.708661 7.559055,7.559055 -0.000000 1 0 4641.259843,570.708661 z" style="stroke:#FF0000;fill:none"/><path d="M 3813.543307,570.708661 A 7.559055,7.559055 -0.000000 1 0 3798.425197,570.708661 7.559055,7.559055 -0.000000 1 0 3813.543307,570.708661 z" style="stroke:#FF0000;fill:none"/><path d="M 4089.448819,570.708661 A 7.559055,7.559055 -0.000000 1 0 4074.330709,570.708661 7.559055,7.559055 -0.000000 1 0 4089.448819,570.708661 z" style="stroke:#FF0000;fill:none"/><path d="M 3261.732283,570.708661 A 7.559055,7.559055 -0.000000 1 0 3246.614173,570.708661 7.559055,7.559055 -0.000000 1 0 3261.732283,570.708661 z" style="stroke:#FF0000;fill:none"/><path d="M 3537.637795,570.708661 A 7.559055,7.559055 -0.000000 1 0 3522.519685,570.708661 7.559055,7.559055 -0.000000 1 0 3537.637795,570.708661 z" style="stroke:#FF0000;fill:none"/><path d="M 2709.921260,570.708661 A 7.559055,7.559055 -0.000000 1 0 2694.803150,570.708661 7.559055,7.559055 -0.000000 1 0 2709.921260,570.708661 z" style="stroke:#FF0000;fill:none"/><path d="M 2985.826772,570.708661 A 7.559055,7.559055 -0.000000 1 0 2970.708661,570.708661 7.559055,7.559055 -0.000000 1 0 2985.826772,570.708661 z" style="stroke:#FF0000;fill:none"/><path d="M 1882.204724,294.803150 A 7.559055,7.559055 -0.000000 1 0 1867.086614,294.803150 7.559055,7.559055 -0.000000 1 0 1882.204724,294.803150 z" style="stroke:#FF0000;fill:none"/><path d="M 2709.921260,294.803150 A 7.559055,7.559055 -0.000000 1 0 2694.803150,294.803150 7.559055,7.559055 -0.000000 1 0 2709.921260,294.803150 z" style="stroke:#FF0000;fill:none"/><path d="M 1330.393701,294.803150 A 7.559055,7.559055 -0.000000 1 0 1315.275591,294.803150 7.559055,7.559055 -0.000000 1 0 1330.393701,294.803150 z" style="stroke:#FF0000;fill:none"/><path d="M 778.582677,294.803150 A 7.559055,7.559055 -0.000000 1 0 763.464567,294.803150 7.559055,7.559055 -0.000000 1 0 778.582677,294.803150 z" style="stroke:#FF0000;fill:none"/><path d="M 2158.110236,294.803150 A 7.559055,7.559055 -0.000000 1 0 2142.992126,294.803150 7.559055,7.559055 -0.000000 1 0 2158.110236,294.803150 z" style="stroke:#FF0000;fill:none"/><path d="M 226.771654,294.803150 A 7.559055,7.559055 -0.000000 1 0 211.653543,294.803150 7.559055,7.559055 -0.000000 1 0 226.771654,294.803150 z" style="stroke:#FF0000;fill:none"/><path d="M 1606.299213,294.803150 A 7.559055,7.559055 -0.000000 1 0 1591.181102,294.803150 7.559055,7.559055 -0.000000 1 0 1606.299213,294.803150 z" style="stroke:#FF0000;fill:none"/><path d="M 4641.259843,294.803150 A 7.559055,7.559055 -0.000000 1 0 4626.141732,294.803150 7.559055,7.559055 -0.000000 1 0 4641.259843,294.803150 z" style="stroke:#FF0000;fill:none"/><path d="M 502.677165,294.803150 A 7.559055,7.559055 -0.000000 1 0 487.559055,294.803150 7.559055,7.559055 -0.000000 1 0 502.677165,294.803150 z" style="stroke:#FF0000;fill:none"/><path d="M 4089.448819,294.803150 A 7.559055,7.559055 -0.000000 1 0 4074.330709,294.803150 7.559055,7.559055 -0.000000 1 0 4089.448819,294.803150 z" style="stroke:#FF0000;fill:none"/><path d="M 4365.354331,294.803150 A 7.559055,7.559055 -0.000000 1 0 4350.236220,294.803150 7.559055,7.559055 -0.000000 1 0 4365.354331,294.803150 z" style="stroke:#FF0000;fill:none"/><path d="M 3537.637795,294.803150 A 7.559055,7.559055 -0.000000 1 0 3522.519685,294.803150 7.559055,7.559055 -0.000000 1 0 3537.637795,294.803150 z" style="stroke:#FF0000;fill:none"/><path d="M 3813.543307,294.803150 A 7.559055,7.559055 -0.000000 1 0 3798.425197,294.803150 7.559055,7.559055 -0.000000 1 0 3813.543307,294.803150 z" style="stroke:#FF0000;fill:none"/><path d="M 2985.826772,294.803150 A 7.559055,7.559055 -0.000000 1 0 2970.708661,294.803150 7.559055,7.559055 -0.000000 1 0 2985.826772,294.803150 z" style="stroke:#FF0000;fill:none"/><path d="M 3261.732283,294.803150 A 7.559055,7.559055 -0.000000 1 0 3246.614173,294.803150 7.559055,7.559055 -0.000000 1 0 3261.732283,294.803150 z" style="stroke:#FF0000;fill:none"/><path d="M 2709.921260,18.897638 A 7.559055,7.559055 -0.000000 1 0 2694.803150,18.897638 7.559055,7.559055 -0.000000 1 0 2709.921260,18.897638 z" style="stroke:#FF0000;fill:none"/><path d="M 2985.826772,18.897638 A 7.559055,7.559055 -0.000000 1 0 2970.708661,18.897638 7.559055,7.559055 -0.000000 1 0 2985.826772,18.897638 z" style="stroke:#FF0000;fill:none"/><path d="M 1882.204724,18.897638 A 7.559055,7.559055 -0.000000 1 0 1867.086614,18.897638 7.559055,7.559055 -0.000000 1 0 1882.204724,18.897638 z" style="stroke:#FF0000;fill:none"/><path d="M 2158.110236,18.897638 A 7.559055,7.559055 -0.000000 1 0 2142.992126,18.897638 7.559055,7.559055 -0.000000 1 0 2158.110236,18.897638 z" style="stroke:#FF0000;fill:none"/><path d="M 1330.393701,18.897638 A 7.559055,7.559055 -0.000000 1 0 1315.275591,18.897638 7.559055,7.559055 -0.000000 1 0 1330.393701,18.897638 z" style="stroke:#FF0000;fill:none"/><path d="M 1606.299213,18.897638 A 7.559055,7.559055 -0.000000 1 0 1591.181102,18.897638 7.559055,7.559055 -0.000000 1 0 1606.299213,18.897638 z" style="stroke:#FF0000;fill:none"/><path d="M 778.582677,18.897638 A 7.559055,7.559055 -0.000000 1 0 763.464567,18.897638 7.559055,7.559055 -0.000000 1 0 778.582677,18.897638 z" style="stroke:#FF0000;fill:none"/><path d="M 502.677165,18.897638 A 7.559055,7.559055 -0.000000 1 0 487.559055,18.897638 7.559055,7.559055 -0.000000 1 0 502.677165,18.897638 z" style="stroke:#FF0000;fill:none"/><path d="M 1054.488189,18.897638 A 7.559055,7.559055 -0.000000 1 0 1039.370079,18.897638 7.559055,7.559055 -0.000000 1 0 1054.488189,18.897638 z" style="stroke:#FF0000;fill:none"/><path d="M 4365.354331,18.897638 A 7.559055,7.559055 -0.000000 1 0 4350.236220,18.897638 7.559055,7.559055 -0.000000 1 0 4365.354331,18.897638 z" style="stroke:#FF0000;fill:none"/><path d="M 4641.259843,18.897638 A 7.559055,7.559055 -0.000000 1 0 4626.141732,18.897638 7.559055,7.559055 -0.000000 1 0 4641.259843,18.897638 z" style="stroke:#FF0000;fill:none"/><path d="M 3813.543307,18.897638 A 7.559055,7.559055 -0.000000 1 0 3798.425197,18.897638 7.559055,7.559055 -0.000000 1 0 3813.543307,18.897638 z" style="stroke:#FF0000;fill:none"/><path d="M 4089.448819,18.897638 A 7.559055,7.559055 -0.000000 1 0 4074.330709,18.897638 7.559055,7.559055 -0.000000 1 0 4089.448819,18.897638 z" style="stroke:#FF0000;fill:none"/><path d="M 3261.732283,18.897638 A 7.559055,7.559055 -0.000000 1 0 3246.614173,18.897638 7.559055,7.559055 -0.000000 1 0 3261.732283,18.897638 z" style="stroke:#FF0000;fill:none"/><path d="M 3537.637795,18.897638 A 7.559055,7.559055 -0.000000 1 0 3522.519685,18.897638 7.559055,7.559055 -0.000000 1 0 3537.637795,18.897638 z" style="stroke:#FF0000;fill:none"/><path d="M 2985.826772,-257.007874 A 7.559055,7.559055 -0.000000 1 0 2970.708661,-257.007874 7.559055,7.559055 -0.000000 1 0 2985.826772,-257.007874 z" style="stroke:#FF0000;fill:none"/><path d="M 3261.732283,-257.007874 A 7.559055,7.559055 -0.000000 1 0 3246.614173,-257.007874 7.559055,7.559055 -0.000000 1 0 3261.732283,-257.007874 z" style="stroke:#FF0000;fill:none"/><path d="M 1882.204724,-257.007874 A 7.559055,7.559055 -0.000000 1 0 1867.086614,-257.007874 7.559055,7.559055 -0.000000 1 0 1882.204724,-257.007874 z" style="stroke:#FF0000;fill:none"/><path d="M 2709.921260,-257.007874 A 7.559055,7.559055 -0.000000 1 0 2694.803150,-257.007874 7.559055,7.559055 -0.000000 1 0 2709.921260,-257.007874 z" style="stroke:#FF0000;fill:none"/><path d="M 1330.393701,-257.007874 A 7.559055,7.559055 -0.000000 1 0 1315.275591,-257.007874 7.559055,7.559055 -0.000000 1 0 1330.393701,-257.007874 z" style="stroke:#FF0000;fill:none"/><path d="M 778.582677,-257.007874 A 7.559055,7.559055 -0.000000 1 0 763.464567,-257.007874 7.559055,7.559055 -0.000000 1 0 778.582677,-257.007874 z" style="stroke:#FF0000;fill:none"/><path d="M 2158.110236,-257.007874 A 7.559055,7.559055 -0.000000 1 0 2142.992126,-257.007874 7.559055,7.559055 -0.000000 1 0 2158.110236,-257.007874 z" style="stroke:#FF0000;fill:none"/><path d="M 1054.488189,-257.007874 A 7.559055,7.559055 -0.000000 1 0 1039.370079,-257.007874 7.559055,7.559055 -0.000000 1 0 1054.488189,-257.007874 z" style="stroke:#FF0000;fill:none"/><path d="M 226.771654,18.897638 A 7.559055,7.559055 -0.000000 1 0 211.653543,18.897638 7.559055,7.559055 -0.000000 1 0 226.771654,18.897638 z" style="stroke:#FF0000;fill:none"/><path d="M 4641.259843,-257.007874 A 7.559055,7.559055 -0.000000 1 0 4626.141732,-257.007874 7.559055,7.559055 -0.000000 1 0 4641.259843,-257.007874 z" style="stroke:#FF0000;fill:none"/><path d="M 502.677165,-257.007874 A 7.559055,7.559055 -0.000000 1 0 487.559055,-257.007874 7.559055,7.559055 -0.000000 1 0 502.677165,-257.007874 z" style="stroke:#FF0000;fill:none"/><path d="M 4089.448819,-257.007874 A 7.559055,7.559055 -0.000000 1 0 4074.330709,-257.007874 7.559055,7.559055 -0.000000 1 0 4089.448819,-257.007874 z" style="stroke:#FF0000;fill:none"/><path d="M 4365.354331,-257.007874 A 7.559055,7.559055 -0.000000 1 0 4350.236220,-257.007874 7.559055,7.559055 -0.000000 1 0 4365.354331,-257.007874 z" style="stroke:#FF0000;fill:none"/><path d="M 3537.637795,-257.007874 A 7.559055,7.559055 -0.000000 1 0 3522.519685,-257.007874 7.559055,7.559055 -0.000000 1 0 3537.637795,-257.007874 z" style="stroke:#FF0000;fill:none"/><path d="M 3813.543307,-257.007874 A 7.559055,7.559055 -0.000000 1 0 3798.425197,-257.007874 7.559055,7.559055 -0.000000 1 0 3813.543307,-257.007874 z" style="stroke:#FF0000;fill:none"/><path d="M 3261.732283,-532.913386 A 7.559055,7.559055 -0.000000 1 0 3246.614173,-532.913386 7.559055,7.559055 -0.000000 1 0 3261.732283,-532.913386 z" style="stroke:#FF0000;fill:none"/><path d="M 3537.637795,-532.913386 A 7.559055,7.559055 -0.000000 1 0 3522.519685,-532.913386 7.559055,7.559055 -0.000000 1 0 3537.637795,-532.913386 z" style="stroke:#FF0000;fill:none"/><path d="M 2709.921260,-532.913386 A 7.559055,7.559055 -0.000000 1 0 2694.803150,-532.913386 7.559055,7.559055 -0.000000 1 0 2709.921260,-532.913386 z" style="stroke:#FF0000;fill:none"/><path d="M 2985.826772,-532.913386 A 7.559055,7.559055 -0.000000 1 0 2970.708661,-532.913386 7.559055,7.559055 -0.000000 1 0 2985.826772,-532.913386 z" style="stroke:#FF0000;fill:none"/><path d="M 1882.204724,-532.913386 A 7.559055,7.559055 -0.000000 1 0 1867.086614,-532.913386 7.559055,7.559055 -0.000000 1 0 1882.204724,-532.913386 z" style="stroke:#FF0000;fill:none"/><path d="M 2158.110236,-532.913386 A 7.559055,7.559055 -0.000000 1 0 2142.992126,-532.913386 7.559055,7.559055 -0.000000 1 0 2158.110236,-532.913386 z" style="stroke:#FF0000;fill:none"/><path d="M 1330.393701,-532.913386 A 7.559055,7.559055 -0.000000 1 0 1315.275591,-532.913386 7.559055,7.559055 -0.000000 1 0 1330.393701,-532.913386 z" style="stroke:#FF0000;fill:none"/><path d="M 226.771654,-257.007874 A 7.559055,7.559055 -0.000000 1 0 211.653543,-257.007874 7.559055,7.559055 -0.000000 1 0 226.771654,-257.007874 z" style="stroke:#FF0000;fill:none"/><path d="M 1606.299213,-257.007874 A 7.559055,7.559055 -0.000000 1 0 1591.181102,-257.007874 7.559055,7.559055 -0.000000 1 0 1606.299213,-257.007874 z" style="stroke:#FF0000;fill:none"/><path d="M 502.677165,-532.913386 A 7.559055,7.559055 -0.000000 1 0 487.559055,-532.913386 7.559055,7.559055 -0.000000 1 0 502.677165,-532.913386 z" style="stroke:#FF0000;fill:none"/><path d="M 1054.488189,-532.913386 A 7.559055,7.559055 -0.000000 1 0 1039.370079,-532.913386 7.559055,7.559055 -0.000000 1 0 1054.488189,-532.913386 z" style="stroke:#FF0000;fill:none"/><path d="M 4365.354331,-532.913386 A 7.559055,7.559055 -0.000000 1 0 4350.236220,-532.913386 7.559055,7.559055 -0.000000 1 0 4365.354331,-532.913386 z" style="stroke:#FF0000;fill:none"/><path d="M 4641.259843,-532.913386 A 7.559055,7.559055 -0.000000 1 0 4626.141732,-532.913386 7.559055,7.559055 -0.000000 1 0 4641.259843,-532.913386 z" style="stroke:#FF0000;fill:none"/><path d="M 3813.543307,-532.913386 A 7.559055,7.559055 -0.000000 1 0 3798.425197,-532.913386 7.559055,7.559055 -0.000000 1 0 3813.543307,-532.913386 z" style="stroke:#FF0000;fill:none"/><path d="M 4089.448819,-532.913386 A 7.559055,7.559055 -0.000000 1 0 4074.330709,-532.913386 7.559055,7.559055 -0.000000 1 0 4089.448819,-532.913386 z" style="stroke:#FF0000;fill:none"/><path d="M 3537.637795,-808.818898 A 7.559055,7.559055 -0.000000 1 0 3522.519685,-808.818898 7.559055,7.559055 -0.000000 1 0 3537.637795,-808.818898 z" style="stroke:#FF0000;fill:none"/><path d="M 3813.543307,-808.818898 A 7.559055,7.559055 -0.000000 1 0 3798.425197,-808.818898 7.559055,7.559055 -0.000000 1 0 3813.543307,-808.818898 z" style="stroke:#FF0000;fill:none"/><path d="M 2985.826772,-808.818898 A 7.559055,7.559055 -0.000000 1 0 2970.708661,-808.818898 7.559055,7.559055 -0.000000 1 0 2985.826772,-808.818898 z" style="stroke:#FF0000;fill:none"/><path d="M 3261.732283,-808.818898 A 7.559055,7.559055 -0.000000 1 0 3246.614173,-808.818898 7.559055,7.559055 -0.000000 1 0 3261.732283,-808.818898 z" style="stroke:#FF0000;fill:none"/><path d="M 1882.204724,-808.818898 A 7.559055,7.559055 -0.000000 1 0 1867.086614,-808.818898 7.559055,7.559055 -0.000000 1 0 1882.204724,-808.818898 z" style="stroke:#FF0000;fill:none"/><path d="M 2709.921260,-808.818898 A 7.559055,7.559055 -0.000000 1 0 2694.803150,-808.818898 7.559055,7.559055 -0.000000 1 0 2709.921260,-808.818898 z" style="stroke:#FF0000;fill:none"/><path d="M 1330.393701,-808.818898 A 7.559055,7.559055 -0.000000 1 0 1315.275591,-808.818898 7.559055,7.559055 -0.000000 1 0 1330.393701,-808.818898 z" style="stroke:#FF0000;fill:none"/><path d="M 1606.299213,-532.913386 A 7.559055,7.559055 -0.000000 1 0 1591.181102,-532.913386 7.559055,7.559055 -0.000000 1 0 1606.299213,-532.913386 z" style="stroke:#FF0000;fill:none"/><path d="M 778.582677,-532.913386 A 7.559055,7.559055 -0.000000 1 0 763.464567,-532.913386 7.559055,7.559055 -0.000000 1 0 778.582677,-532.913386 z" style="stroke:#FF0000;fill:none"/><path d="M 1054.488189,-808.818898 A 7.559055,7.559055 -0.000000 1 0 1039.370079,-808.818898 7.559055,7.559055 -0.000000 1 0 1054.488189,-808.818898 z" style="stroke:#FF0000;fill:none"/><path d="M 226.771654,-532.913386 A 7.559055,7.559055 -0.000000 1 0 211.653543,-532.913386 7.559055,7.559055 -0.000000 1 0 226.771654,-532.913386 z" style="stroke:#FF0000;fill:none"/><path d="M 4641.259843,-808.818898 A 7.559055,7.559055 -0.000000 1 0 4626.141732,-808.818898 7.559055,7.559055 -0.000000 1 0 4641.259843,-808.818898 z" style="stroke:#FF0000;fill:none"/><path d="M 502.677165,-808.818898 A 7.559055,7.559055 -0.000000 1 0 487.559055,-808.818898 7.559055,7.559055 -0.000000 1 0 502.677165,-808.818898 z" style="stroke:#FF0000;fill:none"/><path d="M 4089.448819,-808.818898 A 7.559055,7.559055 -0.000000 1 0 4074.330709,-808.818898 7.559055,7.559055 -0.000000 1 0 4089.448819,-808.818898 z" style="stroke:#FF0000;fill:none"/><path d="M 4365.354331,-808.818898 A 7.559055,7.559055 -0.000000 1 0 4350.236220,-808.818898 7.559055,7.559055 -0.000000 1 0 4365.354331,-808.818898 z" style="stroke:#FF0000;fill:none"/><path d="M 3813.543307,-1084.724409 A 7.559055,7.559055 -0.000000 1 0 3798.425197,-1084.724409 7.559055,7.559055 -0.000000 1 0 3813.543307,-1084.724409 z" style="stroke:#FF0000;fill:none"/><path d="M 4089.448819,-1084.724409 A 7.559055,7.559055 -0.000000 1 0 4074.330709,-1084.724409 7.559055,7.559055 -0.000000 1 0 4089.448819,-1084.724409 z" style="stroke:#FF0000;fill:none"/><path d="M 3261.732283,-1084.724409 A 7.559055,7.559055 -0.000000 1 0 3246.614173,-1084.724409 7.559055,7.559055 -0.000000 1 0 3261.732283,-1084.724409 z" style="stroke:#FF0000;fill:none"/><path d="M 3537.637795,-1084.724409 A 7.559055,7.559055 -0.000000 1 0 3522.519685,-1084.724409 7.559055,7.559055 -0.000000 1 0 3537.637795,-1084.724409 z" style="stroke:#FF0000;fill:none"/><path d="M 2709.921260,-1084.724409 A 7.559055,7.559055 -0.000000 1 0 2694.803150,-1084.724409 7.559055,7.559055 -0.000000 1 0 2709.921260,-1084.724409 z" style="stroke:#FF0000;fill:none"/><path d="M 2985.826772,-1084.724409 A 7.559055,7.559055 -0.000000 1 0 2970.708661,-1084.724409 7.559055,7.559055 -0.000000 1 0 2985.826772,-1084.724409 z" style="stroke:#FF0000;fill:none"/><path d="M 1882.204724,-1084.724409 A 7.559055,7.559055 -0.000000 1 0 1867.086614,-1084.724409 7.559055,7.559055 -0.000000 1 0 1882.204724,-1084.724409 z" style="stroke:#FF0000;fill:none"/><path d="M 778.582677,-808.818898 A 7.559055,7.559055 -0.000000 1 0 763.464567,-808.818898 7.559055,7.559055 -0.000000 1 0 778.582677,-808.818898 z" style="stroke:#FF0000;fill:none"/><path d="M 2158.110236,-808.818898 A 7.559055,7.559055 -0.000000 1 0 2142.992126,-808.818898 7.559055,7.559055 -0.000000 1 0 2158.110236,-808.818898 z" style="stroke:#FF0000;fill:none"/><path d="M 226.771654,-808.818898 A 7.559055,7.559055 -0.000000 1 0 211.653543,-808.818898 7.559055,7.559055 -0.000000 1 0 226.771654,-808.818898 z" style="stroke:#FF0000;fill:none"/><path d="M 1606.299213,-808.818898 A 7.559055,7.559055 -0.000000 1 0 1591.181102,-808.818898 7.559055,7.559055 -0.000000 1 0 1606.299213,-808.818898 z" style="stroke:#FF0000;fill:none"/><path d="M 502.677165,-1084.724409 A 7.559055,7.559055 -0.000000 1 0 487.559055,-1084.724409 7.559055,7.559055 -0.000000 1 0 502.677165,-1084.724409 z" style="stroke:#FF0000;fill:none"/><path d="M 1054.488189,-1084.724409 A 7.559055,7.559055 -0.000000 1 0 1039.370079,-1084.724409 7.559055,7.559055 -0.000000 1 0 1054.488189,-1084.724409 z" style="stroke:#FF0000;fill:none"/><path d="M 4365.354331,-1084.724409 A 7.559055,7.559055 -0.000000 1 0 4350.236220,-1084.724409 7.559055,7.559055 -0.000000 1 0 4365.354331,-1084.724409 z" style="stroke:#FF0000;fill:none"/><path d="M 4641.259843,-1084.724409 A 7.559055,7.559055 -0.000000 1 0 4626.141732,-1084.724409 7.559055,7.559055 -0.000000 1 0 4641.259843,-1084.724409 z" style="stroke:#FF0000;fill:none"/><path d="M 4089.448819,-1360.629921 A 7.559055,7.559055 -0.000000 1 0 4074.330709,-1360.629921 7.559055,7.559055 -0.000000 1 0 4089.448819,-1360.629921 z" style="stroke:#FF0000;fill:none"/><path d="M 4365.354331,-1360.629921 A 7.559055,7.559055 -0.000000 1 0 4350.236220,-1360.629921 7.559055,7.559055 -0.000000 1 0 4365.354331,-1360.629921 z" style="stroke:#FF0000;fill:none"/><path d="M 3537.637795,-1360.629921 A 7.559055,7.559055 -0.000000 1 0 3522.519685,-1360.629921 7.559055,7.559055 -0.000000 1 0 3537.637795,-1360.629921 z" style="stroke:#FF0000;fill:none"/><path d="M 3813.543307,-1360.629921 A 7.559055,7.559055 -0.000000 1 0 3798.425197,-1360.629921 7.559055,7.559055 -0.000000 1 0 3813.543307,-1360.629921 z" style="stroke:#FF0000;fill:none"/><path d="M 2985.826772,-1360.629921 A 7.559055,7.559055 -0.000000 1 0 2970.708661,-1360.629921 7.559055,7.559055 -0.000000 1 0 2985.826772,-1360.629921 z" style="stroke:#FF0000;fill:none"/><path d="M 3261.732283,-1360.629921 A 7.559055,7.559055 -0.000000 1 0 3246.614173,-1360.629921 7.559055,7.559055 -0.000000 1 0 3261.732283,-1360.629921 z" style="stroke:#FF0000;fill:none"/><path d="M 1882.204724,-1360.629921 A 7.559055,7.559055 -0.000000 1 0 1867.086614,-1360.629921 7.559055,7.559055 -0.000000 1 0 1882.204724,-1360.629921 z" style="stroke:#FF0000;fill:none"/><path d="M 2709.921260,-1360.629921 A 7.559055,7.559055 -0.000000 1 0 2694.803150,-1360.629921 7.559055,7.559055 -0.000000 1 0 2709.921260,-1360.629921 z" style="stroke:#FF0000;fill:none"/><path d="M 2158.110236,-1084.724409 A 7.559055,7.559055 -0.000000 1 0 2142.992126,-1084.724409 7.559055,7.559055 -0.000000 1 0 2158.110236,-1084.724409 z" style="stroke:#FF0000;fill:none"/><path d="M 1330.393701,-1084.724409 A 7.559055,7.559055 -0.000000 1 0 1315.275591,-1084.724409 7.559055,7.559055 -0.000000 1 0 1330.393701,-1084.724409 z" style="stroke:#FF0000;fill:none"/><path d="M 1606.299213,-1084.724409 A 7.559055,7.559055 -0.000000 1 0 1591.181102,-1084.724409 7.559055,7.559055 -0.000000 1 0 1606.299213,-1084.724409 z" style="stroke:#FF0000;fill:none"/><path d="M 778.582677,-1084.724409 A 7.559055,7.559055 -0.000000 1 0 763.464567,-1084.724409 7.559055,7.559055 -0.000000 1 0 778.582677,-1084.724409 z" style="stroke:#FF0000;fill:none"/><path d="M 1054.488189,-1360.629921 A 7.559055,7.559055 -0.000000 1 0 1039.370079,-1360.629921 7.559055,7.559055 -0.000000 1 0 1054.488189,-1360.629921 z" style="stroke:#FF0000;fill:none"/><path d="M 226.771654,-1084.724409 A 7.559055,7.559055 -0.000000 1 0 211.653543,-1084.724409 7.559055,7.559055 -0.000000 1 0 226.771654,-1084.724409 z" style="stroke:#FF0000;fill:none"/><path d="M 4641.259843,-1360.629921 A 7.559055,7.559055 -0.000000 1 0 4626.141732,-1360.629921 7.559055,7.559055 -0.000000 1 0 4641.259843,-1360.629921 z" style="stroke:#FF0000;fill:none"/><path d="M 502.677165,-1360.629921 A 7.559055,7.559055 -0.000000 1 0 487.559055,-1360.629921 7.559055,7.559055 -0.000000 1 0 502.677165,-1360.629921 z" style="stroke:#FF0000;fill:none"/><path d="M 4365.354331,-1636.535433 A 7.559055,7.559055 -0.000000 1 0 4350.236220,-1636.535433 7.559055,7.559055 -0.000000 1 0 4365.354331,-1636.535433 z" style="stroke:#FF0000;fill:none"/><path d="M 4641.259843,-1636.535433 A 7.559055,7.559055 -0.000000 1 0 4626.141732,-1636.535433 7.559055,7.559055 -0.000000 1 0 4641.259843,-1636.535433 z" style="stroke:#FF0000;fill:none"/><path d="M 3813.543307,-1636.535433 A 7.559055,7.559055 -0.000000 1 0 3798.425197,-1636.535433 7.559055,7.559055 -0.000000 1 0 3813.543307,-1636.535433 z" style="stroke:#FF0000;fill:none"/><path d="M 4089.448819,-1636.535433 A 7.559055,7.559055 -0.000000 1 0 4074.330709,-1636.535433 7.559055,7.559055 -0.000000 1 0 4089.448819,-1636.535433 z" style="stroke:#FF0000;fill:none"/><path d="M 3261.732283,-1636.535433 A 7.559055,7.559055 -0.000000 1 0 3246.614173,-1636.535433 7.559055,7.559055 -0.000000 1 0 3261.732283,-1636.535433 z" style="stroke:#FF0000;fill:none"/><path d="M 3537.637795,-1636.535433 A 7.559055,7.559055 -0.000000 1 0 3522.519685,-1636.535433 7.559055,7.559055 -0.000000 1 0 3537.637795,-1636.535433 z" style="stroke:#FF0000;fill:none"/><path d="M 2709.921260,-1636.535433 A 7.559055,7.559055 -0.000000 1 0 2694.803150,-1636.535433 7.559055,7.559055 -0.000000 1 0 2709.921260,-1636.535433 z" style="stroke:#FF0000;fill:none"/><path d="M 2985.826772,-1636.535433 A 7.559055,7.559055 -0.000000 1 0 2970.708661,-1636.535433 7.559055,7.559055 -0.000000 1 0 2985.826772,-1636.535433 z" style="stroke:#FF0000;fill:none"/><path d="M 1330.393701,-1360.629921 A 7.559055,7.559055 -0.000000 1 0 1315.275591,-1360.629921 7.559055,7.559055 -0.000000 1 0 1330.393701,-1360.629921 z" style="stroke:#FF0000;fill:none"/><path d="M 778.582677,-1360.629921 A 7.559055,7.559055 -0.000000 1 0 763.464567,-1360.629921 7.559055,7.559055 -0.000000 1 0 778.582677,-1360.629921 z" style="stroke:#FF0000;fill:none"/><path d="M 2158.110236,-1360.629921 A 7.559055,7.559055 -0.000000 1 0 2142.992126,-1360.629921 7.559055,7.559055 -0.000000 1 0 2158.110236,-1360.629921 z" style="stroke:#FF0000;fill:none"/><path d="M 226.771654,-1360.629921 A 7.559055,7.559055 -0.000000 1 0 211.653543,-1360.629921 7.559055,7.559055 -0.000000 1 0 226.771654,-1360.629921 z" style="stroke:#FF0000;fill:none"/><path d="M 1606.299213,-1360.629921 A 7.559055,7.559055 -0.000000 1 0 1591.181102,-1360.629921 7.559055,7.559055 -0.000000 1 0 1606.299213,-1360.629921 z" style="stroke:#FF0000;fill:none"/><path d="M 502.677165,-1636.535433 A 7.559055,7.559055 -0.000000 1 0 487.559055,-1636.535433 7.559055,7.559055 -0.000000 1 0 502.677165,-1636.535433 z" style="stroke:#FF0000;fill:none"/><path d="M 1054.488189,-1636.535433 A 7.559055,7.559055 -0.000000 1 0 1039.370079,-1636.535433 7.559055,7.559055 -0.000000 1 0 1054.488189,-1636.535433 z" style="stroke:#FF0000;fill:none"/><path d="M 4641.259843,-1912.440945 A 7.559055,7.559055 -0.000000 1 0 4626.141732,-1912.440945 7.559055,7.559055 -0.000000 1 0 4641.259843,-1912.440945 z" style="stroke:#FF0000;fill:none"/><path d="M 502.677165,-1912.440945 A 7.559055,7.559055 -0.000000 1 0 487.559055,-1912.440945 7.559055,7.559055 -0.000000 1 0 502.677165,-1912.440945 z" style="stroke:#FF0000;fill:none"/><path d="M 4089.448819,-1912.440945 A 7.559055,7.559055 -0.000000 1 0 4074.330709,-1912.440945 7.559055,7.559055 -0.000000 1 0 4089.448819,-1912.440945 z" style="stroke:#FF0000;fill:none"/><path d="M 4365.354331,-1912.440945 A 7.559055,7.559055 -0.000000 1 0 4350.236220,-1912.440945 7.559055,7.559055 -0.000000 1 0 4365.354331,-1912.440945 z" style="stroke:#FF0000;fill:none"/><path d="M 3537.637795,-1912.440945 A 7.559055,7.559055 -0.000000 1 0 3522.519685,-1912.440945 7.559055,7.559055 -0.000000 1 0 3537.637795,-1912.440945 z" style="stroke:#FF0000;fill:none"/><path d="M 3813.543307,-1912.440945 A 7.559055,7.559055 -0.000000 1 0 3798.425197,-1912.440945 7.559055,7.559055 -0.000000 1 0 3813.543307,-1912.440945 z" style="stroke:#FF0000;fill:none"/><path d="M 2985.826772,-1912.440945 A 7.559055,7.559055 -0.000000 1 0 2970.708661,-1912.440945 7.559055,7.559055 -0.000000 1 0 2985.826772,-1912.440945 z" style="stroke:#FF0000;fill:none"/><path d="M 3261.732283,-1912.440945 A 7.559055,7.559055 -0.000000 1 0 3246.614173,-1912.440945 7.559055,7.559055 -0.000000 1 0 3261.732283,-1912.440945 z" style="stroke:#FF0000;fill:none"/><path d="M 1882.204724,-1636.535433 A 7.559055,7.559055 -0.000000 1 0 1867.086614,-1636.535433 7.559055,7.559055 -0.000000 1 0 1882.204724,-1636.535433 z" style="stroke:#FF0000;fill:none"/><path d="M 2158.110236,-1636.535433 A 7.559055,7.559055 -0.000000 1 0 2142.992126,-1636.535433 7.559055,7.559055 -0.000000 1 0 2158.110236,-1636.535433 z" style="stroke:#FF0000;fill:none"/><path d="M 1330.393701,-1636.535433 A 7.559055,7.559055 -0.000000 1 0 1315.275591,-1636.535433 7.559055,7.559055 -0.000000 1 0 1330.393701,-1636.535433 z" style="stroke:#FF0000;fill:none"/><path d="M 1606.299213,-1636.535433 A 7.559055,7.559055 -0.000000 1 0 1591.181102,-1636.535433 7.559055,7.559055 -0.000000 1 0 1606.299213,-1636.535433 z" style="stroke:#FF0000;fill:none"/><path d="M 778.582677,-1636.535433 A 7.559055,7.559055 -0.000000 1 0 763.464567,-1636.535433 7.559055,7.559055 -0.000000 1 0 778.582677,-1636.535433 z" style="stroke:#FF0000;fill:none"/><path d="M 1054.488189,-1912.440945 A 7.559055,7.559055 -0.000000 1 0 1039.370079,-1912.440945 7.559055,7.559055 -0.000000 1 0 1054.488189,-1912.440945 z" style="stroke:#FF0000;fill:none"/><path d="M 226.771654,-1636.535433 A 7.559055,7.559055 -0.000000 1 0 211.653543,-1636.535433 7.559055,7.559055 -0.000000 1 0 226.771654,-1636.535433 z" style="stroke:#FF0000;fill:none"/><path d="M 4365.354331,-5223.307087 A 7.559055,7.559055 -0.000000 1 0 4350.236220,-5223.307087 7.559055,7.559055 -0.000000 1 0 4365.354331,-5223.307087 z" style="stroke:#FF0000;fill:none"/><path d="M 502.677165,-5223.307087 A 7.559055,7.559055 -0.000000 1 0 487.559055,-5223.307087 7.559055,7.559055 -0.000000 1 0 502.677165,-5223.307087 z" style="stroke:#FF0000;fill:none"/><path d="M 1054.488189,-5223.307087 A 7.559055,7.559055 -0.000000 1 0 1039.370079,-5223.307087 7.559055,7.559055 -0.000000 1 0 1054.488189,-5223.307087 z" style="stroke:#FF0000;fill:none"/><path d="M 226.771654,-5223.307087 A 7.559055,7.559055 -0.000000 1 0 211.653543,-5223.307087 7.559055,7.559055 -0.000000 1 0 226.771654,-5223.307087 z" style="stroke:#FF0000;fill:none"/><path d="M 1606.299213,-5223.307087 A 7.559055,7.559055 -0.000000 1 0 1591.181102,-5223.307087 7.559055,7.559055 -0.000000 1 0 1606.299213,-5223.307087 z" style="stroke:#FF0000;fill:none"/><path d="M 778.582677,-5223.307087 A 7.559055,7.559055 -0.000000 1 0 763.464567,-5223.307087 7.559055,7.559055 -0.000000 1 0 778.582677,-5223.307087 z" style="stroke:#FF0000;fill:none"/><path d="M 2158.110236,-5223.307087 A 7.559055,7.559055 -0.000000 1 0 2142.992126,-5223.307087 7.559055,7.559055 -0.000000 1 0 2158.110236,-5223.307087 z" style="stroke:#FF0000;fill:none"/><path d="M 1330.393701,-5223.307087 A 7.559055,7.559055 -0.000000 1 0 1315.275591,-5223.307087 7.559055,7.559055 -0.000000 1 0 1330.393701,-5223.307087 z" style="stroke:#FF0000;fill:none"/><path d="M 1882.204724,-1912.440945 A 7.559055,7.559055 -0.000000 1 0 1867.086614,-1912.440945 7.559055,7.559055 -0.000000 1 0 1882.204724,-1912.440945 z" style="stroke:#FF0000;fill:none"/><path d="M 2709.921260,-1912.440945 A 7.559055,7.559055 -0.000000 1 0 2694.803150,-1912.440945 7.559055,7.559055 -0.000000 1 0 2709.921260,-1912.440945 z" style="stroke:#FF0000;fill:none"/><path d="M 1330.393701,-1912.440945 A 7.559055,7.559055 -0.000000 1 0 1315.275591,-1912.440945 7.559055,7.559055 -0.000000 1 0 1330.393701,-1912.440945 z" style="stroke:#FF0000;fill:none"/><path d="M 778.582677,-1912.440945 A 7.559055,7.559055 -0.000000 1 0 763.464567,-1912.440945 7.559055,7.559055 -0.000000 1 0 778.582677,-1912.440945 z" style="stroke:#FF0000;fill:none"/><path d="M 2158.110236,-1912.440945 A 7.559055,7.559055 -0.000000 1 0 2142.992126,-1912.440945 7.559055,7.559055 -0.000000 1 0 2158.110236,-1912.440945 z" style="stroke:#FF0000;fill:none"/><path d="M 226.771654,-1912.440945 A 7.559055,7.559055 -0.000000 1 0 211.653543,-1912.440945 7.559055,7.559055 -0.000000 1 0 226.771654,-1912.440945 z" style="stroke:#FF0000;fill:none"/><path d="M 1606.299213,-1912.440945 A 7.559055,7.559055 -0.000000 1 0 1591.181102,-1912.440945 7.559055,7.559055 -0.000000 1 0 1606.299213,-1912.440945 z" style="stroke:#FF0000;fill:none"/><path d="M 502.677165,-4947.401575 A 7.559055,7.559055 -0.000000 1 0 487.559055,-4947.401575 7.559055,7.559055 -0.000000 1 0 502.677165,-4947.401575 z" style="stroke:#FF0000;fill:none"/><path d="M 4641.259843,-5223.307087 A 7.559055,7.559055 -0.000000 1 0 4626.141732,-5223.307087 7.559055,7.559055 -0.000000 1 0 4641.259843,-5223.307087 z" style="stroke:#FF0000;fill:none"/><path d="M 226.771654,-4947.401575 A 7.559055,7.559055 -0.000000 1 0 211.653543,-4947.401575 7.559055,7.559055 -0.000000 1 0 226.771654,-4947.401575 z" style="stroke:#FF0000;fill:none"/><path d="M 4365.354331,-4947.401575 A 7.559055,7.559055 -0.000000 1 0 4350.236220,-4947.401575 7.559055,7.559055 -0.000000 1 0 4365.354331,-4947.401575 z" style="stroke:#FF0000;fill:none"/><path d="M 778.582677,-4947.401575 A 7.559055,7.559055 -0.000000 1 0 763.464567,-4947.401575 7.559055,7.559055 -0.000000 1 0 778.582677,-4947.401575 z" style="stroke:#FF0000;fill:none"/><path d="M 1054.488189,-4947.401575 A 7.559055,7.559055 -0.000000 1 0 1039.370079,-4947.401575 7.559055,7.559055 -0.000000 1 0 1054.488189,-4947.401575 z" style="stroke:#FF0000;fill:none"/><path d="M 1330.393701,-4947.401575 A 7.559055,7.559055 -0.000000 1 0 1315.275591,-4947.401575 7.559055,7.559055 -0.000000 1 0 1330.393701,-4947.401575 z" style="stroke:#FF0000;fill:none"/><path d="M 1606.299213,-4947.401575 A 7.559055,7.559055 -0.000000 1 0 1591.181102,-4947.401575 7.559055,7.559055 -0.000000 1 0 1606.299213,-4947.401575 z" style="stroke:#FF0000;fill:none"/><path d="M 1882.204724,-5223.307087 A 7.559055,7.559055 -0.000000 1 0 1867.086614,-5223.307087 7.559055,7.559055 -0.000000 1 0 1882.204724,-5223.307087 z" style="stroke:#FF0000;fill:none"/><path d="M 2709.921260,-5223.307087 A 7.559055,7.559055 -0.000000 1 0 2694.803150,-5223.307087 7.559055,7.559055 -0.000000 1 0 2709.921260,-5223.307087 z" style="stroke:#FF0000;fill:none"/><path d="M 2985.826772,-5223.307087 A 7.559055,7.559055 -0.000000 1 0 2970.708661,-5223.307087 7.559055,7.559055 -0.000000 1 0 2985.826772,-5223.307087 z" style="stroke:#FF0000;fill:none"/><path d="M 3261.732283,-5223.307087 A 7.559055,7.559055 -0.000000 1 0 3246.614173,-5223.307087 7.559055,7.559055 -0.000000 1 0 3261.732283,-5223.307087 z" style="stroke:#FF0000;fill:none"/><path d="M 3537.637795,-5223.307087 A 7.559055,7.559055 -0.000000 1 0 3522.519685,-5223.307087 7.559055,7.559055 -0.000000 1 0 3537.637795,-5223.307087 z" style="stroke:#FF0000;fill:none"/><path d="M 3813.543307,-5223.307087 A 7.559055,7.559055 -0.000000 1 0 3798.425197,-5223.307087 7.559055,7.559055 -0.000000 1 0 3813.543307,-5223.307087 z" style="stroke:#FF0000;fill:none"/><path d="M 4089.448819,-5223.307087 A 7.559055,7.559055 -0.000000 1 0 4074.330709,-5223.307087 7.559055,7.559055 -0.000000 1 0 4089.448819,-5223.307087 z" style="stroke:#FF0000;fill:none"/><path d="M 4641.259843,-4947.401575 A 7.559055,7.559055 -0.000000 1 0 4626.141732,-4947.401575 7.559055,7.559055 -0.000000 1 0 4641.259843,-4947.401575 z" style="stroke:#FF0000;fill:none"/><path d="M 3813.543307,-4947.401575 A 7.559055,7.559055 -0.000000 1 0 3798.425197,-4947.401575 7.559055,7.559055 -0.000000 1 0 3813.543307,-4947.401575 z" style="stroke:#FF0000;fill:none"/><path d="M 4365.354331,-4671.496063 A 7.559055,7.559055 -0.000000 1 0 4350.236220,-4671.496063 7.559055,7.559055 -0.000000 1 0 4365.354331,-4671.496063 z" style="stroke:#FF0000;fill:none"/><path d="M 502.677165,-4671.496063 A 7.559055,7.559055 -0.000000 1 0 487.559055,-4671.496063 7.559055,7.559055 -0.000000 1 0 502.677165,-4671.496063 z" style="stroke:#FF0000;fill:none"/><path d="M 1054.488189,-4671.496063 A 7.559055,7.559055 -0.000000 1 0 1039.370079,-4671.496063 7.559055,7.559055 -0.000000 1 0 1054.488189,-4671.496063 z" style="stroke:#FF0000;fill:none"/><path d="M 226.771654,-4671.496063 A 7.559055,7.559055 -0.000000 1 0 211.653543,-4671.496063 7.559055,7.559055 -0.000000 1 0 226.771654,-4671.496063 z" style="stroke:#FF0000;fill:none"/><path d="M 1606.299213,-4671.496063 A 7.559055,7.559055 -0.000000 1 0 1591.181102,-4671.496063 7.559055,7.559055 -0.000000 1 0 1606.299213,-4671.496063 z" style="stroke:#FF0000;fill:none"/><path d="M 778.582677,-4671.496063 A 7.559055,7.559055 -0.000000 1 0 763.464567,-4671.496063 7.559055,7.559055 -0.000000 1 0 778.582677,-4671.496063 z" style="stroke:#FF0000;fill:none"/><path d="M 1882.204724,-4947.401575 A 7.559055,7.559055 -0.000000 1 0 1867.086614,-4947.401575 7.559055,7.559055 -0.000000 1 0 1882.204724,-4947.401575 z" style="stroke:#FF0000;fill:none"/><path d="M 2158.110236,-4947.401575 A 7.559055,7.559055 -0.000000 1 0 2142.992126,-4947.401575 7.559055,7.559055 -0.000000 1 0 2158.110236,-4947.401575 z" style="stroke:#FF0000;fill:none"/><path d="M 2985.826772,-4947.401575 A 7.559055,7.559055 -0.000000 1 0 2970.708661,-4947.401575 7.559055,7.559055 -0.000000 1 0 2985.826772,-4947.401575 z" style="stroke:#FF0000;fill:none"/><path d="M 3537.637795,-4947.401575 A 7.559055,7.559055 -0.000000 1 0 3522.519685,-4947.401575 7.559055,7.559055 -0.000000 1 0 3537.637795,-4947.401575 z" style="stroke:#FF0000;fill:none"/><path d="M 2709.921260,-4947.401575 A 7.559055,7.559055 -0.000000 1 0 2694.803150,-4947.401575 7.559055,7.559055 -0.000000 1 0 2709.921260,-4947.401575 z" style="stroke:#FF0000;fill:none"/><path d="M 4089.448819,-4947.401575 A 7.559055,7.559055 -0.000000 1 0 4074.330709,-4947.401575 7.559055,7.559055 -0.000000 1 0 4089.448819,-4947.401575 z" style="stroke:#FF0000;fill:none"/><path d="M 3261.732283,-4947.401575 A 7.559055,7.559055 -0.000000 1 0 3246.614173,-4947.401575 7.559055,7.559055 -0.000000 1 0 3261.732283,-4947.401575 z" style="stroke:#FF0000;fill:none"/><path d="M 3813.543307,-4671.496063 A 7.559055,7.559055 -0.000000 1 0 3798.425197,-4671.496063 7.559055,7.559055 -0.000000 1 0 3813.543307,-4671.496063 z" style="stroke:#FF0000;fill:none"/><path d="M 4089.448819,-4671.496063 A 7.559055,7.559055 -0.000000 1 0 4074.330709,-4671.496063 7.559055,7.559055 -0.000000 1 0 4089.448819,-4671.496063 z" style="stroke:#FF0000;fill:none"/><path d="M 502.677165,-4395.590551 A 7.559055,7.559055 -0.000000 1 0 487.559055,-4395.590551 7.559055,7.559055 -0.000000 1 0 502.677165,-4395.590551 z" style="stroke:#FF0000;fill:none"/><path d="M 4641.259843,-4671.496063 A 7.559055,7.559055 -0.000000 1 0 4626.141732,-4671.496063 7.559055,7.559055 -0.000000 1 0 4641.259843,-4671.496063 z" style="stroke:#FF0000;fill:none"/><path d="M 226.771654,-4395.590551 A 7.559055,7.559055 -0.000000 1 0 211.653543,-4395.590551 7.559055,7.559055 -0.000000 1 0 226.771654,-4395.590551 z" style="stroke:#FF0000;fill:none"/><path d="M 4365.354331,-4395.590551 A 7.559055,7.559055 -0.000000 1 0 4350.236220,-4395.590551 7.559055,7.559055 -0.000000 1 0 4365.354331,-4395.590551 z" style="stroke:#FF0000;fill:none"/><path d="M 778.582677,-4395.590551 A 7.559055,7.559055 -0.000000 1 0 763.464567,-4395.590551 7.559055,7.559055 -0.000000 1 0 778.582677,-4395.590551 z" style="stroke:#FF0000;fill:none"/><path d="M 1054.488189,-4395.590551 A 7.559055,7.559055 -0.000000 1 0 1039.370079,-4395.590551 7.559055,7.559055 -0.000000 1 0 1054.488189,-4395.590551 z" style="stroke:#FF0000;fill:none"/><path d="M 2158.110236,-4671.496063 A 7.559055,7.559055 -0.000000 1 0 2142.992126,-4671.496063 7.559055,7.559055 -0.000000 1 0 2158.110236,-4671.496063 z" style="stroke:#FF0000;fill:none"/><path d="M 1330.393701,-4671.496063 A 7.559055,7.559055 -0.000000 1 0 1315.275591,-4671.496063 7.559055,7.559055 -0.000000 1 0 1330.393701,-4671.496063 z" style="stroke:#FF0000;fill:none"/><path d="M 1882.204724,-4671.496063 A 7.559055,7.559055 -0.000000 1 0 1867.086614,-4671.496063 7.559055,7.559055 -0.000000 1 0 1882.204724,-4671.496063 z" style="stroke:#FF0000;fill:none"/><path d="M 2709.921260,-4671.496063 A 7.559055,7.559055 -0.000000 1 0 2694.803150,-4671.496063 7.559055,7.559055 -0.000000 1 0 2709.921260,-4671.496063 z" style="stroke:#FF0000;fill:none"/><path d="M 2985.826772,-4671.496063 A 7.559055,7.559055 -0.000000 1 0 2970.708661,-4671.496063 7.559055,7.559055 -0.000000 1 0 2985.826772,-4671.496063 z" style="stroke:#FF0000;fill:none"/><path d="M 3261.732283,-4671.496063 A 7.559055,7.559055 -0.000000 1 0 3246.614173,-4671.496063 7.559055,7.559055 -0.000000 1 0 3261.732283,-4671.496063 z" style="stroke:#FF0000;fill:none"/><path d="M 3537.637795,-4671.496063 A 7.559055,7.559055 -0.000000 1 0 3522.519685,-4671.496063 7.559055,7.559055 -0.000000 1 0 3537.637795,-4671.496063 z" style="stroke:#FF0000;fill:none"/><path d="M 4089.448819,-4395.590551 A 7.559055,7.559055 -0.000000 1 0 4074.330709,-4395.590551 7.559055,7.559055 -0.000000 1 0 4089.448819,-4395.590551 z" style="stroke:#FF0000;fill:none"/><path d="M 3261.732283,-4395.590551 A 7.559055,7.559055 -0.000000 1 0 3246.614173,-4395.590551 7.559055,7.559055 -0.000000 1 0 3261.732283,-4395.590551 z" style="stroke:#FF0000;fill:none"/><path d="M 4641.259843,-4395.590551 A 7.559055,7.559055 -0.000000 1 0 4626.141732,-4395.590551 7.559055,7.559055 -0.000000 1 0 4641.259843,-4395.590551 z" style="stroke:#FF0000;fill:none"/><path d="M 3813.543307,-4395.590551 A 7.559055,7.559055 -0.000000 1 0 3798.425197,-4395.590551 7.559055,7.559055 -0.000000 1 0 3813.543307,-4395.590551 z" style="stroke:#FF0000;fill:none"/><path d="M 4365.354331,-4119.685039 A 7.559055,7.559055 -0.000000 1 0 4350.236220,-4119.685039 7.559055,7.559055 -0.000000 1 0 4365.354331,-4119.685039 z" style="stroke:#FF0000;fill:none"/><path d="M 502.677165,-4119.685039 A 7.559055,7.559055 -0.000000 1 0 487.559055,-4119.685039 7.559055,7.559055 -0.000000 1 0 502.677165,-4119.685039 z" style="stroke:#FF0000;fill:none"/><path d="M 1054.488189,-4119.685039 A 7.559055,7.559055 -0.000000 1 0 1039.370079,-4119.685039 7.559055,7.559055 -0.000000 1 0 1054.488189,-4119.685039 z" style="stroke:#FF0000;fill:none"/><path d="M 226.771654,-4119.685039 A 7.559055,7.559055 -0.000000 1 0 211.653543,-4119.685039 7.559055,7.559055 -0.000000 1 0 226.771654,-4119.685039 z" style="stroke:#FF0000;fill:none"/><path d="M 1330.393701,-4395.590551 A 7.559055,7.559055 -0.000000 1 0 1315.275591,-4395.590551 7.559055,7.559055 -0.000000 1 0 1330.393701,-4395.590551 z" style="stroke:#FF0000;fill:none"/><path d="M 1606.299213,-4395.590551 A 7.559055,7.559055 -0.000000 1 0 1591.181102,-4395.590551 7.559055,7.559055 -0.000000 1 0 1606.299213,-4395.590551 z" style="stroke:#FF0000;fill:none"/><path d="M 1882.204724,-4395.590551 A 7.559055,7.559055 -0.000000 1 0 1867.086614,-4395.590551 7.559055,7.559055 -0.000000 1 0 1882.204724,-4395.590551 z" style="stroke:#FF0000;fill:none"/><path d="M 2158.110236,-4395.590551 A 7.559055,7.559055 -0.000000 1 0 2142.992126,-4395.590551 7.559055,7.559055 -0.000000 1 0 2158.110236,-4395.590551 z" style="stroke:#FF0000;fill:none"/><path d="M 2985.826772,-4395.590551 A 7.559055,7.559055 -0.000000 1 0 2970.708661,-4395.590551 7.559055,7.559055 -0.000000 1 0 2985.826772,-4395.590551 z" style="stroke:#FF0000;fill:none"/><path d="M 3537.637795,-4395.590551 A 7.559055,7.559055 -0.000000 1 0 3522.519685,-4395.590551 7.559055,7.559055 -0.000000 1 0 3537.637795,-4395.590551 z" style="stroke:#FF0000;fill:none"/><path d="M 2709.921260,-4395.590551 A 7.559055,7.559055 -0.000000 1 0 2694.803150,-4395.590551 7.559055,7.559055 -0.000000 1 0 2709.921260,-4395.590551 z" style="stroke:#FF0000;fill:none"/><path d="M 3261.732283,-4119.685039 A 7.559055,7.559055 -0.000000 1 0 3246.614173,-4119.685039 7.559055,7.559055 -0.000000 1 0 3261.732283,-4119.685039 z" style="stroke:#FF0000;fill:none"/><path d="M 3537.637795,-4119.685039 A 7.559055,7.559055 -0.000000 1 0 3522.519685,-4119.685039 7.559055,7.559055 -0.000000 1 0 3537.637795,-4119.685039 z" style="stroke:#FF0000;fill:none"/><path d="M 3813.543307,-4119.685039 A 7.559055,7.559055 -0.000000 1 0 3798.425197,-4119.685039 7.559055,7.559055 -0.000000 1 0 3813.543307,-4119.685039 z" style="stroke:#FF0000;fill:none"/><path d="M 4089.448819,-4119.685039 A 7.559055,7.559055 -0.000000 1 0 4074.330709,-4119.685039 7.559055,7.559055 -0.000000 1 0 4089.448819,-4119.685039 z" style="stroke:#FF0000;fill:none"/><path d="M 502.677165,-3843.779528 A 7.559055,7.559055 -0.000000 1 0 487.559055,-3843.779528 7.559055,7.559055 -0.000000 1 0 502.677165,-3843.779528 z" style="stroke:#FF0000;fill:none"/><path d="M 4641.259843,-4119.685039 A 7.559055,7.559055 -0.000000 1 0 4626.141732,-4119.685039 7.559055,7.559055 -0.000000 1 0 4641.259843,-4119.685039 z" style="stroke:#FF0000;fill:none"/><path d="M 226.771654,-3843.779528 A 7.559055,7.559055 -0.000000 1 0 211.653543,-3843.779528 7.559055,7.559055 -0.000000 1 0 226.771654,-3843.779528 z" style="stroke:#FF0000;fill:none"/><path d="M 4365.354331,-3843.779528 A 7.559055,7.559055 -0.000000 1 0 4350.236220,-3843.779528 7.559055,7.559055 -0.000000 1 0 4365.354331,-3843.779528 z" style="stroke:#FF0000;fill:none"/><path d="M 1606.299213,-4119.685039 A 7.559055,7.559055 -0.000000 1 0 1591.181102,-4119.685039 7.559055,7.559055 -0.000000 1 0 1606.299213,-4119.685039 z" style="stroke:#FF0000;fill:none"/><path d="M 778.582677,-4119.685039 A 7.559055,7.559055 -0.000000 1 0 763.464567,-4119.685039 7.559055,7.559055 -0.000000 1 0 778.582677,-4119.685039 z" style="stroke:#FF0000;fill:none"/><path d="M 2158.110236,-4119.685039 A 7.559055,7.559055 -0.000000 1 0 2142.992126,-4119.685039 7.559055,7.559055 -0.000000 1 0 2158.110236,-4119.685039 z" style="stroke:#FF0000;fill:none"/><path d="M 1330.393701,-4119.685039 A 7.559055,7.559055 -0.000000 1 0 1315.275591,-4119.685039 7.559055,7.559055 -0.000000 1 0 1330.393701,-4119.685039 z" style="stroke:#FF0000;fill:none"/><path d="M 1882.204724,-4119.685039 A 7.559055,7.559055 -0.000000 1 0 1867.086614,-4119.685039 7.559055,7.559055 -0.000000 1 0 1882.204724,-4119.685039 z" style="stroke:#FF0000;fill:none"/><path d="M 2709.921260,-4119.685039 A 7.559055,7.559055 -0.000000 1 0 2694.803150,-4119.685039 7.559055,7.559055 -0.000000 1 0 2709.921260,-4119.685039 z" style="stroke:#FF0000;fill:none"/><path d="M 2985.826772,-4119.685039 A 7.559055,7.559055 -0.000000 1 0 2970.708661,-4119.685039 7.559055,7.559055 -0.000000 1 0 2985.826772,-4119.685039 z" style="stroke:#FF0000;fill:none"/><path d="M 3537.637795,-3843.779528 A 7.559055,7.559055 -0.000000 1 0 3522.519685,-3843.779528 7.559055,7.559055 -0.000000 1 0 3537.637795,-3843.779528 z" style="stroke:#FF0000;fill:none"/><path d="M 2709.921260,-3843.779528 A 7.559055,7.559055 -0.000000 1 0 2694.803150,-3843.779528 7.559055,7.559055 -0.000000 1 0 2709.921260,-3843.779528 z" style="stroke:#FF0000;fill:none"/><path d="M 4089.448819,-3843.779528 A 7.559055,7.559055 -0.000000 1 0 4074.330709,-3843.779528 7.559055,7.559055 -0.000000 1 0 4089.448819,-3843.779528 z" style="stroke:#FF0000;fill:none"/><path d="M 3261.732283,-3843.779528 A 7.559055,7.559055 -0.000000 1 0 3246.614173,-3843.779528 7.559055,7.559055 -0.000000 1 0 3261.732283,-3843.779528 z" style="stroke:#FF0000;fill:none"/><path d="M 4641.259843,-3843.779528 A 7.559055,7.559055 -0.000000 1 0 4626.141732,-3843.779528 7.559055,7.559055 -0.000000 1 0 4641.259843,-3843.779528 z" style="stroke:#FF0000;fill:none"/><path d="M 3813.543307,-3843.779528 A 7.559055,7.559055 -0.000000 1 0 3798.425197,-3843.779528 7.559055,7.559055 -0.000000 1 0 3813.543307,-3843.779528 z" style="stroke:#FF0000;fill:none"/><path d="M 4365.354331,-3567.874016 A 7.559055,7.559055 -0.000000 1 0 4350.236220,-3567.874016 7.559055,7.559055 -0.000000 1 0 4365.354331,-3567.874016 z" style="stroke:#FF0000;fill:none"/><path d="M 502.677165,-3567.874016 A 7.559055,7.559055 -0.000000 1 0 487.559055,-3567.874016 7.559055,7.559055 -0.000000 1 0 502.677165,-3567.874016 z" style="stroke:#FF0000;fill:none"/><path d="M 778.582677,-3843.779528 A 7.559055,7.559055 -0.000000 1 0 763.464567,-3843.779528 7.559055,7.559055 -0.000000 1 0 778.582677,-3843.779528 z" style="stroke:#FF0000;fill:none"/><path d="M 1054.488189,-3843.779528 A 7.559055,7.559055 -0.000000 1 0 1039.370079,-3843.779528 7.559055,7.559055 -0.000000 1 0 1054.488189,-3843.779528 z" style="stroke:#FF0000;fill:none"/><path d="M 1330.393701,-3843.779528 A 7.559055,7.559055 -0.000000 1 0 1315.275591,-3843.779528 7.559055,7.559055 -0.000000 1 0 1330.393701,-3843.779528 z" style="stroke:#FF0000;fill:none"/><path d="M 1606.299213,-3843.779528 A 7.559055,7.559055 -0.000000 1 0 1591.181102,-3843.779528 7.559055,7.559055 -0.000000 1 0 1606.299213,-3843.779528 z" style="stroke:#FF0000;fill:none"/><path d="M 1882.204724,-3843.779528 A 7.559055,7.559055 -0.000000 1 0 1867.086614,-3843.779528 7.559055,7.559055 -0.000000 1 0 1882.204724,-3843.779528 z" style="stroke:#FF0000;fill:none"/><path d="M 2158.110236,-3843.779528 A 7.559055,7.559055 -0.000000 1 0 2142.992126,-3843.779528 7.559055,7.559055 -0.000000 1 0 2158.110236,-3843.779528 z" style="stroke:#FF0000;fill:none"/><path d="M 2985.826772,-3843.779528 A 7.559055,7.559055 -0.000000 1 0 2970.708661,-3843.779528 7.559055,7.559055 -0.000000 1 0 2985.826772,-3843.779528 z" style="stroke:#FF0000;fill:none"/><path d="M 2709.921260,-3567.874016 A 7.559055,7.559055 -0.000000 1 0 2694.803150,-3567.874016 7.559055,7.559055 -0.000000 1 0 2709.921260,-3567.874016 z" style="stroke:#FF0000;fill:none"/><path d="M 2985.826772,-3567.874016 A 7.559055,7.559055 -0.000000 1 0 2970.708661,-3567.874016 7.559055,7.559055 -0.000000 1 0 2985.826772,-3567.874016 z" style="stroke:#FF0000;fill:none"/><path d="M 3261.732283,-3567.874016 A 7.559055,7.559055 -0.000000 1 0 3246.614173,-3567.874016 7.559055,7.559055 -0.000000 1 0 3261.732283,-3567.874016 z" style="stroke:#FF0000;fill:none"/><path d="M 3537.637795,-3567.874016 A 7.559055,7.559055 -0.000000 1 0 3522.519685,-3567.874016 7.559055,7.559055 -0.000000 1 0 3537.637795,-3567.874016 z" style="stroke:#FF0000;fill:none"/><path d="M 3813.543307,-3567.874016 A 7.559055,7.559055 -0.000000 1 0 3798.425197,-3567.874016 7.559055,7.559055 -0.000000 1 0 3813.543307,-3567.874016 z" style="stroke:#FF0000;fill:none"/><path d="M 4089.448819,-3567.874016 A 7.559055,7.559055 -0.000000 1 0 4074.330709,-3567.874016 7.559055,7.559055 -0.000000 1 0 4089.448819,-3567.874016 z" style="stroke:#FF0000;fill:none"/><path d="M 502.677165,-3291.968504 A 7.559055,7.559055 -0.000000 1 0 487.559055,-3291.968504 7.559055,7.559055 -0.000000 1 0 502.677165,-3291.968504 z" style="stroke:#FF0000;fill:none"/><path d="M 4641.259843,-3567.874016 A 7.559055,7.559055 -0.000000 1 0 4626.141732,-3567.874016 7.559055,7.559055 -0.000000 1 0 4641.259843,-3567.874016 z" style="stroke:#FF0000;fill:none"/><path d="M 1054.488189,-3567.874016 A 7.559055,7.559055 -0.000000 1 0 1039.370079,-3567.874016 7.559055,7.559055 -0.000000 1 0 1054.488189,-3567.874016 z" style="stroke:#FF0000;fill:none"/><path d="M 226.771654,-3567.874016 A 7.559055,7.559055 -0.000000 1 0 211.653543,-3567.874016 7.559055,7.559055 -0.000000 1 0 226.771654,-3567.874016 z" style="stroke:#FF0000;fill:none"/><path d="M 1606.299213,-3567.874016 A 7.559055,7.559055 -0.000000 1 0 1591.181102,-3567.874016 7.559055,7.559055 -0.000000 1 0 1606.299213,-3567.874016 z" style="stroke:#FF0000;fill:none"/><path d="M 778.582677,-3567.874016 A 7.559055,7.559055 -0.000000 1 0 763.464567,-3567.874016 7.559055,7.559055 -0.000000 1 0 778.582677,-3567.874016 z" style="stroke:#FF0000;fill:none"/><path d="M 2158.110236,-3567.874016 A 7.559055,7.559055 -0.000000 1 0 2142.992126,-3567.874016 7.559055,7.559055 -0.000000 1 0 2158.110236,-3567.874016 z" style="stroke:#FF0000;fill:none"/><path d="M 1330.393701,-3567.874016 A 7.559055,7.559055 -0.000000 1 0 1315.275591,-3567.874016 7.559055,7.559055 -0.000000 1 0 1330.393701,-3567.874016 z" style="stroke:#FF0000;fill:none"/><path d="M 1882.204724,-3567.874016 A 7.559055,7.559055 -0.000000 1 0 1867.086614,-3567.874016 7.559055,7.559055 -0.000000 1 0 1882.204724,-3567.874016 z" style="stroke:#FF0000;fill:none"/><path d="M 2985.826772,-3291.968504 A 7.559055,7.559055 -0.000000 1 0 2970.708661,-3291.968504 7.559055,7.559055 -0.000000 1 0 2985.826772,-3291.968504 z" style="stroke:#FF0000;fill:none"/><path d="M 3537.637795,-3291.968504 A 7.559055,7.559055 -0.000000 1 0 3522.519685,-3291.968504 7.559055,7.559055 -0.000000 1 0 3537.637795,-3291.968504 z" style="stroke:#FF0000;fill:none"/><path d="M 2709.921260,-3291.968504 A 7.559055,7.559055 -0.000000 1 0 2694.803150,-3291.968504 7.559055,7.559055 -0.000000 1 0 2709.921260,-3291.968504 z" style="stroke:#FF0000;fill:none"/><path d="M 4089.448819,-3291.968504 A 7.559055,7.559055 -0.000000 1 0 4074.330709,-3291.968504 7.559055,7.559055 -0.000000 1 0 4089.448819,-3291.968504 z" style="stroke:#FF0000;fill:none"/><path d="M 3261.732283,-3291.968504 A 7.559055,7.559055 -0.000000 1 0 3246.614173,-3291.968504 7.559055,7.559055 -0.000000 1 0 3261.732283,-3291.968504 z" style="stroke:#FF0000;fill:none"/><path d="M 4641.259843,-3291.968504 A 7.559055,7.559055 -0.000000 1 0 4626.141732,-3291.968504 7.559055,7.559055 -0.000000 1 0 4641.259843,-3291.968504 z" style="stroke:#FF0000;fill:none"/><path d="M 3813.543307,-3291.968504 A 7.559055,7.559055 -0.000000 1 0 3798.425197,-3291.968504 7.559055,7.559055 -0.000000 1 0 3813.543307,-3291.968504 z" style="stroke:#FF0000;fill:none"/><path d="M 226.771654,-3291.968504 A 7.559055,7.559055 -0.000000 1 0 211.653543,-3291.968504 7.559055,7.559055 -0.000000 1 0 226.771654,-3291.968504 z" style="stroke:#FF0000;fill:none"/><path d="M 4365.354331,-3291.968504 A 7.559055,7.559055 -0.000000 1 0 4350.236220,-3291.968504 7.559055,7.559055 -0.000000 1 0 4365.354331,-3291.968504 z" style="stroke:#FF0000;fill:none"/><path d="M 778.582677,-3291.968504 A 7.559055,7.559055 -0.000000 1 0 763.464567,-3291.968504 7.559055,7.559055 -0.000000 1 0 778.582677,-3291.968504 z" style="stroke:#FF0000;fill:none"/><path d="M 1054.488189,-3291.968504 A 7.559055,7.559055 -0.000000 1 0 1039.370079,-3291.968504 7.559055,7.559055 -0.000000 1 0 1054.488189,-3291.968504 z" style="stroke:#FF0000;fill:none"/><path d="M 1330.393701,-3291.968504 A 7.559055,7.559055 -0.000000 1 0 1315.275591,-3291.968504 7.559055,7.559055 -0.000000 1 0 1330.393701,-3291.968504 z" style="stroke:#FF0000;fill:none"/><path d="M 1606.299213,-3291.968504 A 7.559055,7.559055 -0.000000 1 0 1591.181102,-3291.968504 7.559055,7.559055 -0.000000 1 0 1606.299213,-3291.968504 z" style="stroke:#FF0000;fill:none"/><path d="M 1882.204724,-3291.968504 A 7.559055,7.559055 -0.000000 1 0 1867.086614,-3291.968504 7.559055,7.559055 -0.000000 1 0 1882.204724,-3291.968504 z" style="stroke:#FF0000;fill:none"/><path d="M 2158.110236,-3291.968504 A 7.559055,7.559055 -0.000000 1 0 2142.992126,-3291.968504 7.559055,7.559055 -0.000000 1 0 2158.110236,-3291.968504 z" style="stroke:#FF0000;fill:none"/><path d="M 1882.204724,-3016.062992 A 7.559055,7.559055 -0.000000 1 0 1867.086614,-3016.062992 7.559055,7.559055 -0.000000 1 0 1882.204724,-3016.062992 z" style="stroke:#FF0000;fill:none"/><path d="M 2709.921260,-3016.062992 A 7.559055,7.559055 -0.000000 1 0 2694.803150,-3016.062992 7.559055,7.559055 -0.000000 1 0 2709.921260,-3016.062992 z" style="stroke:#FF0000;fill:none"/><path d="M 2985.826772,-3016.062992 A 7.559055,7.559055 -0.000000 1 0 2970.708661,-3016.062992 7.559055,7.559055 -0.000000 1 0 2985.826772,-3016.062992 z" style="stroke:#FF0000;fill:none"/><path d="M 3261.732283,-3016.062992 A 7.559055,7.559055 -0.000000 1 0 3246.614173,-3016.062992 7.559055,7.559055 -0.000000 1 0 3261.732283,-3016.062992 z" style="stroke:#FF0000;fill:none"/><path d="M 3537.637795,-3016.062992 A 7.559055,7.559055 -0.000000 1 0 3522.519685,-3016.062992 7.559055,7.559055 -0.000000 1 0 3537.637795,-3016.062992 z" style="stroke:#FF0000;fill:none"/><path d="M 3813.543307,-3016.062992 A 7.559055,7.559055 -0.000000 1 0 3798.425197,-3016.062992 7.559055,7.559055 -0.000000 1 0 3813.543307,-3016.062992 z" style="stroke:#FF0000;fill:none"/><path d="M 4089.448819,-3016.062992 A 7.559055,7.559055 -0.000000 1 0 4074.330709,-3016.062992 7.559055,7.559055 -0.000000 1 0 4089.448819,-3016.062992 z" style="stroke:#FF0000;fill:none"/><path d="M 4365.354331,-3016.062992 A 7.559055,7.559055 -0.000000 1 0 4350.236220,-3016.062992 7.559055,7.559055 -0.000000 1 0 4365.354331,-3016.062992 z" style="stroke:#FF0000;fill:none"/><path d="M 502.677165,-3016.062992 A 7.559055,7.559055 -0.000000 1 0 487.559055,-3016.062992 7.559055,7.559055 -0.000000 1 0 502.677165,-3016.062992 z" style="stroke:#FF0000;fill:none"/><path d="M 1054.488189,-3016.062992 A 7.559055,7.559055 -0.000000 1 0 1039.370079,-3016.062992 7.559055,7.559055 -0.000000 1 0 1054.488189,-3016.062992 z" style="stroke:#FF0000;fill:none"/><path d="M 226.771654,-3016.062992 A 7.559055,7.559055 -0.000000 1 0 211.653543,-3016.062992 7.559055,7.559055 -0.000000 1 0 226.771654,-3016.062992 z" style="stroke:#FF0000;fill:none"/><path d="M 1606.299213,-3016.062992 A 7.559055,7.559055 -0.000000 1 0 1591.181102,-3016.062992 7.559055,7.559055 -0.000000 1 0 1606.299213,-3016.062992 z" style="stroke:#FF0000;fill:none"/><path d="M 778.582677,-3016.062992 A 7.559055,7.559055 -0.000000 1 0 763.464567,-3016.062992 7.559055,7.559055 -0.000000 1 0 778.582677,-3016.062992 z" style="stroke:#FF0000;fill:none"/><path d="M 2158.110236,-3016.062992 A 7.559055,7.559055 -0.000000 1 0 2142.992126,-3016.062992 7.559055,7.559055 -0.000000 1 0 2158.110236,-3016.062992 z" style="stroke:#FF0000;fill:none"/><path d="M 1330.393701,-3016.062992 A 7.559055,7.559055 -0.000000 1 0 1315.275591,-3016.062992 7.559055,7.559055 -0.000000 1 0 1330.393701,-3016.062992 z" style="stroke:#FF0000;fill:none"/><path d="M 1882.204724,-2740.157480 A 7.559055,7.559055 -0.000000 1 0 1867.086614,-2740.157480 7.559055,7.559055 -0.000000 1 0 1882.204724,-2740.157480 z" style="stroke:#FF0000;fill:none"/><path d="M 2158.110236,-2740.157480 A 7.559055,7.559055 -0.000000 1 0 2142.992126,-2740.157480 7.559055,7.559055 -0.000000 1 0 2158.110236,-2740.157480 z" style="stroke:#FF0000;fill:none"/><path d="M 2985.826772,-2740.157480 A 7.559055,7.559055 -0.000000 1 0 2970.708661,-2740.157480 7.559055,7.559055 -0.000000 1 0 2985.826772,-2740.157480 z" style="stroke:#FF0000;fill:none"/><path d="M 3537.637795,-2740.157480 A 7.559055,7.559055 -0.000000 1 0 3522.519685,-2740.157480 7.559055,7.559055 -0.000000 1 0 3537.637795,-2740.157480 z" style="stroke:#FF0000;fill:none"/><path d="M 2709.921260,-2740.157480 A 7.559055,7.559055 -0.000000 1 0 2694.803150,-2740.157480 7.559055,7.559055 -0.000000 1 0 2709.921260,-2740.157480 z" style="stroke:#FF0000;fill:none"/><path d="M 4089.448819,-2740.157480 A 7.559055,7.559055 -0.000000 1 0 4074.330709,-2740.157480 7.559055,7.559055 -0.000000 1 0 4089.448819,-2740.157480 z" style="stroke:#FF0000;fill:none"/><path d="M 3261.732283,-2740.157480 A 7.559055,7.559055 -0.000000 1 0 3246.614173,-2740.157480 7.559055,7.559055 -0.000000 1 0 3261.732283,-2740.157480 z" style="stroke:#FF0000;fill:none"/><path d="M 502.677165,-2740.157480 A 7.559055,7.559055 -0.000000 1 0 487.559055,-2740.157480 7.559055,7.559055 -0.000000 1 0 502.677165,-2740.157480 z" style="stroke:#FF0000;fill:none"/><path d="M 4641.259843,-3016.062992 A 7.559055,7.559055 -0.000000 1 0 4626.141732,-3016.062992 7.559055,7.559055 -0.000000 1 0 4641.259843,-3016.062992 z" style="stroke:#FF0000;fill:none"/><path d="M 226.771654,-2740.157480 A 7.559055,7.559055 -0.000000 1 0 211.653543,-2740.157480 7.559055,7.559055 -0.000000 1 0 226.771654,-2740.157480 z" style="stroke:#FF0000;fill:none"/><path d="M 4365.354331,-2740.157480 A 7.559055,7.559055 -0.000000 1 0 4350.236220,-2740.157480 7.559055,7.559055 -0.000000 1 0 4365.354331,-2740.157480 z" style="stroke:#FF0000;fill:none"/><path d="M 778.582677,-2740.157480 A 7.559055,7.559055 -0.000000 1 0 763.464567,-2740.157480 7.559055,7.559055 -0.000000 1 0 778.582677,-2740.157480 z" style="stroke:#FF0000;fill:none"/><path d="M 1054.488189,-2740.157480 A 7.559055,7.559055 -0.000000 1 0 1039.370079,-2740.157480 7.559055,7.559055 -0.000000 1 0 1054.488189,-2740.157480 z" style="stroke:#FF0000;fill:none"/><path d="M 1330.393701,-2740.157480 A 7.559055,7.559055 -0.000000 1 0 1315.275591,-2740.157480 7.559055,7.559055 -0.000000 1 0 1330.393701,-2740.157480 z" style="stroke:#FF0000;fill:none"/><path d="M 1606.299213,-2740.157480 A 7.559055,7.559055 -0.000000 1 0 1591.181102,-2740.157480 7.559055,7.559055 -0.000000 1 0 1606.299213,-2740.157480 z" style="stroke:#FF0000;fill:none"/><path d="M 2709.921260,-2464.251969 A 7.559055,7.559055 -0.000000 1 0 2694.803150,-2464.251969 7.559055,7.559055 -0.000000 1 0 2709.921260,-2464.251969 z" style="stroke:#FF0000;fill:none"/><path d="M 2985.826772,-2464.251969 A 7.559055,7.559055 -0.000000 1 0 2970.708661,-2464.251969 7.559055,7.559055 -0.000000 1 0 2985.826772,-2464.251969 z" style="stroke:#FF0000;fill:none"/><path d="M 1882.204724,-2464.251969 A 7.559055,7.559055 -0.000000 1 0 1867.086614,-2464.251969 7.559055,7.559055 -0.000000 1 0 1882.204724,-2464.251969 z" style="stroke:#FF0000;fill:none"/><path d="M 2158.110236,-2464.251969 A 7.559055,7.559055 -0.000000 1 0 2142.992126,-2464.251969 7.559055,7.559055 -0.000000 1 0 2158.110236,-2464.251969 z" style="stroke:#FF0000;fill:none"/><path d="M 1330.393701,-2464.251969 A 7.559055,7.559055 -0.000000 1 0 1315.275591,-2464.251969 7.559055,7.559055 -0.000000 1 0 1330.393701,-2464.251969 z" style="stroke:#FF0000;fill:none"/><path d="M 1606.299213,-2464.251969 A 7.559055,7.559055 -0.000000 1 0 1591.181102,-2464.251969 7.559055,7.559055 -0.000000 1 0 1606.299213,-2464.251969 z" style="stroke:#FF0000;fill:none"/><path d="M 4641.259843,-2740.157480 A 7.559055,7.559055 -0.000000 1 0 4626.141732,-2740.157480 7.559055,7.559055 -0.000000 1 0 4641.259843,-2740.157480 z" style="stroke:#FF0000;fill:none"/><path d="M 3813.543307,-2740.157480 A 7.559055,7.559055 -0.000000 1 0 3798.425197,-2740.157480 7.559055,7.559055 -0.000000 1 0 3813.543307,-2740.157480 z" style="stroke:#FF0000;fill:none"/><path d="M 4365.354331,-2464.251969 A 7.559055,7.559055 -0.000000 1 0 4350.236220,-2464.251969 7.559055,7.559055 -0.000000 1 0 4365.354331,-2464.251969 z" style="stroke:#FF0000;fill:none"/><path d="M 4641.259843,-2464.251969 A 7.559055,7.559055 -0.000000 1 0 4626.141732,-2464.251969 7.559055,7.559055 -0.000000 1 0 4641.259843,-2464.251969 z" style="stroke:#FF0000;fill:none"/><path d="M 3813.543307,-2464.251969 A 7.559055,7.559055 -0.000000 1 0 3798.425197,-2464.251969 7.559055,7.559055 -0.000000 1 0 3813.543307,-2464.251969 z" style="stroke:#FF0000;fill:none"/><path d="M 4089.448819,-2464.251969 A 7.559055,7.559055 -0.000000 1 0 4074.330709,-2464.251969 7.559055,7.559055 -0.000000 1 0 4089.448819,-2464.251969 z" style="stroke:#FF0000;fill:none"/><path d="M 3261.732283,-2464.251969 A 7.559055,7.559055 -0.000000 1 0 3246.614173,-2464.251969 7.559055,7.559055 -0.000000 1 0 3261.732283,-2464.251969 z" style="stroke:#FF0000;fill:none"/><path d="M 3537.637795,-2464.251969 A 7.559055,7.559055 -0.000000 1 0 3522.519685,-2464.251969 7.559055,7.559055 -0.000000 1 0 3537.637795,-2464.251969 z" style="stroke:#FF0000;fill:none"/><path d="M 778.582677,-2464.251969 A 7.559055,7.559055 -0.000000 1 0 763.464567,-2464.251969 7.559055,7.559055 -0.000000 1 0 778.582677,-2464.251969 z" style="stroke:#FF0000;fill:none"/><path d="M 1054.488189,-2464.251969 A 7.559055,7.559055 -0.000000 1 0 1039.370079,-2464.251969 7.559055,7.559055 -0.000000 1 0 1054.488189,-2464.251969 z" style="stroke:#FF0000;fill:none"/><path d="M 226.771654,-2464.251969 A 7.559055,7.559055 -0.000000 1 0 211.653543,-2464.251969 7.559055,7.559055 -0.000000 1 0 226.771654,-2464.251969 z" style="stroke:#FF0000;fill:none"/><path d="M 502.677165,-2464.251969 A 7.559055,7.559055 -0.000000 1 0 487.559055,-2464.251969 7.559055,7.559055 -0.000000 1 0 502.677165,-2464.251969 z" style="stroke:#FF0000;fill:none"/></g></svg>