<?xml version="1.0" encoding="UTF-8"?>
<!-- 2021-01-13 21:59:12 Generated by QCAD SVG Exporter -->
<svg width="1404mm" height="1874mm" viewBox="0 -1872 1404 1874" version="1.1" xmlns="http://www.w3.org/2000/svg" style="stroke-linecap:round;stroke-linejoin:round;fill:none">
    <g transform="scale(1,-1)">
        <!-- Polyline -->
        <path d="M0,0 L1404,0 L1404,1872 L0,1872 Z" style="stroke:#000000;stroke-width:0.25;"/>
        <!-- Polyline -->
        <path d="M1404,1872 L1284,1872 L1284,0 L1404,0 Z" style="stroke:#ffff00;stroke-width:0.25;"/>
        <!-- Polyline -->
        <path d="M1404,1872 L0,1872 L0,1752 L1404,1752 Z" style="stroke:#ffff00;stroke-width:0.25;"/>
        <!-- Polyline -->
        <path d="M1284,876 L0,876 L0,0 L1284,0" style="stroke:#000000;stroke-width:0.25;"/>
        <!-- Polyline -->
        <path d="M0,1752 L1284,1752 L1284,0 L0,0 Z" style="stroke:#000000;stroke-width:0.25;"/>
        <!-- Line -->
        <path d="M641.9999999999999,0 L642,1752 " style="stroke:#000000;stroke-width:0.25;"/>
        <!-- Line -->
        <path d="M637,803 L647,803 " style="stroke:#ff0000;stroke-width:0.25;"/>
        <!-- Line -->
        <path d="M637,1606 L647,1606 " style="stroke:#ff0000;stroke-width:0.25;"/>
        <!-- Line -->
        <path d="M637,1679 L647,1679 " style="stroke:#ff0000;stroke-width:0.25;"/>
        <!-- Line -->
        <path d="M637,1460 L647,1460 " style="stroke:#ff0000;stroke-width:0.25;"/>
        <!-- Line -->
        <path d="M637,1533 L647,1533 " style="stroke:#ff0000;stroke-width:0.25;"/>
        <!-- Line -->
        <path d="M637,1314 L647,1314 " style="stroke:#ff0000;stroke-width:0.25;"/>
        <!-- Line -->
        <path d="M637,1387 L647,1387 " style="stroke:#ff0000;stroke-width:0.25;"/>
        <!-- Line -->
        <path d="M277,871 L277,881 " style="stroke:#ff0000;stroke-width:0.25;"/>
        <!-- Line -->
        <path d="M204,871 L204,881 " style="stroke:#ff0000;stroke-width:0.25;"/>
        <!-- Line -->
        <path d="M423,871 L423,881 " style="stroke:#ff0000;stroke-width:0.25;"/>
        <!-- Line -->
        <path d="M350,871 L350,881 " style="stroke:#ff0000;stroke-width:0.25;"/>
        <!-- Line -->
        <path d="M569,871 L569,881 " style="stroke:#ff0000;stroke-width:0.25;"/>
        <!-- Line -->
        <path d="M496,871 L496,881 " style="stroke:#ff0000;stroke-width:0.25;"/>
        <!-- Line -->
        <path d="M131,871 L131,881 " style="stroke:#ff0000;stroke-width:0.25;"/>
        <!-- Line -->
        <path d="M58,871 L58,881 " style="stroke:#ff0000;stroke-width:0.25;"/>
        <!-- Line -->
        <path d="M715,871 L715,881 " style="stroke:#ff0000;stroke-width:0.25;"/>
        <!-- Line -->
        <path d="M788,871 L788,881 " style="stroke:#ff0000;stroke-width:0.25;"/>
        <!-- Line -->
        <path d="M1153,871 L1153,881 " style="stroke:#ff0000;stroke-width:0.25;"/>
        <!-- Line -->
        <path d="M1226,871 L1226,881 " style="stroke:#ff0000;stroke-width:0.25;"/>
        <!-- Line -->
        <path d="M1007,871 L1007,881 " style="stroke:#ff0000;stroke-width:0.25;"/>
        <!-- Line -->
        <path d="M1080,871 L1080,881 " style="stroke:#ff0000;stroke-width:0.25;"/>
        <!-- Line -->
        <path d="M861,871 L861,881 " style="stroke:#ff0000;stroke-width:0.25;"/>
        <!-- Line -->
        <path d="M934,871 L934,881 " style="stroke:#ff0000;stroke-width:0.25;"/>
        <!-- Line -->
        <path d="M637,292 L647,292 " style="stroke:#ff0000;stroke-width:0.25;"/>
        <!-- Line -->
        <path d="M637,219 L647,219 " style="stroke:#ff0000;stroke-width:0.25;"/>
        <!-- Line -->
        <path d="M637,438 L647,438 " style="stroke:#ff0000;stroke-width:0.25;"/>
        <!-- Line -->
        <path d="M637,365 L647,365 " style="stroke:#ff0000;stroke-width:0.25;"/>
        <!-- Line -->
        <path d="M637,584 L647,584 " style="stroke:#ff0000;stroke-width:0.25;"/>
        <!-- Line -->
        <path d="M637,511 L647,511 " style="stroke:#ff0000;stroke-width:0.25;"/>
        <!-- Line -->
        <path d="M637,730 L647,730 " style="stroke:#ff0000;stroke-width:0.25;"/>
        <!-- Line -->
        <path d="M637,657 L647,657 " style="stroke:#ff0000;stroke-width:0.25;"/>
        <!-- Line -->
        <path d="M637,0 L647,0 " style="stroke:#ff0000;stroke-width:0.25;"/>
        <!-- Line -->
        <path d="M637,146 L647,146 " style="stroke:#ff0000;stroke-width:0.25;"/>
        <!-- Line -->
        <path d="M637,73 L647,73 " style="stroke:#ff0000;stroke-width:0.25;"/>
        <!-- Line -->
        <path d="M637,1168 L647,1168 " style="stroke:#ff0000;stroke-width:0.25;"/>
        <!-- Line -->
        <path d="M637,1241 L647,1241 " style="stroke:#ff0000;stroke-width:0.25;"/>
        <!-- Line -->
        <path d="M637,1022 L647,1022 " style="stroke:#ff0000;stroke-width:0.25;"/>
        <!-- Line -->
        <path d="M637,1095 L647,1095 " style="stroke:#ff0000;stroke-width:0.25;"/>
        <!-- Line -->
        <path d="M637,949 L647,949 " style="stroke:#ff0000;stroke-width:0.25;"/>
        <!-- Circle -->
        <circle cx="131" cy="0" r="2" style="stroke:#ff0000;stroke-width:0.25;"/>
        <!-- Circle -->
        <circle cx="277" cy="0" r="2" style="stroke:#ff0000;stroke-width:0.25;"/>
        <!-- Circle -->
        <circle cx="1153" cy="0" r="2" style="stroke:#ff0000;stroke-width:0.25;"/>
        <!-- Circle -->
        <circle cx="1226" cy="0" r="2" style="stroke:#ff0000;stroke-width:0.25;"/>
        <!-- Circle -->
        <circle cx="569" cy="0" r="2" style="stroke:#ff0000;stroke-width:0.25;"/>
        <!-- Circle -->
        <circle cx="350" cy="0" r="2" style="stroke:#ff0000;stroke-width:0.25;"/>
        <!-- Circle -->
        <circle cx="423" cy="0" r="2" style="stroke:#ff0000;stroke-width:0.25;"/>
        <!-- Circle -->
        <circle cx="204" cy="0" r="2" style="stroke:#ff0000;stroke-width:0.25;"/>
        <!-- Circle -->
        <circle cx="277" cy="73" r="2" style="stroke:#ff0000;stroke-width:0.25;"/>
        <!-- Circle -->
        <circle cx="58" cy="0" r="2" style="stroke:#ff0000;stroke-width:0.25;"/>
        <!-- Circle -->
        <circle cx="1226" cy="73" r="2" style="stroke:#ff0000;stroke-width:0.25;"/>
        <!-- Circle -->
        <circle cx="131" cy="73" r="2" style="stroke:#ff0000;stroke-width:0.25;"/>
        <!-- Circle -->
        <circle cx="1007" cy="0" r="2" style="stroke:#ff0000;stroke-width:0.25;"/>
        <!-- Circle -->
        <circle cx="1080" cy="0" r="2" style="stroke:#ff0000;stroke-width:0.25;"/>
        <!-- Circle -->
        <circle cx="861" cy="0" r="2" style="stroke:#ff0000;stroke-width:0.25;"/>
        <!-- Circle -->
        <circle cx="934" cy="0" r="2" style="stroke:#ff0000;stroke-width:0.25;"/>
        <!-- Circle -->
        <circle cx="715" cy="0" r="2" style="stroke:#ff0000;stroke-width:0.25;"/>
        <!-- Circle -->
        <circle cx="788" cy="0" r="2" style="stroke:#ff0000;stroke-width:0.25;"/>
        <!-- Circle -->
        <circle cx="496" cy="0" r="2" style="stroke:#ff0000;stroke-width:0.25;"/>
        <!-- Circle -->
        <circle cx="350" cy="73" r="2" style="stroke:#ff0000;stroke-width:0.25;"/>
        <!-- Circle -->
        <circle cx="204" cy="73" r="2" style="stroke:#ff0000;stroke-width:0.25;"/>
        <!-- Circle -->
        <circle cx="569" cy="73" r="2" style="stroke:#ff0000;stroke-width:0.25;"/>
        <!-- Circle -->
        <circle cx="58" cy="73" r="2" style="stroke:#ff0000;stroke-width:0.25;"/>
        <!-- Circle -->
        <circle cx="423" cy="73" r="2" style="stroke:#ff0000;stroke-width:0.25;"/>
        <!-- Circle -->
        <circle cx="131" cy="146" r="2" style="stroke:#ff0000;stroke-width:0.25;"/>
        <!-- Circle -->
        <circle cx="277" cy="146" r="2" style="stroke:#ff0000;stroke-width:0.25;"/>
        <!-- Circle -->
        <circle cx="1080" cy="73" r="2" style="stroke:#ff0000;stroke-width:0.25;"/>
        <!-- Circle -->
        <circle cx="1153" cy="73" r="2" style="stroke:#ff0000;stroke-width:0.25;"/>
        <!-- Circle -->
        <circle cx="934" cy="73" r="2" style="stroke:#ff0000;stroke-width:0.25;"/>
        <!-- Circle -->
        <circle cx="1007" cy="73" r="2" style="stroke:#ff0000;stroke-width:0.25;"/>
        <!-- Circle -->
        <circle cx="788" cy="73" r="2" style="stroke:#ff0000;stroke-width:0.25;"/>
        <!-- Circle -->
        <circle cx="861" cy="73" r="2" style="stroke:#ff0000;stroke-width:0.25;"/>
        <!-- Circle -->
        <circle cx="496" cy="73" r="2" style="stroke:#ff0000;stroke-width:0.25;"/>
        <!-- Circle -->
        <circle cx="715" cy="73" r="2" style="stroke:#ff0000;stroke-width:0.25;"/>
        <!-- Circle -->
        <circle cx="496" cy="146" r="2" style="stroke:#ff0000;stroke-width:0.25;"/>
        <!-- Circle -->
        <circle cx="569" cy="146" r="2" style="stroke:#ff0000;stroke-width:0.25;"/>
        <!-- Circle -->
        <circle cx="350" cy="146" r="2" style="stroke:#ff0000;stroke-width:0.25;"/>
        <!-- Circle -->
        <circle cx="423" cy="146" r="2" style="stroke:#ff0000;stroke-width:0.25;"/>
        <!-- Circle -->
        <circle cx="204" cy="146" r="2" style="stroke:#ff0000;stroke-width:0.25;"/>
        <!-- Circle -->
        <circle cx="277" cy="219" r="2" style="stroke:#ff0000;stroke-width:0.25;"/>
        <!-- Circle -->
        <circle cx="58" cy="146" r="2" style="stroke:#ff0000;stroke-width:0.25;"/>
        <!-- Circle -->
        <circle cx="1153" cy="146" r="2" style="stroke:#ff0000;stroke-width:0.25;"/>
        <!-- Circle -->
        <circle cx="1226" cy="146" r="2" style="stroke:#ff0000;stroke-width:0.25;"/>
        <!-- Circle -->
        <circle cx="1007" cy="146" r="2" style="stroke:#ff0000;stroke-width:0.25;"/>
        <!-- Circle -->
        <circle cx="1080" cy="146" r="2" style="stroke:#ff0000;stroke-width:0.25;"/>
        <!-- Circle -->
        <circle cx="861" cy="146" r="2" style="stroke:#ff0000;stroke-width:0.25;"/>
        <!-- Circle -->
        <circle cx="934" cy="146" r="2" style="stroke:#ff0000;stroke-width:0.25;"/>
        <!-- Circle -->
        <circle cx="715" cy="146" r="2" style="stroke:#ff0000;stroke-width:0.25;"/>
        <!-- Circle -->
        <circle cx="788" cy="146" r="2" style="stroke:#ff0000;stroke-width:0.25;"/>
        <!-- Circle -->
        <circle cx="496" cy="219" r="2" style="stroke:#ff0000;stroke-width:0.25;"/>
        <!-- Circle -->
        <circle cx="715" cy="219" r="2" style="stroke:#ff0000;stroke-width:0.25;"/>
        <!-- Circle -->
        <circle cx="350" cy="219" r="2" style="stroke:#ff0000;stroke-width:0.25;"/>
        <!-- Circle -->
        <circle cx="204" cy="219" r="2" style="stroke:#ff0000;stroke-width:0.25;"/>
        <!-- Circle -->
        <circle cx="569" cy="219" r="2" style="stroke:#ff0000;stroke-width:0.25;"/>
        <!-- Circle -->
        <circle cx="58" cy="219" r="2" style="stroke:#ff0000;stroke-width:0.25;"/>
        <!-- Circle -->
        <circle cx="423" cy="219" r="2" style="stroke:#ff0000;stroke-width:0.25;"/>
        <!-- Circle -->
        <circle cx="1226" cy="219" r="2" style="stroke:#ff0000;stroke-width:0.25;"/>
        <!-- Circle -->
        <circle cx="131" cy="219" r="2" style="stroke:#ff0000;stroke-width:0.25;"/>
        <!-- Circle -->
        <circle cx="1080" cy="219" r="2" style="stroke:#ff0000;stroke-width:0.25;"/>
        <!-- Circle -->
        <circle cx="1153" cy="219" r="2" style="stroke:#ff0000;stroke-width:0.25;"/>
        <!-- Circle -->
        <circle cx="934" cy="219" r="2" style="stroke:#ff0000;stroke-width:0.25;"/>
        <!-- Circle -->
        <circle cx="1007" cy="219" r="2" style="stroke:#ff0000;stroke-width:0.25;"/>
        <!-- Circle -->
        <circle cx="788" cy="219" r="2" style="stroke:#ff0000;stroke-width:0.25;"/>
        <!-- Circle -->
        <circle cx="861" cy="219" r="2" style="stroke:#ff0000;stroke-width:0.25;"/>
        <!-- Circle -->
        <circle cx="715" cy="292" r="2" style="stroke:#ff0000;stroke-width:0.25;"/>
        <!-- Circle -->
        <circle cx="788" cy="292" r="2" style="stroke:#ff0000;stroke-width:0.25;"/>
        <!-- Circle -->
        <circle cx="496" cy="292" r="2" style="stroke:#ff0000;stroke-width:0.25;"/>
        <!-- Circle -->
        <circle cx="569" cy="292" r="2" style="stroke:#ff0000;stroke-width:0.25;"/>
        <!-- Circle -->
        <circle cx="350" cy="292" r="2" style="stroke:#ff0000;stroke-width:0.25;"/>
        <!-- Circle -->
        <circle cx="423" cy="292" r="2" style="stroke:#ff0000;stroke-width:0.25;"/>
        <!-- Circle -->
        <circle cx="204" cy="292" r="2" style="stroke:#ff0000;stroke-width:0.25;"/>
        <!-- Circle -->
        <circle cx="131" cy="292" r="2" style="stroke:#ff0000;stroke-width:0.25;"/>
        <!-- Circle -->
        <circle cx="277" cy="292" r="2" style="stroke:#ff0000;stroke-width:0.25;"/>
        <!-- Circle -->
        <circle cx="1153" cy="292" r="2" style="stroke:#ff0000;stroke-width:0.25;"/>
        <!-- Circle -->
        <circle cx="1226" cy="292" r="2" style="stroke:#ff0000;stroke-width:0.25;"/>
        <!-- Circle -->
        <circle cx="1007" cy="292" r="2" style="stroke:#ff0000;stroke-width:0.25;"/>
        <!-- Circle -->
        <circle cx="1080" cy="292" r="2" style="stroke:#ff0000;stroke-width:0.25;"/>
        <!-- Circle -->
        <circle cx="861" cy="292" r="2" style="stroke:#ff0000;stroke-width:0.25;"/>
        <!-- Circle -->
        <circle cx="934" cy="292" r="2" style="stroke:#ff0000;stroke-width:0.25;"/>
        <!-- Circle -->
        <circle cx="788" cy="365" r="2" style="stroke:#ff0000;stroke-width:0.25;"/>
        <!-- Circle -->
        <circle cx="861" cy="365" r="2" style="stroke:#ff0000;stroke-width:0.25;"/>
        <!-- Circle -->
        <circle cx="496" cy="365" r="2" style="stroke:#ff0000;stroke-width:0.25;"/>
        <!-- Circle -->
        <circle cx="715" cy="365" r="2" style="stroke:#ff0000;stroke-width:0.25;"/>
        <!-- Circle -->
        <circle cx="350" cy="365" r="2" style="stroke:#ff0000;stroke-width:0.25;"/>
        <!-- Circle -->
        <circle cx="204" cy="365" r="2" style="stroke:#ff0000;stroke-width:0.25;"/>
        <!-- Circle -->
        <circle cx="569" cy="365" r="2" style="stroke:#ff0000;stroke-width:0.25;"/>
        <!-- Circle -->
        <circle cx="277" cy="365" r="2" style="stroke:#ff0000;stroke-width:0.25;"/>
        <!-- Circle -->
        <circle cx="58" cy="292" r="2" style="stroke:#ff0000;stroke-width:0.25;"/>
        <!-- Circle -->
        <circle cx="1226" cy="365" r="2" style="stroke:#ff0000;stroke-width:0.25;"/>
        <!-- Circle -->
        <circle cx="131" cy="365" r="2" style="stroke:#ff0000;stroke-width:0.25;"/>
        <!-- Circle -->
        <circle cx="1080" cy="365" r="2" style="stroke:#ff0000;stroke-width:0.25;"/>
        <!-- Circle -->
        <circle cx="1153" cy="365" r="2" style="stroke:#ff0000;stroke-width:0.25;"/>
        <!-- Circle -->
        <circle cx="934" cy="365" r="2" style="stroke:#ff0000;stroke-width:0.25;"/>
        <!-- Circle -->
        <circle cx="1007" cy="365" r="2" style="stroke:#ff0000;stroke-width:0.25;"/>
        <!-- Circle -->
        <circle cx="861" cy="438" r="2" style="stroke:#ff0000;stroke-width:0.25;"/>
        <!-- Circle -->
        <circle cx="934" cy="438" r="2" style="stroke:#ff0000;stroke-width:0.25;"/>
        <!-- Circle -->
        <circle cx="715" cy="438" r="2" style="stroke:#ff0000;stroke-width:0.25;"/>
        <!-- Circle -->
        <circle cx="788" cy="438" r="2" style="stroke:#ff0000;stroke-width:0.25;"/>
        <!-- Circle -->
        <circle cx="496" cy="438" r="2" style="stroke:#ff0000;stroke-width:0.25;"/>
        <!-- Circle -->
        <circle cx="569" cy="438" r="2" style="stroke:#ff0000;stroke-width:0.25;"/>
        <!-- Circle -->
        <circle cx="350" cy="438" r="2" style="stroke:#ff0000;stroke-width:0.25;"/>
        <!-- Circle -->
        <circle cx="58" cy="365" r="2" style="stroke:#ff0000;stroke-width:0.25;"/>
        <!-- Circle -->
        <circle cx="423" cy="365" r="2" style="stroke:#ff0000;stroke-width:0.25;"/>
        <!-- Circle -->
        <circle cx="131" cy="438" r="2" style="stroke:#ff0000;stroke-width:0.25;"/>
        <!-- Circle -->
        <circle cx="277" cy="438" r="2" style="stroke:#ff0000;stroke-width:0.25;"/>
        <!-- Circle -->
        <circle cx="1153" cy="438" r="2" style="stroke:#ff0000;stroke-width:0.25;"/>
        <!-- Circle -->
        <circle cx="1226" cy="438" r="2" style="stroke:#ff0000;stroke-width:0.25;"/>
        <!-- Circle -->
        <circle cx="1007" cy="438" r="2" style="stroke:#ff0000;stroke-width:0.25;"/>
        <!-- Circle -->
        <circle cx="1080" cy="438" r="2" style="stroke:#ff0000;stroke-width:0.25;"/>
        <!-- Circle -->
        <circle cx="934" cy="511" r="2" style="stroke:#ff0000;stroke-width:0.25;"/>
        <!-- Circle -->
        <circle cx="1007" cy="511" r="2" style="stroke:#ff0000;stroke-width:0.25;"/>
        <!-- Circle -->
        <circle cx="788" cy="511" r="2" style="stroke:#ff0000;stroke-width:0.25;"/>
        <!-- Circle -->
        <circle cx="861" cy="511" r="2" style="stroke:#ff0000;stroke-width:0.25;"/>
        <!-- Circle -->
        <circle cx="496" cy="511" r="2" style="stroke:#ff0000;stroke-width:0.25;"/>
        <!-- Circle -->
        <circle cx="715" cy="511" r="2" style="stroke:#ff0000;stroke-width:0.25;"/>
        <!-- Circle -->
        <circle cx="350" cy="511" r="2" style="stroke:#ff0000;stroke-width:0.25;"/>
        <!-- Circle -->
        <circle cx="423" cy="438" r="2" style="stroke:#ff0000;stroke-width:0.25;"/>
        <!-- Circle -->
        <circle cx="204" cy="438" r="2" style="stroke:#ff0000;stroke-width:0.25;"/>
        <!-- Circle -->
        <circle cx="277" cy="511" r="2" style="stroke:#ff0000;stroke-width:0.25;"/>
        <!-- Circle -->
        <circle cx="58" cy="438" r="2" style="stroke:#ff0000;stroke-width:0.25;"/>
        <!-- Circle -->
        <circle cx="1226" cy="511" r="2" style="stroke:#ff0000;stroke-width:0.25;"/>
        <!-- Circle -->
        <circle cx="131" cy="511" r="2" style="stroke:#ff0000;stroke-width:0.25;"/>
        <!-- Circle -->
        <circle cx="1080" cy="511" r="2" style="stroke:#ff0000;stroke-width:0.25;"/>
        <!-- Circle -->
        <circle cx="1153" cy="511" r="2" style="stroke:#ff0000;stroke-width:0.25;"/>
        <!-- Circle -->
        <circle cx="1007" cy="584" r="2" style="stroke:#ff0000;stroke-width:0.25;"/>
        <!-- Circle -->
        <circle cx="1080" cy="584" r="2" style="stroke:#ff0000;stroke-width:0.25;"/>
        <!-- Circle -->
        <circle cx="861" cy="584" r="2" style="stroke:#ff0000;stroke-width:0.25;"/>
        <!-- Circle -->
        <circle cx="934" cy="584" r="2" style="stroke:#ff0000;stroke-width:0.25;"/>
        <!-- Circle -->
        <circle cx="715" cy="584" r="2" style="stroke:#ff0000;stroke-width:0.25;"/>
        <!-- Circle -->
        <circle cx="788" cy="584" r="2" style="stroke:#ff0000;stroke-width:0.25;"/>
        <!-- Circle -->
        <circle cx="496" cy="584" r="2" style="stroke:#ff0000;stroke-width:0.25;"/>
        <!-- Circle -->
        <circle cx="204" cy="511" r="2" style="stroke:#ff0000;stroke-width:0.25;"/>
        <!-- Circle -->
        <circle cx="569" cy="511" r="2" style="stroke:#ff0000;stroke-width:0.25;"/>
        <!-- Circle -->
        <circle cx="58" cy="511" r="2" style="stroke:#ff0000;stroke-width:0.25;"/>
        <!-- Circle -->
        <circle cx="423" cy="511" r="2" style="stroke:#ff0000;stroke-width:0.25;"/>
        <!-- Circle -->
        <circle cx="131" cy="584" r="2" style="stroke:#ff0000;stroke-width:0.25;"/>
        <!-- Circle -->
        <circle cx="277" cy="584" r="2" style="stroke:#ff0000;stroke-width:0.25;"/>
        <!-- Circle -->
        <circle cx="1153" cy="584" r="2" style="stroke:#ff0000;stroke-width:0.25;"/>
        <!-- Circle -->
        <circle cx="1226" cy="584" r="2" style="stroke:#ff0000;stroke-width:0.25;"/>
        <!-- Circle -->
        <circle cx="1080" cy="657" r="2" style="stroke:#ff0000;stroke-width:0.25;"/>
        <!-- Circle -->
        <circle cx="1153" cy="657" r="2" style="stroke:#ff0000;stroke-width:0.25;"/>
        <!-- Circle -->
        <circle cx="934" cy="657" r="2" style="stroke:#ff0000;stroke-width:0.25;"/>
        <!-- Circle -->
        <circle cx="1007" cy="657" r="2" style="stroke:#ff0000;stroke-width:0.25;"/>
        <!-- Circle -->
        <circle cx="788" cy="657" r="2" style="stroke:#ff0000;stroke-width:0.25;"/>
        <!-- Circle -->
        <circle cx="861" cy="657" r="2" style="stroke:#ff0000;stroke-width:0.25;"/>
        <!-- Circle -->
        <circle cx="496" cy="657" r="2" style="stroke:#ff0000;stroke-width:0.25;"/>
        <!-- Circle -->
        <circle cx="715" cy="657" r="2" style="stroke:#ff0000;stroke-width:0.25;"/>
        <!-- Circle -->
        <circle cx="569" cy="584" r="2" style="stroke:#ff0000;stroke-width:0.25;"/>
        <!-- Circle -->
        <circle cx="350" cy="584" r="2" style="stroke:#ff0000;stroke-width:0.25;"/>
        <!-- Circle -->
        <circle cx="423" cy="584" r="2" style="stroke:#ff0000;stroke-width:0.25;"/>
        <!-- Circle -->
        <circle cx="204" cy="584" r="2" style="stroke:#ff0000;stroke-width:0.25;"/>
        <!-- Circle -->
        <circle cx="277" cy="657" r="2" style="stroke:#ff0000;stroke-width:0.25;"/>
        <!-- Circle -->
        <circle cx="58" cy="584" r="2" style="stroke:#ff0000;stroke-width:0.25;"/>
        <!-- Circle -->
        <circle cx="1226" cy="657" r="2" style="stroke:#ff0000;stroke-width:0.25;"/>
        <!-- Circle -->
        <circle cx="131" cy="657" r="2" style="stroke:#ff0000;stroke-width:0.25;"/>
        <!-- Circle -->
        <circle cx="1153" cy="730" r="2" style="stroke:#ff0000;stroke-width:0.25;"/>
        <!-- Circle -->
        <circle cx="1226" cy="730" r="2" style="stroke:#ff0000;stroke-width:0.25;"/>
        <!-- Circle -->
        <circle cx="1007" cy="730" r="2" style="stroke:#ff0000;stroke-width:0.25;"/>
        <!-- Circle -->
        <circle cx="1080" cy="730" r="2" style="stroke:#ff0000;stroke-width:0.25;"/>
        <!-- Circle -->
        <circle cx="861" cy="730" r="2" style="stroke:#ff0000;stroke-width:0.25;"/>
        <!-- Circle -->
        <circle cx="934" cy="730" r="2" style="stroke:#ff0000;stroke-width:0.25;"/>
        <!-- Circle -->
        <circle cx="715" cy="730" r="2" style="stroke:#ff0000;stroke-width:0.25;"/>
        <!-- Circle -->
        <circle cx="788" cy="730" r="2" style="stroke:#ff0000;stroke-width:0.25;"/>
        <!-- Circle -->
        <circle cx="350" cy="657" r="2" style="stroke:#ff0000;stroke-width:0.25;"/>
        <!-- Circle -->
        <circle cx="204" cy="657" r="2" style="stroke:#ff0000;stroke-width:0.25;"/>
        <!-- Circle -->
        <circle cx="569" cy="657" r="2" style="stroke:#ff0000;stroke-width:0.25;"/>
        <!-- Circle -->
        <circle cx="58" cy="657" r="2" style="stroke:#ff0000;stroke-width:0.25;"/>
        <!-- Circle -->
        <circle cx="423" cy="657" r="2" style="stroke:#ff0000;stroke-width:0.25;"/>
        <!-- Circle -->
        <circle cx="131" cy="730" r="2" style="stroke:#ff0000;stroke-width:0.25;"/>
        <!-- Circle -->
        <circle cx="277" cy="730" r="2" style="stroke:#ff0000;stroke-width:0.25;"/>
        <!-- Circle -->
        <circle cx="1226" cy="803" r="2" style="stroke:#ff0000;stroke-width:0.25;"/>
        <!-- Circle -->
        <circle cx="131" cy="803" r="2" style="stroke:#ff0000;stroke-width:0.25;"/>
        <!-- Circle -->
        <circle cx="1080" cy="803" r="2" style="stroke:#ff0000;stroke-width:0.25;"/>
        <!-- Circle -->
        <circle cx="1153" cy="803" r="2" style="stroke:#ff0000;stroke-width:0.25;"/>
        <!-- Circle -->
        <circle cx="934" cy="803" r="2" style="stroke:#ff0000;stroke-width:0.25;"/>
        <!-- Circle -->
        <circle cx="1007" cy="803" r="2" style="stroke:#ff0000;stroke-width:0.25;"/>
        <!-- Circle -->
        <circle cx="788" cy="803" r="2" style="stroke:#ff0000;stroke-width:0.25;"/>
        <!-- Circle -->
        <circle cx="861" cy="803" r="2" style="stroke:#ff0000;stroke-width:0.25;"/>
        <!-- Circle -->
        <circle cx="496" cy="730" r="2" style="stroke:#ff0000;stroke-width:0.25;"/>
        <!-- Circle -->
        <circle cx="569" cy="730" r="2" style="stroke:#ff0000;stroke-width:0.25;"/>
        <!-- Circle -->
        <circle cx="350" cy="730" r="2" style="stroke:#ff0000;stroke-width:0.25;"/>
        <!-- Circle -->
        <circle cx="423" cy="730" r="2" style="stroke:#ff0000;stroke-width:0.25;"/>
        <!-- Circle -->
        <circle cx="204" cy="730" r="2" style="stroke:#ff0000;stroke-width:0.25;"/>
        <!-- Circle -->
        <circle cx="277" cy="803" r="2" style="stroke:#ff0000;stroke-width:0.25;"/>
        <!-- Circle -->
        <circle cx="58" cy="730" r="2" style="stroke:#ff0000;stroke-width:0.25;"/>
        <!-- Circle -->
        <circle cx="1153" cy="1679" r="2" style="stroke:#ff0000;stroke-width:0.25;"/>
        <!-- Circle -->
        <circle cx="131" cy="1679" r="2" style="stroke:#ff0000;stroke-width:0.25;"/>
        <!-- Circle -->
        <circle cx="277" cy="1679" r="2" style="stroke:#ff0000;stroke-width:0.25;"/>
        <!-- Circle -->
        <circle cx="58" cy="1679" r="2" style="stroke:#ff0000;stroke-width:0.25;"/>
        <!-- Circle -->
        <circle cx="423" cy="1679" r="2" style="stroke:#ff0000;stroke-width:0.25;"/>
        <!-- Circle -->
        <circle cx="204" cy="1679" r="2" style="stroke:#ff0000;stroke-width:0.25;"/>
        <!-- Circle -->
        <circle cx="569" cy="1679" r="2" style="stroke:#ff0000;stroke-width:0.25;"/>
        <!-- Circle -->
        <circle cx="350" cy="1679" r="2" style="stroke:#ff0000;stroke-width:0.25;"/>
        <!-- Circle -->
        <circle cx="496" cy="803" r="2" style="stroke:#ff0000;stroke-width:0.25;"/>
        <!-- Circle -->
        <circle cx="715" cy="803" r="2" style="stroke:#ff0000;stroke-width:0.25;"/>
        <!-- Circle -->
        <circle cx="350" cy="803" r="2" style="stroke:#ff0000;stroke-width:0.25;"/>
        <!-- Circle -->
        <circle cx="204" cy="803" r="2" style="stroke:#ff0000;stroke-width:0.25;"/>
        <!-- Circle -->
        <circle cx="569" cy="803" r="2" style="stroke:#ff0000;stroke-width:0.25;"/>
        <!-- Circle -->
        <circle cx="58" cy="803" r="2" style="stroke:#ff0000;stroke-width:0.25;"/>
        <!-- Circle -->
        <circle cx="423" cy="803" r="2" style="stroke:#ff0000;stroke-width:0.25;"/>
        <!-- Circle -->
        <circle cx="131" cy="1606" r="2" style="stroke:#ff0000;stroke-width:0.25;"/>
        <!-- Circle -->
        <circle cx="1226" cy="1679" r="2" style="stroke:#ff0000;stroke-width:0.25;"/>
        <!-- Circle -->
        <circle cx="58" cy="1606" r="2" style="stroke:#ff0000;stroke-width:0.25;"/>
        <!-- Circle -->
        <circle cx="1153" cy="1606" r="2" style="stroke:#ff0000;stroke-width:0.25;"/>
        <!-- Circle -->
        <circle cx="204" cy="1606" r="2" style="stroke:#ff0000;stroke-width:0.25;"/>
        <!-- Circle -->
        <circle cx="277" cy="1606" r="2" style="stroke:#ff0000;stroke-width:0.25;"/>
        <!-- Circle -->
        <circle cx="350" cy="1606" r="2" style="stroke:#ff0000;stroke-width:0.25;"/>
        <!-- Circle -->
        <circle cx="423" cy="1606" r="2" style="stroke:#ff0000;stroke-width:0.25;"/>
        <!-- Circle -->
        <circle cx="496" cy="1679" r="2" style="stroke:#ff0000;stroke-width:0.25;"/>
        <!-- Circle -->
        <circle cx="715" cy="1679" r="2" style="stroke:#ff0000;stroke-width:0.25;"/>
        <!-- Circle -->
        <circle cx="788" cy="1679" r="2" style="stroke:#ff0000;stroke-width:0.25;"/>
        <!-- Circle -->
        <circle cx="861" cy="1679" r="2" style="stroke:#ff0000;stroke-width:0.25;"/>
        <!-- Circle -->
        <circle cx="934" cy="1679" r="2" style="stroke:#ff0000;stroke-width:0.25;"/>
        <!-- Circle -->
        <circle cx="1007" cy="1679" r="2" style="stroke:#ff0000;stroke-width:0.25;"/>
        <!-- Circle -->
        <circle cx="1080" cy="1679" r="2" style="stroke:#ff0000;stroke-width:0.25;"/>
        <!-- Circle -->
        <circle cx="1226" cy="1606" r="2" style="stroke:#ff0000;stroke-width:0.25;"/>
        <!-- Circle -->
        <circle cx="1007" cy="1606" r="2" style="stroke:#ff0000;stroke-width:0.25;"/>
        <!-- Circle -->
        <circle cx="1153" cy="1533" r="2" style="stroke:#ff0000;stroke-width:0.25;"/>
        <!-- Circle -->
        <circle cx="131" cy="1533" r="2" style="stroke:#ff0000;stroke-width:0.25;"/>
        <!-- Circle -->
        <circle cx="277" cy="1533" r="2" style="stroke:#ff0000;stroke-width:0.25;"/>
        <!-- Circle -->
        <circle cx="58" cy="1533" r="2" style="stroke:#ff0000;stroke-width:0.25;"/>
        <!-- Circle -->
        <circle cx="423" cy="1533" r="2" style="stroke:#ff0000;stroke-width:0.25;"/>
        <!-- Circle -->
        <circle cx="204" cy="1533" r="2" style="stroke:#ff0000;stroke-width:0.25;"/>
        <!-- Circle -->
        <circle cx="496" cy="1606" r="2" style="stroke:#ff0000;stroke-width:0.25;"/>
        <!-- Circle -->
        <circle cx="569" cy="1606" r="2" style="stroke:#ff0000;stroke-width:0.25;"/>
        <!-- Circle -->
        <circle cx="788" cy="1606" r="2" style="stroke:#ff0000;stroke-width:0.25;"/>
        <!-- Circle -->
        <circle cx="934" cy="1606" r="2" style="stroke:#ff0000;stroke-width:0.25;"/>
        <!-- Circle -->
        <circle cx="715" cy="1606" r="2" style="stroke:#ff0000;stroke-width:0.25;"/>
        <!-- Circle -->
        <circle cx="1080" cy="1606" r="2" style="stroke:#ff0000;stroke-width:0.25;"/>
        <!-- Circle -->
        <circle cx="861" cy="1606" r="2" style="stroke:#ff0000;stroke-width:0.25;"/>
        <!-- Circle -->
        <circle cx="1007" cy="1533" r="2" style="stroke:#ff0000;stroke-width:0.25;"/>
        <!-- Circle -->
        <circle cx="1080" cy="1533" r="2" style="stroke:#ff0000;stroke-width:0.25;"/>
        <!-- Circle -->
        <circle cx="131" cy="1460" r="2" style="stroke:#ff0000;stroke-width:0.25;"/>
        <!-- Circle -->
        <circle cx="1226" cy="1533" r="2" style="stroke:#ff0000;stroke-width:0.25;"/>
        <!-- Circle -->
        <circle cx="58" cy="1460" r="2" style="stroke:#ff0000;stroke-width:0.25;"/>
        <!-- Circle -->
        <circle cx="1153" cy="1460" r="2" style="stroke:#ff0000;stroke-width:0.25;"/>
        <!-- Circle -->
        <circle cx="204" cy="1460" r="2" style="stroke:#ff0000;stroke-width:0.25;"/>
        <!-- Circle -->
        <circle cx="277" cy="1460" r="2" style="stroke:#ff0000;stroke-width:0.25;"/>
        <!-- Circle -->
        <circle cx="569" cy="1533" r="2" style="stroke:#ff0000;stroke-width:0.25;"/>
        <!-- Circle -->
        <circle cx="350" cy="1533" r="2" style="stroke:#ff0000;stroke-width:0.25;"/>
        <!-- Circle -->
        <circle cx="496" cy="1533" r="2" style="stroke:#ff0000;stroke-width:0.25;"/>
        <!-- Circle -->
        <circle cx="715" cy="1533" r="2" style="stroke:#ff0000;stroke-width:0.25;"/>
        <!-- Circle -->
        <circle cx="788" cy="1533" r="2" style="stroke:#ff0000;stroke-width:0.25;"/>
        <!-- Circle -->
        <circle cx="861" cy="1533" r="2" style="stroke:#ff0000;stroke-width:0.25;"/>
        <!-- Circle -->
        <circle cx="934" cy="1533" r="2" style="stroke:#ff0000;stroke-width:0.25;"/>
        <!-- Circle -->
        <circle cx="1080" cy="1460" r="2" style="stroke:#ff0000;stroke-width:0.25;"/>
        <!-- Circle -->
        <circle cx="861" cy="1460" r="2" style="stroke:#ff0000;stroke-width:0.25;"/>
        <!-- Circle -->
        <circle cx="1226" cy="1460" r="2" style="stroke:#ff0000;stroke-width:0.25;"/>
        <!-- Circle -->
        <circle cx="1007" cy="1460" r="2" style="stroke:#ff0000;stroke-width:0.25;"/>
        <!-- Circle -->
        <circle cx="1153" cy="1387" r="2" style="stroke:#ff0000;stroke-width:0.25;"/>
        <!-- Circle -->
        <circle cx="131" cy="1387" r="2" style="stroke:#ff0000;stroke-width:0.25;"/>
        <!-- Circle -->
        <circle cx="277" cy="1387" r="2" style="stroke:#ff0000;stroke-width:0.25;"/>
        <!-- Circle -->
        <circle cx="58" cy="1387" r="2" style="stroke:#ff0000;stroke-width:0.25;"/>
        <!-- Circle -->
        <circle cx="350" cy="1460" r="2" style="stroke:#ff0000;stroke-width:0.25;"/>
        <!-- Circle -->
        <circle cx="423" cy="1460" r="2" style="stroke:#ff0000;stroke-width:0.25;"/>
        <!-- Circle -->
        <circle cx="496" cy="1460" r="2" style="stroke:#ff0000;stroke-width:0.25;"/>
        <!-- Circle -->
        <circle cx="569" cy="1460" r="2" style="stroke:#ff0000;stroke-width:0.25;"/>
        <!-- Circle -->
        <circle cx="788" cy="1460" r="2" style="stroke:#ff0000;stroke-width:0.25;"/>
        <!-- Circle -->
        <circle cx="934" cy="1460" r="2" style="stroke:#ff0000;stroke-width:0.25;"/>
        <!-- Circle -->
        <circle cx="715" cy="1460" r="2" style="stroke:#ff0000;stroke-width:0.25;"/>
        <!-- Circle -->
        <circle cx="861" cy="1387" r="2" style="stroke:#ff0000;stroke-width:0.25;"/>
        <!-- Circle -->
        <circle cx="934" cy="1387" r="2" style="stroke:#ff0000;stroke-width:0.25;"/>
        <!-- Circle -->
        <circle cx="1007" cy="1387" r="2" style="stroke:#ff0000;stroke-width:0.25;"/>
        <!-- Circle -->
        <circle cx="1080" cy="1387" r="2" style="stroke:#ff0000;stroke-width:0.25;"/>
        <!-- Circle -->
        <circle cx="131" cy="1314" r="2" style="stroke:#ff0000;stroke-width:0.25;"/>
        <!-- Circle -->
        <circle cx="1226" cy="1387" r="2" style="stroke:#ff0000;stroke-width:0.25;"/>
        <!-- Circle -->
        <circle cx="58" cy="1314" r="2" style="stroke:#ff0000;stroke-width:0.25;"/>
        <!-- Circle -->
        <circle cx="1153" cy="1314" r="2" style="stroke:#ff0000;stroke-width:0.25;"/>
        <!-- Circle -->
        <circle cx="423" cy="1387" r="2" style="stroke:#ff0000;stroke-width:0.25;"/>
        <!-- Circle -->
        <circle cx="204" cy="1387" r="2" style="stroke:#ff0000;stroke-width:0.25;"/>
        <!-- Circle -->
        <circle cx="569" cy="1387" r="2" style="stroke:#ff0000;stroke-width:0.25;"/>
        <!-- Circle -->
        <circle cx="350" cy="1387" r="2" style="stroke:#ff0000;stroke-width:0.25;"/>
        <!-- Circle -->
        <circle cx="496" cy="1387" r="2" style="stroke:#ff0000;stroke-width:0.25;"/>
        <!-- Circle -->
        <circle cx="715" cy="1387" r="2" style="stroke:#ff0000;stroke-width:0.25;"/>
        <!-- Circle -->
        <circle cx="788" cy="1387" r="2" style="stroke:#ff0000;stroke-width:0.25;"/>
        <!-- Circle -->
        <circle cx="934" cy="1314" r="2" style="stroke:#ff0000;stroke-width:0.25;"/>
        <!-- Circle -->
        <circle cx="715" cy="1314" r="2" style="stroke:#ff0000;stroke-width:0.25;"/>
        <!-- Circle -->
        <circle cx="1080" cy="1314" r="2" style="stroke:#ff0000;stroke-width:0.25;"/>
        <!-- Circle -->
        <circle cx="861" cy="1314" r="2" style="stroke:#ff0000;stroke-width:0.25;"/>
        <!-- Circle -->
        <circle cx="1226" cy="1314" r="2" style="stroke:#ff0000;stroke-width:0.25;"/>
        <!-- Circle -->
        <circle cx="1007" cy="1314" r="2" style="stroke:#ff0000;stroke-width:0.25;"/>
        <!-- Circle -->
        <circle cx="1153" cy="1241" r="2" style="stroke:#ff0000;stroke-width:0.25;"/>
        <!-- Circle -->
        <circle cx="131" cy="1241" r="2" style="stroke:#ff0000;stroke-width:0.25;"/>
        <!-- Circle -->
        <circle cx="204" cy="1314" r="2" style="stroke:#ff0000;stroke-width:0.25;"/>
        <!-- Circle -->
        <circle cx="277" cy="1314" r="2" style="stroke:#ff0000;stroke-width:0.25;"/>
        <!-- Circle -->
        <circle cx="350" cy="1314" r="2" style="stroke:#ff0000;stroke-width:0.25;"/>
        <!-- Circle -->
        <circle cx="423" cy="1314" r="2" style="stroke:#ff0000;stroke-width:0.25;"/>
        <!-- Circle -->
        <circle cx="496" cy="1314" r="2" style="stroke:#ff0000;stroke-width:0.25;"/>
        <!-- Circle -->
        <circle cx="569" cy="1314" r="2" style="stroke:#ff0000;stroke-width:0.25;"/>
        <!-- Circle -->
        <circle cx="788" cy="1314" r="2" style="stroke:#ff0000;stroke-width:0.25;"/>
        <!-- Circle -->
        <circle cx="715" cy="1241" r="2" style="stroke:#ff0000;stroke-width:0.25;"/>
        <!-- Circle -->
        <circle cx="788" cy="1241" r="2" style="stroke:#ff0000;stroke-width:0.25;"/>
        <!-- Circle -->
        <circle cx="861" cy="1241" r="2" style="stroke:#ff0000;stroke-width:0.25;"/>
        <!-- Circle -->
        <circle cx="934" cy="1241" r="2" style="stroke:#ff0000;stroke-width:0.25;"/>
        <!-- Circle -->
        <circle cx="1007" cy="1241" r="2" style="stroke:#ff0000;stroke-width:0.25;"/>
        <!-- Circle -->
        <circle cx="1080" cy="1241" r="2" style="stroke:#ff0000;stroke-width:0.25;"/>
        <!-- Circle -->
        <circle cx="131" cy="1168" r="2" style="stroke:#ff0000;stroke-width:0.25;"/>
        <!-- Circle -->
        <circle cx="1226" cy="1241" r="2" style="stroke:#ff0000;stroke-width:0.25;"/>
        <!-- Circle -->
        <circle cx="277" cy="1241" r="2" style="stroke:#ff0000;stroke-width:0.25;"/>
        <!-- Circle -->
        <circle cx="58" cy="1241" r="2" style="stroke:#ff0000;stroke-width:0.25;"/>
        <!-- Circle -->
        <circle cx="423" cy="1241" r="2" style="stroke:#ff0000;stroke-width:0.25;"/>
        <!-- Circle -->
        <circle cx="204" cy="1241" r="2" style="stroke:#ff0000;stroke-width:0.25;"/>
        <!-- Circle -->
        <circle cx="569" cy="1241" r="2" style="stroke:#ff0000;stroke-width:0.25;"/>
        <!-- Circle -->
        <circle cx="350" cy="1241" r="2" style="stroke:#ff0000;stroke-width:0.25;"/>
        <!-- Circle -->
        <circle cx="496" cy="1241" r="2" style="stroke:#ff0000;stroke-width:0.25;"/>
        <!-- Circle -->
        <circle cx="788" cy="1168" r="2" style="stroke:#ff0000;stroke-width:0.25;"/>
        <!-- Circle -->
        <circle cx="934" cy="1168" r="2" style="stroke:#ff0000;stroke-width:0.25;"/>
        <!-- Circle -->
        <circle cx="715" cy="1168" r="2" style="stroke:#ff0000;stroke-width:0.25;"/>
        <!-- Circle -->
        <circle cx="1080" cy="1168" r="2" style="stroke:#ff0000;stroke-width:0.25;"/>
        <!-- Circle -->
        <circle cx="861" cy="1168" r="2" style="stroke:#ff0000;stroke-width:0.25;"/>
        <!-- Circle -->
        <circle cx="1226" cy="1168" r="2" style="stroke:#ff0000;stroke-width:0.25;"/>
        <!-- Circle -->
        <circle cx="1007" cy="1168" r="2" style="stroke:#ff0000;stroke-width:0.25;"/>
        <!-- Circle -->
        <circle cx="58" cy="1168" r="2" style="stroke:#ff0000;stroke-width:0.25;"/>
        <!-- Circle -->
        <circle cx="1153" cy="1168" r="2" style="stroke:#ff0000;stroke-width:0.25;"/>
        <!-- Circle -->
        <circle cx="204" cy="1168" r="2" style="stroke:#ff0000;stroke-width:0.25;"/>
        <!-- Circle -->
        <circle cx="277" cy="1168" r="2" style="stroke:#ff0000;stroke-width:0.25;"/>
        <!-- Circle -->
        <circle cx="350" cy="1168" r="2" style="stroke:#ff0000;stroke-width:0.25;"/>
        <!-- Circle -->
        <circle cx="423" cy="1168" r="2" style="stroke:#ff0000;stroke-width:0.25;"/>
        <!-- Circle -->
        <circle cx="496" cy="1168" r="2" style="stroke:#ff0000;stroke-width:0.25;"/>
        <!-- Circle -->
        <circle cx="569" cy="1168" r="2" style="stroke:#ff0000;stroke-width:0.25;"/>
        <!-- Circle -->
        <circle cx="496" cy="1095" r="2" style="stroke:#ff0000;stroke-width:0.25;"/>
        <!-- Circle -->
        <circle cx="715" cy="1095" r="2" style="stroke:#ff0000;stroke-width:0.25;"/>
        <!-- Circle -->
        <circle cx="788" cy="1095" r="2" style="stroke:#ff0000;stroke-width:0.25;"/>
        <!-- Circle -->
        <circle cx="861" cy="1095" r="2" style="stroke:#ff0000;stroke-width:0.25;"/>
        <!-- Circle -->
        <circle cx="934" cy="1095" r="2" style="stroke:#ff0000;stroke-width:0.25;"/>
        <!-- Circle -->
        <circle cx="1007" cy="1095" r="2" style="stroke:#ff0000;stroke-width:0.25;"/>
        <!-- Circle -->
        <circle cx="1080" cy="1095" r="2" style="stroke:#ff0000;stroke-width:0.25;"/>
        <!-- Circle -->
        <circle cx="1153" cy="1095" r="2" style="stroke:#ff0000;stroke-width:0.25;"/>
        <!-- Circle -->
        <circle cx="131" cy="1095" r="2" style="stroke:#ff0000;stroke-width:0.25;"/>
        <!-- Circle -->
        <circle cx="277" cy="1095" r="2" style="stroke:#ff0000;stroke-width:0.25;"/>
        <!-- Circle -->
        <circle cx="58" cy="1095" r="2" style="stroke:#ff0000;stroke-width:0.25;"/>
        <!-- Circle -->
        <circle cx="423" cy="1095" r="2" style="stroke:#ff0000;stroke-width:0.25;"/>
        <!-- Circle -->
        <circle cx="204" cy="1095" r="2" style="stroke:#ff0000;stroke-width:0.25;"/>
        <!-- Circle -->
        <circle cx="569" cy="1095" r="2" style="stroke:#ff0000;stroke-width:0.25;"/>
        <!-- Circle -->
        <circle cx="350" cy="1095" r="2" style="stroke:#ff0000;stroke-width:0.25;"/>
        <!-- Circle -->
        <circle cx="496" cy="1022" r="2" style="stroke:#ff0000;stroke-width:0.25;"/>
        <!-- Circle -->
        <circle cx="569" cy="1022" r="2" style="stroke:#ff0000;stroke-width:0.25;"/>
        <!-- Circle -->
        <circle cx="788" cy="1022" r="2" style="stroke:#ff0000;stroke-width:0.25;"/>
        <!-- Circle -->
        <circle cx="934" cy="1022" r="2" style="stroke:#ff0000;stroke-width:0.25;"/>
        <!-- Circle -->
        <circle cx="715" cy="1022" r="2" style="stroke:#ff0000;stroke-width:0.25;"/>
        <!-- Circle -->
        <circle cx="1080" cy="1022" r="2" style="stroke:#ff0000;stroke-width:0.25;"/>
        <!-- Circle -->
        <circle cx="861" cy="1022" r="2" style="stroke:#ff0000;stroke-width:0.25;"/>
        <!-- Circle -->
        <circle cx="131" cy="1022" r="2" style="stroke:#ff0000;stroke-width:0.25;"/>
        <!-- Circle -->
        <circle cx="1226" cy="1095" r="2" style="stroke:#ff0000;stroke-width:0.25;"/>
        <!-- Circle -->
        <circle cx="58" cy="1022" r="2" style="stroke:#ff0000;stroke-width:0.25;"/>
        <!-- Circle -->
        <circle cx="1153" cy="1022" r="2" style="stroke:#ff0000;stroke-width:0.25;"/>
        <!-- Circle -->
        <circle cx="204" cy="1022" r="2" style="stroke:#ff0000;stroke-width:0.25;"/>
        <!-- Circle -->
        <circle cx="277" cy="1022" r="2" style="stroke:#ff0000;stroke-width:0.25;"/>
        <!-- Circle -->
        <circle cx="350" cy="1022" r="2" style="stroke:#ff0000;stroke-width:0.25;"/>
        <!-- Circle -->
        <circle cx="423" cy="1022" r="2" style="stroke:#ff0000;stroke-width:0.25;"/>
        <!-- Circle -->
        <circle cx="715" cy="949" r="2" style="stroke:#ff0000;stroke-width:0.25;"/>
        <!-- Circle -->
        <circle cx="788" cy="949" r="2" style="stroke:#ff0000;stroke-width:0.25;"/>
        <!-- Circle -->
        <circle cx="496" cy="949" r="2" style="stroke:#ff0000;stroke-width:0.25;"/>
        <!-- Circle -->
        <circle cx="569" cy="949" r="2" style="stroke:#ff0000;stroke-width:0.25;"/>
        <!-- Circle -->
        <circle cx="350" cy="949" r="2" style="stroke:#ff0000;stroke-width:0.25;"/>
        <!-- Circle -->
        <circle cx="423" cy="949" r="2" style="stroke:#ff0000;stroke-width:0.25;"/>
        <!-- Circle -->
        <circle cx="1226" cy="1022" r="2" style="stroke:#ff0000;stroke-width:0.25;"/>
        <!-- Circle -->
        <circle cx="1007" cy="1022" r="2" style="stroke:#ff0000;stroke-width:0.25;"/>
        <!-- Circle -->
        <circle cx="1153" cy="949" r="2" style="stroke:#ff0000;stroke-width:0.25;"/>
        <!-- Circle -->
        <circle cx="1226" cy="949" r="2" style="stroke:#ff0000;stroke-width:0.25;"/>
        <!-- Circle -->
        <circle cx="1007" cy="949" r="2" style="stroke:#ff0000;stroke-width:0.25;"/>
        <!-- Circle -->
        <circle cx="1080" cy="949" r="2" style="stroke:#ff0000;stroke-width:0.25;"/>
        <!-- Circle -->
        <circle cx="861" cy="949" r="2" style="stroke:#ff0000;stroke-width:0.25;"/>
        <!-- Circle -->
        <circle cx="934" cy="949" r="2" style="stroke:#ff0000;stroke-width:0.25;"/>
        <!-- Circle -->
        <circle cx="204" cy="949" r="2" style="stroke:#ff0000;stroke-width:0.25;"/>
        <!-- Circle -->
        <circle cx="277" cy="949" r="2" style="stroke:#ff0000;stroke-width:0.25;"/>
        <!-- Circle -->
        <circle cx="58" cy="949" r="2" style="stroke:#ff0000;stroke-width:0.25;"/>
        <!-- Circle -->
        <circle cx="131" cy="949" r="2" style="stroke:#ff0000;stroke-width:0.25;"/>
    </g>
</svg>
