<svg xmlns:sodipodi="http://sodipodi.sourceforge.net/DTD/sodipodi-0.dtd" width="793.700787402" height="1122.51968504"><desc>/app/remarkable_math_graph.dxf - scale = 1.000000, origin = (0.000000, 0.000000), method = manual</desc><defs><marker id="DistanceX" orient="auto" refX="0.0" refY="0.0" style="overflow:visible"><path d="M 3,-3 L -3,3 M 0,-5 L  0,5" style="stroke:#000000; stroke-width:0.5"/></marker><pattern height="8" id="Hatch" patternUnits="userSpaceOnUse" width="8" x="0" y="0"><path d="M8 4 l-4,4" linecap="square" stroke="#000000" stroke-width="0.25"/><path d="M6 2 l-4,4" linecap="square" stroke="#000000" stroke-width="0.25"/><path d="M4 0 l-4,4" linecap="square" stroke="#000000" stroke-width="0.25"/></pattern><symbol id="*Model_Space"/><symbol id="*Paper_Space"/></defs><g xmlns:ns0="http://www.inkscape.org/namespaces/inkscape" ns0:groupmode="layer" ns0:label="0"><path d="M 0.000000,1122.519685 L 595.275552,1122.519685 L 595.275552,328.818948 L 0.000000,328.818948 L 0.000000,1122.519685 z" style="stroke:#000000;fill:none"/><path d="M 544.397300,751.108443 L 0.000000,751.108443 L 0.000000,1122.519685 L 544.397300,1122.519685 L 544.397300,751.108443 z" style="stroke:#000000;fill:none"/><path d="M 0.000000,379.697201 L 544.397300,379.697201 L 544.397300,1122.519685 L 0.000000,1122.519685 L 0.000000,379.697201 z" style="stroke:#000000;fill:none"/><path d="M 272.198650,1122.519685 272.198650,379.697201" style="stroke:#000000;fill:none"/></g><g xmlns:ns1="http://www.inkscape.org/namespaces/inkscape" ns1:groupmode="layer" ns1:label="margin"><path d="M 595.275552,328.818948 L 544.397300,328.818948 L 544.397300,1122.519685 L 595.275552,1122.519685 L 595.275552,328.818948 z" style="stroke:#FFFF00;fill:none"/><path d="M 595.275552,328.818948 L 0.000000,328.818948 L 0.000000,379.697201 L 595.275552,379.697201 L 595.275552,328.818948 z" style="stroke:#FFFF00;fill:none"/></g><g xmlns:ns2="http://www.inkscape.org/namespaces/inkscape" ns2:groupmode="layer" ns2:label="checks"><path d="M 270.078723,782.059380 274.318577,782.059380" style="stroke:#FF0000;fill:none"/><path d="M 270.078723,441.599074 274.318577,441.599074" style="stroke:#FF0000;fill:none"/><path d="M 270.078723,410.648138 274.318577,410.648138" style="stroke:#FF0000;fill:none"/><path d="M 270.078723,503.500948 274.318577,503.500948" style="stroke:#FF0000;fill:none"/><path d="M 270.078723,472.550011 274.318577,472.550011" style="stroke:#FF0000;fill:none"/><path d="M 270.078723,565.402822 274.318577,565.402822" style="stroke:#FF0000;fill:none"/><path d="M 270.078723,534.451885 274.318577,534.451885" style="stroke:#FF0000;fill:none"/><path d="M 117.443966,753.228370 117.443966,748.988516" style="stroke:#FF0000;fill:none"/><path d="M 86.493029,753.228370 86.493029,748.988516" style="stroke:#FF0000;fill:none"/><path d="M 179.345840,753.228370 179.345840,748.988516" style="stroke:#FF0000;fill:none"/><path d="M 148.394903,753.228370 148.394903,748.988516" style="stroke:#FF0000;fill:none"/><path d="M 241.247713,753.228370 241.247713,748.988516" style="stroke:#FF0000;fill:none"/><path d="M 210.296776,753.228370 210.296776,748.988516" style="stroke:#FF0000;fill:none"/><path d="M 55.542092,753.228370 55.542092,748.988516" style="stroke:#FF0000;fill:none"/><path d="M 24.591155,753.228370 24.591155,748.988516" style="stroke:#FF0000;fill:none"/><path d="M 303.149587,753.228370 303.149587,748.988516" style="stroke:#FF0000;fill:none"/><path d="M 334.100524,753.228370 334.100524,748.988516" style="stroke:#FF0000;fill:none"/><path d="M 488.855208,753.228370 488.855208,748.988516" style="stroke:#FF0000;fill:none"/><path d="M 519.806145,753.228370 519.806145,748.988516" style="stroke:#FF0000;fill:none"/><path d="M 426.953334,753.228370 426.953334,748.988516" style="stroke:#FF0000;fill:none"/><path d="M 457.904271,753.228370 457.904271,748.988516" style="stroke:#FF0000;fill:none"/><path d="M 365.051461,753.228370 365.051461,748.988516" style="stroke:#FF0000;fill:none"/><path d="M 396.002397,753.228370 396.002397,748.988516" style="stroke:#FF0000;fill:none"/><path d="M 270.078723,998.715938 274.318577,998.715938" style="stroke:#FF0000;fill:none"/><path d="M 270.078723,1029.666875 274.318577,1029.666875" style="stroke:#FF0000;fill:none"/><path d="M 270.078723,936.814064 274.318577,936.814064" style="stroke:#FF0000;fill:none"/><path d="M 270.078723,967.765001 274.318577,967.765001" style="stroke:#FF0000;fill:none"/><path d="M 270.078723,874.912190 274.318577,874.912190" style="stroke:#FF0000;fill:none"/><path d="M 270.078723,905.863127 274.318577,905.863127" style="stroke:#FF0000;fill:none"/><path d="M 270.078723,813.010317 274.318577,813.010317" style="stroke:#FF0000;fill:none"/><path d="M 270.078723,843.961253 274.318577,843.961253" style="stroke:#FF0000;fill:none"/><path d="M 270.078723,1122.519685 274.318577,1122.519685" style="stroke:#FF0000;fill:none"/><path d="M 270.078723,1060.617811 274.318577,1060.617811" style="stroke:#FF0000;fill:none"/><path d="M 270.078723,1091.568748 274.318577,1091.568748" style="stroke:#FF0000;fill:none"/><path d="M 270.078723,627.304696 274.318577,627.304696" style="stroke:#FF0000;fill:none"/><path d="M 270.078723,596.353759 274.318577,596.353759" style="stroke:#FF0000;fill:none"/><path d="M 270.078723,689.206569 274.318577,689.206569" style="stroke:#FF0000;fill:none"/><path d="M 270.078723,658.255632 274.318577,658.255632" style="stroke:#FF0000;fill:none"/><path d="M 270.078723,720.157506 274.318577,720.157506" style="stroke:#FF0000;fill:none"/><path d="M 118.291937,1091.568748 A 0.847971,0.847971 -0.000000 1 0 116.595995,1091.568748 0.847971,0.847971 -0.000000 1 0 118.291937,1091.568748 z" style="stroke:#FF0000;fill:none"/><path d="M 520.654116,1091.568748 A 0.847971,0.847971 -0.000000 1 0 518.958174,1091.568748 0.847971,0.847971 -0.000000 1 0 520.654116,1091.568748 z" style="stroke:#FF0000;fill:none"/><path d="M 56.390063,1091.568748 A 0.847971,0.847971 -0.000000 1 0 54.694121,1091.568748 0.847971,0.847971 -0.000000 1 0 56.390063,1091.568748 z" style="stroke:#FF0000;fill:none"/><path d="M 149.242874,1091.568748 A 0.847971,0.847971 -0.000000 1 0 147.546932,1091.568748 0.847971,0.847971 -0.000000 1 0 149.242874,1091.568748 z" style="stroke:#FF0000;fill:none"/><path d="M 87.341000,1091.568748 A 0.847971,0.847971 -0.000000 1 0 85.645058,1091.568748 0.847971,0.847971 -0.000000 1 0 87.341000,1091.568748 z" style="stroke:#FF0000;fill:none"/><path d="M 242.095684,1091.568748 A 0.847971,0.847971 -0.000000 1 0 240.399742,1091.568748 0.847971,0.847971 -0.000000 1 0 242.095684,1091.568748 z" style="stroke:#FF0000;fill:none"/><path d="M 25.439126,1091.568748 A 0.847971,0.847971 -0.000000 1 0 23.743184,1091.568748 0.847971,0.847971 -0.000000 1 0 25.439126,1091.568748 z" style="stroke:#FF0000;fill:none"/><path d="M 180.193810,1091.568748 A 0.847971,0.847971 -0.000000 1 0 178.497869,1091.568748 0.847971,0.847971 -0.000000 1 0 180.193810,1091.568748 z" style="stroke:#FF0000;fill:none"/><path d="M 56.390063,1060.617811 A 0.847971,0.847971 -0.000000 1 0 54.694121,1060.617811 0.847971,0.847971 -0.000000 1 0 56.390063,1060.617811 z" style="stroke:#FF0000;fill:none"/><path d="M 118.291937,1060.617811 A 0.847971,0.847971 -0.000000 1 0 116.595995,1060.617811 0.847971,0.847971 -0.000000 1 0 118.291937,1060.617811 z" style="stroke:#FF0000;fill:none"/><path d="M 458.752242,1091.568748 A 0.847971,0.847971 -0.000000 1 0 457.056300,1091.568748 0.847971,0.847971 -0.000000 1 0 458.752242,1091.568748 z" style="stroke:#FF0000;fill:none"/><path d="M 489.703179,1091.568748 A 0.847971,0.847971 -0.000000 1 0 488.007237,1091.568748 0.847971,0.847971 -0.000000 1 0 489.703179,1091.568748 z" style="stroke:#FF0000;fill:none"/><path d="M 396.850368,1091.568748 A 0.847971,0.847971 -0.000000 1 0 395.154427,1091.568748 0.847971,0.847971 -0.000000 1 0 396.850368,1091.568748 z" style="stroke:#FF0000;fill:none"/><path d="M 427.801305,1091.568748 A 0.847971,0.847971 -0.000000 1 0 426.105363,1091.568748 0.847971,0.847971 -0.000000 1 0 427.801305,1091.568748 z" style="stroke:#FF0000;fill:none"/><path d="M 334.948495,1091.568748 A 0.847971,0.847971 -0.000000 1 0 333.252553,1091.568748 0.847971,0.847971 -0.000000 1 0 334.948495,1091.568748 z" style="stroke:#FF0000;fill:none"/><path d="M 365.899431,1091.568748 A 0.847971,0.847971 -0.000000 1 0 364.203490,1091.568748 0.847971,0.847971 -0.000000 1 0 365.899431,1091.568748 z" style="stroke:#FF0000;fill:none"/><path d="M 211.144747,1091.568748 A 0.847971,0.847971 -0.000000 1 0 209.448805,1091.568748 0.847971,0.847971 -0.000000 1 0 211.144747,1091.568748 z" style="stroke:#FF0000;fill:none"/><path d="M 303.997558,1091.568748 A 0.847971,0.847971 -0.000000 1 0 302.301616,1091.568748 0.847971,0.847971 -0.000000 1 0 303.997558,1091.568748 z" style="stroke:#FF0000;fill:none"/><path d="M 211.144747,1060.617811 A 0.847971,0.847971 -0.000000 1 0 209.448805,1060.617811 0.847971,0.847971 -0.000000 1 0 211.144747,1060.617811 z" style="stroke:#FF0000;fill:none"/><path d="M 242.095684,1060.617811 A 0.847971,0.847971 -0.000000 1 0 240.399742,1060.617811 0.847971,0.847971 -0.000000 1 0 242.095684,1060.617811 z" style="stroke:#FF0000;fill:none"/><path d="M 149.242874,1060.617811 A 0.847971,0.847971 -0.000000 1 0 147.546932,1060.617811 0.847971,0.847971 -0.000000 1 0 149.242874,1060.617811 z" style="stroke:#FF0000;fill:none"/><path d="M 180.193810,1060.617811 A 0.847971,0.847971 -0.000000 1 0 178.497869,1060.617811 0.847971,0.847971 -0.000000 1 0 180.193810,1060.617811 z" style="stroke:#FF0000;fill:none"/><path d="M 87.341000,1060.617811 A 0.847971,0.847971 -0.000000 1 0 85.645058,1060.617811 0.847971,0.847971 -0.000000 1 0 87.341000,1060.617811 z" style="stroke:#FF0000;fill:none"/><path d="M 118.291937,1029.666875 A 0.847971,0.847971 -0.000000 1 0 116.595995,1029.666875 0.847971,0.847971 -0.000000 1 0 118.291937,1029.666875 z" style="stroke:#FF0000;fill:none"/><path d="M 25.439126,1060.617811 A 0.847971,0.847971 -0.000000 1 0 23.743184,1060.617811 0.847971,0.847971 -0.000000 1 0 25.439126,1060.617811 z" style="stroke:#FF0000;fill:none"/><path d="M 489.703179,1060.617811 A 0.847971,0.847971 -0.000000 1 0 488.007237,1060.617811 0.847971,0.847971 -0.000000 1 0 489.703179,1060.617811 z" style="stroke:#FF0000;fill:none"/><path d="M 520.654116,1060.617811 A 0.847971,0.847971 -0.000000 1 0 518.958174,1060.617811 0.847971,0.847971 -0.000000 1 0 520.654116,1060.617811 z" style="stroke:#FF0000;fill:none"/><path d="M 427.801305,1060.617811 A 0.847971,0.847971 -0.000000 1 0 426.105363,1060.617811 0.847971,0.847971 -0.000000 1 0 427.801305,1060.617811 z" style="stroke:#FF0000;fill:none"/><path d="M 458.752242,1060.617811 A 0.847971,0.847971 -0.000000 1 0 457.056300,1060.617811 0.847971,0.847971 -0.000000 1 0 458.752242,1060.617811 z" style="stroke:#FF0000;fill:none"/><path d="M 365.899431,1060.617811 A 0.847971,0.847971 -0.000000 1 0 364.203490,1060.617811 0.847971,0.847971 -0.000000 1 0 365.899431,1060.617811 z" style="stroke:#FF0000;fill:none"/><path d="M 396.850368,1060.617811 A 0.847971,0.847971 -0.000000 1 0 395.154427,1060.617811 0.847971,0.847971 -0.000000 1 0 396.850368,1060.617811 z" style="stroke:#FF0000;fill:none"/><path d="M 303.997558,1060.617811 A 0.847971,0.847971 -0.000000 1 0 302.301616,1060.617811 0.847971,0.847971 -0.000000 1 0 303.997558,1060.617811 z" style="stroke:#FF0000;fill:none"/><path d="M 334.948495,1060.617811 A 0.847971,0.847971 -0.000000 1 0 333.252553,1060.617811 0.847971,0.847971 -0.000000 1 0 334.948495,1060.617811 z" style="stroke:#FF0000;fill:none"/><path d="M 211.144747,1029.666875 A 0.847971,0.847971 -0.000000 1 0 209.448805,1029.666875 0.847971,0.847971 -0.000000 1 0 211.144747,1029.666875 z" style="stroke:#FF0000;fill:none"/><path d="M 303.997558,1029.666875 A 0.847971,0.847971 -0.000000 1 0 302.301616,1029.666875 0.847971,0.847971 -0.000000 1 0 303.997558,1029.666875 z" style="stroke:#FF0000;fill:none"/><path d="M 149.242874,1029.666875 A 0.847971,0.847971 -0.000000 1 0 147.546932,1029.666875 0.847971,0.847971 -0.000000 1 0 149.242874,1029.666875 z" style="stroke:#FF0000;fill:none"/><path d="M 87.341000,1029.666875 A 0.847971,0.847971 -0.000000 1 0 85.645058,1029.666875 0.847971,0.847971 -0.000000 1 0 87.341000,1029.666875 z" style="stroke:#FF0000;fill:none"/><path d="M 242.095684,1029.666875 A 0.847971,0.847971 -0.000000 1 0 240.399742,1029.666875 0.847971,0.847971 -0.000000 1 0 242.095684,1029.666875 z" style="stroke:#FF0000;fill:none"/><path d="M 25.439126,1029.666875 A 0.847971,0.847971 -0.000000 1 0 23.743184,1029.666875 0.847971,0.847971 -0.000000 1 0 25.439126,1029.666875 z" style="stroke:#FF0000;fill:none"/><path d="M 180.193810,1029.666875 A 0.847971,0.847971 -0.000000 1 0 178.497869,1029.666875 0.847971,0.847971 -0.000000 1 0 180.193810,1029.666875 z" style="stroke:#FF0000;fill:none"/><path d="M 520.654116,1029.666875 A 0.847971,0.847971 -0.000000 1 0 518.958174,1029.666875 0.847971,0.847971 -0.000000 1 0 520.654116,1029.666875 z" style="stroke:#FF0000;fill:none"/><path d="M 56.390063,1029.666875 A 0.847971,0.847971 -0.000000 1 0 54.694121,1029.666875 0.847971,0.847971 -0.000000 1 0 56.390063,1029.666875 z" style="stroke:#FF0000;fill:none"/><path d="M 458.752242,1029.666875 A 0.847971,0.847971 -0.000000 1 0 457.056300,1029.666875 0.847971,0.847971 -0.000000 1 0 458.752242,1029.666875 z" style="stroke:#FF0000;fill:none"/><path d="M 489.703179,1029.666875 A 0.847971,0.847971 -0.000000 1 0 488.007237,1029.666875 0.847971,0.847971 -0.000000 1 0 489.703179,1029.666875 z" style="stroke:#FF0000;fill:none"/><path d="M 396.850368,1029.666875 A 0.847971,0.847971 -0.000000 1 0 395.154427,1029.666875 0.847971,0.847971 -0.000000 1 0 396.850368,1029.666875 z" style="stroke:#FF0000;fill:none"/><path d="M 427.801305,1029.666875 A 0.847971,0.847971 -0.000000 1 0 426.105363,1029.666875 0.847971,0.847971 -0.000000 1 0 427.801305,1029.666875 z" style="stroke:#FF0000;fill:none"/><path d="M 334.948495,1029.666875 A 0.847971,0.847971 -0.000000 1 0 333.252553,1029.666875 0.847971,0.847971 -0.000000 1 0 334.948495,1029.666875 z" style="stroke:#FF0000;fill:none"/><path d="M 365.899431,1029.666875 A 0.847971,0.847971 -0.000000 1 0 364.203490,1029.666875 0.847971,0.847971 -0.000000 1 0 365.899431,1029.666875 z" style="stroke:#FF0000;fill:none"/><path d="M 303.997558,998.715938 A 0.847971,0.847971 -0.000000 1 0 302.301616,998.715938 0.847971,0.847971 -0.000000 1 0 303.997558,998.715938 z" style="stroke:#FF0000;fill:none"/><path d="M 334.948495,998.715938 A 0.847971,0.847971 -0.000000 1 0 333.252553,998.715938 0.847971,0.847971 -0.000000 1 0 334.948495,998.715938 z" style="stroke:#FF0000;fill:none"/><path d="M 211.144747,998.715938 A 0.847971,0.847971 -0.000000 1 0 209.448805,998.715938 0.847971,0.847971 -0.000000 1 0 211.144747,998.715938 z" style="stroke:#FF0000;fill:none"/><path d="M 242.095684,998.715938 A 0.847971,0.847971 -0.000000 1 0 240.399742,998.715938 0.847971,0.847971 -0.000000 1 0 242.095684,998.715938 z" style="stroke:#FF0000;fill:none"/><path d="M 149.242874,998.715938 A 0.847971,0.847971 -0.000000 1 0 147.546932,998.715938 0.847971,0.847971 -0.000000 1 0 149.242874,998.715938 z" style="stroke:#FF0000;fill:none"/><path d="M 180.193810,998.715938 A 0.847971,0.847971 -0.000000 1 0 178.497869,998.715938 0.847971,0.847971 -0.000000 1 0 180.193810,998.715938 z" style="stroke:#FF0000;fill:none"/><path d="M 87.341000,998.715938 A 0.847971,0.847971 -0.000000 1 0 85.645058,998.715938 0.847971,0.847971 -0.000000 1 0 87.341000,998.715938 z" style="stroke:#FF0000;fill:none"/><path d="M 56.390063,998.715938 A 0.847971,0.847971 -0.000000 1 0 54.694121,998.715938 0.847971,0.847971 -0.000000 1 0 56.390063,998.715938 z" style="stroke:#FF0000;fill:none"/><path d="M 118.291937,998.715938 A 0.847971,0.847971 -0.000000 1 0 116.595995,998.715938 0.847971,0.847971 -0.000000 1 0 118.291937,998.715938 z" style="stroke:#FF0000;fill:none"/><path d="M 489.703179,998.715938 A 0.847971,0.847971 -0.000000 1 0 488.007237,998.715938 0.847971,0.847971 -0.000000 1 0 489.703179,998.715938 z" style="stroke:#FF0000;fill:none"/><path d="M 520.654116,998.715938 A 0.847971,0.847971 -0.000000 1 0 518.958174,998.715938 0.847971,0.847971 -0.000000 1 0 520.654116,998.715938 z" style="stroke:#FF0000;fill:none"/><path d="M 427.801305,998.715938 A 0.847971,0.847971 -0.000000 1 0 426.105363,998.715938 0.847971,0.847971 -0.000000 1 0 427.801305,998.715938 z" style="stroke:#FF0000;fill:none"/><path d="M 458.752242,998.715938 A 0.847971,0.847971 -0.000000 1 0 457.056300,998.715938 0.847971,0.847971 -0.000000 1 0 458.752242,998.715938 z" style="stroke:#FF0000;fill:none"/><path d="M 365.899431,998.715938 A 0.847971,0.847971 -0.000000 1 0 364.203490,998.715938 0.847971,0.847971 -0.000000 1 0 365.899431,998.715938 z" style="stroke:#FF0000;fill:none"/><path d="M 396.850368,998.715938 A 0.847971,0.847971 -0.000000 1 0 395.154427,998.715938 0.847971,0.847971 -0.000000 1 0 396.850368,998.715938 z" style="stroke:#FF0000;fill:none"/><path d="M 334.948495,967.765001 A 0.847971,0.847971 -0.000000 1 0 333.252553,967.765001 0.847971,0.847971 -0.000000 1 0 334.948495,967.765001 z" style="stroke:#FF0000;fill:none"/><path d="M 365.899431,967.765001 A 0.847971,0.847971 -0.000000 1 0 364.203490,967.765001 0.847971,0.847971 -0.000000 1 0 365.899431,967.765001 z" style="stroke:#FF0000;fill:none"/><path d="M 211.144747,967.765001 A 0.847971,0.847971 -0.000000 1 0 209.448805,967.765001 0.847971,0.847971 -0.000000 1 0 211.144747,967.765001 z" style="stroke:#FF0000;fill:none"/><path d="M 303.997558,967.765001 A 0.847971,0.847971 -0.000000 1 0 302.301616,967.765001 0.847971,0.847971 -0.000000 1 0 303.997558,967.765001 z" style="stroke:#FF0000;fill:none"/><path d="M 149.242874,967.765001 A 0.847971,0.847971 -0.000000 1 0 147.546932,967.765001 0.847971,0.847971 -0.000000 1 0 149.242874,967.765001 z" style="stroke:#FF0000;fill:none"/><path d="M 87.341000,967.765001 A 0.847971,0.847971 -0.000000 1 0 85.645058,967.765001 0.847971,0.847971 -0.000000 1 0 87.341000,967.765001 z" style="stroke:#FF0000;fill:none"/><path d="M 242.095684,967.765001 A 0.847971,0.847971 -0.000000 1 0 240.399742,967.765001 0.847971,0.847971 -0.000000 1 0 242.095684,967.765001 z" style="stroke:#FF0000;fill:none"/><path d="M 118.291937,967.765001 A 0.847971,0.847971 -0.000000 1 0 116.595995,967.765001 0.847971,0.847971 -0.000000 1 0 118.291937,967.765001 z" style="stroke:#FF0000;fill:none"/><path d="M 25.439126,998.715938 A 0.847971,0.847971 -0.000000 1 0 23.743184,998.715938 0.847971,0.847971 -0.000000 1 0 25.439126,998.715938 z" style="stroke:#FF0000;fill:none"/><path d="M 520.654116,967.765001 A 0.847971,0.847971 -0.000000 1 0 518.958174,967.765001 0.847971,0.847971 -0.000000 1 0 520.654116,967.765001 z" style="stroke:#FF0000;fill:none"/><path d="M 56.390063,967.765001 A 0.847971,0.847971 -0.000000 1 0 54.694121,967.765001 0.847971,0.847971 -0.000000 1 0 56.390063,967.765001 z" style="stroke:#FF0000;fill:none"/><path d="M 458.752242,967.765001 A 0.847971,0.847971 -0.000000 1 0 457.056300,967.765001 0.847971,0.847971 -0.000000 1 0 458.752242,967.765001 z" style="stroke:#FF0000;fill:none"/><path d="M 489.703179,967.765001 A 0.847971,0.847971 -0.000000 1 0 488.007237,967.765001 0.847971,0.847971 -0.000000 1 0 489.703179,967.765001 z" style="stroke:#FF0000;fill:none"/><path d="M 396.850368,967.765001 A 0.847971,0.847971 -0.000000 1 0 395.154427,967.765001 0.847971,0.847971 -0.000000 1 0 396.850368,967.765001 z" style="stroke:#FF0000;fill:none"/><path d="M 427.801305,967.765001 A 0.847971,0.847971 -0.000000 1 0 426.105363,967.765001 0.847971,0.847971 -0.000000 1 0 427.801305,967.765001 z" style="stroke:#FF0000;fill:none"/><path d="M 365.899431,936.814064 A 0.847971,0.847971 -0.000000 1 0 364.203490,936.814064 0.847971,0.847971 -0.000000 1 0 365.899431,936.814064 z" style="stroke:#FF0000;fill:none"/><path d="M 396.850368,936.814064 A 0.847971,0.847971 -0.000000 1 0 395.154427,936.814064 0.847971,0.847971 -0.000000 1 0 396.850368,936.814064 z" style="stroke:#FF0000;fill:none"/><path d="M 303.997558,936.814064 A 0.847971,0.847971 -0.000000 1 0 302.301616,936.814064 0.847971,0.847971 -0.000000 1 0 303.997558,936.814064 z" style="stroke:#FF0000;fill:none"/><path d="M 334.948495,936.814064 A 0.847971,0.847971 -0.000000 1 0 333.252553,936.814064 0.847971,0.847971 -0.000000 1 0 334.948495,936.814064 z" style="stroke:#FF0000;fill:none"/><path d="M 211.144747,936.814064 A 0.847971,0.847971 -0.000000 1 0 209.448805,936.814064 0.847971,0.847971 -0.000000 1 0 211.144747,936.814064 z" style="stroke:#FF0000;fill:none"/><path d="M 242.095684,936.814064 A 0.847971,0.847971 -0.000000 1 0 240.399742,936.814064 0.847971,0.847971 -0.000000 1 0 242.095684,936.814064 z" style="stroke:#FF0000;fill:none"/><path d="M 149.242874,936.814064 A 0.847971,0.847971 -0.000000 1 0 147.546932,936.814064 0.847971,0.847971 -0.000000 1 0 149.242874,936.814064 z" style="stroke:#FF0000;fill:none"/><path d="M 25.439126,967.765001 A 0.847971,0.847971 -0.000000 1 0 23.743184,967.765001 0.847971,0.847971 -0.000000 1 0 25.439126,967.765001 z" style="stroke:#FF0000;fill:none"/><path d="M 180.193810,967.765001 A 0.847971,0.847971 -0.000000 1 0 178.497869,967.765001 0.847971,0.847971 -0.000000 1 0 180.193810,967.765001 z" style="stroke:#FF0000;fill:none"/><path d="M 56.390063,936.814064 A 0.847971,0.847971 -0.000000 1 0 54.694121,936.814064 0.847971,0.847971 -0.000000 1 0 56.390063,936.814064 z" style="stroke:#FF0000;fill:none"/><path d="M 118.291937,936.814064 A 0.847971,0.847971 -0.000000 1 0 116.595995,936.814064 0.847971,0.847971 -0.000000 1 0 118.291937,936.814064 z" style="stroke:#FF0000;fill:none"/><path d="M 489.703179,936.814064 A 0.847971,0.847971 -0.000000 1 0 488.007237,936.814064 0.847971,0.847971 -0.000000 1 0 489.703179,936.814064 z" style="stroke:#FF0000;fill:none"/><path d="M 520.654116,936.814064 A 0.847971,0.847971 -0.000000 1 0 518.958174,936.814064 0.847971,0.847971 -0.000000 1 0 520.654116,936.814064 z" style="stroke:#FF0000;fill:none"/><path d="M 427.801305,936.814064 A 0.847971,0.847971 -0.000000 1 0 426.105363,936.814064 0.847971,0.847971 -0.000000 1 0 427.801305,936.814064 z" style="stroke:#FF0000;fill:none"/><path d="M 458.752242,936.814064 A 0.847971,0.847971 -0.000000 1 0 457.056300,936.814064 0.847971,0.847971 -0.000000 1 0 458.752242,936.814064 z" style="stroke:#FF0000;fill:none"/><path d="M 396.850368,905.863127 A 0.847971,0.847971 -0.000000 1 0 395.154427,905.863127 0.847971,0.847971 -0.000000 1 0 396.850368,905.863127 z" style="stroke:#FF0000;fill:none"/><path d="M 427.801305,905.863127 A 0.847971,0.847971 -0.000000 1 0 426.105363,905.863127 0.847971,0.847971 -0.000000 1 0 427.801305,905.863127 z" style="stroke:#FF0000;fill:none"/><path d="M 334.948495,905.863127 A 0.847971,0.847971 -0.000000 1 0 333.252553,905.863127 0.847971,0.847971 -0.000000 1 0 334.948495,905.863127 z" style="stroke:#FF0000;fill:none"/><path d="M 365.899431,905.863127 A 0.847971,0.847971 -0.000000 1 0 364.203490,905.863127 0.847971,0.847971 -0.000000 1 0 365.899431,905.863127 z" style="stroke:#FF0000;fill:none"/><path d="M 211.144747,905.863127 A 0.847971,0.847971 -0.000000 1 0 209.448805,905.863127 0.847971,0.847971 -0.000000 1 0 211.144747,905.863127 z" style="stroke:#FF0000;fill:none"/><path d="M 303.997558,905.863127 A 0.847971,0.847971 -0.000000 1 0 302.301616,905.863127 0.847971,0.847971 -0.000000 1 0 303.997558,905.863127 z" style="stroke:#FF0000;fill:none"/><path d="M 149.242874,905.863127 A 0.847971,0.847971 -0.000000 1 0 147.546932,905.863127 0.847971,0.847971 -0.000000 1 0 149.242874,905.863127 z" style="stroke:#FF0000;fill:none"/><path d="M 180.193810,936.814064 A 0.847971,0.847971 -0.000000 1 0 178.497869,936.814064 0.847971,0.847971 -0.000000 1 0 180.193810,936.814064 z" style="stroke:#FF0000;fill:none"/><path d="M 87.341000,936.814064 A 0.847971,0.847971 -0.000000 1 0 85.645058,936.814064 0.847971,0.847971 -0.000000 1 0 87.341000,936.814064 z" style="stroke:#FF0000;fill:none"/><path d="M 118.291937,905.863127 A 0.847971,0.847971 -0.000000 1 0 116.595995,905.863127 0.847971,0.847971 -0.000000 1 0 118.291937,905.863127 z" style="stroke:#FF0000;fill:none"/><path d="M 25.439126,936.814064 A 0.847971,0.847971 -0.000000 1 0 23.743184,936.814064 0.847971,0.847971 -0.000000 1 0 25.439126,936.814064 z" style="stroke:#FF0000;fill:none"/><path d="M 520.654116,905.863127 A 0.847971,0.847971 -0.000000 1 0 518.958174,905.863127 0.847971,0.847971 -0.000000 1 0 520.654116,905.863127 z" style="stroke:#FF0000;fill:none"/><path d="M 56.390063,905.863127 A 0.847971,0.847971 -0.000000 1 0 54.694121,905.863127 0.847971,0.847971 -0.000000 1 0 56.390063,905.863127 z" style="stroke:#FF0000;fill:none"/><path d="M 458.752242,905.863127 A 0.847971,0.847971 -0.000000 1 0 457.056300,905.863127 0.847971,0.847971 -0.000000 1 0 458.752242,905.863127 z" style="stroke:#FF0000;fill:none"/><path d="M 489.703179,905.863127 A 0.847971,0.847971 -0.000000 1 0 488.007237,905.863127 0.847971,0.847971 -0.000000 1 0 489.703179,905.863127 z" style="stroke:#FF0000;fill:none"/><path d="M 427.801305,874.912190 A 0.847971,0.847971 -0.000000 1 0 426.105363,874.912190 0.847971,0.847971 -0.000000 1 0 427.801305,874.912190 z" style="stroke:#FF0000;fill:none"/><path d="M 458.752242,874.912190 A 0.847971,0.847971 -0.000000 1 0 457.056300,874.912190 0.847971,0.847971 -0.000000 1 0 458.752242,874.912190 z" style="stroke:#FF0000;fill:none"/><path d="M 365.899431,874.912190 A 0.847971,0.847971 -0.000000 1 0 364.203490,874.912190 0.847971,0.847971 -0.000000 1 0 365.899431,874.912190 z" style="stroke:#FF0000;fill:none"/><path d="M 396.850368,874.912190 A 0.847971,0.847971 -0.000000 1 0 395.154427,874.912190 0.847971,0.847971 -0.000000 1 0 396.850368,874.912190 z" style="stroke:#FF0000;fill:none"/><path d="M 303.997558,874.912190 A 0.847971,0.847971 -0.000000 1 0 302.301616,874.912190 0.847971,0.847971 -0.000000 1 0 303.997558,874.912190 z" style="stroke:#FF0000;fill:none"/><path d="M 334.948495,874.912190 A 0.847971,0.847971 -0.000000 1 0 333.252553,874.912190 0.847971,0.847971 -0.000000 1 0 334.948495,874.912190 z" style="stroke:#FF0000;fill:none"/><path d="M 211.144747,874.912190 A 0.847971,0.847971 -0.000000 1 0 209.448805,874.912190 0.847971,0.847971 -0.000000 1 0 211.144747,874.912190 z" style="stroke:#FF0000;fill:none"/><path d="M 87.341000,905.863127 A 0.847971,0.847971 -0.000000 1 0 85.645058,905.863127 0.847971,0.847971 -0.000000 1 0 87.341000,905.863127 z" style="stroke:#FF0000;fill:none"/><path d="M 242.095684,905.863127 A 0.847971,0.847971 -0.000000 1 0 240.399742,905.863127 0.847971,0.847971 -0.000000 1 0 242.095684,905.863127 z" style="stroke:#FF0000;fill:none"/><path d="M 25.439126,905.863127 A 0.847971,0.847971 -0.000000 1 0 23.743184,905.863127 0.847971,0.847971 -0.000000 1 0 25.439126,905.863127 z" style="stroke:#FF0000;fill:none"/><path d="M 180.193810,905.863127 A 0.847971,0.847971 -0.000000 1 0 178.497869,905.863127 0.847971,0.847971 -0.000000 1 0 180.193810,905.863127 z" style="stroke:#FF0000;fill:none"/><path d="M 56.390063,874.912190 A 0.847971,0.847971 -0.000000 1 0 54.694121,874.912190 0.847971,0.847971 -0.000000 1 0 56.390063,874.912190 z" style="stroke:#FF0000;fill:none"/><path d="M 118.291937,874.912190 A 0.847971,0.847971 -0.000000 1 0 116.595995,874.912190 0.847971,0.847971 -0.000000 1 0 118.291937,874.912190 z" style="stroke:#FF0000;fill:none"/><path d="M 489.703179,874.912190 A 0.847971,0.847971 -0.000000 1 0 488.007237,874.912190 0.847971,0.847971 -0.000000 1 0 489.703179,874.912190 z" style="stroke:#FF0000;fill:none"/><path d="M 520.654116,874.912190 A 0.847971,0.847971 -0.000000 1 0 518.958174,874.912190 0.847971,0.847971 -0.000000 1 0 520.654116,874.912190 z" style="stroke:#FF0000;fill:none"/><path d="M 458.752242,843.961253 A 0.847971,0.847971 -0.000000 1 0 457.056300,843.961253 0.847971,0.847971 -0.000000 1 0 458.752242,843.961253 z" style="stroke:#FF0000;fill:none"/><path d="M 489.703179,843.961253 A 0.847971,0.847971 -0.000000 1 0 488.007237,843.961253 0.847971,0.847971 -0.000000 1 0 489.703179,843.961253 z" style="stroke:#FF0000;fill:none"/><path d="M 396.850368,843.961253 A 0.847971,0.847971 -0.000000 1 0 395.154427,843.961253 0.847971,0.847971 -0.000000 1 0 396.850368,843.961253 z" style="stroke:#FF0000;fill:none"/><path d="M 427.801305,843.961253 A 0.847971,0.847971 -0.000000 1 0 426.105363,843.961253 0.847971,0.847971 -0.000000 1 0 427.801305,843.961253 z" style="stroke:#FF0000;fill:none"/><path d="M 334.948495,843.961253 A 0.847971,0.847971 -0.000000 1 0 333.252553,843.961253 0.847971,0.847971 -0.000000 1 0 334.948495,843.961253 z" style="stroke:#FF0000;fill:none"/><path d="M 365.899431,843.961253 A 0.847971,0.847971 -0.000000 1 0 364.203490,843.961253 0.847971,0.847971 -0.000000 1 0 365.899431,843.961253 z" style="stroke:#FF0000;fill:none"/><path d="M 211.144747,843.961253 A 0.847971,0.847971 -0.000000 1 0 209.448805,843.961253 0.847971,0.847971 -0.000000 1 0 211.144747,843.961253 z" style="stroke:#FF0000;fill:none"/><path d="M 303.997558,843.961253 A 0.847971,0.847971 -0.000000 1 0 302.301616,843.961253 0.847971,0.847971 -0.000000 1 0 303.997558,843.961253 z" style="stroke:#FF0000;fill:none"/><path d="M 242.095684,874.912190 A 0.847971,0.847971 -0.000000 1 0 240.399742,874.912190 0.847971,0.847971 -0.000000 1 0 242.095684,874.912190 z" style="stroke:#FF0000;fill:none"/><path d="M 149.242874,874.912190 A 0.847971,0.847971 -0.000000 1 0 147.546932,874.912190 0.847971,0.847971 -0.000000 1 0 149.242874,874.912190 z" style="stroke:#FF0000;fill:none"/><path d="M 180.193810,874.912190 A 0.847971,0.847971 -0.000000 1 0 178.497869,874.912190 0.847971,0.847971 -0.000000 1 0 180.193810,874.912190 z" style="stroke:#FF0000;fill:none"/><path d="M 87.341000,874.912190 A 0.847971,0.847971 -0.000000 1 0 85.645058,874.912190 0.847971,0.847971 -0.000000 1 0 87.341000,874.912190 z" style="stroke:#FF0000;fill:none"/><path d="M 118.291937,843.961253 A 0.847971,0.847971 -0.000000 1 0 116.595995,843.961253 0.847971,0.847971 -0.000000 1 0 118.291937,843.961253 z" style="stroke:#FF0000;fill:none"/><path d="M 25.439126,874.912190 A 0.847971,0.847971 -0.000000 1 0 23.743184,874.912190 0.847971,0.847971 -0.000000 1 0 25.439126,874.912190 z" style="stroke:#FF0000;fill:none"/><path d="M 520.654116,843.961253 A 0.847971,0.847971 -0.000000 1 0 518.958174,843.961253 0.847971,0.847971 -0.000000 1 0 520.654116,843.961253 z" style="stroke:#FF0000;fill:none"/><path d="M 56.390063,843.961253 A 0.847971,0.847971 -0.000000 1 0 54.694121,843.961253 0.847971,0.847971 -0.000000 1 0 56.390063,843.961253 z" style="stroke:#FF0000;fill:none"/><path d="M 489.703179,813.010317 A 0.847971,0.847971 -0.000000 1 0 488.007237,813.010317 0.847971,0.847971 -0.000000 1 0 489.703179,813.010317 z" style="stroke:#FF0000;fill:none"/><path d="M 520.654116,813.010317 A 0.847971,0.847971 -0.000000 1 0 518.958174,813.010317 0.847971,0.847971 -0.000000 1 0 520.654116,813.010317 z" style="stroke:#FF0000;fill:none"/><path d="M 427.801305,813.010317 A 0.847971,0.847971 -0.000000 1 0 426.105363,813.010317 0.847971,0.847971 -0.000000 1 0 427.801305,813.010317 z" style="stroke:#FF0000;fill:none"/><path d="M 458.752242,813.010317 A 0.847971,0.847971 -0.000000 1 0 457.056300,813.010317 0.847971,0.847971 -0.000000 1 0 458.752242,813.010317 z" style="stroke:#FF0000;fill:none"/><path d="M 365.899431,813.010317 A 0.847971,0.847971 -0.000000 1 0 364.203490,813.010317 0.847971,0.847971 -0.000000 1 0 365.899431,813.010317 z" style="stroke:#FF0000;fill:none"/><path d="M 396.850368,813.010317 A 0.847971,0.847971 -0.000000 1 0 395.154427,813.010317 0.847971,0.847971 -0.000000 1 0 396.850368,813.010317 z" style="stroke:#FF0000;fill:none"/><path d="M 303.997558,813.010317 A 0.847971,0.847971 -0.000000 1 0 302.301616,813.010317 0.847971,0.847971 -0.000000 1 0 303.997558,813.010317 z" style="stroke:#FF0000;fill:none"/><path d="M 334.948495,813.010317 A 0.847971,0.847971 -0.000000 1 0 333.252553,813.010317 0.847971,0.847971 -0.000000 1 0 334.948495,813.010317 z" style="stroke:#FF0000;fill:none"/><path d="M 149.242874,843.961253 A 0.847971,0.847971 -0.000000 1 0 147.546932,843.961253 0.847971,0.847971 -0.000000 1 0 149.242874,843.961253 z" style="stroke:#FF0000;fill:none"/><path d="M 87.341000,843.961253 A 0.847971,0.847971 -0.000000 1 0 85.645058,843.961253 0.847971,0.847971 -0.000000 1 0 87.341000,843.961253 z" style="stroke:#FF0000;fill:none"/><path d="M 242.095684,843.961253 A 0.847971,0.847971 -0.000000 1 0 240.399742,843.961253 0.847971,0.847971 -0.000000 1 0 242.095684,843.961253 z" style="stroke:#FF0000;fill:none"/><path d="M 25.439126,843.961253 A 0.847971,0.847971 -0.000000 1 0 23.743184,843.961253 0.847971,0.847971 -0.000000 1 0 25.439126,843.961253 z" style="stroke:#FF0000;fill:none"/><path d="M 180.193810,843.961253 A 0.847971,0.847971 -0.000000 1 0 178.497869,843.961253 0.847971,0.847971 -0.000000 1 0 180.193810,843.961253 z" style="stroke:#FF0000;fill:none"/><path d="M 56.390063,813.010317 A 0.847971,0.847971 -0.000000 1 0 54.694121,813.010317 0.847971,0.847971 -0.000000 1 0 56.390063,813.010317 z" style="stroke:#FF0000;fill:none"/><path d="M 118.291937,813.010317 A 0.847971,0.847971 -0.000000 1 0 116.595995,813.010317 0.847971,0.847971 -0.000000 1 0 118.291937,813.010317 z" style="stroke:#FF0000;fill:none"/><path d="M 520.654116,782.059380 A 0.847971,0.847971 -0.000000 1 0 518.958174,782.059380 0.847971,0.847971 -0.000000 1 0 520.654116,782.059380 z" style="stroke:#FF0000;fill:none"/><path d="M 56.390063,782.059380 A 0.847971,0.847971 -0.000000 1 0 54.694121,782.059380 0.847971,0.847971 -0.000000 1 0 56.390063,782.059380 z" style="stroke:#FF0000;fill:none"/><path d="M 458.752242,782.059380 A 0.847971,0.847971 -0.000000 1 0 457.056300,782.059380 0.847971,0.847971 -0.000000 1 0 458.752242,782.059380 z" style="stroke:#FF0000;fill:none"/><path d="M 489.703179,782.059380 A 0.847971,0.847971 -0.000000 1 0 488.007237,782.059380 0.847971,0.847971 -0.000000 1 0 489.703179,782.059380 z" style="stroke:#FF0000;fill:none"/><path d="M 396.850368,782.059380 A 0.847971,0.847971 -0.000000 1 0 395.154427,782.059380 0.847971,0.847971 -0.000000 1 0 396.850368,782.059380 z" style="stroke:#FF0000;fill:none"/><path d="M 427.801305,782.059380 A 0.847971,0.847971 -0.000000 1 0 426.105363,782.059380 0.847971,0.847971 -0.000000 1 0 427.801305,782.059380 z" style="stroke:#FF0000;fill:none"/><path d="M 334.948495,782.059380 A 0.847971,0.847971 -0.000000 1 0 333.252553,782.059380 0.847971,0.847971 -0.000000 1 0 334.948495,782.059380 z" style="stroke:#FF0000;fill:none"/><path d="M 365.899431,782.059380 A 0.847971,0.847971 -0.000000 1 0 364.203490,782.059380 0.847971,0.847971 -0.000000 1 0 365.899431,782.059380 z" style="stroke:#FF0000;fill:none"/><path d="M 211.144747,813.010317 A 0.847971,0.847971 -0.000000 1 0 209.448805,813.010317 0.847971,0.847971 -0.000000 1 0 211.144747,813.010317 z" style="stroke:#FF0000;fill:none"/><path d="M 242.095684,813.010317 A 0.847971,0.847971 -0.000000 1 0 240.399742,813.010317 0.847971,0.847971 -0.000000 1 0 242.095684,813.010317 z" style="stroke:#FF0000;fill:none"/><path d="M 149.242874,813.010317 A 0.847971,0.847971 -0.000000 1 0 147.546932,813.010317 0.847971,0.847971 -0.000000 1 0 149.242874,813.010317 z" style="stroke:#FF0000;fill:none"/><path d="M 180.193810,813.010317 A 0.847971,0.847971 -0.000000 1 0 178.497869,813.010317 0.847971,0.847971 -0.000000 1 0 180.193810,813.010317 z" style="stroke:#FF0000;fill:none"/><path d="M 87.341000,813.010317 A 0.847971,0.847971 -0.000000 1 0 85.645058,813.010317 0.847971,0.847971 -0.000000 1 0 87.341000,813.010317 z" style="stroke:#FF0000;fill:none"/><path d="M 118.291937,782.059380 A 0.847971,0.847971 -0.000000 1 0 116.595995,782.059380 0.847971,0.847971 -0.000000 1 0 118.291937,782.059380 z" style="stroke:#FF0000;fill:none"/><path d="M 25.439126,813.010317 A 0.847971,0.847971 -0.000000 1 0 23.743184,813.010317 0.847971,0.847971 -0.000000 1 0 25.439126,813.010317 z" style="stroke:#FF0000;fill:none"/><path d="M 489.703179,410.648138 A 0.847971,0.847971 -0.000000 1 0 488.007237,410.648138 0.847971,0.847971 -0.000000 1 0 489.703179,410.648138 z" style="stroke:#FF0000;fill:none"/><path d="M 56.390063,410.648138 A 0.847971,0.847971 -0.000000 1 0 54.694121,410.648138 0.847971,0.847971 -0.000000 1 0 56.390063,410.648138 z" style="stroke:#FF0000;fill:none"/><path d="M 118.291937,410.648138 A 0.847971,0.847971 -0.000000 1 0 116.595995,410.648138 0.847971,0.847971 -0.000000 1 0 118.291937,410.648138 z" style="stroke:#FF0000;fill:none"/><path d="M 25.439126,410.648138 A 0.847971,0.847971 -0.000000 1 0 23.743184,410.648138 0.847971,0.847971 -0.000000 1 0 25.439126,410.648138 z" style="stroke:#FF0000;fill:none"/><path d="M 180.193810,410.648138 A 0.847971,0.847971 -0.000000 1 0 178.497869,410.648138 0.847971,0.847971 -0.000000 1 0 180.193810,410.648138 z" style="stroke:#FF0000;fill:none"/><path d="M 87.341000,410.648138 A 0.847971,0.847971 -0.000000 1 0 85.645058,410.648138 0.847971,0.847971 -0.000000 1 0 87.341000,410.648138 z" style="stroke:#FF0000;fill:none"/><path d="M 242.095684,410.648138 A 0.847971,0.847971 -0.000000 1 0 240.399742,410.648138 0.847971,0.847971 -0.000000 1 0 242.095684,410.648138 z" style="stroke:#FF0000;fill:none"/><path d="M 149.242874,410.648138 A 0.847971,0.847971 -0.000000 1 0 147.546932,410.648138 0.847971,0.847971 -0.000000 1 0 149.242874,410.648138 z" style="stroke:#FF0000;fill:none"/><path d="M 211.144747,782.059380 A 0.847971,0.847971 -0.000000 1 0 209.448805,782.059380 0.847971,0.847971 -0.000000 1 0 211.144747,782.059380 z" style="stroke:#FF0000;fill:none"/><path d="M 303.997558,782.059380 A 0.847971,0.847971 -0.000000 1 0 302.301616,782.059380 0.847971,0.847971 -0.000000 1 0 303.997558,782.059380 z" style="stroke:#FF0000;fill:none"/><path d="M 149.242874,782.059380 A 0.847971,0.847971 -0.000000 1 0 147.546932,782.059380 0.847971,0.847971 -0.000000 1 0 149.242874,782.059380 z" style="stroke:#FF0000;fill:none"/><path d="M 87.341000,782.059380 A 0.847971,0.847971 -0.000000 1 0 85.645058,782.059380 0.847971,0.847971 -0.000000 1 0 87.341000,782.059380 z" style="stroke:#FF0000;fill:none"/><path d="M 242.095684,782.059380 A 0.847971,0.847971 -0.000000 1 0 240.399742,782.059380 0.847971,0.847971 -0.000000 1 0 242.095684,782.059380 z" style="stroke:#FF0000;fill:none"/><path d="M 25.439126,782.059380 A 0.847971,0.847971 -0.000000 1 0 23.743184,782.059380 0.847971,0.847971 -0.000000 1 0 25.439126,782.059380 z" style="stroke:#FF0000;fill:none"/><path d="M 180.193810,782.059380 A 0.847971,0.847971 -0.000000 1 0 178.497869,782.059380 0.847971,0.847971 -0.000000 1 0 180.193810,782.059380 z" style="stroke:#FF0000;fill:none"/><path d="M 56.390063,441.599074 A 0.847971,0.847971 -0.000000 1 0 54.694121,441.599074 0.847971,0.847971 -0.000000 1 0 56.390063,441.599074 z" style="stroke:#FF0000;fill:none"/><path d="M 520.654116,410.648138 A 0.847971,0.847971 -0.000000 1 0 518.958174,410.648138 0.847971,0.847971 -0.000000 1 0 520.654116,410.648138 z" style="stroke:#FF0000;fill:none"/><path d="M 25.439126,441.599074 A 0.847971,0.847971 -0.000000 1 0 23.743184,441.599074 0.847971,0.847971 -0.000000 1 0 25.439126,441.599074 z" style="stroke:#FF0000;fill:none"/><path d="M 489.703179,441.599074 A 0.847971,0.847971 -0.000000 1 0 488.007237,441.599074 0.847971,0.847971 -0.000000 1 0 489.703179,441.599074 z" style="stroke:#FF0000;fill:none"/><path d="M 87.341000,441.599074 A 0.847971,0.847971 -0.000000 1 0 85.645058,441.599074 0.847971,0.847971 -0.000000 1 0 87.341000,441.599074 z" style="stroke:#FF0000;fill:none"/><path d="M 118.291937,441.599074 A 0.847971,0.847971 -0.000000 1 0 116.595995,441.599074 0.847971,0.847971 -0.000000 1 0 118.291937,441.599074 z" style="stroke:#FF0000;fill:none"/><path d="M 149.242874,441.599074 A 0.847971,0.847971 -0.000000 1 0 147.546932,441.599074 0.847971,0.847971 -0.000000 1 0 149.242874,441.599074 z" style="stroke:#FF0000;fill:none"/><path d="M 180.193810,441.599074 A 0.847971,0.847971 -0.000000 1 0 178.497869,441.599074 0.847971,0.847971 -0.000000 1 0 180.193810,441.599074 z" style="stroke:#FF0000;fill:none"/><path d="M 211.144747,410.648138 A 0.847971,0.847971 -0.000000 1 0 209.448805,410.648138 0.847971,0.847971 -0.000000 1 0 211.144747,410.648138 z" style="stroke:#FF0000;fill:none"/><path d="M 303.997558,410.648138 A 0.847971,0.847971 -0.000000 1 0 302.301616,410.648138 0.847971,0.847971 -0.000000 1 0 303.997558,410.648138 z" style="stroke:#FF0000;fill:none"/><path d="M 334.948495,410.648138 A 0.847971,0.847971 -0.000000 1 0 333.252553,410.648138 0.847971,0.847971 -0.000000 1 0 334.948495,410.648138 z" style="stroke:#FF0000;fill:none"/><path d="M 365.899431,410.648138 A 0.847971,0.847971 -0.000000 1 0 364.203490,410.648138 0.847971,0.847971 -0.000000 1 0 365.899431,410.648138 z" style="stroke:#FF0000;fill:none"/><path d="M 396.850368,410.648138 A 0.847971,0.847971 -0.000000 1 0 395.154427,410.648138 0.847971,0.847971 -0.000000 1 0 396.850368,410.648138 z" style="stroke:#FF0000;fill:none"/><path d="M 427.801305,410.648138 A 0.847971,0.847971 -0.000000 1 0 426.105363,410.648138 0.847971,0.847971 -0.000000 1 0 427.801305,410.648138 z" style="stroke:#FF0000;fill:none"/><path d="M 458.752242,410.648138 A 0.847971,0.847971 -0.000000 1 0 457.056300,410.648138 0.847971,0.847971 -0.000000 1 0 458.752242,410.648138 z" style="stroke:#FF0000;fill:none"/><path d="M 520.654116,441.599074 A 0.847971,0.847971 -0.000000 1 0 518.958174,441.599074 0.847971,0.847971 -0.000000 1 0 520.654116,441.599074 z" style="stroke:#FF0000;fill:none"/><path d="M 427.801305,441.599074 A 0.847971,0.847971 -0.000000 1 0 426.105363,441.599074 0.847971,0.847971 -0.000000 1 0 427.801305,441.599074 z" style="stroke:#FF0000;fill:none"/><path d="M 489.703179,472.550011 A 0.847971,0.847971 -0.000000 1 0 488.007237,472.550011 0.847971,0.847971 -0.000000 1 0 489.703179,472.550011 z" style="stroke:#FF0000;fill:none"/><path d="M 56.390063,472.550011 A 0.847971,0.847971 -0.000000 1 0 54.694121,472.550011 0.847971,0.847971 -0.000000 1 0 56.390063,472.550011 z" style="stroke:#FF0000;fill:none"/><path d="M 118.291937,472.550011 A 0.847971,0.847971 -0.000000 1 0 116.595995,472.550011 0.847971,0.847971 -0.000000 1 0 118.291937,472.550011 z" style="stroke:#FF0000;fill:none"/><path d="M 25.439126,472.550011 A 0.847971,0.847971 -0.000000 1 0 23.743184,472.550011 0.847971,0.847971 -0.000000 1 0 25.439126,472.550011 z" style="stroke:#FF0000;fill:none"/><path d="M 180.193810,472.550011 A 0.847971,0.847971 -0.000000 1 0 178.497869,472.550011 0.847971,0.847971 -0.000000 1 0 180.193810,472.550011 z" style="stroke:#FF0000;fill:none"/><path d="M 87.341000,472.550011 A 0.847971,0.847971 -0.000000 1 0 85.645058,472.550011 0.847971,0.847971 -0.000000 1 0 87.341000,472.550011 z" style="stroke:#FF0000;fill:none"/><path d="M 211.144747,441.599074 A 0.847971,0.847971 -0.000000 1 0 209.448805,441.599074 0.847971,0.847971 -0.000000 1 0 211.144747,441.599074 z" style="stroke:#FF0000;fill:none"/><path d="M 242.095684,441.599074 A 0.847971,0.847971 -0.000000 1 0 240.399742,441.599074 0.847971,0.847971 -0.000000 1 0 242.095684,441.599074 z" style="stroke:#FF0000;fill:none"/><path d="M 334.948495,441.599074 A 0.847971,0.847971 -0.000000 1 0 333.252553,441.599074 0.847971,0.847971 -0.000000 1 0 334.948495,441.599074 z" style="stroke:#FF0000;fill:none"/><path d="M 396.850368,441.599074 A 0.847971,0.847971 -0.000000 1 0 395.154427,441.599074 0.847971,0.847971 -0.000000 1 0 396.850368,441.599074 z" style="stroke:#FF0000;fill:none"/><path d="M 303.997558,441.599074 A 0.847971,0.847971 -0.000000 1 0 302.301616,441.599074 0.847971,0.847971 -0.000000 1 0 303.997558,441.599074 z" style="stroke:#FF0000;fill:none"/><path d="M 458.752242,441.599074 A 0.847971,0.847971 -0.000000 1 0 457.056300,441.599074 0.847971,0.847971 -0.000000 1 0 458.752242,441.599074 z" style="stroke:#FF0000;fill:none"/><path d="M 365.899431,441.599074 A 0.847971,0.847971 -0.000000 1 0 364.203490,441.599074 0.847971,0.847971 -0.000000 1 0 365.899431,441.599074 z" style="stroke:#FF0000;fill:none"/><path d="M 427.801305,472.550011 A 0.847971,0.847971 -0.000000 1 0 426.105363,472.550011 0.847971,0.847971 -0.000000 1 0 427.801305,472.550011 z" style="stroke:#FF0000;fill:none"/><path d="M 458.752242,472.550011 A 0.847971,0.847971 -0.000000 1 0 457.056300,472.550011 0.847971,0.847971 -0.000000 1 0 458.752242,472.550011 z" style="stroke:#FF0000;fill:none"/><path d="M 56.390063,503.500948 A 0.847971,0.847971 -0.000000 1 0 54.694121,503.500948 0.847971,0.847971 -0.000000 1 0 56.390063,503.500948 z" style="stroke:#FF0000;fill:none"/><path d="M 520.654116,472.550011 A 0.847971,0.847971 -0.000000 1 0 518.958174,472.550011 0.847971,0.847971 -0.000000 1 0 520.654116,472.550011 z" style="stroke:#FF0000;fill:none"/><path d="M 25.439126,503.500948 A 0.847971,0.847971 -0.000000 1 0 23.743184,503.500948 0.847971,0.847971 -0.000000 1 0 25.439126,503.500948 z" style="stroke:#FF0000;fill:none"/><path d="M 489.703179,503.500948 A 0.847971,0.847971 -0.000000 1 0 488.007237,503.500948 0.847971,0.847971 -0.000000 1 0 489.703179,503.500948 z" style="stroke:#FF0000;fill:none"/><path d="M 87.341000,503.500948 A 0.847971,0.847971 -0.000000 1 0 85.645058,503.500948 0.847971,0.847971 -0.000000 1 0 87.341000,503.500948 z" style="stroke:#FF0000;fill:none"/><path d="M 118.291937,503.500948 A 0.847971,0.847971 -0.000000 1 0 116.595995,503.500948 0.847971,0.847971 -0.000000 1 0 118.291937,503.500948 z" style="stroke:#FF0000;fill:none"/><path d="M 242.095684,472.550011 A 0.847971,0.847971 -0.000000 1 0 240.399742,472.550011 0.847971,0.847971 -0.000000 1 0 242.095684,472.550011 z" style="stroke:#FF0000;fill:none"/><path d="M 149.242874,472.550011 A 0.847971,0.847971 -0.000000 1 0 147.546932,472.550011 0.847971,0.847971 -0.000000 1 0 149.242874,472.550011 z" style="stroke:#FF0000;fill:none"/><path d="M 211.144747,472.550011 A 0.847971,0.847971 -0.000000 1 0 209.448805,472.550011 0.847971,0.847971 -0.000000 1 0 211.144747,472.550011 z" style="stroke:#FF0000;fill:none"/><path d="M 303.997558,472.550011 A 0.847971,0.847971 -0.000000 1 0 302.301616,472.550011 0.847971,0.847971 -0.000000 1 0 303.997558,472.550011 z" style="stroke:#FF0000;fill:none"/><path d="M 334.948495,472.550011 A 0.847971,0.847971 -0.000000 1 0 333.252553,472.550011 0.847971,0.847971 -0.000000 1 0 334.948495,472.550011 z" style="stroke:#FF0000;fill:none"/><path d="M 365.899431,472.550011 A 0.847971,0.847971 -0.000000 1 0 364.203490,472.550011 0.847971,0.847971 -0.000000 1 0 365.899431,472.550011 z" style="stroke:#FF0000;fill:none"/><path d="M 396.850368,472.550011 A 0.847971,0.847971 -0.000000 1 0 395.154427,472.550011 0.847971,0.847971 -0.000000 1 0 396.850368,472.550011 z" style="stroke:#FF0000;fill:none"/><path d="M 458.752242,503.500948 A 0.847971,0.847971 -0.000000 1 0 457.056300,503.500948 0.847971,0.847971 -0.000000 1 0 458.752242,503.500948 z" style="stroke:#FF0000;fill:none"/><path d="M 365.899431,503.500948 A 0.847971,0.847971 -0.000000 1 0 364.203490,503.500948 0.847971,0.847971 -0.000000 1 0 365.899431,503.500948 z" style="stroke:#FF0000;fill:none"/><path d="M 520.654116,503.500948 A 0.847971,0.847971 -0.000000 1 0 518.958174,503.500948 0.847971,0.847971 -0.000000 1 0 520.654116,503.500948 z" style="stroke:#FF0000;fill:none"/><path d="M 427.801305,503.500948 A 0.847971,0.847971 -0.000000 1 0 426.105363,503.500948 0.847971,0.847971 -0.000000 1 0 427.801305,503.500948 z" style="stroke:#FF0000;fill:none"/><path d="M 489.703179,534.451885 A 0.847971,0.847971 -0.000000 1 0 488.007237,534.451885 0.847971,0.847971 -0.000000 1 0 489.703179,534.451885 z" style="stroke:#FF0000;fill:none"/><path d="M 56.390063,534.451885 A 0.847971,0.847971 -0.000000 1 0 54.694121,534.451885 0.847971,0.847971 -0.000000 1 0 56.390063,534.451885 z" style="stroke:#FF0000;fill:none"/><path d="M 118.291937,534.451885 A 0.847971,0.847971 -0.000000 1 0 116.595995,534.451885 0.847971,0.847971 -0.000000 1 0 118.291937,534.451885 z" style="stroke:#FF0000;fill:none"/><path d="M 25.439126,534.451885 A 0.847971,0.847971 -0.000000 1 0 23.743184,534.451885 0.847971,0.847971 -0.000000 1 0 25.439126,534.451885 z" style="stroke:#FF0000;fill:none"/><path d="M 149.242874,503.500948 A 0.847971,0.847971 -0.000000 1 0 147.546932,503.500948 0.847971,0.847971 -0.000000 1 0 149.242874,503.500948 z" style="stroke:#FF0000;fill:none"/><path d="M 180.193810,503.500948 A 0.847971,0.847971 -0.000000 1 0 178.497869,503.500948 0.847971,0.847971 -0.000000 1 0 180.193810,503.500948 z" style="stroke:#FF0000;fill:none"/><path d="M 211.144747,503.500948 A 0.847971,0.847971 -0.000000 1 0 209.448805,503.500948 0.847971,0.847971 -0.000000 1 0 211.144747,503.500948 z" style="stroke:#FF0000;fill:none"/><path d="M 242.095684,503.500948 A 0.847971,0.847971 -0.000000 1 0 240.399742,503.500948 0.847971,0.847971 -0.000000 1 0 242.095684,503.500948 z" style="stroke:#FF0000;fill:none"/><path d="M 334.948495,503.500948 A 0.847971,0.847971 -0.000000 1 0 333.252553,503.500948 0.847971,0.847971 -0.000000 1 0 334.948495,503.500948 z" style="stroke:#FF0000;fill:none"/><path d="M 396.850368,503.500948 A 0.847971,0.847971 -0.000000 1 0 395.154427,503.500948 0.847971,0.847971 -0.000000 1 0 396.850368,503.500948 z" style="stroke:#FF0000;fill:none"/><path d="M 303.997558,503.500948 A 0.847971,0.847971 -0.000000 1 0 302.301616,503.500948 0.847971,0.847971 -0.000000 1 0 303.997558,503.500948 z" style="stroke:#FF0000;fill:none"/><path d="M 365.899431,534.451885 A 0.847971,0.847971 -0.000000 1 0 364.203490,534.451885 0.847971,0.847971 -0.000000 1 0 365.899431,534.451885 z" style="stroke:#FF0000;fill:none"/><path d="M 396.850368,534.451885 A 0.847971,0.847971 -0.000000 1 0 395.154427,534.451885 0.847971,0.847971 -0.000000 1 0 396.850368,534.451885 z" style="stroke:#FF0000;fill:none"/><path d="M 427.801305,534.451885 A 0.847971,0.847971 -0.000000 1 0 426.105363,534.451885 0.847971,0.847971 -0.000000 1 0 427.801305,534.451885 z" style="stroke:#FF0000;fill:none"/><path d="M 458.752242,534.451885 A 0.847971,0.847971 -0.000000 1 0 457.056300,534.451885 0.847971,0.847971 -0.000000 1 0 458.752242,534.451885 z" style="stroke:#FF0000;fill:none"/><path d="M 56.390063,565.402822 A 0.847971,0.847971 -0.000000 1 0 54.694121,565.402822 0.847971,0.847971 -0.000000 1 0 56.390063,565.402822 z" style="stroke:#FF0000;fill:none"/><path d="M 520.654116,534.451885 A 0.847971,0.847971 -0.000000 1 0 518.958174,534.451885 0.847971,0.847971 -0.000000 1 0 520.654116,534.451885 z" style="stroke:#FF0000;fill:none"/><path d="M 25.439126,565.402822 A 0.847971,0.847971 -0.000000 1 0 23.743184,565.402822 0.847971,0.847971 -0.000000 1 0 25.439126,565.402822 z" style="stroke:#FF0000;fill:none"/><path d="M 489.703179,565.402822 A 0.847971,0.847971 -0.000000 1 0 488.007237,565.402822 0.847971,0.847971 -0.000000 1 0 489.703179,565.402822 z" style="stroke:#FF0000;fill:none"/><path d="M 180.193810,534.451885 A 0.847971,0.847971 -0.000000 1 0 178.497869,534.451885 0.847971,0.847971 -0.000000 1 0 180.193810,534.451885 z" style="stroke:#FF0000;fill:none"/><path d="M 87.341000,534.451885 A 0.847971,0.847971 -0.000000 1 0 85.645058,534.451885 0.847971,0.847971 -0.000000 1 0 87.341000,534.451885 z" style="stroke:#FF0000;fill:none"/><path d="M 242.095684,534.451885 A 0.847971,0.847971 -0.000000 1 0 240.399742,534.451885 0.847971,0.847971 -0.000000 1 0 242.095684,534.451885 z" style="stroke:#FF0000;fill:none"/><path d="M 149.242874,534.451885 A 0.847971,0.847971 -0.000000 1 0 147.546932,534.451885 0.847971,0.847971 -0.000000 1 0 149.242874,534.451885 z" style="stroke:#FF0000;fill:none"/><path d="M 211.144747,534.451885 A 0.847971,0.847971 -0.000000 1 0 209.448805,534.451885 0.847971,0.847971 -0.000000 1 0 211.144747,534.451885 z" style="stroke:#FF0000;fill:none"/><path d="M 303.997558,534.451885 A 0.847971,0.847971 -0.000000 1 0 302.301616,534.451885 0.847971,0.847971 -0.000000 1 0 303.997558,534.451885 z" style="stroke:#FF0000;fill:none"/><path d="M 334.948495,534.451885 A 0.847971,0.847971 -0.000000 1 0 333.252553,534.451885 0.847971,0.847971 -0.000000 1 0 334.948495,534.451885 z" style="stroke:#FF0000;fill:none"/><path d="M 396.850368,565.402822 A 0.847971,0.847971 -0.000000 1 0 395.154427,565.402822 0.847971,0.847971 -0.000000 1 0 396.850368,565.402822 z" style="stroke:#FF0000;fill:none"/><path d="M 303.997558,565.402822 A 0.847971,0.847971 -0.000000 1 0 302.301616,565.402822 0.847971,0.847971 -0.000000 1 0 303.997558,565.402822 z" style="stroke:#FF0000;fill:none"/><path d="M 458.752242,565.402822 A 0.847971,0.847971 -0.000000 1 0 457.056300,565.402822 0.847971,0.847971 -0.000000 1 0 458.752242,565.402822 z" style="stroke:#FF0000;fill:none"/><path d="M 365.899431,565.402822 A 0.847971,0.847971 -0.000000 1 0 364.203490,565.402822 0.847971,0.847971 -0.000000 1 0 365.899431,565.402822 z" style="stroke:#FF0000;fill:none"/><path d="M 520.654116,565.402822 A 0.847971,0.847971 -0.000000 1 0 518.958174,565.402822 0.847971,0.847971 -0.000000 1 0 520.654116,565.402822 z" style="stroke:#FF0000;fill:none"/><path d="M 427.801305,565.402822 A 0.847971,0.847971 -0.000000 1 0 426.105363,565.402822 0.847971,0.847971 -0.000000 1 0 427.801305,565.402822 z" style="stroke:#FF0000;fill:none"/><path d="M 489.703179,596.353759 A 0.847971,0.847971 -0.000000 1 0 488.007237,596.353759 0.847971,0.847971 -0.000000 1 0 489.703179,596.353759 z" style="stroke:#FF0000;fill:none"/><path d="M 56.390063,596.353759 A 0.847971,0.847971 -0.000000 1 0 54.694121,596.353759 0.847971,0.847971 -0.000000 1 0 56.390063,596.353759 z" style="stroke:#FF0000;fill:none"/><path d="M 87.341000,565.402822 A 0.847971,0.847971 -0.000000 1 0 85.645058,565.402822 0.847971,0.847971 -0.000000 1 0 87.341000,565.402822 z" style="stroke:#FF0000;fill:none"/><path d="M 118.291937,565.402822 A 0.847971,0.847971 -0.000000 1 0 116.595995,565.402822 0.847971,0.847971 -0.000000 1 0 118.291937,565.402822 z" style="stroke:#FF0000;fill:none"/><path d="M 149.242874,565.402822 A 0.847971,0.847971 -0.000000 1 0 147.546932,565.402822 0.847971,0.847971 -0.000000 1 0 149.242874,565.402822 z" style="stroke:#FF0000;fill:none"/><path d="M 180.193810,565.402822 A 0.847971,0.847971 -0.000000 1 0 178.497869,565.402822 0.847971,0.847971 -0.000000 1 0 180.193810,565.402822 z" style="stroke:#FF0000;fill:none"/><path d="M 211.144747,565.402822 A 0.847971,0.847971 -0.000000 1 0 209.448805,565.402822 0.847971,0.847971 -0.000000 1 0 211.144747,565.402822 z" style="stroke:#FF0000;fill:none"/><path d="M 242.095684,565.402822 A 0.847971,0.847971 -0.000000 1 0 240.399742,565.402822 0.847971,0.847971 -0.000000 1 0 242.095684,565.402822 z" style="stroke:#FF0000;fill:none"/><path d="M 334.948495,565.402822 A 0.847971,0.847971 -0.000000 1 0 333.252553,565.402822 0.847971,0.847971 -0.000000 1 0 334.948495,565.402822 z" style="stroke:#FF0000;fill:none"/><path d="M 303.997558,596.353759 A 0.847971,0.847971 -0.000000 1 0 302.301616,596.353759 0.847971,0.847971 -0.000000 1 0 303.997558,596.353759 z" style="stroke:#FF0000;fill:none"/><path d="M 334.948495,596.353759 A 0.847971,0.847971 -0.000000 1 0 333.252553,596.353759 0.847971,0.847971 -0.000000 1 0 334.948495,596.353759 z" style="stroke:#FF0000;fill:none"/><path d="M 365.899431,596.353759 A 0.847971,0.847971 -0.000000 1 0 364.203490,596.353759 0.847971,0.847971 -0.000000 1 0 365.899431,596.353759 z" style="stroke:#FF0000;fill:none"/><path d="M 396.850368,596.353759 A 0.847971,0.847971 -0.000000 1 0 395.154427,596.353759 0.847971,0.847971 -0.000000 1 0 396.850368,596.353759 z" style="stroke:#FF0000;fill:none"/><path d="M 427.801305,596.353759 A 0.847971,0.847971 -0.000000 1 0 426.105363,596.353759 0.847971,0.847971 -0.000000 1 0 427.801305,596.353759 z" style="stroke:#FF0000;fill:none"/><path d="M 458.752242,596.353759 A 0.847971,0.847971 -0.000000 1 0 457.056300,596.353759 0.847971,0.847971 -0.000000 1 0 458.752242,596.353759 z" style="stroke:#FF0000;fill:none"/><path d="M 56.390063,627.304696 A 0.847971,0.847971 -0.000000 1 0 54.694121,627.304696 0.847971,0.847971 -0.000000 1 0 56.390063,627.304696 z" style="stroke:#FF0000;fill:none"/><path d="M 520.654116,596.353759 A 0.847971,0.847971 -0.000000 1 0 518.958174,596.353759 0.847971,0.847971 -0.000000 1 0 520.654116,596.353759 z" style="stroke:#FF0000;fill:none"/><path d="M 118.291937,596.353759 A 0.847971,0.847971 -0.000000 1 0 116.595995,596.353759 0.847971,0.847971 -0.000000 1 0 118.291937,596.353759 z" style="stroke:#FF0000;fill:none"/><path d="M 25.439126,596.353759 A 0.847971,0.847971 -0.000000 1 0 23.743184,596.353759 0.847971,0.847971 -0.000000 1 0 25.439126,596.353759 z" style="stroke:#FF0000;fill:none"/><path d="M 180.193810,596.353759 A 0.847971,0.847971 -0.000000 1 0 178.497869,596.353759 0.847971,0.847971 -0.000000 1 0 180.193810,596.353759 z" style="stroke:#FF0000;fill:none"/><path d="M 87.341000,596.353759 A 0.847971,0.847971 -0.000000 1 0 85.645058,596.353759 0.847971,0.847971 -0.000000 1 0 87.341000,596.353759 z" style="stroke:#FF0000;fill:none"/><path d="M 242.095684,596.353759 A 0.847971,0.847971 -0.000000 1 0 240.399742,596.353759 0.847971,0.847971 -0.000000 1 0 242.095684,596.353759 z" style="stroke:#FF0000;fill:none"/><path d="M 149.242874,596.353759 A 0.847971,0.847971 -0.000000 1 0 147.546932,596.353759 0.847971,0.847971 -0.000000 1 0 149.242874,596.353759 z" style="stroke:#FF0000;fill:none"/><path d="M 211.144747,596.353759 A 0.847971,0.847971 -0.000000 1 0 209.448805,596.353759 0.847971,0.847971 -0.000000 1 0 211.144747,596.353759 z" style="stroke:#FF0000;fill:none"/><path d="M 334.948495,627.304696 A 0.847971,0.847971 -0.000000 1 0 333.252553,627.304696 0.847971,0.847971 -0.000000 1 0 334.948495,627.304696 z" style="stroke:#FF0000;fill:none"/><path d="M 396.850368,627.304696 A 0.847971,0.847971 -0.000000 1 0 395.154427,627.304696 0.847971,0.847971 -0.000000 1 0 396.850368,627.304696 z" style="stroke:#FF0000;fill:none"/><path d="M 303.997558,627.304696 A 0.847971,0.847971 -0.000000 1 0 302.301616,627.304696 0.847971,0.847971 -0.000000 1 0 303.997558,627.304696 z" style="stroke:#FF0000;fill:none"/><path d="M 458.752242,627.304696 A 0.847971,0.847971 -0.000000 1 0 457.056300,627.304696 0.847971,0.847971 -0.000000 1 0 458.752242,627.304696 z" style="stroke:#FF0000;fill:none"/><path d="M 365.899431,627.304696 A 0.847971,0.847971 -0.000000 1 0 364.203490,627.304696 0.847971,0.847971 -0.000000 1 0 365.899431,627.304696 z" style="stroke:#FF0000;fill:none"/><path d="M 520.654116,627.304696 A 0.847971,0.847971 -0.000000 1 0 518.958174,627.304696 0.847971,0.847971 -0.000000 1 0 520.654116,627.304696 z" style="stroke:#FF0000;fill:none"/><path d="M 427.801305,627.304696 A 0.847971,0.847971 -0.000000 1 0 426.105363,627.304696 0.847971,0.847971 -0.000000 1 0 427.801305,627.304696 z" style="stroke:#FF0000;fill:none"/><path d="M 25.439126,627.304696 A 0.847971,0.847971 -0.000000 1 0 23.743184,627.304696 0.847971,0.847971 -0.000000 1 0 25.439126,627.304696 z" style="stroke:#FF0000;fill:none"/><path d="M 489.703179,627.304696 A 0.847971,0.847971 -0.000000 1 0 488.007237,627.304696 0.847971,0.847971 -0.000000 1 0 489.703179,627.304696 z" style="stroke:#FF0000;fill:none"/><path d="M 87.341000,627.304696 A 0.847971,0.847971 -0.000000 1 0 85.645058,627.304696 0.847971,0.847971 -0.000000 1 0 87.341000,627.304696 z" style="stroke:#FF0000;fill:none"/><path d="M 118.291937,627.304696 A 0.847971,0.847971 -0.000000 1 0 116.595995,627.304696 0.847971,0.847971 -0.000000 1 0 118.291937,627.304696 z" style="stroke:#FF0000;fill:none"/><path d="M 149.242874,627.304696 A 0.847971,0.847971 -0.000000 1 0 147.546932,627.304696 0.847971,0.847971 -0.000000 1 0 149.242874,627.304696 z" style="stroke:#FF0000;fill:none"/><path d="M 180.193810,627.304696 A 0.847971,0.847971 -0.000000 1 0 178.497869,627.304696 0.847971,0.847971 -0.000000 1 0 180.193810,627.304696 z" style="stroke:#FF0000;fill:none"/><path d="M 211.144747,627.304696 A 0.847971,0.847971 -0.000000 1 0 209.448805,627.304696 0.847971,0.847971 -0.000000 1 0 211.144747,627.304696 z" style="stroke:#FF0000;fill:none"/><path d="M 242.095684,627.304696 A 0.847971,0.847971 -0.000000 1 0 240.399742,627.304696 0.847971,0.847971 -0.000000 1 0 242.095684,627.304696 z" style="stroke:#FF0000;fill:none"/><path d="M 211.144747,658.255632 A 0.847971,0.847971 -0.000000 1 0 209.448805,658.255632 0.847971,0.847971 -0.000000 1 0 211.144747,658.255632 z" style="stroke:#FF0000;fill:none"/><path d="M 303.997558,658.255632 A 0.847971,0.847971 -0.000000 1 0 302.301616,658.255632 0.847971,0.847971 -0.000000 1 0 303.997558,658.255632 z" style="stroke:#FF0000;fill:none"/><path d="M 334.948495,658.255632 A 0.847971,0.847971 -0.000000 1 0 333.252553,658.255632 0.847971,0.847971 -0.000000 1 0 334.948495,658.255632 z" style="stroke:#FF0000;fill:none"/><path d="M 365.899431,658.255632 A 0.847971,0.847971 -0.000000 1 0 364.203490,658.255632 0.847971,0.847971 -0.000000 1 0 365.899431,658.255632 z" style="stroke:#FF0000;fill:none"/><path d="M 396.850368,658.255632 A 0.847971,0.847971 -0.000000 1 0 395.154427,658.255632 0.847971,0.847971 -0.000000 1 0 396.850368,658.255632 z" style="stroke:#FF0000;fill:none"/><path d="M 427.801305,658.255632 A 0.847971,0.847971 -0.000000 1 0 426.105363,658.255632 0.847971,0.847971 -0.000000 1 0 427.801305,658.255632 z" style="stroke:#FF0000;fill:none"/><path d="M 458.752242,658.255632 A 0.847971,0.847971 -0.000000 1 0 457.056300,658.255632 0.847971,0.847971 -0.000000 1 0 458.752242,658.255632 z" style="stroke:#FF0000;fill:none"/><path d="M 489.703179,658.255632 A 0.847971,0.847971 -0.000000 1 0 488.007237,658.255632 0.847971,0.847971 -0.000000 1 0 489.703179,658.255632 z" style="stroke:#FF0000;fill:none"/><path d="M 56.390063,658.255632 A 0.847971,0.847971 -0.000000 1 0 54.694121,658.255632 0.847971,0.847971 -0.000000 1 0 56.390063,658.255632 z" style="stroke:#FF0000;fill:none"/><path d="M 118.291937,658.255632 A 0.847971,0.847971 -0.000000 1 0 116.595995,658.255632 0.847971,0.847971 -0.000000 1 0 118.291937,658.255632 z" style="stroke:#FF0000;fill:none"/><path d="M 25.439126,658.255632 A 0.847971,0.847971 -0.000000 1 0 23.743184,658.255632 0.847971,0.847971 -0.000000 1 0 25.439126,658.255632 z" style="stroke:#FF0000;fill:none"/><path d="M 180.193810,658.255632 A 0.847971,0.847971 -0.000000 1 0 178.497869,658.255632 0.847971,0.847971 -0.000000 1 0 180.193810,658.255632 z" style="stroke:#FF0000;fill:none"/><path d="M 87.341000,658.255632 A 0.847971,0.847971 -0.000000 1 0 85.645058,658.255632 0.847971,0.847971 -0.000000 1 0 87.341000,658.255632 z" style="stroke:#FF0000;fill:none"/><path d="M 242.095684,658.255632 A 0.847971,0.847971 -0.000000 1 0 240.399742,658.255632 0.847971,0.847971 -0.000000 1 0 242.095684,658.255632 z" style="stroke:#FF0000;fill:none"/><path d="M 149.242874,658.255632 A 0.847971,0.847971 -0.000000 1 0 147.546932,658.255632 0.847971,0.847971 -0.000000 1 0 149.242874,658.255632 z" style="stroke:#FF0000;fill:none"/><path d="M 211.144747,689.206569 A 0.847971,0.847971 -0.000000 1 0 209.448805,689.206569 0.847971,0.847971 -0.000000 1 0 211.144747,689.206569 z" style="stroke:#FF0000;fill:none"/><path d="M 242.095684,689.206569 A 0.847971,0.847971 -0.000000 1 0 240.399742,689.206569 0.847971,0.847971 -0.000000 1 0 242.095684,689.206569 z" style="stroke:#FF0000;fill:none"/><path d="M 334.948495,689.206569 A 0.847971,0.847971 -0.000000 1 0 333.252553,689.206569 0.847971,0.847971 -0.000000 1 0 334.948495,689.206569 z" style="stroke:#FF0000;fill:none"/><path d="M 396.850368,689.206569 A 0.847971,0.847971 -0.000000 1 0 395.154427,689.206569 0.847971,0.847971 -0.000000 1 0 396.850368,689.206569 z" style="stroke:#FF0000;fill:none"/><path d="M 303.997558,689.206569 A 0.847971,0.847971 -0.000000 1 0 302.301616,689.206569 0.847971,0.847971 -0.000000 1 0 303.997558,689.206569 z" style="stroke:#FF0000;fill:none"/><path d="M 458.752242,689.206569 A 0.847971,0.847971 -0.000000 1 0 457.056300,689.206569 0.847971,0.847971 -0.000000 1 0 458.752242,689.206569 z" style="stroke:#FF0000;fill:none"/><path d="M 365.899431,689.206569 A 0.847971,0.847971 -0.000000 1 0 364.203490,689.206569 0.847971,0.847971 -0.000000 1 0 365.899431,689.206569 z" style="stroke:#FF0000;fill:none"/><path d="M 56.390063,689.206569 A 0.847971,0.847971 -0.000000 1 0 54.694121,689.206569 0.847971,0.847971 -0.000000 1 0 56.390063,689.206569 z" style="stroke:#FF0000;fill:none"/><path d="M 520.654116,658.255632 A 0.847971,0.847971 -0.000000 1 0 518.958174,658.255632 0.847971,0.847971 -0.000000 1 0 520.654116,658.255632 z" style="stroke:#FF0000;fill:none"/><path d="M 25.439126,689.206569 A 0.847971,0.847971 -0.000000 1 0 23.743184,689.206569 0.847971,0.847971 -0.000000 1 0 25.439126,689.206569 z" style="stroke:#FF0000;fill:none"/><path d="M 489.703179,689.206569 A 0.847971,0.847971 -0.000000 1 0 488.007237,689.206569 0.847971,0.847971 -0.000000 1 0 489.703179,689.206569 z" style="stroke:#FF0000;fill:none"/><path d="M 87.341000,689.206569 A 0.847971,0.847971 -0.000000 1 0 85.645058,689.206569 0.847971,0.847971 -0.000000 1 0 87.341000,689.206569 z" style="stroke:#FF0000;fill:none"/><path d="M 118.291937,689.206569 A 0.847971,0.847971 -0.000000 1 0 116.595995,689.206569 0.847971,0.847971 -0.000000 1 0 118.291937,689.206569 z" style="stroke:#FF0000;fill:none"/><path d="M 149.242874,689.206569 A 0.847971,0.847971 -0.000000 1 0 147.546932,689.206569 0.847971,0.847971 -0.000000 1 0 149.242874,689.206569 z" style="stroke:#FF0000;fill:none"/><path d="M 180.193810,689.206569 A 0.847971,0.847971 -0.000000 1 0 178.497869,689.206569 0.847971,0.847971 -0.000000 1 0 180.193810,689.206569 z" style="stroke:#FF0000;fill:none"/><path d="M 303.997558,720.157506 A 0.847971,0.847971 -0.000000 1 0 302.301616,720.157506 0.847971,0.847971 -0.000000 1 0 303.997558,720.157506 z" style="stroke:#FF0000;fill:none"/><path d="M 334.948495,720.157506 A 0.847971,0.847971 -0.000000 1 0 333.252553,720.157506 0.847971,0.847971 -0.000000 1 0 334.948495,720.157506 z" style="stroke:#FF0000;fill:none"/><path d="M 211.144747,720.157506 A 0.847971,0.847971 -0.000000 1 0 209.448805,720.157506 0.847971,0.847971 -0.000000 1 0 211.144747,720.157506 z" style="stroke:#FF0000;fill:none"/><path d="M 242.095684,720.157506 A 0.847971,0.847971 -0.000000 1 0 240.399742,720.157506 0.847971,0.847971 -0.000000 1 0 242.095684,720.157506 z" style="stroke:#FF0000;fill:none"/><path d="M 149.242874,720.157506 A 0.847971,0.847971 -0.000000 1 0 147.546932,720.157506 0.847971,0.847971 -0.000000 1 0 149.242874,720.157506 z" style="stroke:#FF0000;fill:none"/><path d="M 180.193810,720.157506 A 0.847971,0.847971 -0.000000 1 0 178.497869,720.157506 0.847971,0.847971 -0.000000 1 0 180.193810,720.157506 z" style="stroke:#FF0000;fill:none"/><path d="M 520.654116,689.206569 A 0.847971,0.847971 -0.000000 1 0 518.958174,689.206569 0.847971,0.847971 -0.000000 1 0 520.654116,689.206569 z" style="stroke:#FF0000;fill:none"/><path d="M 427.801305,689.206569 A 0.847971,0.847971 -0.000000 1 0 426.105363,689.206569 0.847971,0.847971 -0.000000 1 0 427.801305,689.206569 z" style="stroke:#FF0000;fill:none"/><path d="M 489.703179,720.157506 A 0.847971,0.847971 -0.000000 1 0 488.007237,720.157506 0.847971,0.847971 -0.000000 1 0 489.703179,720.157506 z" style="stroke:#FF0000;fill:none"/><path d="M 520.654116,720.157506 A 0.847971,0.847971 -0.000000 1 0 518.958174,720.157506 0.847971,0.847971 -0.000000 1 0 520.654116,720.157506 z" style="stroke:#FF0000;fill:none"/><path d="M 427.801305,720.157506 A 0.847971,0.847971 -0.000000 1 0 426.105363,720.157506 0.847971,0.847971 -0.000000 1 0 427.801305,720.157506 z" style="stroke:#FF0000;fill:none"/><path d="M 458.752242,720.157506 A 0.847971,0.847971 -0.000000 1 0 457.056300,720.157506 0.847971,0.847971 -0.000000 1 0 458.752242,720.157506 z" style="stroke:#FF0000;fill:none"/><path d="M 365.899431,720.157506 A 0.847971,0.847971 -0.000000 1 0 364.203490,720.157506 0.847971,0.847971 -0.000000 1 0 365.899431,720.157506 z" style="stroke:#FF0000;fill:none"/><path d="M 396.850368,720.157506 A 0.847971,0.847971 -0.000000 1 0 395.154427,720.157506 0.847971,0.847971 -0.000000 1 0 396.850368,720.157506 z" style="stroke:#FF0000;fill:none"/><path d="M 87.341000,720.157506 A 0.847971,0.847971 -0.000000 1 0 85.645058,720.157506 0.847971,0.847971 -0.000000 1 0 87.341000,720.157506 z" style="stroke:#FF0000;fill:none"/><path d="M 118.291937,720.157506 A 0.847971,0.847971 -0.000000 1 0 116.595995,720.157506 0.847971,0.847971 -0.000000 1 0 118.291937,720.157506 z" style="stroke:#FF0000;fill:none"/><path d="M 25.439126,720.157506 A 0.847971,0.847971 -0.000000 1 0 23.743184,720.157506 0.847971,0.847971 -0.000000 1 0 25.439126,720.157506 z" style="stroke:#FF0000;fill:none"/><path d="M 56.390063,720.157506 A 0.847971,0.847971 -0.000000 1 0 54.694121,720.157506 0.847971,0.847971 -0.000000 1 0 56.390063,720.157506 z" style="stroke:#FF0000;fill:none"/></g></svg>