  0
SECTION
  2
HEADER
  9
$ACADVER
  1
AC1027
  9
$ACADMAINTVER
 70
     8
  9
$DWGCODEPAGE
  3
ANSI_1252
  9
$REQUIREDVERSIONS
160
                 0
  9
$INSBASE
 10
0.0
 20
0.0
 30
0.0
  9
$EXTMIN
 10
1.000000000000000E+20
 20
1.000000000000000E+20
 30
1.000000000000000E+20
  9
$EXTMAX
 10
-1.000000000000000E+20
 20
-1.000000000000000E+20
 30
-1.000000000000000E+20
  9
$LIMMIN
 10
0.0
 20
0.0
  9
$LIMMAX
 10
12.0
 20
9.0
  9
$ORTHOMODE
 70
     0
  9
$REGENMODE
 70
     1
  9
$FILLMODE
 70
     1
  9
$QTEXTMODE
 70
     0
  9
$MIRRTEXT
 70
     1
  9
$LTSCALE
 40
1.0
  9
$ATTMODE
 70
     1
  9
$TEXTSIZE
 40
0.2
  9
$TRACEWID
 40
0.05
  9
$TEXTSTYLE
  7
Standard
  9
$CLAYER
  8
0
  9
$CELTYPE
  6
ByLayer
  9
$CECOLOR
 62
    18
  9
$CELTSCALE
 40
1.0
  9
$DISPSILH
 70
     0
  9
$DIMSCALE
 40
1.0
  9
$DIMASZ
 40
2.5
  9
$DIMEXO
 40
0.625
  9
$DIMDLI
 40
0.38
  9
$DIMRND
 40
0.0
  9
$DIMDLE
 40
0.0
  9
$DIMEXE
 40
1.25
  9
$DIMTP
 40
0.0
  9
$DIMTM
 40
0.0
  9
$DIMTXT
 40
2.5
  9
$DIMCEN
 40
0.09
  9
$DIMTSZ
 40
0.0
  9
$DIMTOL
 70
     0
  9
$DIMLIM
 70
     0
  9
$DIMTIH
 70
     1
  9
$DIMTOH
 70
     1
  9
$DIMSE1
 70
     0
  9
$DIMSE2
 70
     0
  9
$DIMTAD
 70
     0
  9
$DIMZIN
 70
     8
  9
$DIMBLK
  1

  9
$DIMASO
 70
     1
  9
$DIMSHO
 70
     1
  9
$DIMPOST
  1

  9
$DIMAPOST
  1

  9
$DIMALT
 70
     0
  9
$DIMALTD
 70
     2
  9
$DIMALTF
 40
25.4
  9
$DIMLFAC
 40
1.0
  9
$DIMTOFL
 70
     0
  9
$DIMTVP
 40
0.0
  9
$DIMTIX
 70
     0
  9
$DIMSOXD
 70
     0
  9
$DIMSAH
 70
     0
  9
$DIMBLK1
  1

  9
$DIMBLK2
  1

  9
$DIMSTYLE
  2
Standard
  9
$DIMCLRD
 70
    18
  9
$DIMCLRE
 70
    18
  9
$DIMCLRT
 70
    18
  9
$DIMTFAC
 40
1.0
  9
$DIMGAP
 40
0.625
  9
$DIMJUST
 70
     0
  9
$DIMSD1
 70
     0
  9
$DIMSD2
 70
     0
  9
$DIMTOLJ
 70
     1
  9
$DIMTZIN
 70
     0
  9
$DIMALTZ
 70
     0
  9
$DIMALTTZ
 70
     0
  9
$DIMUPT
 70
     0
  9
$DIMDEC
 70
     4
  9
$DIMTDEC
 70
     4
  9
$DIMALTU
 70
     2
  9
$DIMALTTD
 70
     2
  9
$DIMTXSTY
  7
Standard
  9
$DIMAUNIT
 70
     0
  9
$DIMADEC
 70
     0
  9
$DIMALTRND
 40
0.0
  9
$DIMAZIN
 70
     2
  9
$DIMDSEP
 70
    46
  9
$DIMATFIT
 70
     3
  9
$DIMFRAC
 70
     0
  9
$DIMLDRBLK
  1

  9
$DIMLUNIT
 70
     2
  9
$DIMLWD
 70
    -2
  9
$DIMLWE
 70
    -2
  9
$DIMTMOVE
 70
     0
  9
$DIMFXL
 40
1.0
  9
$DIMFXLON
 70
     0
  9
$DIMJOGANG
 40
0.7853981633974483
  9
$DIMTFILL
 70
     0
  9
$DIMTFILLCLR
 70
     0
  9
$DIMARCSYM
 70
     0
  9
$DIMLTYPE
  6

  9
$DIMLTEX1
  6

  9
$DIMLTEX2
  6

  9
$DIMTXTDIRECTION
 70
     0
  9
$LUNITS
 70
     2
  9
$LUPREC
 70
     4
  9
$SKETCHINC
 40
0.1
  9
$FILLETRAD
 40
0.5
  9
$AUNITS
 70
     0
  9
$AUPREC
 70
     0
  9
$MENU
  1
.
  9
$ELEVATION
 40
0.0
  9
$PELEVATION
 40
0.0
  9
$THICKNESS
 40
0.0
  9
$LIMCHECK
 70
     0
  9
$CHAMFERA
 40
0.0
  9
$CHAMFERB
 40
0.0
  9
$CHAMFERC
 40
0.0
  9
$CHAMFERD
 40
0.0
  9
$SKPOLY
 70
     0
  9
$TDCREATE
 40
2459229.496431852
  9
$TDUCREATE
 40
2459229.704765185
  9
$TDUPDATE
 40
2459229.49643191
  9
$TDUUPDATE
 40
2459229.704765243
  9
$TDINDWG
 40
0.0000000116
  9
$TDUSRTIMER
 40
0.0000000116
  9
$USRTIMER
 70
     1
  9
$ANGBASE
 50
0.0
  9
$ANGDIR
 70
     0
  9
$PDMODE
 70
     0
  9
$PDSIZE
 40
0.0
  9
$PLINEWID
 40
0.0
  9
$SPLFRAME
 70
     0
  9
$SPLINETYPE
 70
     6
  9
$SPLINESEGS
 70
     8
  9
$HANDSEED
  5
4E8
  9
$SURFTAB1
 70
     6
  9
$SURFTAB2
 70
     6
  9
$SURFTYPE
 70
     6
  9
$SURFU
 70
     6
  9
$SURFV
 70
     6
  9
$UCSBASE
  2

  9
$UCSNAME
  2

  9
$UCSORG
 10
0.0
 20
0.0
 30
0.0
  9
$UCSXDIR
 10
1.0
 20
0.0
 30
0.0
  9
$UCSYDIR
 10
0.0
 20
1.0
 30
0.0
  9
$UCSORTHOREF
  2

  9
$UCSORTHOVIEW
 70
     0
  9
$UCSORGTOP
 10
0.0
 20
0.0
 30
0.0
  9
$UCSORGBOTTOM
 10
0.0
 20
0.0
 30
0.0
  9
$UCSORGLEFT
 10
0.0
 20
0.0
 30
0.0
  9
$UCSORGRIGHT
 10
0.0
 20
0.0
 30
0.0
  9
$UCSORGFRONT
 10
0.0
 20
0.0
 30
0.0
  9
$UCSORGBACK
 10
0.0
 20
0.0
 30
0.0
  9
$PUCSBASE
  2

  9
$PUCSNAME
  2

  9
$PUCSORG
 10
0.0
 20
0.0
 30
0.0
  9
$PUCSXDIR
 10
1.0
 20
0.0
 30
0.0
  9
$PUCSYDIR
 10
0.0
 20
1.0
 30
0.0
  9
$PUCSORTHOREF
  2

  9
$PUCSORTHOVIEW
 70
     0
  9
$PUCSORGTOP
 10
0.0
 20
0.0
 30
0.0
  9
$PUCSORGBOTTOM
 10
0.0
 20
0.0
 30
0.0
  9
$PUCSORGLEFT
 10
0.0
 20
0.0
 30
0.0
  9
$PUCSORGRIGHT
 10
0.0
 20
0.0
 30
0.0
  9
$PUCSORGFRONT
 10
0.0
 20
0.0
 30
0.0
  9
$PUCSORGBACK
 10
0.0
 20
0.0
 30
0.0
  9
$USERI1
 70
     0
  9
$USERI2
 70
     0
  9
$USERI3
 70
     0
  9
$USERI4
 70
     0
  9
$USERI5
 70
     0
  9
$USERR1
 40
0.0
  9
$USERR2
 40
0.0
  9
$USERR3
 40
0.0
  9
$USERR4
 40
0.0
  9
$USERR5
 40
0.0
  9
$WORLDVIEW
 70
     1
  9
$SHADEDGE
 70
     3
  9
$SHADEDIF
 70
    70
  9
$TILEMODE
 70
     1
  9
$MAXACTVP
 70
     2
  9
$PINSBASE
 10
0.0
 20
0.0
 30
0.0
  9
$PLIMCHECK
 70
     0
  9
$PEXTMIN
 10
0.0
 20
0.0
 30
0.0
  9
$PEXTMAX
 10
0.0
 20
0.0
 30
0.0
  9
$PLIMMIN
 10
-20.0
 20
-7.5
  9
$PLIMMAX
 10
277.0
 20
202.5
  9
$UNITMODE
 70
     0
  9
$VISRETAIN
 70
     1
  9
$PLINEGEN
 70
     0
  9
$PSLTSCALE
 70
     1
  9
$TREEDEPTH
 70
  3020
  9
$CMLSTYLE
  2
Standard
  9
$CMLJUST
 70
     0
  9
$CMLSCALE
 40
1.0
  9
$PROXYGRAPHICS
 70
     1
  9
$MEASUREMENT
 70
     1
  9
$CELWEIGHT
370
    -1
  9
$ENDCAPS
280
     0
  9
$JOINSTYLE
280
     0
  9
$LWDISPLAY
290
     0
  9
$INSUNITS
 70
     4
  9
$HYPERLINKBASE
  1

  9
$STYLESHEET
  1

  9
$XEDIT
290
     1
  9
$CEPSNTYPE
380
     0
  9
$PSTYLEMODE
290
     1
  9
$FINGERPRINTGUID
  2
{A13F9422-BE15-460A-A6FA-7B7B4DEC55D5}
  9
$VERSIONGUID
  2
{FAEB1C32-E019-11D5-929B-00C0DF256EC4}
  9
$EXTNAMES
290
     1
  9
$PSVPSCALE
 40
0.0
  9
$OLESTARTUP
290
     0
  9
$SORTENTS
280
   127
  9
$INDEXCTL
280
     0
  9
$HIDETEXT
280
     1
  9
$XCLIPFRAME
280
     2
  9
$HALOGAP
280
     0
  9
$OBSCOLOR
 70
   257
  9
$OBSLTYPE
280
     0
  9
$INTERSECTIONDISPLAY
280
     0
  9
$INTERSECTIONCOLOR
 70
   257
  9
$DIMASSOC
280
     2
  9
$PROJECTNAME
  1

  9
$CAMERADISPLAY
290
     0
  9
$LENSLENGTH
 40
50.0
  9
$CAMERAHEIGHT
 40
0.0
  9
$STEPSPERSEC
 40
2.0
  9
$STEPSIZE
 40
6.0
  9
$3DDWFPREC
 40
2.0
  9
$PSOLWIDTH
 40
0.25
  9
$PSOLHEIGHT
 40
4.0
  9
$LOFTANG1
 40
1.570796326794897
  9
$LOFTANG2
 40
1.570796326794897
  9
$LOFTMAG1
 40
0.0
  9
$LOFTMAG2
 40
0.0
  9
$LOFTPARAM
 70
     7
  9
$LOFTNORMALS
280
     1
  9
$LATITUDE
 40
37.795
  9
$LONGITUDE
 40
-122.394
  9
$NORTHDIRECTION
 40
0.0
  9
$TIMEZONE
 70
 -8000
  9
$LIGHTGLYPHDISPLAY
280
     1
  9
$TILEMODELIGHTSYNCH
280
     1
  9
$CMATERIAL
347
441
  9
$SOLIDHIST
280
     0
  9
$SHOWHIST
280
     1
  9
$DWFFRAME
280
     2
  9
$DGNFRAME
280
     2
  9
$REALWORLDSCALE
290
     1
  9
$INTERFERECOLOR
 62
   256
  9
$CSHADOW
280
     0
  9
$SHADOWPLANELOCATION
 40
0.0
  0
ENDSEC
  0
SECTION
  2
CLASSES
  0
CLASS
  1
ACDBDICTIONARYWDFLT
  2
AcDbDictionaryWithDefault
  3
ObjectDBX Classes
 90
        0
 91
        4
280
     0
281
     0
  0
CLASS
  1
VISUALSTYLE
  2
AcDbVisualStyle
  3
ObjectDBX Classes
 90
     4095
 91
        4
280
     0
281
     0
  0
CLASS
  1
MATERIAL
  2
AcDbMaterial
  3
ObjectDBX Classes
 90
     1153
 91
        4
280
     0
281
     0
  0
CLASS
  1
SCALE
  2
AcDbScale
  3
ObjectDBX Classes
 90
     1153
 91
        4
280
     0
281
     0
  0
CLASS
  1
TABLESTYLE
  2
AcDbTableStyle
  3
ObjectDBX Classes
 90
     4095
 91
        4
280
     0
281
     0
  0
CLASS
  1
MLEADERSTYLE
  2
AcDbMLeaderStyle
  3
ACDB_MLEADERSTYLE_CLASS
 90
     4095
 91
        4
280
     0
281
     0
  0
CLASS
  1
SUN
  2
AcDbSun
  3
SCENEOE
 90
     1153
 91
        4
280
     0
281
     0
  0
CLASS
  1
DICTIONARYVAR
  2
AcDbDictionaryVar
  3
ObjectDBX Classes
 90
        0
 91
        4
280
     0
281
     0
  0
CLASS
  1
CELLSTYLEMAP
  2
AcDbCellStyleMap
  3
ObjectDBX Classes
 90
     1152
 91
        4
280
     0
281
     0
  0
ENDSEC
  0
SECTION
  2
TABLES
  0
TABLE
  2
VPORT
  5
406
330
0
100
AcDbSymbolTable
 70
     1
  0
VPORT
  5
426
330
406
100
AcDbSymbolTableRecord
100
AcDbViewportTableRecord
  2
*Active
 70
     0
 10
0.0
 20
0.0
 11
1.0
 21
1.0
 12
435.4225999350664
 22
149.4014827469302
 13
0.0
 23
0.0
 14
0.5
 24
0.5
 15
0.5
 25
0.5
 16
0.0
 26
0.0
 36
1.0
 17
0.0
 27
0.0
 37
0.0
 40
1409.757151300179
 41
2.303215926493109
 42
50.0
 43
0.0
 44
0.0
 50
0.0
 51
0.0
 71
     0
 72
   100
 73
     1
 74
     3
 75
     0
 76
     0
 77
     0
 78
     0
281
     0
 65
     1
110
0.0
120
0.0
130
0.0
111
1.0
121
0.0
131
0.0
112
0.0
122
1.0
132
0.0
 79
     0
146
0.0
 60
     3
 61
     5
292
     1
282
     1
141
0.0
142
0.0
 63
   250
361
46A
  0
ENDTAB
  0
TABLE
  2
LTYPE
  5
403
330
0
100
AcDbSymbolTable
 70
    48
  0
LTYPE
  5
411
330
403
100
AcDbSymbolTableRecord
100
AcDbLinetypeTableRecord
  2
ByBlock
 70
     0
  3

 72
    65
 73
     0
 40
0.0
  0
LTYPE
  5
412
330
403
100
AcDbSymbolTableRecord
100
AcDbLinetypeTableRecord
  2
ByLayer
 70
     0
  3

 72
    65
 73
     0
 40
0.0
  0
LTYPE
  5
413
330
403
100
AcDbSymbolTableRecord
100
AcDbLinetypeTableRecord
  2
Continuous
 70
     0
  3
Solid line
 72
    65
 73
     0
 40
0.0
  0
LTYPE
  5
4A1
330
403
100
AcDbSymbolTableRecord
100
AcDbLinetypeTableRecord
  2
BORDERX2
 70
     0
  3
Border (2x) ____  ____  .  ____  ____  .  ___
 72
    65
 73
     6
 40
88.89999999999999
 49
25.4
 74
     0
 49
-12.7
 74
     0
 49
25.4
 74
     0
 49
-12.7
 74
     0
 49
0.0
 74
     0
 49
-12.7
 74
     0
  0
LTYPE
  5
4A2
330
403
100
AcDbSymbolTableRecord
100
AcDbLinetypeTableRecord
  2
BORDER2
 70
     0
  3
Border (.5x) __.__.__.__.__.__.__.__.__.__.__.
 72
    65
 73
     6
 40
22.225
 49
6.35
 74
     0
 49
-3.175
 74
     0
 49
6.35
 74
     0
 49
-3.175
 74
     0
 49
0.0
 74
     0
 49
-3.175
 74
     0
  0
LTYPE
  5
4A3
330
403
100
AcDbSymbolTableRecord
100
AcDbLinetypeTableRecord
  2
CENTER2
 70
     0
  3
Center (.5x) ___ _ ___ _ ___ _ ___ _ ___ _ ___
 72
    65
 73
     4
 40
28.575
 49
19.05
 74
     0
 49
-3.175
 74
     0
 49
3.175
 74
     0
 49
-3.175
 74
     0
  0
LTYPE
  5
4A4
330
403
100
AcDbSymbolTableRecord
100
AcDbLinetypeTableRecord
  2
CENTER
 70
     0
  3
Center ____ _ ____ _ ____ _ ____ _ ____ _ ____
 72
    65
 73
     4
 40
50.8
 49
31.75
 74
     0
 49
-6.35
 74
     0
 49
6.35
 74
     0
 49
-6.35
 74
     0
  0
LTYPE
  5
4A5
330
403
100
AcDbSymbolTableRecord
100
AcDbLinetypeTableRecord
  2
DASHDOT
 70
     0
  3
Dash dot __ . __ . __ . __ . __ . __ . __ . __
 72
    65
 73
     4
 40
25.4
 49
12.7
 74
     0
 49
-6.35
 74
     0
 49
0.0
 74
     0
 49
-6.35
 74
     0
  0
LTYPE
  5
4A6
330
403
100
AcDbSymbolTableRecord
100
AcDbLinetypeTableRecord
  2
CENTERX2
 70
     0
  3
Center (2x) ________  __  ________  __  _____
 72
    65
 73
     4
 40
101.6
 49
63.5
 74
     0
 49
-12.7
 74
     0
 49
12.7
 74
     0
 49
-12.7
 74
     0
  0
LTYPE
  5
4A7
330
403
100
AcDbSymbolTableRecord
100
AcDbLinetypeTableRecord
  2
DASHDOTX2
 70
     0
  3
Dash dot (2x) ____  .  ____  .  ____  .  ___
 72
    65
 73
     4
 40
50.8
 49
25.4
 74
     0
 49
-12.7
 74
     0
 49
0.0
 74
     0
 49
-12.7
 74
     0
  0
LTYPE
  5
4A8
330
403
100
AcDbSymbolTableRecord
100
AcDbLinetypeTableRecord
  2
DASHDOT2
 70
     0
  3
Dash dot (.5x) _._._._._._._._._._._._._._._.
 72
    65
 73
     4
 40
12.7
 49
6.35
 74
     0
 49
-3.175
 74
     0
 49
0.0
 74
     0
 49
-3.175
 74
     0
  0
LTYPE
  5
4A9
330
403
100
AcDbSymbolTableRecord
100
AcDbLinetypeTableRecord
  2
ACAD_ISO11W100
 70
     0
  3
ISO double-dash dot __ __ . __ __ . __ __ . __ _
 72
    65
 73
     6
 40
33.0
 49
12.0
 74
     0
 49
-3.0
 74
     0
 49
12.0
 74
     0
 49
-3.0
 74
     0
 49
0.0
 74
     0
 49
-3.0
 74
     0
  0
LTYPE
  5
4AA
330
403
100
AcDbSymbolTableRecord
100
AcDbLinetypeTableRecord
  2
ACAD_ISO10W100
 70
     0
  3
ISO dash dot __ . __ . __ . __ . __ . __ . __ . 
 72
    65
 73
     4
 40
18.0
 49
12.0
 74
     0
 49
-3.0
 74
     0
 49
0.0
 74
     0
 49
-3.0
 74
     0
  0
LTYPE
  5
4AB
330
403
100
AcDbSymbolTableRecord
100
AcDbLinetypeTableRecord
  2
ACAD_ISO13W100
 70
     0
  3
ISO double-dash double-dot __ __ . . __ __ . . _
 72
    65
 73
     8
 40
36.0
 49
12.0
 74
     0
 49
-3.0
 74
     0
 49
12.0
 74
     0
 49
-3.0
 74
     0
 49
0.0
 74
     0
 49
-3.0
 74
     0
 49
0.0
 74
     0
 49
-3.0
 74
     0
  0
LTYPE
  5
4AC
330
403
100
AcDbSymbolTableRecord
100
AcDbLinetypeTableRecord
  2
ACAD_ISO12W100
 70
     0
  3
ISO dash double-dot __ . . __ . . __ . . __ . . 
 72
    65
 73
     6
 40
21.0
 49
12.0
 74
     0
 49
-3.0
 74
     0
 49
0.0
 74
     0
 49
-3.0
 74
     0
 49
0.0
 74
     0
 49
-3.0
 74
     0
  0
LTYPE
  5
4AD
330
403
100
AcDbSymbolTableRecord
100
AcDbLinetypeTableRecord
  2
ACAD_ISO15W100
 70
     0
  3
ISO double-dash triple-dot __ __ . . . __ __ . .
 72
    65
 73
    10
 40
39.0
 49
12.0
 74
     0
 49
-3.0
 74
     0
 49
12.0
 74
     0
 49
-3.0
 74
     0
 49
0.0
 74
     0
 49
-3.0
 74
     0
 49
0.0
 74
     0
 49
-3.0
 74
     0
 49
0.0
 74
     0
 49
-3.0
 74
     0
  0
LTYPE
  5
4AE
330
403
100
AcDbSymbolTableRecord
100
AcDbLinetypeTableRecord
  2
ACAD_ISO14W100
 70
     0
  3
ISO dash triple-dot __ . . . __ . . . __ . . . _
 72
    65
 73
     8
 40
24.0
 49
12.0
 74
     0
 49
-3.0
 74
     0
 49
0.0
 74
     0
 49
-3.0
 74
     0
 49
0.0
 74
     0
 49
-3.0
 74
     0
 49
0.0
 74
     0
 49
-3.0
 74
     0
  0
LTYPE
  5
4AF
330
403
100
AcDbSymbolTableRecord
100
AcDbLinetypeTableRecord
  2
BORDER
 70
     0
  3
Border __ __ . __ __ . __ __ . __ __ . __ __ .
 72
    65
 73
     6
 40
44.45
 49
12.7
 74
     0
 49
-6.35
 74
     0
 49
12.7
 74
     0
 49
-6.35
 74
     0
 49
0.0
 74
     0
 49
-6.35
 74
     0
  0
LTYPE
  5
4B2
330
403
100
AcDbSymbolTableRecord
100
AcDbLinetypeTableRecord
  2
BATTING
 70
     0
  3
Batting SSSSSSSSSSSSSSSSSSSSSSSSSSSSSSSSSSSSSSSSSSSSSSS
 72
    65
 73
     4
 40
10.16254
 49
0.00254
 74
     0
 49
-2.54
 74
     2
 75
     0
340
4B0
 46
2.54
 50
0.0
 44
-2.54
 45
0.0
  9
BAT
 49
-5.08
 74
     2
 75
     0
340
4B1
 46
2.54
 50
180.0
 44
2.54
 45
0.0
  9
BAT
 49
-2.54
 74
     0
  0
LTYPE
  5
4B4
330
403
100
AcDbSymbolTableRecord
100
AcDbLinetypeTableRecord
  2
DRAINAGE
 70
     0
  3
Drainage ---->---->---->----
 72
    65
 73
     2
 40
10.16
 49
5.08
 74
     2
 75
     0
340
4B3
 46
2.54
 50
180.0
 44
0.0
 45
0.0
  9
RIGHT_ARROW
 49
5.08
 74
     0
  0
LTYPE
  5
4B5
330
403
100
AcDbSymbolTableRecord
100
AcDbLinetypeTableRecord
  2
DOTX2
 70
     0
  3
Dot (2x) .  .  .  .  .  .  .  .  .  .  .  .  .  .
 72
    65
 73
     2
 40
12.7
 49
0.0
 74
     0
 49
-12.7
 74
     0
  0
LTYPE
  5
4B7
330
403
100
AcDbSymbolTableRecord
100
AcDbLinetypeTableRecord
  2
FENCELINE1
 70
     0
  3
Fenceline circle ----0-----0----0-----0----0-----0--
 72
    65
 73
     4
 40
36.83
 49
6.35
 74
     0
 49
-2.54
 74
     2
 75
     0
340
4B6
 46
2.54
 50
0.0
 44
-2.54
 45
0.0
  9
CIRC1
 49
-2.54
 74
     0
 49
25.4
 74
     0
  0
LTYPE
  5
4B9
330
403
100
AcDbSymbolTableRecord
100
AcDbLinetypeTableRecord
  2
DRAINAGE2
 70
     0
  3
Drainage reversed----<----<----<----
 72
    65
 73
     2
 40
10.16
 49
5.08
 74
     2
 75
     0
340
4B8
 46
2.54
 50
0.0
 44
0.0
 45
0.0
  9
RIGHT_ARROW
 49
5.08
 74
     0
  0
LTYPE
  5
4BB
330
403
100
AcDbSymbolTableRecord
100
AcDbLinetypeTableRecord
  2
GAS_LINE
 70
     0
  3
Gas line ----GAS----GAS----GAS----GAS----GAS----GAS--
 72
    65
 73
     3
 40
24.13
 49
12.7
 74
     0
 49
-5.08
 74
     2
 75
     0
340
4BA
 46
2.54
 50
0.0
 44
-2.54
 45
-1.27
  9
GAS
 49
-6.35
 74
     0
  0
LTYPE
  5
4BD
330
403
100
AcDbSymbolTableRecord
100
AcDbLinetypeTableRecord
  2
FENCELINE2
 70
     0
  3
Fenceline square ----[]-----[]----[]-----[]----[]---
 72
    65
 73
     4
 40
36.83
 49
6.35
 74
     0
 49
-2.54
 74
     2
 75
     0
340
4BC
 46
2.54
 50
0.0
 44
-2.54
 45
0.0
  9
BOX
 49
-2.54
 74
     0
 49
25.4
 74
     0
  0
LTYPE
  5
4BE
330
403
100
AcDbSymbolTableRecord
100
AcDbLinetypeTableRecord
  2
HIDDEN2
 70
     0
  3
Hidden (.5x) _ _ _ _ _ _ _ _ _ _ _ _ _ _ _ _ _ 
 72
    65
 73
     2
 40
4.762499999999999
 49
3.175
 74
     0
 49
-1.5875
 74
     0
  0
LTYPE
  5
4BF
330
403
100
AcDbSymbolTableRecord
100
AcDbLinetypeTableRecord
  2
HIDDEN
 70
     0
  3
Hidden __ __ __ __ __ __ __ __ __ __ __ __ __ __
 72
    65
 73
     2
 40
9.524999999999999
 49
6.35
 74
     0
 49
-3.175
 74
     0
  0
LTYPE
  5
4C0
330
403
100
AcDbSymbolTableRecord
100
AcDbLinetypeTableRecord
  2
DASHED2
 70
     0
  3
Dashed (.5x) _ _ _ _ _ _ _ _ _ _ _ _ _ _ _ _ _ 
 72
    65
 73
     2
 40
9.524999999999999
 49
6.35
 74
     0
 49
-3.175
 74
     0
  0
LTYPE
  5
4C1
330
403
100
AcDbSymbolTableRecord
100
AcDbLinetypeTableRecord
  2
DASHED
 70
     0
  3
Dashed __ __ __ __ __ __ __ __ __ __ __ __ __ _
 72
    65
 73
     2
 40
19.05
 49
12.7
 74
     0
 49
-6.35
 74
     0
  0
LTYPE
  5
4C2
330
403
100
AcDbSymbolTableRecord
100
AcDbLinetypeTableRecord
  2
DIVIDE
 70
     0
  3
Divide ____ . . ____ . . ____ . . ____ . . ____
 72
    65
 73
     6
 40
31.75
 49
12.7
 74
     0
 49
-6.35
 74
     0
 49
0.0
 74
     0
 49
-6.35
 74
     0
 49
0.0
 74
     0
 49
-6.35
 74
     0
  0
LTYPE
  5
4C3
330
403
100
AcDbSymbolTableRecord
100
AcDbLinetypeTableRecord
  2
DASHEDX2
 70
     0
  3
Dashed (2x) ____  ____  ____  ____  ____  ___
 72
    65
 73
     2
 40
38.09999999999999
 49
25.4
 74
     0
 49
-12.7
 74
     0
  0
LTYPE
  5
4C4
330
403
100
AcDbSymbolTableRecord
100
AcDbLinetypeTableRecord
  2
DIVIDEX2
 70
     0
  3
Divide (2x) ________  .  .  ________  .  .  _
 72
    65
 73
     6
 40
63.5
 49
25.4
 74
     0
 49
-12.7
 74
     0
 49
0.0
 74
     0
 49
-12.7
 74
     0
 49
0.0
 74
     0
 49
-12.7
 74
     0
  0
LTYPE
  5
4C5
330
403
100
AcDbSymbolTableRecord
100
AcDbLinetypeTableRecord
  2
DIVIDE2
 70
     0
  3
Divide (.5x) __..__..__..__..__..__..__..__.._
 72
    65
 73
     6
 40
15.875
 49
6.35
 74
     0
 49
-3.175
 74
     0
 49
0.0
 74
     0
 49
-3.175
 74
     0
 49
0.0
 74
     0
 49
-3.175
 74
     0
  0
LTYPE
  5
4C6
330
403
100
AcDbSymbolTableRecord
100
AcDbLinetypeTableRecord
  2
DOT2
 70
     0
  3
Dot (.5x) ........................................
 72
    65
 73
     2
 40
3.175
 49
0.0
 74
     0
 49
-3.175
 74
     0
  0
LTYPE
  5
4C7
330
403
100
AcDbSymbolTableRecord
100
AcDbLinetypeTableRecord
  2
DOT
 70
     0
  3
Dot . . . . . . . . . . . . . . . . . . . . . . . .
 72
    65
 73
     2
 40
6.35
 49
0.0
 74
     0
 49
-6.35
 74
     0
  0
LTYPE
  5
4C9
330
403
100
AcDbSymbolTableRecord
100
AcDbLinetypeTableRecord
  2
HOT_WATER_SUPPLY
 70
     0
  3
Hot water supply ---- HW ---- HW ---- HW ----
 72
    65
 73
     3
 40
22.86
 49
12.7
 74
     0
 49
-5.08
 74
     2
 75
     0
340
4C8
 46
2.54
 50
0.0
 44
-2.54
 45
-1.27
  9
HW
 49
-5.08
 74
     0
  0
LTYPE
  5
4CA
330
403
100
AcDbSymbolTableRecord
100
AcDbLinetypeTableRecord
  2
HIDDENX2
 70
     0
  3
Hidden (2x) ____ ____ ____ ____ ____ ____ ____ 
 72
    65
 73
     2
 40
19.05
 49
12.7
 74
     0
 49
-6.35
 74
     0
  0
LTYPE
  5
4CB
330
403
100
AcDbSymbolTableRecord
100
AcDbLinetypeTableRecord
  2
PHANTOM2
 70
     0
  3
Phantom (.5x) ___ _ _ ___ _ _ ___ _ _ ___ _ _
 72
    65
 73
     6
 40
31.75
 49
15.875
 74
     0
 49
-3.175
 74
     0
 49
3.175
 74
     0
 49
-3.175
 74
     0
 49
3.175
 74
     0
 49
-3.175
 74
     0
  0
LTYPE
  5
4CC
330
403
100
AcDbSymbolTableRecord
100
AcDbLinetypeTableRecord
  2
PHANTOM
 70
     0
  3
Phantom ______  __  __  ______  __  __  ______ 
 72
    65
 73
     6
 40
63.50000000000001
 49
31.75
 74
     0
 49
-6.35
 74
     0
 49
6.35
 74
     0
 49
-6.35
 74
     0
 49
6.35
 74
     0
 49
-6.35
 74
     0
  0
LTYPE
  5
4CE
330
403
100
AcDbSymbolTableRecord
100
AcDbLinetypeTableRecord
  2
TRACKS
 70
     0
  3
Tracks -|-|-|-|-|-|-|-|-|-|-|-|-|-|-|-|-|-|-|-|-|-|-|-|-
 72
    65
 73
     2
 40
7.62
 49
3.81
 74
     2
 75
     0
340
4CD
 46
6.35
 50
0.0
 44
0.0
 45
0.0
  9
TRACK1
 49
3.81
 74
     0
  0
LTYPE
  5
4CF
330
403
100
AcDbSymbolTableRecord
100
AcDbLinetypeTableRecord
  2
PHANTOMX2
 70
     0
  3
Phantom (2x) ____________    ____    ____   _
 72
    65
 73
     6
 40
127.0
 49
63.5
 74
     0
 49
-12.7
 74
     0
 49
12.7
 74
     0
 49
-12.7
 74
     0
 49
12.7
 74
     0
 49
-12.7
 74
     0
  0
LTYPE
  5
4D2
330
403
100
AcDbSymbolTableRecord
100
AcDbLinetypeTableRecord
  2
ZIGZAG
 70
     0
  3
Zig zag /\/\/\/\/\/\/\/\/\/\/\/\/\/\/\/\/\/\/\/\/\/\/\/
 72
    65
 73
     4
 40
20.32254
 49
0.00254
 74
     0
 49
-5.08
 74
     2
 75
     0
340
4D0
 46
5.08
 50
0.0
 44
-5.08
 45
0.0
  9
ZIG
 49
-10.16
 74
     2
 75
     0
340
4D1
 46
5.08
 50
180.0
 44
5.08
 45
0.0
  9
ZIG
 49
-5.08
 74
     0
  0
LTYPE
  5
4D3
330
403
100
AcDbSymbolTableRecord
100
AcDbLinetypeTableRecord
  2
ACAD_ISO03W100
 70
     0
  3
ISO dash space __    __    __    __    __    __
 72
    65
 73
     2
 40
30.0
 49
12.0
 74
     0
 49
-18.0
 74
     0
  0
LTYPE
  5
4D4
330
403
100
AcDbSymbolTableRecord
100
AcDbLinetypeTableRecord
  2
ACAD_ISO02W100
 70
     0
  3
ISO dash __ __ __ __ __ __ __ __ __ __ __ __ __
 72
    65
 73
     2
 40
15.0
 49
12.0
 74
     0
 49
-3.0
 74
     0
  0
LTYPE
  5
4D5
330
403
100
AcDbSymbolTableRecord
100
AcDbLinetypeTableRecord
  2
ACAD_ISO05W100
 70
     0
  3
ISO long-dash double-dot ____ .. ____ .. ____ . 
 72
    65
 73
     6
 40
33.0
 49
24.0
 74
     0
 49
-3.0
 74
     0
 49
0.0
 74
     0
 49
-3.0
 74
     0
 49
0.0
 74
     0
 49
-3.0
 74
     0
  0
LTYPE
  5
4D6
330
403
100
AcDbSymbolTableRecord
100
AcDbLinetypeTableRecord
  2
ACAD_ISO04W100
 70
     0
  3
ISO long-dash dot ____ . ____ . ____ . ____ . _
 72
    65
 73
     4
 40
30.0
 49
24.0
 74
     0
 49
-3.0
 74
     0
 49
0.0
 74
     0
 49
-3.0
 74
     0
  0
LTYPE
  5
4D7
330
403
100
AcDbSymbolTableRecord
100
AcDbLinetypeTableRecord
  2
ACAD_ISO07W100
 70
     0
  3
ISO dot . . . . . . . . . . . . . . . . . . . . 
 72
    65
 73
     2
 40
3.0
 49
0.0
 74
     0
 49
-3.0
 74
     0
  0
LTYPE
  5
4D8
330
403
100
AcDbSymbolTableRecord
100
AcDbLinetypeTableRecord
  2
ACAD_ISO06W100
 70
     0
  3
ISO long-dash triple-dot ____ ... ____ ... ____
 72
    65
 73
     8
 40
36.0
 49
24.0
 74
     0
 49
-3.0
 74
     0
 49
0.0
 74
     0
 49
-3.0
 74
     0
 49
0.0
 74
     0
 49
-3.0
 74
     0
 49
0.0
 74
     0
 49
-3.0
 74
     0
  0
LTYPE
  5
4D9
330
403
100
AcDbSymbolTableRecord
100
AcDbLinetypeTableRecord
  2
ACAD_ISO09W100
 70
     0
  3
ISO long-dash double-short-dash ____ __ __ ____
 72
    65
 73
     6
 40
45.0
 49
24.0
 74
     0
 49
-3.0
 74
     0
 49
6.0
 74
     0
 49
-3.0
 74
     0
 49
6.0
 74
     0
 49
-3.0
 74
     0
  0
LTYPE
  5
4DA
330
403
100
AcDbSymbolTableRecord
100
AcDbLinetypeTableRecord
  2
ACAD_ISO08W100
 70
     0
  3
ISO long-dash short-dash ____ __ ____ __ ____ _
 72
    65
 73
     4
 40
36.0
 49
24.0
 74
     0
 49
-3.0
 74
     0
 49
6.0
 74
     0
 49
-3.0
 74
     0
  0
ENDTAB
  0
TABLE
  2
LAYER
  5
400
330
0
100
AcDbSymbolTable
 70
     3
  0
LAYER
  5
40E
330
400
100
AcDbSymbolTableRecord
100
AcDbLayerTableRecord
  2
0
 70
     0
 62
     7
420
 16777215
  6
Continuous
370
    25
390
40D
347
443
348
0
  0
LAYER
  5
4DB
330
400
100
AcDbSymbolTableRecord
100
AcDbLayerTableRecord
  2
checks
 70
     0
 62
     1
420
 16711680
  6
Continuous
370
    25
390
40D
347
443
348
0
  0
LAYER
  5
4DC
330
400
100
AcDbSymbolTableRecord
100
AcDbLayerTableRecord
  2
margin
 70
     0
 62
     2
420
 16776960
  6
Continuous
370
    25
390
40D
347
443
348
0
  0
ENDTAB
  0
TABLE
  2
STYLE
  5
401
330
0
100
AcDbSymbolTable
 70
    13
  0
STYLE
  5
40F
330
401
100
AcDbSymbolTableRecord
100
AcDbTextStyleTableRecord
  2
Standard
 70
     0
 40
0.0
 41
1.0
 50
0.0
 71
     0
 42
0.2
  3
txt
  4

  0
STYLE
  5
49F
330
401
100
AcDbSymbolTableRecord
100
AcDbTextStyleTableRecord
  2
QCADDimTextStyle
 70
     0
 40
0.0
 41
1.0
 50
0.0
 71
     0
 42
0.2
  3

  4

  0
STYLE
  5
4B0
330
401
100
AcDbSymbolTableRecord
100
AcDbTextStyleTableRecord
  2
textstyle0
 70
     0
 40
0.0
 41
1.0
 50
0.0
 71
     0
 42
0.2
  3
ltypeshp.shx
  4

  0
STYLE
  5
4B1
330
401
100
AcDbSymbolTableRecord
100
AcDbTextStyleTableRecord
  2
textstyle1
 70
     0
 40
0.0
 41
1.0
 50
0.0
 71
     0
 42
0.2
  3
ltypeshp.shx
  4

  0
STYLE
  5
4B3
330
401
100
AcDbSymbolTableRecord
100
AcDbTextStyleTableRecord
  2
textstyle2
 70
     0
 40
0.0
 41
1.0
 50
0.0
 71
     0
 42
0.2
  3
qcadshp.shx
  4

  0
STYLE
  5
4B6
330
401
100
AcDbSymbolTableRecord
100
AcDbTextStyleTableRecord
  2
textstyle3
 70
     0
 40
0.0
 41
1.0
 50
0.0
 71
     0
 42
0.2
  3
ltypeshp.shx
  4

  0
STYLE
  5
4B8
330
401
100
AcDbSymbolTableRecord
100
AcDbTextStyleTableRecord
  2
textstyle4
 70
     0
 40
0.0
 41
1.0
 50
0.0
 71
     0
 42
0.2
  3
qcadshp.shx
  4

  0
STYLE
  5
4BA
330
401
100
AcDbSymbolTableRecord
100
AcDbTextStyleTableRecord
  2
textstyle5
 70
     0
 40
0.0
 41
1.0
 50
0.0
 71
     0
 42
0.2
  3
STANDARD
  4

  0
STYLE
  5
4BC
330
401
100
AcDbSymbolTableRecord
100
AcDbTextStyleTableRecord
  2
textstyle6
 70
     0
 40
0.0
 41
1.0
 50
0.0
 71
     0
 42
0.2
  3
ltypeshp.shx
  4

  0
STYLE
  5
4C8
330
401
100
AcDbSymbolTableRecord
100
AcDbTextStyleTableRecord
  2
textstyle7
 70
     0
 40
0.0
 41
1.0
 50
0.0
 71
     0
 42
0.2
  3
STANDARD
  4

  0
STYLE
  5
4CD
330
401
100
AcDbSymbolTableRecord
100
AcDbTextStyleTableRecord
  2
textstyle8
 70
     0
 40
0.0
 41
1.0
 50
0.0
 71
     0
 42
0.2
  3
ltypeshp.shx
  4

  0
STYLE
  5
4D0
330
401
100
AcDbSymbolTableRecord
100
AcDbTextStyleTableRecord
  2
textstyle9
 70
     0
 40
0.0
 41
1.0
 50
0.0
 71
     0
 42
0.2
  3
ltypeshp.shx
  4

  0
STYLE
  5
4D1
330
401
100
AcDbSymbolTableRecord
100
AcDbTextStyleTableRecord
  2
textstyle10
 70
     0
 40
0.0
 41
1.0
 50
0.0
 71
     0
 42
0.2
  3
ltypeshp.shx
  4

  0
ENDTAB
  0
TABLE
  2
VIEW
  5
404
330
0
100
AcDbSymbolTable
 70
     0
  0
ENDTAB
  0
TABLE
  2
UCS
  5
405
330
0
100
AcDbSymbolTable
 70
     0
  0
ENDTAB
  0
TABLE
  2
APPID
  5
407
330
0
100
AcDbSymbolTable
 70
     2
  0
APPID
  5
410
330
407
100
AcDbSymbolTableRecord
100
AcDbRegAppTableRecord
  2
ACAD
 70
     0
  0
APPID
  5
46B
330
407
100
AcDbSymbolTableRecord
100
AcDbRegAppTableRecord
  2
QCAD
 70
     0
  0
ENDTAB
  0
TABLE
  2
DIMSTYLE
  5
408
330
0
100
AcDbSymbolTable
 70
     2
100
AcDbDimStyleTable
  0
DIMSTYLE
105
424
330
408
100
AcDbSymbolTableRecord
100
AcDbDimStyleTableRecord
  2
Standard
 70
     0
178
     0
340
40F
  0
DIMSTYLE
105
4A0
330
408
100
AcDbSymbolTableRecord
100
AcDbDimStyleTableRecord
  2
QCADDimStyle
 70
     0
 41
2.5
 42
0.625
 44
1.25
 73
     0
 77
     1
140
2.5
147
0.625
178
     0
340
49F
  0
ENDTAB
  0
TABLE
  2
BLOCK_RECORD
  5
3FF
330
0
100
AcDbSymbolTable
 70
     1
  0
BLOCK_RECORD
  5
41C
330
3FF
100
AcDbSymbolTableRecord
100
AcDbBlockTableRecord
  2
*Model_Space
340
41F
 70
     0
280
     1
281
     0
  0
BLOCK_RECORD
  5
418
330
3FF
100
AcDbSymbolTableRecord
100
AcDbBlockTableRecord
  2
*Paper_Space
340
41B
 70
     0
280
     1
281
     0
  0
ENDTAB
  0
ENDSEC
  0
SECTION
  2
BLOCKS
  0
BLOCK
  5
41D
330
41C
100
AcDbEntity
  8
0
100
AcDbBlockBegin
  2
*Model_Space
 70
     0
 10
0.0
 20
0.0
 30
0.0
  3
*Model_Space
  1
*Model_Space
  0
ENDBLK
  5
41E
330
41C
100
AcDbEntity
  8
0
100
AcDbBlockEnd
  0
BLOCK
  5
419
330
418
100
AcDbEntity
 67
     1
  8
0
100
AcDbBlockBegin
  2
*Paper_Space
 70
     0
 10
0.0
 20
0.0
 30
0.0
  3
*Paper_Space
  1
*Paper_Space
  0
ENDBLK
  5
41A
330
418
100
AcDbEntity
 67
     1
  8
0
100
AcDbBlockEnd
  0
ENDSEC
  0
SECTION
  2
ENTITIES
  0
LWPOLYLINE
  5
38
330
41C
100
AcDbEntity
  8
0
100
AcDbPolyline
 90
        4
 70
   129
 43
0.0
 10
0.0
 20
0.0
 10
371.3478005910115
 20
0.0
 10
371.3478005910115
 20
495.1304007880154
 10
0.0
 20
495.1304007880154
  0
LWPOLYLINE
  5
3A
330
41C
100
AcDbEntity
  8
margin
100
AcDbPolyline
 90
        4
 70
   129
 43
0.0
 10
371.3478005910115
 20
495.1304007880154
 10
339.6086723353695
 20
495.1304007880154
 10
339.6086723353695
 20
0.0
 10
371.3478005910115
 20
0.0
  0
LWPOLYLINE
  5
3B
330
41C
100
AcDbEntity
  8
margin
100
AcDbPolyline
 90
        4
 70
   129
 43
0.0
 10
371.3478005910115
 20
495.1304007880154
 10
0.0
 20
495.1304007880154
 10
0.0
 20
463.3912725323734
 10
371.3478005910115
 20
463.3912725323734
  0
LWPOLYLINE
  5
40
330
41C
100
AcDbEntity
  8
0
100
AcDbPolyline
 90
        4
 70
   128
 43
0.0
 10
339.6086723353695
 20
231.6956362661867
 10
0.0
 20
231.6956362661867
 10
0.0
 20
0.0
 10
339.6086723353695
 20
0.0
  0
LWPOLYLINE
  5
42
330
41C
100
AcDbEntity
  8
0
100
AcDbPolyline
 90
        4
 70
   129
 43
0.0
 10
0.0
 20
463.3912725323734
 10
339.6086723353695
 20
463.3912725323734
 10
339.6086723353695
 20
0.0
 10
0.0
 20
0.0
  0
LINE
  5
48
330
41C
100
AcDbEntity
  8
0
100
AcDbLine
 10
169.8043361676847
 20
0.0
 30
0.0
 11
169.8043361676848
 21
463.3912725323734
 31
0.0
  0
LINE
  5
144
330
41C
100
AcDbEntity
  8
checks
100
AcDbLine
 10
168.4818724903664
 20
212.3876665773378
 30
0.0
 11
171.1267998450032
 21
212.3876665773378
 31
0.0
  0
LINE
  5
141
330
41C
100
AcDbEntity
  8
checks
100
AcDbLine
 10
168.4818724903664
 20
424.7753331546756
 30
0.0
 11
171.1267998450032
 21
424.7753331546756
 31
0.0
  0
LINE
  5
142
330
41C
100
AcDbEntity
  8
checks
100
AcDbLine
 10
168.4818724903664
 20
444.0833028435245
 30
0.0
 11
171.1267998450032
 21
444.0833028435245
 31
0.0
  0
LINE
  5
13F
330
41C
100
AcDbEntity
  8
checks
100
AcDbLine
 10
168.4818724903664
 20
386.1593937769778
 30
0.0
 11
171.1267998450032
 21
386.1593937769778
 31
0.0
  0
LINE
  5
140
330
41C
100
AcDbEntity
  8
checks
100
AcDbLine
 10
168.4818724903664
 20
405.4673634658267
 30
0.0
 11
171.1267998450032
 21
405.4673634658267
 31
0.0
  0
LINE
  5
13D
330
41C
100
AcDbEntity
  8
checks
100
AcDbLine
 10
168.4818724903664
 20
347.54345439928
 30
0.0
 11
171.1267998450032
 21
347.54345439928
 31
0.0
  0
LINE
  5
13E
330
41C
100
AcDbEntity
  8
checks
100
AcDbLine
 10
168.4818724903664
 20
366.851424088129
 30
0.0
 11
171.1267998450032
 21
366.851424088129
 31
0.0
  0
LINE
  5
17B
330
41C
100
AcDbEntity
  8
checks
100
AcDbLine
 10
73.26448772344031
 20
230.3731725888683
 30
0.0
 11
73.26448772344031
 21
233.0180999435051
 31
0.0
  0
LINE
  5
17C
330
41C
100
AcDbEntity
  8
checks
100
AcDbLine
 10
53.95651803459142
 20
230.3731725888683
 30
0.0
 11
53.95651803459142
 21
233.0180999435051
 31
0.0
  0
LINE
  5
179
330
41C
100
AcDbEntity
  8
checks
100
AcDbLine
 10
111.8804271011381
 20
230.3731725888683
 30
0.0
 11
111.8804271011381
 21
233.0180999435051
 31
0.0
  0
LINE
  5
17A
330
41C
100
AcDbEntity
  8
checks
100
AcDbLine
 10
92.57245741228921
 20
230.3731725888683
 30
0.0
 11
92.57245741228921
 21
233.0180999435051
 31
0.0
  0
LINE
  5
177
330
41C
100
AcDbEntity
  8
checks
100
AcDbLine
 10
150.4963664788359
 20
230.3731725888683
 30
0.0
 11
150.4963664788359
 21
233.0180999435051
 31
0.0
  0
LINE
  5
178
330
41C
100
AcDbEntity
  8
checks
100
AcDbLine
 10
131.188396789987
 20
230.3731725888683
 30
0.0
 11
131.188396789987
 21
233.0180999435051
 31
0.0
  0
LINE
  5
17D
330
41C
100
AcDbEntity
  8
checks
100
AcDbLine
 10
34.64854834574253
 20
230.3731725888683
 30
0.0
 11
34.64854834574253
 21
233.0180999435051
 31
0.0
  0
LINE
  5
17E
330
41C
100
AcDbEntity
  8
checks
100
AcDbLine
 10
15.34057865689364
 20
230.3731725888683
 30
0.0
 11
15.34057865689364
 21
233.0180999435051
 31
0.0
  0
LINE
  5
16B
330
41C
100
AcDbEntity
  8
checks
100
AcDbLine
 10
189.1123058565337
 20
230.3731725888683
 30
0.0
 11
189.1123058565337
 21
233.0180999435051
 31
0.0
  0
LINE
  5
16C
330
41C
100
AcDbEntity
  8
checks
100
AcDbLine
 10
208.4202755453826
 20
230.3731725888683
 30
0.0
 11
208.4202755453826
 21
233.0180999435051
 31
0.0
  0
LINE
  5
171
330
41C
100
AcDbEntity
  8
checks
100
AcDbLine
 10
304.960123989627
 20
230.3731725888683
 30
0.0
 11
304.960123989627
 21
233.0180999435051
 31
0.0
  0
LINE
  5
172
330
41C
100
AcDbEntity
  8
checks
100
AcDbLine
 10
324.2680936784759
 20
230.3731725888683
 30
0.0
 11
324.2680936784759
 21
233.0180999435051
 31
0.0
  0
LINE
  5
16F
330
41C
100
AcDbEntity
  8
checks
100
AcDbLine
 10
266.3441846119292
 20
230.3731725888683
 30
0.0
 11
266.3441846119292
 21
233.0180999435051
 31
0.0
  0
LINE
  5
170
330
41C
100
AcDbEntity
  8
checks
100
AcDbLine
 10
285.6521543007781
 20
230.3731725888683
 30
0.0
 11
285.6521543007781
 21
233.0180999435051
 31
0.0
  0
LINE
  5
16D
330
41C
100
AcDbEntity
  8
checks
100
AcDbLine
 10
227.7282452342315
 20
230.3731725888683
 30
0.0
 11
227.7282452342315
 21
233.0180999435051
 31
0.0
  0
LINE
  5
16E
330
41C
100
AcDbEntity
  8
checks
100
AcDbLine
 10
247.0362149230803
 20
230.3731725888683
 30
0.0
 11
247.0362149230803
 21
233.0180999435051
 31
0.0
  0
LINE
  5
14B
330
41C
100
AcDbEntity
  8
checks
100
AcDbLine
 10
168.4818724903664
 20
77.23187875539556
 30
0.0
 11
171.1267998450032
 21
77.23187875539556
 31
0.0
  0
LINE
  5
14C
330
41C
100
AcDbEntity
  8
checks
100
AcDbLine
 10
168.4818724903664
 20
57.92390906654668
 30
0.0
 11
171.1267998450032
 21
57.92390906654668
 31
0.0
  0
LINE
  5
149
330
41C
100
AcDbEntity
  8
checks
100
AcDbLine
 10
168.4818724903664
 20
115.8478181330934
 30
0.0
 11
171.1267998450032
 21
115.8478181330934
 31
0.0
  0
LINE
  5
14A
330
41C
100
AcDbEntity
  8
checks
100
AcDbLine
 10
168.4818724903664
 20
96.53984844424444
 30
0.0
 11
171.1267998450032
 21
96.53984844424444
 31
0.0
  0
LINE
  5
147
330
41C
100
AcDbEntity
  8
checks
100
AcDbLine
 10
168.4818724903664
 20
154.4637575107911
 30
0.0
 11
171.1267998450032
 21
154.4637575107911
 31
0.0
  0
LINE
  5
148
330
41C
100
AcDbEntity
  8
checks
100
AcDbLine
 10
168.4818724903664
 20
135.1557878219422
 30
0.0
 11
171.1267998450032
 21
135.1557878219422
 31
0.0
  0
LINE
  5
145
330
41C
100
AcDbEntity
  8
checks
100
AcDbLine
 10
168.4818724903664
 20
193.0796968884889
 30
0.0
 11
171.1267998450032
 21
193.0796968884889
 31
0.0
  0
LINE
  5
146
330
41C
100
AcDbEntity
  8
checks
100
AcDbLine
 10
168.4818724903664
 20
173.77172719964
 30
0.0
 11
171.1267998450032
 21
173.77172719964
 31
0.0
  0
LINE
  5
14F
330
41C
100
AcDbEntity
  8
checks
100
AcDbLine
 10
168.4818724903664
 20
0.0
 30
0.0
 11
171.1267998450032
 21
0.0
 31
0.0
  0
LINE
  5
14D
330
41C
100
AcDbEntity
  8
checks
100
AcDbLine
 10
168.4818724903664
 20
38.61593937769778
 30
0.0
 11
171.1267998450032
 21
38.61593937769778
 31
0.0
  0
LINE
  5
14E
330
41C
100
AcDbEntity
  8
checks
100
AcDbLine
 10
168.4818724903664
 20
19.30796968884889
 30
0.0
 11
171.1267998450032
 21
19.30796968884889
 31
0.0
  0
LINE
  5
13B
330
41C
100
AcDbEntity
  8
checks
100
AcDbLine
 10
168.4818724903664
 20
308.9275150215822
 30
0.0
 11
171.1267998450032
 21
308.9275150215822
 31
0.0
  0
LINE
  5
13C
330
41C
100
AcDbEntity
  8
checks
100
AcDbLine
 10
168.4818724903664
 20
328.2354847104311
 30
0.0
 11
171.1267998450032
 21
328.2354847104311
 31
0.0
  0
LINE
  5
139
330
41C
100
AcDbEntity
  8
checks
100
AcDbLine
 10
168.4818724903664
 20
270.3115756438845
 30
0.0
 11
171.1267998450032
 21
270.3115756438845
 31
0.0
  0
LINE
  5
13A
330
41C
100
AcDbEntity
  8
checks
100
AcDbLine
 10
168.4818724903664
 20
289.6195453327334
 30
0.0
 11
171.1267998450032
 21
289.6195453327334
 31
0.0
  0
LINE
  5
138
330
41C
100
AcDbEntity
  8
checks
100
AcDbLine
 10
168.4818724903664
 20
251.0036059550356
 30
0.0
 11
171.1267998450032
 21
251.0036059550356
 31
0.0
  0
CIRCLE
  5
307
330
41C
100
AcDbEntity
  8
checks
100
AcDbCircle
 10
73.26448772344031
 20
19.30796968884889
 30
0.0
 40
0.5289854709273668
  0
CIRCLE
  5
305
330
41C
100
AcDbEntity
  8
checks
100
AcDbCircle
 10
324.2680936784759
 20
19.30796968884889
 30
0.0
 40
0.5289854709273668
  0
CIRCLE
  5
306
330
41C
100
AcDbEntity
  8
checks
100
AcDbCircle
 10
34.64854834574253
 20
19.30796968884889
 30
0.0
 40
0.5289854709273668
  0
CIRCLE
  5
2FB
330
41C
100
AcDbEntity
  8
checks
100
AcDbCircle
 10
92.57245741228921
 20
19.30796968884889
 30
0.0
 40
0.5289854709273668
  0
CIRCLE
  5
2F9
330
41C
100
AcDbEntity
  8
checks
100
AcDbCircle
 10
53.95651803459142
 20
19.30796968884889
 30
0.0
 40
0.5289854709273668
  0
CIRCLE
  5
2FA
330
41C
100
AcDbEntity
  8
checks
100
AcDbCircle
 10
150.4963664788359
 20
19.30796968884889
 30
0.0
 40
0.5289854709273668
  0
CIRCLE
  5
2F7
330
41C
100
AcDbEntity
  8
checks
100
AcDbCircle
 10
15.34057865689364
 20
19.30796968884889
 30
0.0
 40
0.5289854709273668
  0
CIRCLE
  5
2F8
330
41C
100
AcDbEntity
  8
checks
100
AcDbCircle
 10
111.8804271011381
 20
19.30796968884889
 30
0.0
 40
0.5289854709273668
  0
CIRCLE
  5
2F5
330
41C
100
AcDbEntity
  8
checks
100
AcDbCircle
 10
34.64854834574253
 20
38.61593937769778
 30
0.0
 40
0.5289854709273668
  0
CIRCLE
  5
2F6
330
41C
100
AcDbEntity
  8
checks
100
AcDbCircle
 10
73.26448772344031
 20
38.61593937769778
 30
0.0
 40
0.5289854709273668
  0
CIRCLE
  5
303
330
41C
100
AcDbEntity
  8
checks
100
AcDbCircle
 10
285.6521543007781
 20
19.30796968884889
 30
0.0
 40
0.5289854709273668
  0
CIRCLE
  5
304
330
41C
100
AcDbEntity
  8
checks
100
AcDbCircle
 10
304.960123989627
 20
19.30796968884889
 30
0.0
 40
0.5289854709273668
  0
CIRCLE
  5
301
330
41C
100
AcDbEntity
  8
checks
100
AcDbCircle
 10
247.0362149230803
 20
19.30796968884889
 30
0.0
 40
0.5289854709273668
  0
CIRCLE
  5
302
330
41C
100
AcDbEntity
  8
checks
100
AcDbCircle
 10
266.3441846119292
 20
19.30796968884889
 30
0.0
 40
0.5289854709273668
  0
CIRCLE
  5
2FF
330
41C
100
AcDbEntity
  8
checks
100
AcDbCircle
 10
208.4202755453826
 20
19.30796968884889
 30
0.0
 40
0.5289854709273668
  0
CIRCLE
  5
300
330
41C
100
AcDbEntity
  8
checks
100
AcDbCircle
 10
227.7282452342315
 20
19.30796968884889
 30
0.0
 40
0.5289854709273668
  0
CIRCLE
  5
2FD
330
41C
100
AcDbEntity
  8
checks
100
AcDbCircle
 10
131.188396789987
 20
19.30796968884889
 30
0.0
 40
0.5289854709273668
  0
CIRCLE
  5
2FE
330
41C
100
AcDbEntity
  8
checks
100
AcDbCircle
 10
189.1123058565337
 20
19.30796968884889
 30
0.0
 40
0.5289854709273668
  0
CIRCLE
  5
2EC
330
41C
100
AcDbEntity
  8
checks
100
AcDbCircle
 10
131.188396789987
 20
38.61593937769778
 30
0.0
 40
0.5289854709273668
  0
CIRCLE
  5
2E9
330
41C
100
AcDbEntity
  8
checks
100
AcDbCircle
 10
150.4963664788359
 20
38.61593937769778
 30
0.0
 40
0.5289854709273668
  0
CIRCLE
  5
2EA
330
41C
100
AcDbEntity
  8
checks
100
AcDbCircle
 10
92.57245741228921
 20
38.61593937769778
 30
0.0
 40
0.5289854709273668
  0
CIRCLE
  5
2E7
330
41C
100
AcDbEntity
  8
checks
100
AcDbCircle
 10
111.8804271011381
 20
38.61593937769778
 30
0.0
 40
0.5289854709273668
  0
CIRCLE
  5
2E8
330
41C
100
AcDbEntity
  8
checks
100
AcDbCircle
 10
53.95651803459142
 20
38.61593937769778
 30
0.0
 40
0.5289854709273668
  0
CIRCLE
  5
2E5
330
41C
100
AcDbEntity
  8
checks
100
AcDbCircle
 10
73.26448772344031
 20
57.92390906654668
 30
0.0
 40
0.5289854709273668
  0
CIRCLE
  5
2E6
330
41C
100
AcDbEntity
  8
checks
100
AcDbCircle
 10
15.34057865689364
 20
38.61593937769778
 30
0.0
 40
0.5289854709273668
  0
CIRCLE
  5
2F3
330
41C
100
AcDbEntity
  8
checks
100
AcDbCircle
 10
304.960123989627
 20
38.61593937769778
 30
0.0
 40
0.5289854709273668
  0
CIRCLE
  5
2F4
330
41C
100
AcDbEntity
  8
checks
100
AcDbCircle
 10
324.2680936784759
 20
38.61593937769778
 30
0.0
 40
0.5289854709273668
  0
CIRCLE
  5
2F1
330
41C
100
AcDbEntity
  8
checks
100
AcDbCircle
 10
266.3441846119292
 20
38.61593937769778
 30
0.0
 40
0.5289854709273668
  0
CIRCLE
  5
2F2
330
41C
100
AcDbEntity
  8
checks
100
AcDbCircle
 10
285.6521543007781
 20
38.61593937769778
 30
0.0
 40
0.5289854709273668
  0
CIRCLE
  5
2EF
330
41C
100
AcDbEntity
  8
checks
100
AcDbCircle
 10
227.7282452342315
 20
38.61593937769778
 30
0.0
 40
0.5289854709273668
  0
CIRCLE
  5
2F0
330
41C
100
AcDbEntity
  8
checks
100
AcDbCircle
 10
247.0362149230803
 20
38.61593937769778
 30
0.0
 40
0.5289854709273668
  0
CIRCLE
  5
2ED
330
41C
100
AcDbEntity
  8
checks
100
AcDbCircle
 10
189.1123058565337
 20
38.61593937769778
 30
0.0
 40
0.5289854709273668
  0
CIRCLE
  5
2EE
330
41C
100
AcDbEntity
  8
checks
100
AcDbCircle
 10
208.4202755453826
 20
38.61593937769778
 30
0.0
 40
0.5289854709273668
  0
CIRCLE
  5
2DB
330
41C
100
AcDbEntity
  8
checks
100
AcDbCircle
 10
131.188396789987
 20
57.92390906654668
 30
0.0
 40
0.5289854709273668
  0
CIRCLE
  5
2DC
330
41C
100
AcDbEntity
  8
checks
100
AcDbCircle
 10
189.1123058565337
 20
57.92390906654668
 30
0.0
 40
0.5289854709273668
  0
CIRCLE
  5
2D9
330
41C
100
AcDbEntity
  8
checks
100
AcDbCircle
 10
92.57245741228921
 20
57.92390906654668
 30
0.0
 40
0.5289854709273668
  0
CIRCLE
  5
2D7
330
41C
100
AcDbEntity
  8
checks
100
AcDbCircle
 10
53.95651803459142
 20
57.92390906654668
 30
0.0
 40
0.5289854709273668
  0
CIRCLE
  5
2D8
330
41C
100
AcDbEntity
  8
checks
100
AcDbCircle
 10
150.4963664788359
 20
57.92390906654668
 30
0.0
 40
0.5289854709273668
  0
CIRCLE
  5
2D5
330
41C
100
AcDbEntity
  8
checks
100
AcDbCircle
 10
15.34057865689364
 20
57.92390906654668
 30
0.0
 40
0.5289854709273668
  0
CIRCLE
  5
2D6
330
41C
100
AcDbEntity
  8
checks
100
AcDbCircle
 10
111.8804271011381
 20
57.92390906654668
 30
0.0
 40
0.5289854709273668
  0
CIRCLE
  5
2E3
330
41C
100
AcDbEntity
  8
checks
100
AcDbCircle
 10
324.2680936784759
 20
57.92390906654668
 30
0.0
 40
0.5289854709273668
  0
CIRCLE
  5
2E4
330
41C
100
AcDbEntity
  8
checks
100
AcDbCircle
 10
34.64854834574253
 20
57.92390906654668
 30
0.0
 40
0.5289854709273668
  0
CIRCLE
  5
2E1
330
41C
100
AcDbEntity
  8
checks
100
AcDbCircle
 10
285.6521543007781
 20
57.92390906654668
 30
0.0
 40
0.5289854709273668
  0
CIRCLE
  5
2E2
330
41C
100
AcDbEntity
  8
checks
100
AcDbCircle
 10
304.960123989627
 20
57.92390906654668
 30
0.0
 40
0.5289854709273668
  0
CIRCLE
  5
2DF
330
41C
100
AcDbEntity
  8
checks
100
AcDbCircle
 10
247.0362149230803
 20
57.92390906654668
 30
0.0
 40
0.5289854709273668
  0
CIRCLE
  5
2E0
330
41C
100
AcDbEntity
  8
checks
100
AcDbCircle
 10
266.3441846119292
 20
57.92390906654668
 30
0.0
 40
0.5289854709273668
  0
CIRCLE
  5
2DD
330
41C
100
AcDbEntity
  8
checks
100
AcDbCircle
 10
208.4202755453826
 20
57.92390906654668
 30
0.0
 40
0.5289854709273668
  0
CIRCLE
  5
2DE
330
41C
100
AcDbEntity
  8
checks
100
AcDbCircle
 10
227.7282452342315
 20
57.92390906654668
 30
0.0
 40
0.5289854709273668
  0
CIRCLE
  5
2CB
330
41C
100
AcDbEntity
  8
checks
100
AcDbCircle
 10
189.1123058565337
 20
77.23187875539556
 30
0.0
 40
0.5289854709273668
  0
CIRCLE
  5
2CC
330
41C
100
AcDbEntity
  8
checks
100
AcDbCircle
 10
208.4202755453826
 20
77.23187875539556
 30
0.0
 40
0.5289854709273668
  0
CIRCLE
  5
2CA
330
41C
100
AcDbEntity
  8
checks
100
AcDbCircle
 10
131.188396789987
 20
77.23187875539556
 30
0.0
 40
0.5289854709273668
  0
CIRCLE
  5
2C7
330
41C
100
AcDbEntity
  8
checks
100
AcDbCircle
 10
150.4963664788359
 20
77.23187875539556
 30
0.0
 40
0.5289854709273668
  0
CIRCLE
  5
2C8
330
41C
100
AcDbEntity
  8
checks
100
AcDbCircle
 10
92.57245741228921
 20
77.23187875539556
 30
0.0
 40
0.5289854709273668
  0
CIRCLE
  5
2C5
330
41C
100
AcDbEntity
  8
checks
100
AcDbCircle
 10
111.8804271011381
 20
77.23187875539556
 30
0.0
 40
0.5289854709273668
  0
CIRCLE
  5
2C6
330
41C
100
AcDbEntity
  8
checks
100
AcDbCircle
 10
53.95651803459142
 20
77.23187875539556
 30
0.0
 40
0.5289854709273668
  0
CIRCLE
  5
2D3
330
41C
100
AcDbEntity
  8
checks
100
AcDbCircle
 10
34.64854834574253
 20
77.23187875539556
 30
0.0
 40
0.5289854709273668
  0
CIRCLE
  5
2D4
330
41C
100
AcDbEntity
  8
checks
100
AcDbCircle
 10
73.26448772344031
 20
77.23187875539556
 30
0.0
 40
0.5289854709273668
  0
CIRCLE
  5
2D1
330
41C
100
AcDbEntity
  8
checks
100
AcDbCircle
 10
304.960123989627
 20
77.23187875539556
 30
0.0
 40
0.5289854709273668
  0
CIRCLE
  5
2D2
330
41C
100
AcDbEntity
  8
checks
100
AcDbCircle
 10
324.2680936784759
 20
77.23187875539556
 30
0.0
 40
0.5289854709273668
  0
CIRCLE
  5
2CF
330
41C
100
AcDbEntity
  8
checks
100
AcDbCircle
 10
266.3441846119292
 20
77.23187875539556
 30
0.0
 40
0.5289854709273668
  0
CIRCLE
  5
2D0
330
41C
100
AcDbEntity
  8
checks
100
AcDbCircle
 10
285.6521543007781
 20
77.23187875539556
 30
0.0
 40
0.5289854709273668
  0
CIRCLE
  5
2CD
330
41C
100
AcDbEntity
  8
checks
100
AcDbCircle
 10
227.7282452342315
 20
77.23187875539556
 30
0.0
 40
0.5289854709273668
  0
CIRCLE
  5
2CE
330
41C
100
AcDbEntity
  8
checks
100
AcDbCircle
 10
247.0362149230803
 20
77.23187875539556
 30
0.0
 40
0.5289854709273668
  0
CIRCLE
  5
2BB
330
41C
100
AcDbEntity
  8
checks
100
AcDbCircle
 10
208.4202755453826
 20
96.53984844424444
 30
0.0
 40
0.5289854709273668
  0
CIRCLE
  5
2BC
330
41C
100
AcDbEntity
  8
checks
100
AcDbCircle
 10
227.7282452342315
 20
96.53984844424444
 30
0.0
 40
0.5289854709273668
  0
CIRCLE
  5
2B9
330
41C
100
AcDbEntity
  8
checks
100
AcDbCircle
 10
131.188396789987
 20
96.53984844424444
 30
0.0
 40
0.5289854709273668
  0
CIRCLE
  5
2BA
330
41C
100
AcDbEntity
  8
checks
100
AcDbCircle
 10
189.1123058565337
 20
96.53984844424444
 30
0.0
 40
0.5289854709273668
  0
CIRCLE
  5
2B7
330
41C
100
AcDbEntity
  8
checks
100
AcDbCircle
 10
92.57245741228921
 20
96.53984844424444
 30
0.0
 40
0.5289854709273668
  0
CIRCLE
  5
2B5
330
41C
100
AcDbEntity
  8
checks
100
AcDbCircle
 10
53.95651803459142
 20
96.53984844424444
 30
0.0
 40
0.5289854709273668
  0
CIRCLE
  5
2B6
330
41C
100
AcDbEntity
  8
checks
100
AcDbCircle
 10
150.4963664788359
 20
96.53984844424444
 30
0.0
 40
0.5289854709273668
  0
CIRCLE
  5
2C3
330
41C
100
AcDbEntity
  8
checks
100
AcDbCircle
 10
73.26448772344031
 20
96.53984844424444
 30
0.0
 40
0.5289854709273668
  0
CIRCLE
  5
2C4
330
41C
100
AcDbEntity
  8
checks
100
AcDbCircle
 10
15.34057865689364
 20
77.23187875539556
 30
0.0
 40
0.5289854709273668
  0
CIRCLE
  5
2C1
330
41C
100
AcDbEntity
  8
checks
100
AcDbCircle
 10
324.2680936784759
 20
96.53984844424444
 30
0.0
 40
0.5289854709273668
  0
CIRCLE
  5
2C2
330
41C
100
AcDbEntity
  8
checks
100
AcDbCircle
 10
34.64854834574253
 20
96.53984844424444
 30
0.0
 40
0.5289854709273668
  0
CIRCLE
  5
2BF
330
41C
100
AcDbEntity
  8
checks
100
AcDbCircle
 10
285.6521543007781
 20
96.53984844424444
 30
0.0
 40
0.5289854709273668
  0
CIRCLE
  5
2C0
330
41C
100
AcDbEntity
  8
checks
100
AcDbCircle
 10
304.960123989627
 20
96.53984844424444
 30
0.0
 40
0.5289854709273668
  0
CIRCLE
  5
2BD
330
41C
100
AcDbEntity
  8
checks
100
AcDbCircle
 10
247.0362149230803
 20
96.53984844424444
 30
0.0
 40
0.5289854709273668
  0
CIRCLE
  5
2BE
330
41C
100
AcDbEntity
  8
checks
100
AcDbCircle
 10
266.3441846119292
 20
96.53984844424444
 30
0.0
 40
0.5289854709273668
  0
CIRCLE
  5
2AB
330
41C
100
AcDbEntity
  8
checks
100
AcDbCircle
 10
227.7282452342315
 20
115.8478181330934
 30
0.0
 40
0.5289854709273668
  0
CIRCLE
  5
2AC
330
41C
100
AcDbEntity
  8
checks
100
AcDbCircle
 10
247.0362149230803
 20
115.8478181330934
 30
0.0
 40
0.5289854709273668
  0
CIRCLE
  5
2A9
330
41C
100
AcDbEntity
  8
checks
100
AcDbCircle
 10
189.1123058565337
 20
115.8478181330934
 30
0.0
 40
0.5289854709273668
  0
CIRCLE
  5
2AA
330
41C
100
AcDbEntity
  8
checks
100
AcDbCircle
 10
208.4202755453826
 20
115.8478181330934
 30
0.0
 40
0.5289854709273668
  0
CIRCLE
  5
2A8
330
41C
100
AcDbEntity
  8
checks
100
AcDbCircle
 10
131.188396789987
 20
115.8478181330934
 30
0.0
 40
0.5289854709273668
  0
CIRCLE
  5
2A5
330
41C
100
AcDbEntity
  8
checks
100
AcDbCircle
 10
150.4963664788359
 20
115.8478181330934
 30
0.0
 40
0.5289854709273668
  0
CIRCLE
  5
2A6
330
41C
100
AcDbEntity
  8
checks
100
AcDbCircle
 10
92.57245741228921
 20
115.8478181330934
 30
0.0
 40
0.5289854709273668
  0
CIRCLE
  5
2B3
330
41C
100
AcDbEntity
  8
checks
100
AcDbCircle
 10
15.34057865689364
 20
96.53984844424444
 30
0.0
 40
0.5289854709273668
  0
CIRCLE
  5
2B4
330
41C
100
AcDbEntity
  8
checks
100
AcDbCircle
 10
111.8804271011381
 20
96.53984844424444
 30
0.0
 40
0.5289854709273668
  0
CIRCLE
  5
2B1
330
41C
100
AcDbEntity
  8
checks
100
AcDbCircle
 10
34.64854834574253
 20
115.8478181330934
 30
0.0
 40
0.5289854709273668
  0
CIRCLE
  5
2B2
330
41C
100
AcDbEntity
  8
checks
100
AcDbCircle
 10
73.26448772344031
 20
115.8478181330934
 30
0.0
 40
0.5289854709273668
  0
CIRCLE
  5
2AF
330
41C
100
AcDbEntity
  8
checks
100
AcDbCircle
 10
304.960123989627
 20
115.8478181330934
 30
0.0
 40
0.5289854709273668
  0
CIRCLE
  5
2B0
330
41C
100
AcDbEntity
  8
checks
100
AcDbCircle
 10
324.2680936784759
 20
115.8478181330934
 30
0.0
 40
0.5289854709273668
  0
CIRCLE
  5
2AD
330
41C
100
AcDbEntity
  8
checks
100
AcDbCircle
 10
266.3441846119292
 20
115.8478181330934
 30
0.0
 40
0.5289854709273668
  0
CIRCLE
  5
2AE
330
41C
100
AcDbEntity
  8
checks
100
AcDbCircle
 10
285.6521543007781
 20
115.8478181330934
 30
0.0
 40
0.5289854709273668
  0
CIRCLE
  5
29B
330
41C
100
AcDbEntity
  8
checks
100
AcDbCircle
 10
247.0362149230803
 20
135.1557878219422
 30
0.0
 40
0.5289854709273668
  0
CIRCLE
  5
29C
330
41C
100
AcDbEntity
  8
checks
100
AcDbCircle
 10
266.3441846119292
 20
135.1557878219422
 30
0.0
 40
0.5289854709273668
  0
CIRCLE
  5
299
330
41C
100
AcDbEntity
  8
checks
100
AcDbCircle
 10
208.4202755453826
 20
135.1557878219422
 30
0.0
 40
0.5289854709273668
  0
CIRCLE
  5
29A
330
41C
100
AcDbEntity
  8
checks
100
AcDbCircle
 10
227.7282452342315
 20
135.1557878219422
 30
0.0
 40
0.5289854709273668
  0
CIRCLE
  5
297
330
41C
100
AcDbEntity
  8
checks
100
AcDbCircle
 10
131.188396789987
 20
135.1557878219422
 30
0.0
 40
0.5289854709273668
  0
CIRCLE
  5
298
330
41C
100
AcDbEntity
  8
checks
100
AcDbCircle
 10
189.1123058565337
 20
135.1557878219422
 30
0.0
 40
0.5289854709273668
  0
CIRCLE
  5
295
330
41C
100
AcDbEntity
  8
checks
100
AcDbCircle
 10
92.57245741228921
 20
135.1557878219422
 30
0.0
 40
0.5289854709273668
  0
CIRCLE
  5
2A3
330
41C
100
AcDbEntity
  8
checks
100
AcDbCircle
 10
111.8804271011381
 20
115.8478181330934
 30
0.0
 40
0.5289854709273668
  0
CIRCLE
  5
2A4
330
41C
100
AcDbEntity
  8
checks
100
AcDbCircle
 10
53.95651803459142
 20
115.8478181330934
 30
0.0
 40
0.5289854709273668
  0
CIRCLE
  5
2A1
330
41C
100
AcDbEntity
  8
checks
100
AcDbCircle
 10
73.26448772344031
 20
135.1557878219422
 30
0.0
 40
0.5289854709273668
  0
CIRCLE
  5
2A2
330
41C
100
AcDbEntity
  8
checks
100
AcDbCircle
 10
15.34057865689364
 20
115.8478181330934
 30
0.0
 40
0.5289854709273668
  0
CIRCLE
  5
29F
330
41C
100
AcDbEntity
  8
checks
100
AcDbCircle
 10
324.2680936784759
 20
135.1557878219422
 30
0.0
 40
0.5289854709273668
  0
CIRCLE
  5
2A0
330
41C
100
AcDbEntity
  8
checks
100
AcDbCircle
 10
34.64854834574253
 20
135.1557878219422
 30
0.0
 40
0.5289854709273668
  0
CIRCLE
  5
29D
330
41C
100
AcDbEntity
  8
checks
100
AcDbCircle
 10
285.6521543007781
 20
135.1557878219422
 30
0.0
 40
0.5289854709273668
  0
CIRCLE
  5
29E
330
41C
100
AcDbEntity
  8
checks
100
AcDbCircle
 10
304.960123989627
 20
135.1557878219422
 30
0.0
 40
0.5289854709273668
  0
CIRCLE
  5
28B
330
41C
100
AcDbEntity
  8
checks
100
AcDbCircle
 10
266.3441846119292
 20
154.4637575107911
 30
0.0
 40
0.5289854709273668
  0
CIRCLE
  5
28C
330
41C
100
AcDbEntity
  8
checks
100
AcDbCircle
 10
285.6521543007781
 20
154.4637575107911
 30
0.0
 40
0.5289854709273668
  0
CIRCLE
  5
289
330
41C
100
AcDbEntity
  8
checks
100
AcDbCircle
 10
227.7282452342315
 20
154.4637575107911
 30
0.0
 40
0.5289854709273668
  0
CIRCLE
  5
28A
330
41C
100
AcDbEntity
  8
checks
100
AcDbCircle
 10
247.0362149230803
 20
154.4637575107911
 30
0.0
 40
0.5289854709273668
  0
CIRCLE
  5
287
330
41C
100
AcDbEntity
  8
checks
100
AcDbCircle
 10
189.1123058565337
 20
154.4637575107911
 30
0.0
 40
0.5289854709273668
  0
CIRCLE
  5
288
330
41C
100
AcDbEntity
  8
checks
100
AcDbCircle
 10
208.4202755453826
 20
154.4637575107911
 30
0.0
 40
0.5289854709273668
  0
CIRCLE
  5
286
330
41C
100
AcDbEntity
  8
checks
100
AcDbCircle
 10
131.188396789987
 20
154.4637575107911
 30
0.0
 40
0.5289854709273668
  0
CIRCLE
  5
293
330
41C
100
AcDbEntity
  8
checks
100
AcDbCircle
 10
53.95651803459142
 20
135.1557878219422
 30
0.0
 40
0.5289854709273668
  0
CIRCLE
  5
294
330
41C
100
AcDbEntity
  8
checks
100
AcDbCircle
 10
150.4963664788359
 20
135.1557878219422
 30
0.0
 40
0.5289854709273668
  0
CIRCLE
  5
291
330
41C
100
AcDbEntity
  8
checks
100
AcDbCircle
 10
15.34057865689364
 20
135.1557878219422
 30
0.0
 40
0.5289854709273668
  0
CIRCLE
  5
292
330
41C
100
AcDbEntity
  8
checks
100
AcDbCircle
 10
111.8804271011381
 20
135.1557878219422
 30
0.0
 40
0.5289854709273668
  0
CIRCLE
  5
28F
330
41C
100
AcDbEntity
  8
checks
100
AcDbCircle
 10
34.64854834574253
 20
154.4637575107911
 30
0.0
 40
0.5289854709273668
  0
CIRCLE
  5
290
330
41C
100
AcDbEntity
  8
checks
100
AcDbCircle
 10
73.26448772344031
 20
154.4637575107911
 30
0.0
 40
0.5289854709273668
  0
CIRCLE
  5
28D
330
41C
100
AcDbEntity
  8
checks
100
AcDbCircle
 10
304.960123989627
 20
154.4637575107911
 30
0.0
 40
0.5289854709273668
  0
CIRCLE
  5
28E
330
41C
100
AcDbEntity
  8
checks
100
AcDbCircle
 10
324.2680936784759
 20
154.4637575107911
 30
0.0
 40
0.5289854709273668
  0
CIRCLE
  5
27B
330
41C
100
AcDbEntity
  8
checks
100
AcDbCircle
 10
285.6521543007781
 20
173.77172719964
 30
0.0
 40
0.5289854709273668
  0
CIRCLE
  5
27C
330
41C
100
AcDbEntity
  8
checks
100
AcDbCircle
 10
304.960123989627
 20
173.77172719964
 30
0.0
 40
0.5289854709273668
  0
CIRCLE
  5
279
330
41C
100
AcDbEntity
  8
checks
100
AcDbCircle
 10
247.0362149230803
 20
173.77172719964
 30
0.0
 40
0.5289854709273668
  0
CIRCLE
  5
27A
330
41C
100
AcDbEntity
  8
checks
100
AcDbCircle
 10
266.3441846119292
 20
173.77172719964
 30
0.0
 40
0.5289854709273668
  0
CIRCLE
  5
277
330
41C
100
AcDbEntity
  8
checks
100
AcDbCircle
 10
208.4202755453826
 20
173.77172719964
 30
0.0
 40
0.5289854709273668
  0
CIRCLE
  5
278
330
41C
100
AcDbEntity
  8
checks
100
AcDbCircle
 10
227.7282452342315
 20
173.77172719964
 30
0.0
 40
0.5289854709273668
  0
CIRCLE
  5
275
330
41C
100
AcDbEntity
  8
checks
100
AcDbCircle
 10
131.188396789987
 20
173.77172719964
 30
0.0
 40
0.5289854709273668
  0
CIRCLE
  5
276
330
41C
100
AcDbEntity
  8
checks
100
AcDbCircle
 10
189.1123058565337
 20
173.77172719964
 30
0.0
 40
0.5289854709273668
  0
CIRCLE
  5
283
330
41C
100
AcDbEntity
  8
checks
100
AcDbCircle
 10
150.4963664788359
 20
154.4637575107911
 30
0.0
 40
0.5289854709273668
  0
CIRCLE
  5
284
330
41C
100
AcDbEntity
  8
checks
100
AcDbCircle
 10
92.57245741228921
 20
154.4637575107911
 30
0.0
 40
0.5289854709273668
  0
CIRCLE
  5
281
330
41C
100
AcDbEntity
  8
checks
100
AcDbCircle
 10
111.8804271011381
 20
154.4637575107911
 30
0.0
 40
0.5289854709273668
  0
CIRCLE
  5
282
330
41C
100
AcDbEntity
  8
checks
100
AcDbCircle
 10
53.95651803459142
 20
154.4637575107911
 30
0.0
 40
0.5289854709273668
  0
CIRCLE
  5
27F
330
41C
100
AcDbEntity
  8
checks
100
AcDbCircle
 10
73.26448772344031
 20
173.77172719964
 30
0.0
 40
0.5289854709273668
  0
CIRCLE
  5
280
330
41C
100
AcDbEntity
  8
checks
100
AcDbCircle
 10
15.34057865689364
 20
154.4637575107911
 30
0.0
 40
0.5289854709273668
  0
CIRCLE
  5
27D
330
41C
100
AcDbEntity
  8
checks
100
AcDbCircle
 10
324.2680936784759
 20
173.77172719964
 30
0.0
 40
0.5289854709273668
  0
CIRCLE
  5
27E
330
41C
100
AcDbEntity
  8
checks
100
AcDbCircle
 10
34.64854834574253
 20
173.77172719964
 30
0.0
 40
0.5289854709273668
  0
CIRCLE
  5
26B
330
41C
100
AcDbEntity
  8
checks
100
AcDbCircle
 10
304.960123989627
 20
193.0796968884889
 30
0.0
 40
0.5289854709273668
  0
CIRCLE
  5
26C
330
41C
100
AcDbEntity
  8
checks
100
AcDbCircle
 10
324.2680936784759
 20
193.0796968884889
 30
0.0
 40
0.5289854709273668
  0
CIRCLE
  5
269
330
41C
100
AcDbEntity
  8
checks
100
AcDbCircle
 10
266.3441846119292
 20
193.0796968884889
 30
0.0
 40
0.5289854709273668
  0
CIRCLE
  5
26A
330
41C
100
AcDbEntity
  8
checks
100
AcDbCircle
 10
285.6521543007781
 20
193.0796968884889
 30
0.0
 40
0.5289854709273668
  0
CIRCLE
  5
267
330
41C
100
AcDbEntity
  8
checks
100
AcDbCircle
 10
227.7282452342315
 20
193.0796968884889
 30
0.0
 40
0.5289854709273668
  0
CIRCLE
  5
268
330
41C
100
AcDbEntity
  8
checks
100
AcDbCircle
 10
247.0362149230803
 20
193.0796968884889
 30
0.0
 40
0.5289854709273668
  0
CIRCLE
  5
265
330
41C
100
AcDbEntity
  8
checks
100
AcDbCircle
 10
189.1123058565337
 20
193.0796968884889
 30
0.0
 40
0.5289854709273668
  0
CIRCLE
  5
266
330
41C
100
AcDbEntity
  8
checks
100
AcDbCircle
 10
208.4202755453826
 20
193.0796968884889
 30
0.0
 40
0.5289854709273668
  0
CIRCLE
  5
273
330
41C
100
AcDbEntity
  8
checks
100
AcDbCircle
 10
92.57245741228921
 20
173.77172719964
 30
0.0
 40
0.5289854709273668
  0
CIRCLE
  5
271
330
41C
100
AcDbEntity
  8
checks
100
AcDbCircle
 10
53.95651803459142
 20
173.77172719964
 30
0.0
 40
0.5289854709273668
  0
CIRCLE
  5
272
330
41C
100
AcDbEntity
  8
checks
100
AcDbCircle
 10
150.4963664788359
 20
173.77172719964
 30
0.0
 40
0.5289854709273668
  0
CIRCLE
  5
26F
330
41C
100
AcDbEntity
  8
checks
100
AcDbCircle
 10
15.34057865689364
 20
173.77172719964
 30
0.0
 40
0.5289854709273668
  0
CIRCLE
  5
270
330
41C
100
AcDbEntity
  8
checks
100
AcDbCircle
 10
111.8804271011381
 20
173.77172719964
 30
0.0
 40
0.5289854709273668
  0
CIRCLE
  5
26D
330
41C
100
AcDbEntity
  8
checks
100
AcDbCircle
 10
34.64854834574253
 20
193.0796968884889
 30
0.0
 40
0.5289854709273668
  0
CIRCLE
  5
26E
330
41C
100
AcDbEntity
  8
checks
100
AcDbCircle
 10
73.26448772344031
 20
193.0796968884889
 30
0.0
 40
0.5289854709273668
  0
CIRCLE
  5
25B
330
41C
100
AcDbEntity
  8
checks
100
AcDbCircle
 10
324.2680936784759
 20
212.3876665773378
 30
0.0
 40
0.5289854709273668
  0
CIRCLE
  5
25C
330
41C
100
AcDbEntity
  8
checks
100
AcDbCircle
 10
34.64854834574253
 20
212.3876665773378
 30
0.0
 40
0.5289854709273668
  0
CIRCLE
  5
259
330
41C
100
AcDbEntity
  8
checks
100
AcDbCircle
 10
285.6521543007781
 20
212.3876665773378
 30
0.0
 40
0.5289854709273668
  0
CIRCLE
  5
25A
330
41C
100
AcDbEntity
  8
checks
100
AcDbCircle
 10
304.960123989627
 20
212.3876665773378
 30
0.0
 40
0.5289854709273668
  0
CIRCLE
  5
257
330
41C
100
AcDbEntity
  8
checks
100
AcDbCircle
 10
247.0362149230803
 20
212.3876665773378
 30
0.0
 40
0.5289854709273668
  0
CIRCLE
  5
258
330
41C
100
AcDbEntity
  8
checks
100
AcDbCircle
 10
266.3441846119292
 20
212.3876665773378
 30
0.0
 40
0.5289854709273668
  0
CIRCLE
  5
255
330
41C
100
AcDbEntity
  8
checks
100
AcDbCircle
 10
208.4202755453826
 20
212.3876665773378
 30
0.0
 40
0.5289854709273668
  0
CIRCLE
  5
256
330
41C
100
AcDbEntity
  8
checks
100
AcDbCircle
 10
227.7282452342315
 20
212.3876665773378
 30
0.0
 40
0.5289854709273668
  0
CIRCLE
  5
264
330
41C
100
AcDbEntity
  8
checks
100
AcDbCircle
 10
131.188396789987
 20
193.0796968884889
 30
0.0
 40
0.5289854709273668
  0
CIRCLE
  5
261
330
41C
100
AcDbEntity
  8
checks
100
AcDbCircle
 10
150.4963664788359
 20
193.0796968884889
 30
0.0
 40
0.5289854709273668
  0
CIRCLE
  5
262
330
41C
100
AcDbEntity
  8
checks
100
AcDbCircle
 10
92.57245741228921
 20
193.0796968884889
 30
0.0
 40
0.5289854709273668
  0
CIRCLE
  5
25F
330
41C
100
AcDbEntity
  8
checks
100
AcDbCircle
 10
111.8804271011381
 20
193.0796968884889
 30
0.0
 40
0.5289854709273668
  0
CIRCLE
  5
260
330
41C
100
AcDbEntity
  8
checks
100
AcDbCircle
 10
53.95651803459142
 20
193.0796968884889
 30
0.0
 40
0.5289854709273668
  0
CIRCLE
  5
25D
330
41C
100
AcDbEntity
  8
checks
100
AcDbCircle
 10
73.26448772344031
 20
212.3876665773378
 30
0.0
 40
0.5289854709273668
  0
CIRCLE
  5
25E
330
41C
100
AcDbEntity
  8
checks
100
AcDbCircle
 10
15.34057865689364
 20
193.0796968884889
 30
0.0
 40
0.5289854709273668
  0
CIRCLE
  5
24B
330
41C
100
AcDbEntity
  8
checks
100
AcDbCircle
 10
304.960123989627
 20
444.0833028435245
 30
0.0
 40
0.5289854709273668
  0
CIRCLE
  5
24C
330
41C
100
AcDbEntity
  8
checks
100
AcDbCircle
 10
34.64854834574253
 20
444.0833028435245
 30
0.0
 40
0.5289854709273668
  0
CIRCLE
  5
249
330
41C
100
AcDbEntity
  8
checks
100
AcDbCircle
 10
73.26448772344031
 20
444.0833028435245
 30
0.0
 40
0.5289854709273668
  0
CIRCLE
  5
24A
330
41C
100
AcDbEntity
  8
checks
100
AcDbCircle
 10
15.34057865689364
 20
444.0833028435245
 30
0.0
 40
0.5289854709273668
  0
CIRCLE
  5
247
330
41C
100
AcDbEntity
  8
checks
100
AcDbCircle
 10
111.8804271011381
 20
444.0833028435245
 30
0.0
 40
0.5289854709273668
  0
CIRCLE
  5
248
330
41C
100
AcDbEntity
  8
checks
100
AcDbCircle
 10
53.95651803459142
 20
444.0833028435245
 30
0.0
 40
0.5289854709273668
  0
CIRCLE
  5
245
330
41C
100
AcDbEntity
  8
checks
100
AcDbCircle
 10
150.4963664788359
 20
444.0833028435245
 30
0.0
 40
0.5289854709273668
  0
CIRCLE
  5
246
330
41C
100
AcDbEntity
  8
checks
100
AcDbCircle
 10
92.57245741228921
 20
444.0833028435245
 30
0.0
 40
0.5289854709273668
  0
CIRCLE
  5
253
330
41C
100
AcDbEntity
  8
checks
100
AcDbCircle
 10
131.188396789987
 20
212.3876665773378
 30
0.0
 40
0.5289854709273668
  0
CIRCLE
  5
254
330
41C
100
AcDbEntity
  8
checks
100
AcDbCircle
 10
189.1123058565337
 20
212.3876665773378
 30
0.0
 40
0.5289854709273668
  0
CIRCLE
  5
251
330
41C
100
AcDbEntity
  8
checks
100
AcDbCircle
 10
92.57245741228921
 20
212.3876665773378
 30
0.0
 40
0.5289854709273668
  0
CIRCLE
  5
24F
330
41C
100
AcDbEntity
  8
checks
100
AcDbCircle
 10
53.95651803459142
 20
212.3876665773378
 30
0.0
 40
0.5289854709273668
  0
CIRCLE
  5
250
330
41C
100
AcDbEntity
  8
checks
100
AcDbCircle
 10
150.4963664788359
 20
212.3876665773378
 30
0.0
 40
0.5289854709273668
  0
CIRCLE
  5
24D
330
41C
100
AcDbEntity
  8
checks
100
AcDbCircle
 10
15.34057865689364
 20
212.3876665773378
 30
0.0
 40
0.5289854709273668
  0
CIRCLE
  5
24E
330
41C
100
AcDbEntity
  8
checks
100
AcDbCircle
 10
111.8804271011381
 20
212.3876665773378
 30
0.0
 40
0.5289854709273668
  0
CIRCLE
  5
23B
330
41C
100
AcDbEntity
  8
checks
100
AcDbCircle
 10
34.64854834574253
 20
424.7753331546756
 30
0.0
 40
0.5289854709273668
  0
CIRCLE
  5
23C
330
41C
100
AcDbEntity
  8
checks
100
AcDbCircle
 10
324.2680936784759
 20
444.0833028435245
 30
0.0
 40
0.5289854709273668
  0
CIRCLE
  5
239
330
41C
100
AcDbEntity
  8
checks
100
AcDbCircle
 10
15.34057865689364
 20
424.7753331546756
 30
0.0
 40
0.5289854709273668
  0
CIRCLE
  5
23A
330
41C
100
AcDbEntity
  8
checks
100
AcDbCircle
 10
304.960123989627
 20
424.7753331546756
 30
0.0
 40
0.5289854709273668
  0
CIRCLE
  5
237
330
41C
100
AcDbEntity
  8
checks
100
AcDbCircle
 10
53.95651803459142
 20
424.7753331546756
 30
0.0
 40
0.5289854709273668
  0
CIRCLE
  5
238
330
41C
100
AcDbEntity
  8
checks
100
AcDbCircle
 10
73.26448772344031
 20
424.7753331546756
 30
0.0
 40
0.5289854709273668
  0
CIRCLE
  5
235
330
41C
100
AcDbEntity
  8
checks
100
AcDbCircle
 10
92.57245741228921
 20
424.7753331546756
 30
0.0
 40
0.5289854709273668
  0
CIRCLE
  5
236
330
41C
100
AcDbEntity
  8
checks
100
AcDbCircle
 10
111.8804271011381
 20
424.7753331546756
 30
0.0
 40
0.5289854709273668
  0
CIRCLE
  5
244
330
41C
100
AcDbEntity
  8
checks
100
AcDbCircle
 10
131.188396789987
 20
444.0833028435245
 30
0.0
 40
0.5289854709273668
  0
CIRCLE
  5
241
330
41C
100
AcDbEntity
  8
checks
100
AcDbCircle
 10
189.1123058565337
 20
444.0833028435245
 30
0.0
 40
0.5289854709273668
  0
CIRCLE
  5
242
330
41C
100
AcDbEntity
  8
checks
100
AcDbCircle
 10
208.4202755453826
 20
444.0833028435245
 30
0.0
 40
0.5289854709273668
  0
CIRCLE
  5
23F
330
41C
100
AcDbEntity
  8
checks
100
AcDbCircle
 10
227.7282452342315
 20
444.0833028435245
 30
0.0
 40
0.5289854709273668
  0
CIRCLE
  5
240
330
41C
100
AcDbEntity
  8
checks
100
AcDbCircle
 10
247.0362149230803
 20
444.0833028435245
 30
0.0
 40
0.5289854709273668
  0
CIRCLE
  5
23D
330
41C
100
AcDbEntity
  8
checks
100
AcDbCircle
 10
266.3441846119292
 20
444.0833028435245
 30
0.0
 40
0.5289854709273668
  0
CIRCLE
  5
23E
330
41C
100
AcDbEntity
  8
checks
100
AcDbCircle
 10
285.6521543007781
 20
444.0833028435245
 30
0.0
 40
0.5289854709273668
  0
CIRCLE
  5
22B
330
41C
100
AcDbEntity
  8
checks
100
AcDbCircle
 10
324.2680936784759
 20
424.7753331546756
 30
0.0
 40
0.5289854709273668
  0
CIRCLE
  5
22C
330
41C
100
AcDbEntity
  8
checks
100
AcDbCircle
 10
266.3441846119292
 20
424.7753331546756
 30
0.0
 40
0.5289854709273668
  0
CIRCLE
  5
229
330
41C
100
AcDbEntity
  8
checks
100
AcDbCircle
 10
304.960123989627
 20
405.4673634658267
 30
0.0
 40
0.5289854709273668
  0
CIRCLE
  5
22A
330
41C
100
AcDbEntity
  8
checks
100
AcDbCircle
 10
34.64854834574253
 20
405.4673634658267
 30
0.0
 40
0.5289854709273668
  0
CIRCLE
  5
227
330
41C
100
AcDbEntity
  8
checks
100
AcDbCircle
 10
73.26448772344031
 20
405.4673634658267
 30
0.0
 40
0.5289854709273668
  0
CIRCLE
  5
228
330
41C
100
AcDbEntity
  8
checks
100
AcDbCircle
 10
15.34057865689364
 20
405.4673634658267
 30
0.0
 40
0.5289854709273668
  0
CIRCLE
  5
225
330
41C
100
AcDbEntity
  8
checks
100
AcDbCircle
 10
111.8804271011381
 20
405.4673634658267
 30
0.0
 40
0.5289854709273668
  0
CIRCLE
  5
226
330
41C
100
AcDbEntity
  8
checks
100
AcDbCircle
 10
53.95651803459142
 20
405.4673634658267
 30
0.0
 40
0.5289854709273668
  0
CIRCLE
  5
233
330
41C
100
AcDbEntity
  8
checks
100
AcDbCircle
 10
131.188396789987
 20
424.7753331546756
 30
0.0
 40
0.5289854709273668
  0
CIRCLE
  5
234
330
41C
100
AcDbEntity
  8
checks
100
AcDbCircle
 10
150.4963664788359
 20
424.7753331546756
 30
0.0
 40
0.5289854709273668
  0
CIRCLE
  5
231
330
41C
100
AcDbEntity
  8
checks
100
AcDbCircle
 10
208.4202755453826
 20
424.7753331546756
 30
0.0
 40
0.5289854709273668
  0
CIRCLE
  5
22F
330
41C
100
AcDbEntity
  8
checks
100
AcDbCircle
 10
247.0362149230803
 20
424.7753331546756
 30
0.0
 40
0.5289854709273668
  0
CIRCLE
  5
230
330
41C
100
AcDbEntity
  8
checks
100
AcDbCircle
 10
189.1123058565337
 20
424.7753331546756
 30
0.0
 40
0.5289854709273668
  0
CIRCLE
  5
22D
330
41C
100
AcDbEntity
  8
checks
100
AcDbCircle
 10
285.6521543007781
 20
424.7753331546756
 30
0.0
 40
0.5289854709273668
  0
CIRCLE
  5
22E
330
41C
100
AcDbEntity
  8
checks
100
AcDbCircle
 10
227.7282452342315
 20
424.7753331546756
 30
0.0
 40
0.5289854709273668
  0
CIRCLE
  5
21B
330
41C
100
AcDbEntity
  8
checks
100
AcDbCircle
 10
266.3441846119292
 20
405.4673634658267
 30
0.0
 40
0.5289854709273668
  0
CIRCLE
  5
21C
330
41C
100
AcDbEntity
  8
checks
100
AcDbCircle
 10
285.6521543007781
 20
405.4673634658267
 30
0.0
 40
0.5289854709273668
  0
CIRCLE
  5
219
330
41C
100
AcDbEntity
  8
checks
100
AcDbCircle
 10
34.64854834574253
 20
386.1593937769778
 30
0.0
 40
0.5289854709273668
  0
CIRCLE
  5
21A
330
41C
100
AcDbEntity
  8
checks
100
AcDbCircle
 10
324.2680936784759
 20
405.4673634658267
 30
0.0
 40
0.5289854709273668
  0
CIRCLE
  5
217
330
41C
100
AcDbEntity
  8
checks
100
AcDbCircle
 10
15.34057865689364
 20
386.1593937769778
 30
0.0
 40
0.5289854709273668
  0
CIRCLE
  5
218
330
41C
100
AcDbEntity
  8
checks
100
AcDbCircle
 10
304.960123989627
 20
386.1593937769778
 30
0.0
 40
0.5289854709273668
  0
CIRCLE
  5
215
330
41C
100
AcDbEntity
  8
checks
100
AcDbCircle
 10
53.95651803459142
 20
386.1593937769778
 30
0.0
 40
0.5289854709273668
  0
CIRCLE
  5
216
330
41C
100
AcDbEntity
  8
checks
100
AcDbCircle
 10
73.26448772344031
 20
386.1593937769778
 30
0.0
 40
0.5289854709273668
  0
CIRCLE
  5
223
330
41C
100
AcDbEntity
  8
checks
100
AcDbCircle
 10
150.4963664788359
 20
405.4673634658267
 30
0.0
 40
0.5289854709273668
  0
CIRCLE
  5
224
330
41C
100
AcDbEntity
  8
checks
100
AcDbCircle
 10
92.57245741228921
 20
405.4673634658267
 30
0.0
 40
0.5289854709273668
  0
CIRCLE
  5
222
330
41C
100
AcDbEntity
  8
checks
100
AcDbCircle
 10
131.188396789987
 20
405.4673634658267
 30
0.0
 40
0.5289854709273668
  0
CIRCLE
  5
21F
330
41C
100
AcDbEntity
  8
checks
100
AcDbCircle
 10
189.1123058565337
 20
405.4673634658267
 30
0.0
 40
0.5289854709273668
  0
CIRCLE
  5
220
330
41C
100
AcDbEntity
  8
checks
100
AcDbCircle
 10
208.4202755453826
 20
405.4673634658267
 30
0.0
 40
0.5289854709273668
  0
CIRCLE
  5
21D
330
41C
100
AcDbEntity
  8
checks
100
AcDbCircle
 10
227.7282452342315
 20
405.4673634658267
 30
0.0
 40
0.5289854709273668
  0
CIRCLE
  5
21E
330
41C
100
AcDbEntity
  8
checks
100
AcDbCircle
 10
247.0362149230803
 20
405.4673634658267
 30
0.0
 40
0.5289854709273668
  0
CIRCLE
  5
20B
330
41C
100
AcDbEntity
  8
checks
100
AcDbCircle
 10
285.6521543007781
 20
386.1593937769778
 30
0.0
 40
0.5289854709273668
  0
CIRCLE
  5
20C
330
41C
100
AcDbEntity
  8
checks
100
AcDbCircle
 10
227.7282452342315
 20
386.1593937769778
 30
0.0
 40
0.5289854709273668
  0
CIRCLE
  5
209
330
41C
100
AcDbEntity
  8
checks
100
AcDbCircle
 10
324.2680936784759
 20
386.1593937769778
 30
0.0
 40
0.5289854709273668
  0
CIRCLE
  5
20A
330
41C
100
AcDbEntity
  8
checks
100
AcDbCircle
 10
266.3441846119292
 20
386.1593937769778
 30
0.0
 40
0.5289854709273668
  0
CIRCLE
  5
207
330
41C
100
AcDbEntity
  8
checks
100
AcDbCircle
 10
304.960123989627
 20
366.851424088129
 30
0.0
 40
0.5289854709273668
  0
CIRCLE
  5
208
330
41C
100
AcDbEntity
  8
checks
100
AcDbCircle
 10
34.64854834574253
 20
366.851424088129
 30
0.0
 40
0.5289854709273668
  0
CIRCLE
  5
205
330
41C
100
AcDbEntity
  8
checks
100
AcDbCircle
 10
73.26448772344031
 20
366.851424088129
 30
0.0
 40
0.5289854709273668
  0
CIRCLE
  5
206
330
41C
100
AcDbEntity
  8
checks
100
AcDbCircle
 10
15.34057865689364
 20
366.851424088129
 30
0.0
 40
0.5289854709273668
  0
CIRCLE
  5
213
330
41C
100
AcDbEntity
  8
checks
100
AcDbCircle
 10
92.57245741228921
 20
386.1593937769778
 30
0.0
 40
0.5289854709273668
  0
CIRCLE
  5
214
330
41C
100
AcDbEntity
  8
checks
100
AcDbCircle
 10
111.8804271011381
 20
386.1593937769778
 30
0.0
 40
0.5289854709273668
  0
CIRCLE
  5
211
330
41C
100
AcDbEntity
  8
checks
100
AcDbCircle
 10
131.188396789987
 20
386.1593937769778
 30
0.0
 40
0.5289854709273668
  0
CIRCLE
  5
212
330
41C
100
AcDbEntity
  8
checks
100
AcDbCircle
 10
150.4963664788359
 20
386.1593937769778
 30
0.0
 40
0.5289854709273668
  0
CIRCLE
  5
20F
330
41C
100
AcDbEntity
  8
checks
100
AcDbCircle
 10
208.4202755453826
 20
386.1593937769778
 30
0.0
 40
0.5289854709273668
  0
CIRCLE
  5
20D
330
41C
100
AcDbEntity
  8
checks
100
AcDbCircle
 10
247.0362149230803
 20
386.1593937769778
 30
0.0
 40
0.5289854709273668
  0
CIRCLE
  5
20E
330
41C
100
AcDbEntity
  8
checks
100
AcDbCircle
 10
189.1123058565337
 20
386.1593937769778
 30
0.0
 40
0.5289854709273668
  0
CIRCLE
  5
1FB
330
41C
100
AcDbEntity
  8
checks
100
AcDbCircle
 10
227.7282452342315
 20
366.851424088129
 30
0.0
 40
0.5289854709273668
  0
CIRCLE
  5
1FC
330
41C
100
AcDbEntity
  8
checks
100
AcDbCircle
 10
247.0362149230803
 20
366.851424088129
 30
0.0
 40
0.5289854709273668
  0
CIRCLE
  5
1F9
330
41C
100
AcDbEntity
  8
checks
100
AcDbCircle
 10
266.3441846119292
 20
366.851424088129
 30
0.0
 40
0.5289854709273668
  0
CIRCLE
  5
1FA
330
41C
100
AcDbEntity
  8
checks
100
AcDbCircle
 10
285.6521543007781
 20
366.851424088129
 30
0.0
 40
0.5289854709273668
  0
CIRCLE
  5
1F7
330
41C
100
AcDbEntity
  8
checks
100
AcDbCircle
 10
34.64854834574253
 20
347.54345439928
 30
0.0
 40
0.5289854709273668
  0
CIRCLE
  5
1F8
330
41C
100
AcDbEntity
  8
checks
100
AcDbCircle
 10
324.2680936784759
 20
366.851424088129
 30
0.0
 40
0.5289854709273668
  0
CIRCLE
  5
1F5
330
41C
100
AcDbEntity
  8
checks
100
AcDbCircle
 10
15.34057865689364
 20
347.54345439928
 30
0.0
 40
0.5289854709273668
  0
CIRCLE
  5
1F6
330
41C
100
AcDbEntity
  8
checks
100
AcDbCircle
 10
304.960123989627
 20
347.54345439928
 30
0.0
 40
0.5289854709273668
  0
CIRCLE
  5
203
330
41C
100
AcDbEntity
  8
checks
100
AcDbCircle
 10
111.8804271011381
 20
366.851424088129
 30
0.0
 40
0.5289854709273668
  0
CIRCLE
  5
204
330
41C
100
AcDbEntity
  8
checks
100
AcDbCircle
 10
53.95651803459142
 20
366.851424088129
 30
0.0
 40
0.5289854709273668
  0
CIRCLE
  5
201
330
41C
100
AcDbEntity
  8
checks
100
AcDbCircle
 10
150.4963664788359
 20
366.851424088129
 30
0.0
 40
0.5289854709273668
  0
CIRCLE
  5
202
330
41C
100
AcDbEntity
  8
checks
100
AcDbCircle
 10
92.57245741228921
 20
366.851424088129
 30
0.0
 40
0.5289854709273668
  0
CIRCLE
  5
200
330
41C
100
AcDbEntity
  8
checks
100
AcDbCircle
 10
131.188396789987
 20
366.851424088129
 30
0.0
 40
0.5289854709273668
  0
CIRCLE
  5
1FD
330
41C
100
AcDbEntity
  8
checks
100
AcDbCircle
 10
189.1123058565337
 20
366.851424088129
 30
0.0
 40
0.5289854709273668
  0
CIRCLE
  5
1FE
330
41C
100
AcDbEntity
  8
checks
100
AcDbCircle
 10
208.4202755453826
 20
366.851424088129
 30
0.0
 40
0.5289854709273668
  0
CIRCLE
  5
1EB
330
41C
100
AcDbEntity
  8
checks
100
AcDbCircle
 10
247.0362149230803
 20
347.54345439928
 30
0.0
 40
0.5289854709273668
  0
CIRCLE
  5
1EC
330
41C
100
AcDbEntity
  8
checks
100
AcDbCircle
 10
189.1123058565337
 20
347.54345439928
 30
0.0
 40
0.5289854709273668
  0
CIRCLE
  5
1E9
330
41C
100
AcDbEntity
  8
checks
100
AcDbCircle
 10
285.6521543007781
 20
347.54345439928
 30
0.0
 40
0.5289854709273668
  0
CIRCLE
  5
1EA
330
41C
100
AcDbEntity
  8
checks
100
AcDbCircle
 10
227.7282452342315
 20
347.54345439928
 30
0.0
 40
0.5289854709273668
  0
CIRCLE
  5
1E7
330
41C
100
AcDbEntity
  8
checks
100
AcDbCircle
 10
324.2680936784759
 20
347.54345439928
 30
0.0
 40
0.5289854709273668
  0
CIRCLE
  5
1E8
330
41C
100
AcDbEntity
  8
checks
100
AcDbCircle
 10
266.3441846119292
 20
347.54345439928
 30
0.0
 40
0.5289854709273668
  0
CIRCLE
  5
1E5
330
41C
100
AcDbEntity
  8
checks
100
AcDbCircle
 10
304.960123989627
 20
328.2354847104311
 30
0.0
 40
0.5289854709273668
  0
CIRCLE
  5
1E6
330
41C
100
AcDbEntity
  8
checks
100
AcDbCircle
 10
34.64854834574253
 20
328.2354847104311
 30
0.0
 40
0.5289854709273668
  0
CIRCLE
  5
1F3
330
41C
100
AcDbEntity
  8
checks
100
AcDbCircle
 10
53.95651803459142
 20
347.54345439928
 30
0.0
 40
0.5289854709273668
  0
CIRCLE
  5
1F4
330
41C
100
AcDbEntity
  8
checks
100
AcDbCircle
 10
73.26448772344031
 20
347.54345439928
 30
0.0
 40
0.5289854709273668
  0
CIRCLE
  5
1F1
330
41C
100
AcDbEntity
  8
checks
100
AcDbCircle
 10
92.57245741228921
 20
347.54345439928
 30
0.0
 40
0.5289854709273668
  0
CIRCLE
  5
1F2
330
41C
100
AcDbEntity
  8
checks
100
AcDbCircle
 10
111.8804271011381
 20
347.54345439928
 30
0.0
 40
0.5289854709273668
  0
CIRCLE
  5
1EF
330
41C
100
AcDbEntity
  8
checks
100
AcDbCircle
 10
131.188396789987
 20
347.54345439928
 30
0.0
 40
0.5289854709273668
  0
CIRCLE
  5
1F0
330
41C
100
AcDbEntity
  8
checks
100
AcDbCircle
 10
150.4963664788359
 20
347.54345439928
 30
0.0
 40
0.5289854709273668
  0
CIRCLE
  5
1ED
330
41C
100
AcDbEntity
  8
checks
100
AcDbCircle
 10
208.4202755453826
 20
347.54345439928
 30
0.0
 40
0.5289854709273668
  0
CIRCLE
  5
1DB
330
41C
100
AcDbEntity
  8
checks
100
AcDbCircle
 10
189.1123058565337
 20
328.2354847104311
 30
0.0
 40
0.5289854709273668
  0
CIRCLE
  5
1DC
330
41C
100
AcDbEntity
  8
checks
100
AcDbCircle
 10
208.4202755453826
 20
328.2354847104311
 30
0.0
 40
0.5289854709273668
  0
CIRCLE
  5
1D9
330
41C
100
AcDbEntity
  8
checks
100
AcDbCircle
 10
227.7282452342315
 20
328.2354847104311
 30
0.0
 40
0.5289854709273668
  0
CIRCLE
  5
1DA
330
41C
100
AcDbEntity
  8
checks
100
AcDbCircle
 10
247.0362149230803
 20
328.2354847104311
 30
0.0
 40
0.5289854709273668
  0
CIRCLE
  5
1D7
330
41C
100
AcDbEntity
  8
checks
100
AcDbCircle
 10
266.3441846119292
 20
328.2354847104311
 30
0.0
 40
0.5289854709273668
  0
CIRCLE
  5
1D8
330
41C
100
AcDbEntity
  8
checks
100
AcDbCircle
 10
285.6521543007781
 20
328.2354847104311
 30
0.0
 40
0.5289854709273668
  0
CIRCLE
  5
1D5
330
41C
100
AcDbEntity
  8
checks
100
AcDbCircle
 10
34.64854834574253
 20
308.9275150215822
 30
0.0
 40
0.5289854709273668
  0
CIRCLE
  5
1D6
330
41C
100
AcDbEntity
  8
checks
100
AcDbCircle
 10
324.2680936784759
 20
328.2354847104311
 30
0.0
 40
0.5289854709273668
  0
CIRCLE
  5
1E3
330
41C
100
AcDbEntity
  8
checks
100
AcDbCircle
 10
73.26448772344031
 20
328.2354847104311
 30
0.0
 40
0.5289854709273668
  0
CIRCLE
  5
1E4
330
41C
100
AcDbEntity
  8
checks
100
AcDbCircle
 10
15.34057865689364
 20
328.2354847104311
 30
0.0
 40
0.5289854709273668
  0
CIRCLE
  5
1E1
330
41C
100
AcDbEntity
  8
checks
100
AcDbCircle
 10
111.8804271011381
 20
328.2354847104311
 30
0.0
 40
0.5289854709273668
  0
CIRCLE
  5
1E2
330
41C
100
AcDbEntity
  8
checks
100
AcDbCircle
 10
53.95651803459142
 20
328.2354847104311
 30
0.0
 40
0.5289854709273668
  0
CIRCLE
  5
1DF
330
41C
100
AcDbEntity
  8
checks
100
AcDbCircle
 10
150.4963664788359
 20
328.2354847104311
 30
0.0
 40
0.5289854709273668
  0
CIRCLE
  5
1E0
330
41C
100
AcDbEntity
  8
checks
100
AcDbCircle
 10
92.57245741228921
 20
328.2354847104311
 30
0.0
 40
0.5289854709273668
  0
CIRCLE
  5
1DE
330
41C
100
AcDbEntity
  8
checks
100
AcDbCircle
 10
131.188396789987
 20
328.2354847104311
 30
0.0
 40
0.5289854709273668
  0
CIRCLE
  5
1CB
330
41C
100
AcDbEntity
  8
checks
100
AcDbCircle
 10
208.4202755453826
 20
308.9275150215822
 30
0.0
 40
0.5289854709273668
  0
CIRCLE
  5
1C9
330
41C
100
AcDbEntity
  8
checks
100
AcDbCircle
 10
247.0362149230803
 20
308.9275150215822
 30
0.0
 40
0.5289854709273668
  0
CIRCLE
  5
1CA
330
41C
100
AcDbEntity
  8
checks
100
AcDbCircle
 10
189.1123058565337
 20
308.9275150215822
 30
0.0
 40
0.5289854709273668
  0
CIRCLE
  5
1C7
330
41C
100
AcDbEntity
  8
checks
100
AcDbCircle
 10
285.6521543007781
 20
308.9275150215822
 30
0.0
 40
0.5289854709273668
  0
CIRCLE
  5
1C8
330
41C
100
AcDbEntity
  8
checks
100
AcDbCircle
 10
227.7282452342315
 20
308.9275150215822
 30
0.0
 40
0.5289854709273668
  0
CIRCLE
  5
1C5
330
41C
100
AcDbEntity
  8
checks
100
AcDbCircle
 10
324.2680936784759
 20
308.9275150215822
 30
0.0
 40
0.5289854709273668
  0
CIRCLE
  5
1C6
330
41C
100
AcDbEntity
  8
checks
100
AcDbCircle
 10
266.3441846119292
 20
308.9275150215822
 30
0.0
 40
0.5289854709273668
  0
CIRCLE
  5
1D3
330
41C
100
AcDbEntity
  8
checks
100
AcDbCircle
 10
15.34057865689364
 20
308.9275150215822
 30
0.0
 40
0.5289854709273668
  0
CIRCLE
  5
1D4
330
41C
100
AcDbEntity
  8
checks
100
AcDbCircle
 10
304.960123989627
 20
308.9275150215822
 30
0.0
 40
0.5289854709273668
  0
CIRCLE
  5
1D1
330
41C
100
AcDbEntity
  8
checks
100
AcDbCircle
 10
53.95651803459142
 20
308.9275150215822
 30
0.0
 40
0.5289854709273668
  0
CIRCLE
  5
1D2
330
41C
100
AcDbEntity
  8
checks
100
AcDbCircle
 10
73.26448772344031
 20
308.9275150215822
 30
0.0
 40
0.5289854709273668
  0
CIRCLE
  5
1CF
330
41C
100
AcDbEntity
  8
checks
100
AcDbCircle
 10
92.57245741228921
 20
308.9275150215822
 30
0.0
 40
0.5289854709273668
  0
CIRCLE
  5
1D0
330
41C
100
AcDbEntity
  8
checks
100
AcDbCircle
 10
111.8804271011381
 20
308.9275150215822
 30
0.0
 40
0.5289854709273668
  0
CIRCLE
  5
1CD
330
41C
100
AcDbEntity
  8
checks
100
AcDbCircle
 10
131.188396789987
 20
308.9275150215822
 30
0.0
 40
0.5289854709273668
  0
CIRCLE
  5
1CE
330
41C
100
AcDbEntity
  8
checks
100
AcDbCircle
 10
150.4963664788359
 20
308.9275150215822
 30
0.0
 40
0.5289854709273668
  0
CIRCLE
  5
1BC
330
41C
100
AcDbEntity
  8
checks
100
AcDbCircle
 10
131.188396789987
 20
289.6195453327334
 30
0.0
 40
0.5289854709273668
  0
CIRCLE
  5
1B9
330
41C
100
AcDbEntity
  8
checks
100
AcDbCircle
 10
189.1123058565337
 20
289.6195453327334
 30
0.0
 40
0.5289854709273668
  0
CIRCLE
  5
1BA
330
41C
100
AcDbEntity
  8
checks
100
AcDbCircle
 10
208.4202755453826
 20
289.6195453327334
 30
0.0
 40
0.5289854709273668
  0
CIRCLE
  5
1B7
330
41C
100
AcDbEntity
  8
checks
100
AcDbCircle
 10
227.7282452342315
 20
289.6195453327334
 30
0.0
 40
0.5289854709273668
  0
CIRCLE
  5
1B8
330
41C
100
AcDbEntity
  8
checks
100
AcDbCircle
 10
247.0362149230803
 20
289.6195453327334
 30
0.0
 40
0.5289854709273668
  0
CIRCLE
  5
1B5
330
41C
100
AcDbEntity
  8
checks
100
AcDbCircle
 10
266.3441846119292
 20
289.6195453327334
 30
0.0
 40
0.5289854709273668
  0
CIRCLE
  5
1B6
330
41C
100
AcDbEntity
  8
checks
100
AcDbCircle
 10
285.6521543007781
 20
289.6195453327334
 30
0.0
 40
0.5289854709273668
  0
CIRCLE
  5
1C3
330
41C
100
AcDbEntity
  8
checks
100
AcDbCircle
 10
304.960123989627
 20
289.6195453327334
 30
0.0
 40
0.5289854709273668
  0
CIRCLE
  5
1C4
330
41C
100
AcDbEntity
  8
checks
100
AcDbCircle
 10
34.64854834574253
 20
289.6195453327334
 30
0.0
 40
0.5289854709273668
  0
CIRCLE
  5
1C1
330
41C
100
AcDbEntity
  8
checks
100
AcDbCircle
 10
73.26448772344031
 20
289.6195453327334
 30
0.0
 40
0.5289854709273668
  0
CIRCLE
  5
1C2
330
41C
100
AcDbEntity
  8
checks
100
AcDbCircle
 10
15.34057865689364
 20
289.6195453327334
 30
0.0
 40
0.5289854709273668
  0
CIRCLE
  5
1BF
330
41C
100
AcDbEntity
  8
checks
100
AcDbCircle
 10
111.8804271011381
 20
289.6195453327334
 30
0.0
 40
0.5289854709273668
  0
CIRCLE
  5
1C0
330
41C
100
AcDbEntity
  8
checks
100
AcDbCircle
 10
53.95651803459142
 20
289.6195453327334
 30
0.0
 40
0.5289854709273668
  0
CIRCLE
  5
1BD
330
41C
100
AcDbEntity
  8
checks
100
AcDbCircle
 10
150.4963664788359
 20
289.6195453327334
 30
0.0
 40
0.5289854709273668
  0
CIRCLE
  5
1BE
330
41C
100
AcDbEntity
  8
checks
100
AcDbCircle
 10
92.57245741228921
 20
289.6195453327334
 30
0.0
 40
0.5289854709273668
  0
CIRCLE
  5
1AB
330
41C
100
AcDbEntity
  8
checks
100
AcDbCircle
 10
131.188396789987
 20
270.3115756438845
 30
0.0
 40
0.5289854709273668
  0
CIRCLE
  5
1AC
330
41C
100
AcDbEntity
  8
checks
100
AcDbCircle
 10
150.4963664788359
 20
270.3115756438845
 30
0.0
 40
0.5289854709273668
  0
CIRCLE
  5
1A9
330
41C
100
AcDbEntity
  8
checks
100
AcDbCircle
 10
208.4202755453826
 20
270.3115756438845
 30
0.0
 40
0.5289854709273668
  0
CIRCLE
  5
1A7
330
41C
100
AcDbEntity
  8
checks
100
AcDbCircle
 10
247.0362149230803
 20
270.3115756438845
 30
0.0
 40
0.5289854709273668
  0
CIRCLE
  5
1A8
330
41C
100
AcDbEntity
  8
checks
100
AcDbCircle
 10
189.1123058565337
 20
270.3115756438845
 30
0.0
 40
0.5289854709273668
  0
CIRCLE
  5
1A5
330
41C
100
AcDbEntity
  8
checks
100
AcDbCircle
 10
285.6521543007781
 20
270.3115756438845
 30
0.0
 40
0.5289854709273668
  0
CIRCLE
  5
1A6
330
41C
100
AcDbEntity
  8
checks
100
AcDbCircle
 10
227.7282452342315
 20
270.3115756438845
 30
0.0
 40
0.5289854709273668
  0
CIRCLE
  5
1B3
330
41C
100
AcDbEntity
  8
checks
100
AcDbCircle
 10
34.64854834574253
 20
270.3115756438845
 30
0.0
 40
0.5289854709273668
  0
CIRCLE
  5
1B4
330
41C
100
AcDbEntity
  8
checks
100
AcDbCircle
 10
324.2680936784759
 20
289.6195453327334
 30
0.0
 40
0.5289854709273668
  0
CIRCLE
  5
1B1
330
41C
100
AcDbEntity
  8
checks
100
AcDbCircle
 10
15.34057865689364
 20
270.3115756438845
 30
0.0
 40
0.5289854709273668
  0
CIRCLE
  5
1B2
330
41C
100
AcDbEntity
  8
checks
100
AcDbCircle
 10
304.960123989627
 20
270.3115756438845
 30
0.0
 40
0.5289854709273668
  0
CIRCLE
  5
1AF
330
41C
100
AcDbEntity
  8
checks
100
AcDbCircle
 10
53.95651803459142
 20
270.3115756438845
 30
0.0
 40
0.5289854709273668
  0
CIRCLE
  5
1B0
330
41C
100
AcDbEntity
  8
checks
100
AcDbCircle
 10
73.26448772344031
 20
270.3115756438845
 30
0.0
 40
0.5289854709273668
  0
CIRCLE
  5
1AD
330
41C
100
AcDbEntity
  8
checks
100
AcDbCircle
 10
92.57245741228921
 20
270.3115756438845
 30
0.0
 40
0.5289854709273668
  0
CIRCLE
  5
1AE
330
41C
100
AcDbEntity
  8
checks
100
AcDbCircle
 10
111.8804271011381
 20
270.3115756438845
 30
0.0
 40
0.5289854709273668
  0
CIRCLE
  5
19B
330
41C
100
AcDbEntity
  8
checks
100
AcDbCircle
 10
189.1123058565337
 20
251.0036059550356
 30
0.0
 40
0.5289854709273668
  0
CIRCLE
  5
19C
330
41C
100
AcDbEntity
  8
checks
100
AcDbCircle
 10
208.4202755453826
 20
251.0036059550356
 30
0.0
 40
0.5289854709273668
  0
CIRCLE
  5
197
330
41C
100
AcDbEntity
  8
checks
100
AcDbCircle
 10
131.188396789987
 20
251.0036059550356
 30
0.0
 40
0.5289854709273668
  0
CIRCLE
  5
198
330
41C
100
AcDbEntity
  8
checks
100
AcDbCircle
 10
150.4963664788359
 20
251.0036059550356
 30
0.0
 40
0.5289854709273668
  0
CIRCLE
  5
195
330
41C
100
AcDbEntity
  8
checks
100
AcDbCircle
 10
92.57245741228921
 20
251.0036059550356
 30
0.0
 40
0.5289854709273668
  0
CIRCLE
  5
196
330
41C
100
AcDbEntity
  8
checks
100
AcDbCircle
 10
111.8804271011381
 20
251.0036059550356
 30
0.0
 40
0.5289854709273668
  0
CIRCLE
  5
1A3
330
41C
100
AcDbEntity
  8
checks
100
AcDbCircle
 10
324.2680936784759
 20
270.3115756438845
 30
0.0
 40
0.5289854709273668
  0
CIRCLE
  5
1A4
330
41C
100
AcDbEntity
  8
checks
100
AcDbCircle
 10
266.3441846119292
 20
270.3115756438845
 30
0.0
 40
0.5289854709273668
  0
CIRCLE
  5
1A1
330
41C
100
AcDbEntity
  8
checks
100
AcDbCircle
 10
304.960123989627
 20
251.0036059550356
 30
0.0
 40
0.5289854709273668
  0
CIRCLE
  5
1A2
330
41C
100
AcDbEntity
  8
checks
100
AcDbCircle
 10
324.2680936784759
 20
251.0036059550356
 30
0.0
 40
0.5289854709273668
  0
CIRCLE
  5
19F
330
41C
100
AcDbEntity
  8
checks
100
AcDbCircle
 10
266.3441846119292
 20
251.0036059550356
 30
0.0
 40
0.5289854709273668
  0
CIRCLE
  5
1A0
330
41C
100
AcDbEntity
  8
checks
100
AcDbCircle
 10
285.6521543007781
 20
251.0036059550356
 30
0.0
 40
0.5289854709273668
  0
CIRCLE
  5
19D
330
41C
100
AcDbEntity
  8
checks
100
AcDbCircle
 10
227.7282452342315
 20
251.0036059550356
 30
0.0
 40
0.5289854709273668
  0
CIRCLE
  5
19E
330
41C
100
AcDbEntity
  8
checks
100
AcDbCircle
 10
247.0362149230803
 20
251.0036059550356
 30
0.0
 40
0.5289854709273668
  0
CIRCLE
  5
193
330
41C
100
AcDbEntity
  8
checks
100
AcDbCircle
 10
53.95651803459142
 20
251.0036059550356
 30
0.0
 40
0.5289854709273668
  0
CIRCLE
  5
194
330
41C
100
AcDbEntity
  8
checks
100
AcDbCircle
 10
73.26448772344031
 20
251.0036059550356
 30
0.0
 40
0.5289854709273668
  0
CIRCLE
  5
191
330
41C
100
AcDbEntity
  8
checks
100
AcDbCircle
 10
15.34057865689364
 20
251.0036059550356
 30
0.0
 40
0.5289854709273668
  0
CIRCLE
  5
192
330
41C
100
AcDbEntity
  8
checks
100
AcDbCircle
 10
34.64854834574253
 20
251.0036059550356
 30
0.0
 40
0.5289854709273668
  0
VIEWPORT
  5
4DD
330
418
100
AcDbEntity
 67
     1
  8
0
 62
    18
420
        0
100
AcDbViewport
 10
128.5
 20
97.5
 30
0.0
 40
314.226
 41
222.18
 68
     1
 69
     1
 12
128.5
 22
97.5
 13
0.0
 23
0.0
 14
10.0
 24
10.0
 15
10.0
 25
10.0
 16
0.0
 26
0.0
 36
1.0
 17
0.0
 27
0.0
 37
0.0
 42
50.0
 43
0.0
 44
0.0
 45
222.18
 50
0.0
 51
0.0
 72
   100
 90
   557152
  1

281
     0
 71
     1
 74
     0
110
0.0
120
0.0
130
0.0
111
1.0
121
0.0
131
0.0
112
0.0
122
1.0
132
0.0
 79
     0
146
0.0
170
     0
 61
     5
292
     1
282
     1
141
0.0
142
0.0
 63
   256
361
4DE
  0
ENDSEC
  0
SECTION
  2
OBJECTS
  0
DICTIONARY
  5
40A
330
0
100
AcDbDictionary
281
     1
  3
ACAD_DETAILVIEWSTYLE
350
4E6
  3
ACAD_GROUP
350
40B
  3
ACAD_LAYOUT
350
417
  3
ACAD_MATERIAL
350
440
  3
ACAD_MLEADERSTYLE
350
468
  3
ACAD_MLINESTYLE
350
414
  3
ACAD_PLOTSETTINGS
350
416
  3
ACAD_PLOTSTYLENAME
350
40C
  3
ACAD_SCALELIST
350
444
  3
ACAD_SECTIONVIEWSTYLE
350
4E7
  3
ACAD_TABLESTYLE
350
466
  3
ACAD_VISUALSTYLE
350
427
  3
ACDB_RECOMPOSE_DATA
350
4E3
  3
AcDbVariableDictionary
350
4DF
  3
QCAD_OBJECTS
350
46C
  0
SUN
  5
46A
330
426
100
AcDbSun
 90
        1
290
     0
 63
     7
421
 16777215
 40
1.0
291
     1
 91
  2455826
 92
 54000000
292
     0
 70
     2
 71
   256
280
     1
  0
SUN
  5
4DE
330
4DD
100
AcDbSun
 90
        1
290
     0
 63
     7
421
 16777215
 40
1.0
291
     1
 91
  2455826
 92
 54000000
292
     0
 70
     2
 71
   256
280
     1
  0
DICTIONARY
  5
4E6
102
{ACAD_REACTORS
330
40A
102
}
330
40A
100
AcDbDictionary
281
     1
  0
DICTIONARY
  5
40B
102
{ACAD_REACTORS
330
40A
102
}
330
40A
100
AcDbDictionary
281
     1
  0
DICTIONARY
  5
417
102
{ACAD_REACTORS
330
40A
102
}
330
40A
100
AcDbDictionary
281
     1
  3
Layout1
350
41B
  3
Model
350
41F
  0
DICTIONARY
  5
440
102
{ACAD_REACTORS
330
40A
102
}
330
40A
100
AcDbDictionary
281
     1
  3
ByBlock
350
442
  3
ByLayer
350
441
  3
Global
350
443
  0
DICTIONARY
  5
468
102
{ACAD_REACTORS
330
40A
102
}
330
40A
100
AcDbDictionary
281
     1
  3
Standard
350
469
  0
DICTIONARY
  5
414
102
{ACAD_REACTORS
330
40A
102
}
330
40A
100
AcDbDictionary
281
     1
  3
Standard
350
415
  0
DICTIONARY
  5
416
102
{ACAD_REACTORS
330
40A
102
}
330
40A
100
AcDbDictionary
281
     1
  0
ACDBDICTIONARYWDFLT
  5
40C
102
{ACAD_REACTORS
330
40A
102
}
330
40A
100
AcDbDictionary
281
     1
  3
Normal
350
40D
100
AcDbDictionaryWithDefault
340
40D
  0
DICTIONARY
  5
444
102
{ACAD_REACTORS
330
40A
102
}
330
40A
100
AcDbDictionary
281
     1
  3
A0
350
445
  3
A1
350
446
  3
A2
350
447
  3
A3
350
448
  3
A4
350
449
  3
A5
350
44A
  3
A6
350
44B
  3
A7
350
44C
  3
A8
350
44D
  3
A9
350
44E
  3
B0
350
44F
  3
B1
350
450
  3
B2
350
451
  3
B3
350
452
  3
B4
350
453
  3
B5
350
454
  3
B6
350
455
  3
B7
350
456
  3
B8
350
457
  3
B9
350
458
  3
C0
350
459
  3
C1
350
45A
  3
C2
350
45B
  3
C3
350
45C
  3
C4
350
45D
  3
C5
350
45E
  3
C6
350
45F
  3
C7
350
460
  3
C8
350
461
  3
C9
350
462
  3
D0
350
463
  3
D1
350
464
  3
D2
350
465
  0
DICTIONARY
  5
4E7
102
{ACAD_REACTORS
330
40A
102
}
330
40A
100
AcDbDictionary
281
     1
  0
DICTIONARY
  5
466
102
{ACAD_REACTORS
330
40A
102
}
330
40A
100
AcDbDictionary
281
     1
  3
Standard
350
467
  0
DICTIONARY
  5
427
102
{ACAD_REACTORS
330
40A
102
}
330
40A
100
AcDbDictionary
281
     1
  3
2dWireframe
350
42C
  3
Basic
350
42F
  3
Brighten
350
433
  3
ColorChange
350
437
  3
Conceptual
350
431
  3
Dim
350
432
  3
EdgeColorOff
350
43A
  3
Facepattern
350
436
  3
Flat
350
428
  3
FlatWithEdges
350
429
  3
Gouraud
350
42A
  3
GouraudWithEdges
350
42B
  3
Hidden
350
42E
  3
JitterOff
350
438
  3
Linepattern
350
435
  3
OverhangOff
350
439
  3
Realistic
350
430
  3
Shaded
350
43F
  3
Shaded with edges
350
43E
  3
Shades of Gray
350
43B
  3
Sketchy
350
43C
  3
Thicken
350
434
  3
Wireframe
350
42D
  3
X-Ray
350
43D
  0
XRECORD
  5
4E3
102
{ACAD_REACTORS
330
40A
102
}
330
40A
100
AcDbXrecord
280
     1
 90
        1
330
467
  0
DICTIONARY
  5
4DF
102
{ACAD_REACTORS
330
40A
102
}
330
40A
100
AcDbDictionary
281
     1
  3
CANNOSCALE
350
4E0
  3
CMLEADERSTYLE
350
4E5
  3
CTABLESTYLE
350
4E4
  0
DICTIONARY
  5
46C
102
{ACAD_REACTORS
330
40A
102
}
330
40A
100
AcDbDictionary
281
     1
  3
ColorSettings/BackgroundColor
350
46E
  3
ColorSettings/ColorMode
350
46F
  3
Grid/DisplayGrid00
350
470
  3
Grid/DisplayGrid01
350
471
  3
Grid/DisplayGrid02
350
472
  3
Grid/DisplayGrid03
350
473
  3
Grid/GridSpacingX00
350
474
  3
Grid/GridSpacingX01
350
475
  3
Grid/GridSpacingX02
350
476
  3
Grid/GridSpacingX03
350
477
  3
Grid/GridSpacingY00
350
478
  3
Grid/GridSpacingY01
350
479
  3
Grid/GridSpacingY02
350
47A
  3
Grid/GridSpacingY03
350
47B
  3
Grid/IsometricGrid00
350
47C
  3
Grid/IsometricGrid01
350
47D
  3
Grid/IsometricGrid02
350
47E
  3
Grid/IsometricGrid03
350
47F
  3
Grid/IsometricProjection00
350
480
  3
Grid/IsometricProjection01
350
481
  3
Grid/IsometricProjection02
350
482
  3
Grid/IsometricProjection03
350
483
  3
Grid/MetaGridSpacingX00
350
484
  3
Grid/MetaGridSpacingX01
350
485
  3
Grid/MetaGridSpacingX02
350
486
  3
Grid/MetaGridSpacingX03
350
487
  3
Grid/MetaGridSpacingY00
350
488
  3
Grid/MetaGridSpacingY01
350
489
  3
Grid/MetaGridSpacingY02
350
48A
  3
Grid/MetaGridSpacingY03
350
48B
  3
MultiPageSettings/Columns
350
48C
  3
MultiPageSettings/GlueMarginsBottom
350
48D
  3
MultiPageSettings/GlueMarginsLeft
350
48E
  3
MultiPageSettings/GlueMarginsRight
350
48F
  3
MultiPageSettings/GlueMarginsTop
350
490
  3
MultiPageSettings/PrintCropMarks
350
491
  3
MultiPageSettings/Rows
350
492
  3
PageSettings/OffsetX
350
493
  3
PageSettings/OffsetY
350
494
  3
PageSettings/PageOrientation
350
495
  3
PageSettings/PaperHeight
350
496
  3
PageSettings/PaperWidth
350
497
  3
PageSettings/Scale
350
498
  3
PageSettings/ShowPaperBorders
350
499
  3
QCADVersion
350
49A
  3
UnitSettings/PaperUnit
350
49B
  3
ViewportCenter
350
49C
  3
ViewportHeight
350
49D
  3
ViewportWidth
350
49E
  0
LAYOUT
  5
41B
102
{ACAD_REACTORS
330
417
102
}
330
417
100
AcDbPlotSettings
  1

  2
none_device
  4
ISO_A4_(210.00_x_297.00_MM)
  6

 40
7.5
 41
20.0
 42
7.5
 43
20.0
 44
210.0
 45
297.0
 46
0.0
 47
0.0
 48
0.0
 49
0.0
140
0.0
141
0.0
142
1.0
143
1.0
 70
   688
 72
     1
 73
     1
 74
     5
  7

 75
    16
 76
     0
 77
     2
 78
   300
147
1.0
148
0.0
149
0.0
100
AcDbLayout
  1
Layout1
 70
     1
 71
     0
 10
-20.0
 20
-7.5
 11
277.0
 21
202.5
 12
0.0
 22
0.0
 32
0.0
 14
0.0
 24
0.0
 34
0.0
 15
0.0
 25
0.0
 35
0.0
146
0.0
 13
0.0
 23
0.0
 33
0.0
 16
1.0
 26
0.0
 36
0.0
 17
0.0
 27
1.0
 37
0.0
 76
     0
330
418
331
4DD
  0
LAYOUT
  5
41F
102
{ACAD_REACTORS
330
417
102
}
330
417
100
AcDbPlotSettings
  1

  2
none_device
  4
Letter_(8.50_x_11.00_Inches)
  6

 40
6.35
 41
6.35
 42
6.35000508
 43
6.35000508
 44
215.9
 45
279.4
 46
0.0
 47
0.0
 48
0.0
 49
0.0
140
0.0
141
0.0
142
1.0
143
1.0
 70
  1712
 72
     0
 73
     0
 74
     0
  7

 75
     0
 76
     0
 77
     2
 78
   300
147
1.0
148
0.0
149
0.0
100
AcDbLayout
  1
Model
 70
     1
 71
     0
 10
0.0
 20
0.0
 11
12.0
 21
9.0
 12
0.0
 22
0.0
 32
0.0
 14
1.000000000000000E+20
 24
1.000000000000000E+20
 34
1.000000000000000E+20
 15
-1.000000000000000E+20
 25
-1.000000000000000E+20
 35
-1.000000000000000E+20
146
0.0
 13
0.0
 23
0.0
 33
0.0
 16
1.0
 26
0.0
 36
0.0
 17
0.0
 27
1.0
 37
0.0
 76
     0
330
41C
331
426
  0
MATERIAL
  5
442
102
{ACAD_REACTORS
330
440
102
}
330
440
100
AcDbMaterial
  1
ByBlock
 72
     1
 94
      127
  0
MATERIAL
  5
441
102
{ACAD_REACTORS
330
440
102
}
330
440
100
AcDbMaterial
  1
ByLayer
 72
     1
 94
      127
  0
MATERIAL
  5
443
102
{ACAD_REACTORS
330
440
102
}
330
440
100
AcDbMaterial
  1
Global
 72
     1
 94
      127
  0
MLEADERSTYLE
  5
469
102
{ACAD_REACTORS
330
468
102
}
330
468
100
AcDbMLeaderStyle
179
     2
170
     2
171
     1
172
     0
 90
        2
 40
0.0
 41
0.0
173
     1
 91
-1056964608
340
411
 92
       -2
290
     1
 42
0.09
291
     1
 43
0.36
  3
Standard
341
0
 44
0.18
300

342
40F
174
     1
178
     6
175
     1
176
     0
 93
-1056964608
 45
0.18
292
     0
297
     0
 46
0.18
343
0
 94
-1056964608
 47
1.0
 49
1.0
140
1.0
293
     1
141
0.0
294
     1
177
     0
142
1.0
295
     0
296
     0
143
0.125
271
     0
272
     9
273
     9
298
     0
  0
MLINESTYLE
  5
415
102
{ACAD_REACTORS
330
414
102
}
330
414
100
AcDbMlineStyle
  2
Standard
 70
     0
  3

 62
   256
 51
90.0
 52
90.0
 71
     2
 49
0.5
 62
   256
  6
BYLAYER
 49
-0.5
 62
   256
  6
BYLAYER
  0
ACDBPLACEHOLDER
  5
40D
102
{ACAD_REACTORS
330
40C
102
}
330
40C
  0
SCALE
  5
445
102
{ACAD_REACTORS
330
444
102
}
330
444
100
AcDbScale
 70
     0
300
1:1
140
1.0
141
1.0
290
     1
  0
SCALE
  5
446
102
{ACAD_REACTORS
330
444
102
}
330
444
100
AcDbScale
 70
     0
300
1:2
140
1.0
141
2.0
290
     0
  0
SCALE
  5
447
102
{ACAD_REACTORS
330
444
102
}
330
444
100
AcDbScale
 70
     0
300
1:4
140
1.0
141
4.0
290
     0
  0
SCALE
  5
448
102
{ACAD_REACTORS
330
444
102
}
330
444
100
AcDbScale
 70
     0
300
1:5
140
1.0
141
5.0
290
     0
  0
SCALE
  5
449
102
{ACAD_REACTORS
330
444
102
}
330
444
100
AcDbScale
 70
     0
300
1:8
140
1.0
141
8.0
290
     0
  0
SCALE
  5
44A
102
{ACAD_REACTORS
330
444
102
}
330
444
100
AcDbScale
 70
     0
300
1:10
140
1.0
141
10.0
290
     0
  0
SCALE
  5
44B
102
{ACAD_REACTORS
330
444
102
}
330
444
100
AcDbScale
 70
     0
300
1:16
140
1.0
141
16.0
290
     0
  0
SCALE
  5
44C
102
{ACAD_REACTORS
330
444
102
}
330
444
100
AcDbScale
 70
     0
300
1:20
140
1.0
141
20.0
290
     0
  0
SCALE
  5
44D
102
{ACAD_REACTORS
330
444
102
}
330
444
100
AcDbScale
 70
     0
300
1:30
140
1.0
141
30.0
290
     0
  0
SCALE
  5
44E
102
{ACAD_REACTORS
330
444
102
}
330
444
100
AcDbScale
 70
     0
300
1:40
140
1.0
141
40.0
290
     0
  0
SCALE
  5
44F
102
{ACAD_REACTORS
330
444
102
}
330
444
100
AcDbScale
 70
     0
300
1:50
140
1.0
141
50.0
290
     0
  0
SCALE
  5
450
102
{ACAD_REACTORS
330
444
102
}
330
444
100
AcDbScale
 70
     0
300
1:100
140
1.0
141
100.0
290
     0
  0
SCALE
  5
451
102
{ACAD_REACTORS
330
444
102
}
330
444
100
AcDbScale
 70
     0
300
2:1
140
2.0
141
1.0
290
     0
  0
SCALE
  5
452
102
{ACAD_REACTORS
330
444
102
}
330
444
100
AcDbScale
 70
     0
300
4:1
140
4.0
141
1.0
290
     0
  0
SCALE
  5
453
102
{ACAD_REACTORS
330
444
102
}
330
444
100
AcDbScale
 70
     0
300
8:1
140
8.0
141
1.0
290
     0
  0
SCALE
  5
454
102
{ACAD_REACTORS
330
444
102
}
330
444
100
AcDbScale
 70
     0
300
10:1
140
10.0
141
1.0
290
     0
  0
SCALE
  5
455
102
{ACAD_REACTORS
330
444
102
}
330
444
100
AcDbScale
 70
     0
300
100:1
140
100.0
141
1.0
290
     0
  0
SCALE
  5
456
102
{ACAD_REACTORS
330
444
102
}
330
444
100
AcDbScale
 70
     0
300
1/128" = 1'-0"
140
0.0078125
141
12.0
290
     0
  0
SCALE
  5
457
102
{ACAD_REACTORS
330
444
102
}
330
444
100
AcDbScale
 70
     0
300
1/64" = 1'-0"
140
0.015625
141
12.0
290
     0
  0
SCALE
  5
458
102
{ACAD_REACTORS
330
444
102
}
330
444
100
AcDbScale
 70
     0
300
1/32" = 1'-0"
140
0.03125
141
12.0
290
     0
  0
SCALE
  5
459
102
{ACAD_REACTORS
330
444
102
}
330
444
100
AcDbScale
 70
     0
300
1/16" = 1'-0"
140
0.0625
141
12.0
290
     0
  0
SCALE
  5
45A
102
{ACAD_REACTORS
330
444
102
}
330
444
100
AcDbScale
 70
     0
300
3/32" = 1'-0"
140
0.09375
141
12.0
290
     0
  0
SCALE
  5
45B
102
{ACAD_REACTORS
330
444
102
}
330
444
100
AcDbScale
 70
     0
300
1/8" = 1'-0"
140
0.125
141
12.0
290
     0
  0
SCALE
  5
45C
102
{ACAD_REACTORS
330
444
102
}
330
444
100
AcDbScale
 70
     0
300
3/16" = 1'-0"
140
0.1875
141
12.0
290
     0
  0
SCALE
  5
45D
102
{ACAD_REACTORS
330
444
102
}
330
444
100
AcDbScale
 70
     0
300
1/4" = 1'-0"
140
0.25
141
12.0
290
     0
  0
SCALE
  5
45E
102
{ACAD_REACTORS
330
444
102
}
330
444
100
AcDbScale
 70
     0
300
3/8" = 1'-0"
140
0.375
141
12.0
290
     0
  0
SCALE
  5
45F
102
{ACAD_REACTORS
330
444
102
}
330
444
100
AcDbScale
 70
     0
300
1/2" = 1'-0"
140
0.5
141
12.0
290
     0
  0
SCALE
  5
460
102
{ACAD_REACTORS
330
444
102
}
330
444
100
AcDbScale
 70
     0
300
3/4" = 1'-0"
140
0.75
141
12.0
290
     0
  0
SCALE
  5
461
102
{ACAD_REACTORS
330
444
102
}
330
444
100
AcDbScale
 70
     0
300
1" = 1'-0"
140
1.0
141
12.0
290
     0
  0
SCALE
  5
462
102
{ACAD_REACTORS
330
444
102
}
330
444
100
AcDbScale
 70
     0
300
1-1/2" = 1'-0"
140
1.5
141
12.0
290
     0
  0
SCALE
  5
463
102
{ACAD_REACTORS
330
444
102
}
330
444
100
AcDbScale
 70
     0
300
3" = 1'-0"
140
3.0
141
12.0
290
     0
  0
SCALE
  5
464
102
{ACAD_REACTORS
330
444
102
}
330
444
100
AcDbScale
 70
     0
300
6" = 1'-0"
140
6.0
141
12.0
290
     0
  0
SCALE
  5
465
102
{ACAD_REACTORS
330
444
102
}
330
444
100
AcDbScale
 70
     0
300
1'-0" = 1'-0"
140
12.0
141
12.0
290
     0
  0
TABLESTYLE
  5
467
102
{ACAD_REACTORS
330
466
102
}
102
{ACAD_XDICTIONARY
360
4E1
102
}
330
466
100
AcDbTableStyle
  3
Standard
 70
     0
 71
     0
 40
0.06
 41
0.06
280
     0
281
     0
  7
Standard
140
0.18
170
     2
 62
     0
 63
   257
283
     0
 90
        4
 91
        0
  1

274
    -2
284
     1
 64
     0
275
    -2
285
     1
 65
     0
276
    -2
286
     1
 66
     0
277
    -2
287
     1
 67
     0
278
    -2
288
     1
 68
     0
279
    -2
289
     1
 69
     0
  7
Standard
140
0.25
170
     5
 62
     0
 63
   257
283
     0
 90
        4
 91
        0
  1

274
    -2
284
     1
 64
     0
275
    -2
285
     1
 65
     0
276
    -2
286
     1
 66
     0
277
    -2
287
     1
 67
     0
278
    -2
288
     1
 68
     0
279
    -2
289
     1
 69
     0
  7
Standard
140
0.18
170
     5
 62
     0
 63
   257
283
     0
 90
        4
 91
        0
  1

274
    -2
284
     1
 64
     0
275
    -2
285
     1
 65
     0
276
    -2
286
     1
 66
     0
277
    -2
287
     1
 67
     0
278
    -2
288
     1
 68
     0
279
    -2
289
     1
 69
     0
  0
VISUALSTYLE
  5
42C
102
{ACAD_REACTORS
330
427
102
}
330
427
100
AcDbVisualStyle
  2
2dWireframe
 70
     4
177
     3
291
     0
 70
    58
 90
        0
176
     1
 90
        2
176
     1
 90
        0
176
     1
 90
        0
176
     1
 40
0.6
176
     1
 40
30.0
176
     1
 62
     7
420
 16777215
176
     1
 90
        1
176
     1
 90
        4
176
     1
 62
     7
176
     1
 62
   257
176
     1
 90
        1
176
     1
 90
        1
176
     1
 40
1.0
176
     1
 90
        0
176
     1
 62
   257
176
     1
 40
1.0
176
     1
 90
        1
176
     1
 90
        6
176
     1
 90
        2
176
     1
 62
     7
176
     1
 90
        5
176
     1
 90
        0
176
     1
 90
        0
176
     1
290
     0
176
     1
 90
        1
176
     1
 40
0.0
176
     1
 90
        0
176
     1
290
     1
176
     1
290
     1
176
     1
290
     0
176
     1
290
     0
176
     1
290
     0
176
     1
290
     0
176
     1
290
     0
176
     1
290
     0
176
     1
290
     0
176
     1
 90
       50
176
     1
 40
0.0
176
     1
 40
1.0
176
     1
 90
        0
176
     1
 62
    18
420
        0
176
     1
 90
       50
176
     1
 90
        3
176
     1
 62
     5
420
      255
176
     1
290
     0
176
     1
 90
       50
176
     1
 90
       50
176
     1
 90
       50
176
     1
290
     0
176
     1
 90
       50
176
     1
 62
   256
176
     0
 40
1.0
176
     0
 90
        2
176
     1
  1
strokes_ogs.tif
176
     1
290
     0
176
     1
 40
1.0
176
     1
 40
1.0
176
     1
  0
VISUALSTYLE
  5
42F
102
{ACAD_REACTORS
330
427
102
}
330
427
100
AcDbVisualStyle
  2
Basic
 70
     7
177
     3
291
     1
 70
    58
 90
        1
176
     1
 90
        0
176
     1
 90
        1
176
     1
 90
        0
176
     1
 40
0.6
176
     1
 40
30.0
176
     1
 62
     7
420
 16777215
176
     1
 90
        0
176
     1
 90
        4
176
     1
 62
     7
176
     1
 62
   257
176
     1
 90
        1
176
     1
 90
        1
176
     1
 40
1.0
176
     1
 90
        8
176
     1
 62
     7
176
     1
 40
1.0
176
     1
 90
        1
176
     1
 90
        6
176
     1
 90
        2
176
     1
 62
     7
176
     1
 90
        5
176
     1
 90
        0
176
     1
 90
        0
176
     1
290
     0
176
     1
 90
        1
176
     1
 40
0.0
176
     1
 90
        0
176
     1
290
     0
176
     1
290
     1
176
     1
290
     1
176
     1
290
     0
176
     1
290
     0
176
     1
290
     0
176
     1
290
     0
176
     1
290
     0
176
     1
290
     0
176
     1
 90
       50
176
     1
 40
0.0
176
     1
 40
1.0
176
     1
 90
        0
176
     1
 62
    18
420
        0
176
     1
 90
       50
176
     1
 90
        3
176
     1
 62
     5
420
      255
176
     1
290
     0
176
     1
 90
       50
176
     1
 90
       50
176
     1
 90
       50
176
     1
290
     0
176
     1
 90
       50
176
     1
 62
   256
176
     0
 40
1.0
176
     0
 90
        2
176
     1
  1
strokes_ogs.tif
176
     1
290
     0
176
     1
 40
1.0
176
     1
 40
1.0
176
     1
  0
VISUALSTYLE
  5
433
102
{ACAD_REACTORS
330
427
102
}
330
427
100
AcDbVisualStyle
  2
Brighten
 70
    12
177
     3
291
     1
 70
    58
 90
        2
176
     1
 90
        2
176
     1
 90
        0
176
     1
 90
        0
176
     1
 40
0.6
176
     1
 40
30.0
176
     1
 62
     7
420
 16777215
176
     1
 90
        1
176
     1
 90
        4
176
     1
 62
     7
176
     1
 62
   257
176
     1
 90
        1
176
     1
 90
        1
176
     1
 40
1.0
176
     1
 90
        8
176
     1
 62
     7
176
     1
 40
1.0
176
     1
 90
        1
176
     1
 90
        6
176
     1
 90
        2
176
     1
 62
     7
176
     1
 90
        5
176
     1
 90
        0
176
     1
 90
        0
176
     1
290
     0
176
     1
 90
        1
176
     1
 40
50.0
176
     1
 90
        0
176
     1
290
     0
176
     1
290
     1
176
     1
290
     1
176
     1
290
     0
176
     1
290
     0
176
     1
290
     0
176
     1
290
     0
176
     1
290
     0
176
     1
290
     0
176
     1
 90
       50
176
     1
 40
0.0
176
     1
 40
1.0
176
     1
 90
        0
176
     1
 62
    18
420
        0
176
     1
 90
       50
176
     1
 90
        3
176
     1
 62
     5
420
      255
176
     1
290
     0
176
     1
 90
       50
176
     1
 90
       50
176
     1
 90
       50
176
     1
290
     0
176
     1
 90
       50
176
     1
 62
   256
176
     0
 40
1.0
176
     0
 90
        2
176
     1
  1
strokes_ogs.tif
176
     1
290
     0
176
     1
 40
1.0
176
     1
 40
1.0
176
     1
  0
VISUALSTYLE
  5
437
102
{ACAD_REACTORS
330
427
102
}
330
427
100
AcDbVisualStyle
  2
ColorChange
 70
    16
177
     3
291
     1
 70
    58
 90
        2
176
     1
 90
        2
176
     1
 90
        3
176
     1
 90
        0
176
     1
 40
0.6
176
     1
 40
30.0
176
     1
 62
     8
420
  8421504
176
     1
 90
        1
176
     1
 90
        4
176
     1
 62
     7
176
     1
 62
   257
176
     1
 90
        1
176
     1
 90
        1
176
     1
 40
1.0
176
     1
 90
        8
176
     1
 62
     8
420
  8421504
176
     1
 40
1.0
176
     1
 90
        1
176
     1
 90
        6
176
     1
 90
        2
176
     1
 62
     7
176
     1
 90
        5
176
     1
 90
        0
176
     1
 90
        0
176
     1
290
     0
176
     1
 90
        1
176
     1
 40
0.0
176
     1
 90
        0
176
     1
290
     0
176
     1
290
     1
176
     1
290
     1
176
     1
290
     0
176
     1
290
     0
176
     1
290
     0
176
     1
290
     0
176
     1
290
     0
176
     1
290
     0
176
     1
 90
       50
176
     1
 40
0.0
176
     1
 40
1.0
176
     1
 90
        0
176
     1
 62
    18
420
        0
176
     1
 90
       50
176
     1
 90
        3
176
     1
 62
     5
420
      255
176
     1
290
     0
176
     1
 90
       50
176
     1
 90
       50
176
     1
 90
       50
176
     1
290
     0
176
     1
 90
       50
176
     1
 62
   256
176
     0
 40
1.0
176
     0
 90
        2
176
     1
  1
strokes_ogs.tif
176
     1
290
     0
176
     1
 40
1.0
176
     1
 40
1.0
176
     1
  0
VISUALSTYLE
  5
431
102
{ACAD_REACTORS
330
427
102
}
330
427
100
AcDbVisualStyle
  2
Conceptual
 70
     9
177
     3
291
     0
 70
    58
 90
        3
176
     1
 90
        2
176
     1
 90
        0
176
     1
 90
        0
176
     1
 40
0.6
176
     1
 40
30.0
176
     1
 62
     7
420
 16777215
176
     1
 90
        2
176
     1
 90
        2
176
     1
 62
     7
176
     1
 62
   257
176
     1
 90
        1
176
     1
 90
        1
176
     1
 40
179.0
176
     1
 90
        8
176
     1
 62
     7
176
     1
 40
1.0
176
     1
 90
        1
176
     1
 90
        6
176
     1
 90
        2
176
     1
 62
     7
176
     1
 90
        3
176
     1
 90
        0
176
     1
 90
        0
176
     1
290
     0
176
     1
 90
        1
176
     1
 40
0.0
176
     1
 90
        0
176
     1
290
     0
176
     1
290
     1
176
     1
290
     1
176
     1
290
     0
176
     1
290
     0
176
     1
290
     0
176
     1
290
     0
176
     1
290
     0
176
     1
290
     0
176
     1
 90
       50
176
     1
 40
0.0
176
     1
 40
1.0
176
     1
 90
        0
176
     1
 62
    18
420
        0
176
     1
 90
       50
176
     1
 90
        3
176
     1
 62
     5
420
      255
176
     1
290
     0
176
     1
 90
       50
176
     1
 90
       50
176
     1
 90
       50
176
     1
290
     0
176
     1
 90
       50
176
     1
 62
   256
176
     0
 40
1.0
176
     0
 90
        2
176
     1
  1
strokes_ogs.tif
176
     1
290
     0
176
     1
 40
1.0
176
     1
 40
1.0
176
     1
  0
VISUALSTYLE
  5
432
102
{ACAD_REACTORS
330
427
102
}
330
427
100
AcDbVisualStyle
  2
Dim
 70
    11
177
     3
291
     1
 70
    58
 90
        2
176
     1
 90
        2
176
     1
 90
        0
176
     1
 90
        0
176
     1
 40
0.6
176
     1
 40
30.0
176
     1
 62
     7
420
 16777215
176
     1
 90
        1
176
     1
 90
        4
176
     1
 62
     7
176
     1
 62
   257
176
     1
 90
        1
176
     1
 90
        1
176
     1
 40
1.0
176
     1
 90
        8
176
     1
 62
     7
176
     1
 40
1.0
176
     1
 90
        1
176
     1
 90
        6
176
     1
 90
        2
176
     1
 62
     7
176
     1
 90
        5
176
     1
 90
        0
176
     1
 90
        0
176
     1
290
     0
176
     1
 90
        1
176
     1
 40
-50.0
176
     1
 90
        0
176
     1
290
     0
176
     1
290
     1
176
     1
290
     1
176
     1
290
     0
176
     1
290
     0
176
     1
290
     0
176
     1
290
     0
176
     1
290
     0
176
     1
290
     0
176
     1
 90
       50
176
     1
 40
0.0
176
     1
 40
1.0
176
     1
 90
        0
176
     1
 62
    18
420
        0
176
     1
 90
       50
176
     1
 90
        3
176
     1
 62
     5
420
      255
176
     1
290
     0
176
     1
 90
       50
176
     1
 90
       50
176
     1
 90
       50
176
     1
290
     0
176
     1
 90
       50
176
     1
 62
   256
176
     0
 40
1.0
176
     0
 90
        2
176
     1
  1
strokes_ogs.tif
176
     1
290
     0
176
     1
 40
1.0
176
     1
 40
1.0
176
     1
  0
VISUALSTYLE
  5
43A
102
{ACAD_REACTORS
330
427
102
}
330
427
100
AcDbVisualStyle
  2
EdgeColorOff
 70
    22
177
     3
291
     1
 70
    58
 90
        2
176
     0
 90
        2
176
     0
 90
        0
176
     0
 90
        0
176
     0
 40
0.6
176
     0
 40
30.0
176
     0
 62
     7
420
 16777215
176
     0
 90
        1
176
     0
 90
        4
176
     0
 62
     7
176
     0
 62
   257
176
     0
 90
        1
176
     0
 90
        1
176
     0
 40
1.0
176
     0
 90
        8
176
     2
 62
     7
176
     0
 40
1.0
176
     0
 90
        1
176
     0
 90
        6
176
     0
 90
        2
176
     0
 62
     7
176
     0
 90
        5
176
     0
 90
        0
176
     0
 90
        0
176
     0
290
     0
176
     0
 90
        1
176
     0
 40
0.0
176
     0
 90
        0
176
     0
290
     0
176
     0
290
     1
176
     0
290
     1
176
     0
290
     0
176
     0
290
     0
176
     0
290
     0
176
     0
290
     0
176
     0
290
     0
176
     0
290
     0
176
     0
 90
       50
176
     0
 40
0.0
176
     0
 40
1.0
176
     0
 90
        0
176
     0
 62
    18
420
        0
176
     0
 90
       50
176
     0
 90
        3
176
     0
 62
     5
420
      255
176
     0
290
     0
176
     0
 90
       50
176
     0
 90
       50
176
     0
 90
       50
176
     0
290
     0
176
     0
 90
       50
176
     0
 62
   256
176
     0
 40
1.0
176
     0
 90
        2
176
     0
  1
strokes_ogs.tif
176
     0
290
     0
176
     0
 40
1.0
176
     0
 40
1.0
176
     0
  0
VISUALSTYLE
  5
436
102
{ACAD_REACTORS
330
427
102
}
330
427
100
AcDbVisualStyle
  2
Facepattern
 70
    15
177
     3
291
     1
 70
    58
 90
        2
176
     1
 90
        2
176
     1
 90
        0
176
     1
 90
        0
176
     1
 40
0.6
176
     1
 40
30.0
176
     1
 62
     7
420
 16777215
176
     1
 90
        1
176
     1
 90
        4
176
     1
 62
     7
176
     1
 62
   257
176
     1
 90
        1
176
     1
 90
        1
176
     1
 40
1.0
176
     1
 90
        8
176
     1
 62
     7
176
     1
 40
1.0
176
     1
 90
        1
176
     1
 90
        6
176
     1
 90
        2
176
     1
 62
     7
176
     1
 90
        5
176
     1
 90
        0
176
     1
 90
        0
176
     1
290
     0
176
     1
 90
        1
176
     1
 40
0.0
176
     1
 90
        0
176
     1
290
     0
176
     1
290
     1
176
     1
290
     1
176
     1
290
     0
176
     1
290
     0
176
     1
290
     0
176
     1
290
     0
176
     1
290
     0
176
     1
290
     0
176
     1
 90
       50
176
     1
 40
0.0
176
     1
 40
1.0
176
     1
 90
        0
176
     1
 62
    18
420
        0
176
     1
 90
       50
176
     1
 90
        3
176
     1
 62
     5
420
      255
176
     1
290
     0
176
     1
 90
       50
176
     1
 90
       50
176
     1
 90
       50
176
     1
290
     0
176
     1
 90
       50
176
     1
 62
   256
176
     0
 40
1.0
176
     0
 90
        2
176
     1
  1
strokes_ogs.tif
176
     1
290
     0
176
     1
 40
1.0
176
     1
 40
1.0
176
     1
  0
VISUALSTYLE
  5
428
102
{ACAD_REACTORS
330
427
102
}
330
427
100
AcDbVisualStyle
  2
Flat
 70
     0
177
     3
291
     1
 70
    58
 90
        2
176
     1
 90
        1
176
     1
 90
        1
176
     1
 90
        2
176
     1
 40
0.6
176
     1
 40
30.0
176
     1
 62
     7
420
 16777215
176
     1
 90
        0
176
     1
 90
        0
176
     1
 62
     7
176
     1
 62
   257
176
     1
 90
        1
176
     1
 90
        1
176
     1
 40
1.0
176
     1
 90
        8
176
     1
 62
     7
176
     1
 40
1.0
176
     1
 90
        1
176
     1
 90
        6
176
     1
 90
        2
176
     1
 62
     7
176
     1
 90
        5
176
     1
 90
        0
176
     1
 90
        0
176
     1
290
     0
176
     1
 90
       13
176
     1
 40
0.0
176
     1
 90
        0
176
     1
290
     0
176
     1
290
     1
176
     1
290
     1
176
     1
290
     0
176
     1
290
     0
176
     1
290
     0
176
     1
290
     0
176
     1
290
     0
176
     1
290
     0
176
     1
 90
       50
176
     1
 40
0.0
176
     1
 40
1.0
176
     1
 90
        0
176
     1
 62
    18
420
        0
176
     1
 90
       50
176
     1
 90
        3
176
     1
 62
     5
420
      255
176
     1
290
     0
176
     1
 90
       50
176
     1
 90
       50
176
     1
 90
       50
176
     1
290
     0
176
     1
 90
       50
176
     1
 62
   256
176
     0
 40
1.0
176
     0
 90
        2
176
     1
  1
strokes_ogs.tif
176
     1
290
     0
176
     1
 40
1.0
176
     1
 40
1.0
176
     1
  0
VISUALSTYLE
  5
429
102
{ACAD_REACTORS
330
427
102
}
330
427
100
AcDbVisualStyle
  2
FlatWithEdges
 70
     1
177
     3
291
     1
 70
    58
 90
        2
176
     1
 90
        1
176
     1
 90
        1
176
     1
 90
        2
176
     1
 40
0.6
176
     1
 40
30.0
176
     1
 62
     7
420
 16777215
176
     1
 90
        1
176
     1
 90
        0
176
     1
 62
     7
176
     1
 62
   257
176
     1
 90
        1
176
     1
 90
        1
176
     1
 40
1.0
176
     1
 90
        0
176
     1
 62
   257
176
     1
 40
1.0
176
     1
 90
        1
176
     1
 90
        6
176
     1
 90
        2
176
     1
 62
     7
176
     1
 90
        5
176
     1
 90
        0
176
     1
 90
        0
176
     1
290
     0
176
     1
 90
       13
176
     1
 40
0.0
176
     1
 90
        0
176
     1
290
     0
176
     1
290
     1
176
     1
290
     1
176
     1
290
     0
176
     1
290
     0
176
     1
290
     0
176
     1
290
     0
176
     1
290
     0
176
     1
290
     0
176
     1
 90
       50
176
     1
 40
0.0
176
     1
 40
1.0
176
     1
 90
        0
176
     1
 62
    18
420
        0
176
     1
 90
       50
176
     1
 90
        3
176
     1
 62
     5
420
      255
176
     1
290
     0
176
     1
 90
       50
176
     1
 90
       50
176
     1
 90
       50
176
     1
290
     0
176
     1
 90
       50
176
     1
 62
   256
176
     0
 40
1.0
176
     0
 90
        2
176
     1
  1
strokes_ogs.tif
176
     1
290
     0
176
     1
 40
1.0
176
     1
 40
1.0
176
     1
  0
VISUALSTYLE
  5
42A
102
{ACAD_REACTORS
330
427
102
}
330
427
100
AcDbVisualStyle
  2
Gouraud
 70
     2
177
     3
291
     1
 70
    58
 90
        2
176
     1
 90
        2
176
     1
 90
        1
176
     1
 90
        2
176
     1
 40
0.6
176
     1
 40
30.0
176
     1
 62
     7
420
 16777215
176
     1
 90
        0
176
     1
 90
        0
176
     1
 62
     7
176
     1
 62
   257
176
     1
 90
        1
176
     1
 90
        1
176
     1
 40
1.0
176
     1
 90
        0
176
     1
 62
     7
176
     1
 40
1.0
176
     1
 90
        1
176
     1
 90
        6
176
     1
 90
        2
176
     1
 62
     7
176
     1
 90
        5
176
     1
 90
        0
176
     1
 90
        0
176
     1
290
     0
176
     1
 90
       13
176
     1
 40
0.0
176
     1
 90
        0
176
     1
290
     0
176
     1
290
     1
176
     1
290
     1
176
     1
290
     0
176
     1
290
     0
176
     1
290
     0
176
     1
290
     0
176
     1
290
     0
176
     1
290
     0
176
     1
 90
       50
176
     1
 40
0.0
176
     1
 40
1.0
176
     1
 90
        0
176
     1
 62
    18
420
        0
176
     1
 90
       50
176
     1
 90
        3
176
     1
 62
     5
420
      255
176
     1
290
     0
176
     1
 90
       50
176
     1
 90
       50
176
     1
 90
       50
176
     1
290
     0
176
     1
 90
       50
176
     1
 62
   256
176
     0
 40
1.0
176
     0
 90
        2
176
     1
  1
strokes_ogs.tif
176
     1
290
     0
176
     1
 40
1.0
176
     1
 40
1.0
176
     1
  0
VISUALSTYLE
  5
42B
102
{ACAD_REACTORS
330
427
102
}
330
427
100
AcDbVisualStyle
  2
GouraudWithEdges
 70
     3
177
     3
291
     1
 70
    58
 90
        2
176
     1
 90
        2
176
     1
 90
        1
176
     1
 90
        2
176
     1
 40
0.6
176
     1
 40
30.0
176
     1
 62
     7
420
 16777215
176
     1
 90
        1
176
     1
 90
        0
176
     1
 62
     7
176
     1
 62
   257
176
     1
 90
        1
176
     1
 90
        1
176
     1
 40
1.0
176
     1
 90
        0
176
     1
 62
   257
176
     1
 40
1.0
176
     1
 90
        1
176
     1
 90
        6
176
     1
 90
        2
176
     1
 62
     7
176
     1
 90
        5
176
     1
 90
        0
176
     1
 90
        0
176
     1
290
     0
176
     1
 90
       13
176
     1
 40
0.0
176
     1
 90
        0
176
     1
290
     0
176
     1
290
     1
176
     1
290
     1
176
     1
290
     0
176
     1
290
     0
176
     1
290
     0
176
     1
290
     0
176
     1
290
     0
176
     1
290
     0
176
     1
 90
       50
176
     1
 40
0.0
176
     1
 40
1.0
176
     1
 90
        0
176
     1
 62
    18
420
        0
176
     1
 90
       50
176
     1
 90
        3
176
     1
 62
     5
420
      255
176
     1
290
     0
176
     1
 90
       50
176
     1
 90
       50
176
     1
 90
       50
176
     1
290
     0
176
     1
 90
       50
176
     1
 62
   256
176
     0
 40
1.0
176
     0
 90
        2
176
     1
  1
strokes_ogs.tif
176
     1
290
     0
176
     1
 40
1.0
176
     1
 40
1.0
176
     1
  0
VISUALSTYLE
  5
42E
102
{ACAD_REACTORS
330
427
102
}
330
427
100
AcDbVisualStyle
  2
Hidden
 70
     6
177
     3
291
     0
 70
    58
 90
        1
176
     1
 90
        2
176
     1
 90
        2
176
     1
 90
        0
176
     1
 40
0.6
176
     1
 40
30.0
176
     1
 62
     7
420
 16777215
176
     1
 90
        2
176
     1
 90
        2
176
     1
 62
     7
176
     1
 62
   257
176
     1
 90
        2
176
     1
 90
        1
176
     1
 40
40.0
176
     1
 90
        0
176
     1
 62
   257
176
     1
 40
1.0
176
     1
 90
        1
176
     1
 90
        6
176
     1
 90
        2
176
     1
 62
     7
176
     1
 90
        3
176
     1
 90
        0
176
     1
 90
        0
176
     1
290
     0
176
     1
 90
        1
176
     1
 40
0.0
176
     1
 90
        0
176
     1
290
     0
176
     1
290
     1
176
     1
290
     1
176
     1
290
     0
176
     1
290
     0
176
     1
290
     0
176
     1
290
     0
176
     1
290
     0
176
     1
290
     0
176
     1
 90
       50
176
     1
 40
0.0
176
     1
 40
1.0
176
     1
 90
        0
176
     1
 62
    18
420
        0
176
     1
 90
       50
176
     1
 90
        3
176
     1
 62
     5
420
      255
176
     1
290
     0
176
     1
 90
       50
176
     1
 90
       50
176
     1
 90
       50
176
     1
290
     0
176
     1
 90
       50
176
     1
 62
   256
176
     0
 40
1.0
176
     0
 90
        2
176
     1
  1
strokes_ogs.tif
176
     1
290
     0
176
     1
 40
1.0
176
     1
 40
1.0
176
     1
  0
VISUALSTYLE
  5
438
102
{ACAD_REACTORS
330
427
102
}
330
427
100
AcDbVisualStyle
  2
JitterOff
 70
    20
177
     3
291
     1
 70
    58
 90
        2
176
     0
 90
        2
176
     0
 90
        0
176
     0
 90
        0
176
     0
 40
0.6
176
     0
 40
30.0
176
     0
 62
     7
420
 16777215
176
     0
 90
        1
176
     0
 90
        4
176
     0
 62
     7
176
     0
 62
   257
176
     0
 90
        1
176
     0
 90
        1
176
     0
 40
1.0
176
     0
 90
       10
176
     2
 62
     7
176
     0
 40
1.0
176
     0
 90
        1
176
     0
 90
        6
176
     0
 90
        2
176
     0
 62
     7
176
     0
 90
        5
176
     0
 90
        0
176
     0
 90
        0
176
     0
290
     0
176
     0
 90
        1
176
     0
 40
0.0
176
     0
 90
        0
176
     0
290
     0
176
     0
290
     1
176
     0
290
     1
176
     0
290
     0
176
     0
290
     0
176
     0
290
     0
176
     0
290
     0
176
     0
290
     0
176
     0
290
     0
176
     0
 90
       50
176
     0
 40
0.0
176
     0
 40
1.0
176
     0
 90
        0
176
     0
 62
    18
420
        0
176
     0
 90
       50
176
     0
 90
        3
176
     0
 62
     5
420
      255
176
     0
290
     0
176
     0
 90
       50
176
     0
 90
       50
176
     0
 90
       50
176
     0
290
     0
176
     0
 90
       50
176
     0
 62
   256
176
     0
 40
1.0
176
     0
 90
        2
176
     0
  1
strokes_ogs.tif
176
     0
290
     0
176
     0
 40
1.0
176
     0
 40
1.0
176
     0
  0
VISUALSTYLE
  5
435
102
{ACAD_REACTORS
330
427
102
}
330
427
100
AcDbVisualStyle
  2
Linepattern
 70
    14
177
     3
291
     1
 70
    58
 90
        2
176
     1
 90
        2
176
     1
 90
        0
176
     1
 90
        0
176
     1
 40
0.6
176
     1
 40
30.0
176
     1
 62
     7
420
 16777215
176
     1
 90
        1
176
     1
 90
        4
176
     1
 62
     7
176
     1
 62
   257
176
     1
 90
        7
176
     1
 90
        7
176
     1
 40
1.0
176
     1
 90
        8
176
     1
 62
     7
176
     1
 40
1.0
176
     1
 90
        1
176
     1
 90
        6
176
     1
 90
        2
176
     1
 62
     7
176
     1
 90
        5
176
     1
 90
        0
176
     1
 90
        0
176
     1
290
     0
176
     1
 90
        1
176
     1
 40
0.0
176
     1
 90
        0
176
     1
290
     0
176
     1
290
     1
176
     1
290
     1
176
     1
290
     0
176
     1
290
     0
176
     1
290
     0
176
     1
290
     0
176
     1
290
     0
176
     1
290
     0
176
     1
 90
       50
176
     1
 40
0.0
176
     1
 40
1.0
176
     1
 90
        0
176
     1
 62
    18
420
        0
176
     1
 90
       50
176
     1
 90
        3
176
     1
 62
     5
420
      255
176
     1
290
     0
176
     1
 90
       50
176
     1
 90
       50
176
     1
 90
       50
176
     1
290
     0
176
     1
 90
       50
176
     1
 62
   256
176
     0
 40
1.0
176
     0
 90
        2
176
     1
  1
strokes_ogs.tif
176
     1
290
     0
176
     1
 40
1.0
176
     1
 40
1.0
176
     1
  0
VISUALSTYLE
  5
439
102
{ACAD_REACTORS
330
427
102
}
330
427
100
AcDbVisualStyle
  2
OverhangOff
 70
    21
177
     3
291
     1
 70
    58
 90
        2
176
     0
 90
        2
176
     0
 90
        0
176
     0
 90
        0
176
     0
 40
0.6
176
     0
 40
30.0
176
     0
 62
     7
420
 16777215
176
     0
 90
        1
176
     0
 90
        4
176
     0
 62
     7
176
     0
 62
   257
176
     0
 90
        1
176
     0
 90
        1
176
     0
 40
1.0
176
     0
 90
        9
176
     2
 62
     7
176
     0
 40
1.0
176
     0
 90
        1
176
     0
 90
        6
176
     0
 90
        2
176
     0
 62
     7
176
     0
 90
        5
176
     0
 90
        0
176
     0
 90
        0
176
     0
290
     0
176
     0
 90
        1
176
     0
 40
0.0
176
     0
 90
        0
176
     0
290
     0
176
     0
290
     1
176
     0
290
     1
176
     0
290
     0
176
     0
290
     0
176
     0
290
     0
176
     0
290
     0
176
     0
290
     0
176
     0
290
     0
176
     0
 90
       50
176
     0
 40
0.0
176
     0
 40
1.0
176
     0
 90
        0
176
     0
 62
    18
420
        0
176
     0
 90
       50
176
     0
 90
        3
176
     0
 62
     5
420
      255
176
     0
290
     0
176
     0
 90
       50
176
     0
 90
       50
176
     0
 90
       50
176
     0
290
     0
176
     0
 90
       50
176
     0
 62
   256
176
     0
 40
1.0
176
     0
 90
        2
176
     0
  1
strokes_ogs.tif
176
     0
290
     0
176
     0
 40
1.0
176
     0
 40
1.0
176
     0
  0
VISUALSTYLE
  5
430
102
{ACAD_REACTORS
330
427
102
}
330
427
100
AcDbVisualStyle
  2
Realistic
 70
     8
177
     3
291
     0
 70
    58
 90
        2
176
     1
 90
        3
176
     1
 90
        0
176
     1
 90
        2
176
     1
 40
0.6
176
     1
 40
30.0
176
     1
 62
     7
420
 16777215
176
     1
 90
        0
176
     1
 90
        0
176
     1
 62
     7
176
     1
 62
   257
176
     1
 90
        1
176
     1
 90
        1
176
     1
 40
1.0
176
     1
 90
        8
176
     1
 62
   257
176
     1
 40
1.0
176
     1
 90
        1
176
     1
 90
        6
176
     1
 90
        2
176
     1
 62
     7
176
     1
 90
        3
176
     1
 90
        0
176
     1
 90
        0
176
     1
290
     0
176
     1
 90
       13
176
     1
 40
0.0
176
     1
 90
        0
176
     1
290
     0
176
     1
290
     1
176
     1
290
     1
176
     1
290
     0
176
     1
290
     0
176
     1
290
     0
176
     1
290
     0
176
     1
290
     0
176
     1
290
     0
176
     1
 90
       50
176
     1
 40
0.0
176
     1
 40
1.0
176
     1
 90
        0
176
     1
 62
    18
420
        0
176
     1
 90
       50
176
     1
 90
        3
176
     1
 62
     5
420
      255
176
     1
290
     0
176
     1
 90
       50
176
     1
 90
       50
176
     1
 90
       50
176
     1
290
     0
176
     1
 90
       50
176
     1
 62
   256
176
     0
 40
1.0
176
     0
 90
        2
176
     1
  1
strokes_ogs.tif
176
     1
290
     0
176
     1
 40
1.0
176
     1
 40
1.0
176
     1
  0
VISUALSTYLE
  5
43F
102
{ACAD_REACTORS
330
427
102
}
330
427
100
AcDbVisualStyle
  2
Shaded
 70
    27
177
     3
291
     0
 70
    58
 90
        2
176
     1
 90
        2
176
     1
 90
        1
176
     1
 90
        2
176
     1
 40
0.6
176
     1
 40
30.0
176
     1
 62
     7
420
 16777215
176
     1
 90
        0
176
     1
 90
        4
176
     1
 62
     7
176
     1
 62
   257
176
     1
 90
        1
176
     1
 90
        1
176
     1
 40
1.0
176
     1
 90
        8
176
     1
 62
   257
176
     1
 40
1.0
176
     1
 90
        1
176
     1
 90
        6
176
     1
 90
        2
176
     1
 62
     8
420
  7895160
176
     1
 90
        3
176
     1
 90
        0
176
     1
 90
        0
176
     1
290
     0
176
     1
 90
        5
176
     1
 40
0.0
176
     1
 90
        0
176
     1
290
     0
176
     1
290
     1
176
     1
290
     1
176
     1
290
     0
176
     1
290
     0
176
     1
290
     0
176
     1
290
     0
176
     1
290
     0
176
     1
290
     0
176
     1
 90
       50
176
     1
 40
0.0
176
     1
 40
1.0
176
     1
 90
        0
176
     1
 62
    18
420
        0
176
     1
 90
       50
176
     1
 90
        3
176
     1
 62
     5
420
      255
176
     1
290
     0
176
     1
 90
       50
176
     1
 90
       50
176
     1
 90
       50
176
     1
290
     0
176
     1
 90
       50
176
     1
 62
   256
176
     0
 40
1.0
176
     0
 90
        2
176
     1
  1
strokes_ogs.tif
176
     1
290
     0
176
     1
 40
1.0
176
     1
 40
1.0
176
     1
  0
VISUALSTYLE
  5
43E
102
{ACAD_REACTORS
330
427
102
}
330
427
100
AcDbVisualStyle
  2
Shaded with edges
 70
    26
177
     3
291
     0
 70
    58
 90
        2
176
     1
 90
        2
176
     1
 90
        1
176
     1
 90
        2
176
     1
 40
0.6
176
     1
 40
30.0
176
     1
 62
     7
420
 16777215
176
     1
 90
        1
176
     1
 90
       10
176
     1
 62
     7
176
     1
 62
   257
176
     1
 90
        2
176
     1
 90
        1
176
     1
 40
1.0
176
     1
 90
        8
176
     1
 62
   257
176
     1
 40
1.0
176
     1
 90
        1
176
     1
 90
        6
176
     1
 90
        2
176
     1
 62
     7
176
     1
 90
        3
176
     1
 90
        0
176
     1
 90
        0
176
     1
290
     0
176
     1
 90
        5
176
     1
 40
0.0
176
     1
 90
        0
176
     1
290
     0
176
     1
290
     1
176
     1
290
     1
176
     1
290
     0
176
     1
290
     0
176
     1
290
     0
176
     1
290
     0
176
     1
290
     0
176
     1
290
     0
176
     1
 90
       50
176
     1
 40
0.0
176
     1
 40
1.0
176
     1
 90
        0
176
     1
 62
    18
420
        0
176
     1
 90
       50
176
     1
 90
        3
176
     1
 62
     5
420
      255
176
     1
290
     0
176
     1
 90
       50
176
     1
 90
       50
176
     1
 90
       50
176
     1
290
     0
176
     1
 90
       50
176
     1
 62
   256
176
     0
 40
1.0
176
     0
 90
        2
176
     1
  1
strokes_ogs.tif
176
     1
290
     0
176
     1
 40
1.0
176
     1
 40
1.0
176
     1
  0
VISUALSTYLE
  5
43B
102
{ACAD_REACTORS
330
427
102
}
330
427
100
AcDbVisualStyle
  2
Shades of Gray
 70
    23
177
     3
291
     0
 70
    58
 90
        2
176
     1
 90
        2
176
     1
 90
        3
176
     1
 90
        0
176
     1
 40
0.6
176
     1
 40
30.0
176
     1
 62
     7
420
 16777215
176
     1
 90
        2
176
     1
 90
        2
176
     1
 62
     7
176
     1
 62
     7
176
     1
 90
        1
176
     1
 90
        1
176
     1
 40
40.0
176
     1
 90
        8
176
     1
 62
     7
176
     1
 40
1.0
176
     1
 90
        1
176
     1
 90
        6
176
     1
 90
        2
176
     1
 62
     7
176
     1
 90
        3
176
     1
 90
        0
176
     1
 90
        0
176
     1
290
     0
176
     1
 90
        1
176
     1
 40
0.0
176
     1
 90
        0
176
     1
290
     0
176
     1
290
     1
176
     1
290
     1
176
     1
290
     0
176
     1
290
     0
176
     1
290
     0
176
     1
290
     0
176
     1
290
     0
176
     1
290
     0
176
     1
 90
       50
176
     1
 40
0.0
176
     1
 40
1.0
176
     1
 90
        0
176
     1
 62
    18
420
        0
176
     1
 90
       50
176
     1
 90
        3
176
     1
 62
     5
420
      255
176
     1
290
     0
176
     1
 90
       50
176
     1
 90
       50
176
     1
 90
       50
176
     1
290
     0
176
     1
 90
       50
176
     1
 62
   256
176
     0
 40
1.0
176
     0
 90
        2
176
     1
  1
strokes_ogs.tif
176
     1
290
     0
176
     1
 40
1.0
176
     1
 40
1.0
176
     1
  0
VISUALSTYLE
  5
43C
102
{ACAD_REACTORS
330
427
102
}
330
427
100
AcDbVisualStyle
  2
Sketchy
 70
    24
177
     3
291
     0
 70
    58
 90
        1
176
     1
 90
        2
176
     1
 90
        2
176
     1
 90
        0
176
     1
 40
0.6
176
     1
 40
30.0
176
     1
 62
     7
420
 16777215
176
     1
 90
        2
176
     1
 90
        2
176
     1
 62
     7
176
     1
 62
     7
176
     1
 90
        1
176
     1
 90
        1
176
     1
 40
40.0
176
     1
 90
       11
176
     1
 62
     7
176
     1
 40
1.0
176
     1
 90
        1
176
     1
 90
        6
176
     1
 90
        2
176
     1
 62
     7
176
     1
 90
        6
176
     1
 90
        0
176
     1
 90
        0
176
     1
290
     0
176
     1
 90
        1
176
     1
 40
0.0
176
     1
 90
        0
176
     1
290
     0
176
     1
290
     1
176
     1
290
     1
176
     1
290
     0
176
     1
290
     0
176
     1
290
     0
176
     1
290
     0
176
     1
290
     0
176
     1
290
     0
176
     1
 90
       50
176
     1
 40
0.0
176
     1
 40
1.0
176
     1
 90
        0
176
     1
 62
    18
420
        0
176
     1
 90
       50
176
     1
 90
        3
176
     1
 62
     5
420
      255
176
     1
290
     0
176
     1
 90
       50
176
     1
 90
       50
176
     1
 90
       50
176
     1
290
     0
176
     1
 90
       50
176
     1
 62
   256
176
     0
 40
1.0
176
     0
 90
        2
176
     1
  1
strokes_ogs.tif
176
     1
290
     0
176
     1
 40
1.0
176
     1
 40
1.0
176
     1
  0
VISUALSTYLE
  5
434
102
{ACAD_REACTORS
330
427
102
}
330
427
100
AcDbVisualStyle
  2
Thicken
 70
    13
177
     3
291
     1
 70
    58
 90
        2
176
     1
 90
        2
176
     1
 90
        0
176
     1
 90
        0
176
     1
 40
0.6
176
     1
 40
30.0
176
     1
 62
     7
420
 16777215
176
     1
 90
        1
176
     1
 90
        4
176
     1
 62
     7
176
     1
 62
   257
176
     1
 90
        1
176
     1
 90
        1
176
     1
 40
1.0
176
     1
 90
       12
176
     1
 62
     7
176
     1
 40
1.0
176
     1
 90
        1
176
     1
 90
        6
176
     1
 90
        2
176
     1
 62
     7
176
     1
 90
        5
176
     1
 90
        0
176
     1
 90
        0
176
     1
290
     0
176
     1
 90
        1
176
     1
 40
0.0
176
     1
 90
        0
176
     1
290
     0
176
     1
290
     1
176
     1
290
     1
176
     1
290
     0
176
     1
290
     0
176
     1
290
     0
176
     1
290
     0
176
     1
290
     0
176
     1
290
     0
176
     1
 90
       50
176
     1
 40
0.0
176
     1
 40
1.0
176
     1
 90
        0
176
     1
 62
    18
420
        0
176
     1
 90
       50
176
     1
 90
        3
176
     1
 62
     5
420
      255
176
     1
290
     0
176
     1
 90
       50
176
     1
 90
       50
176
     1
 90
       50
176
     1
290
     0
176
     1
 90
       50
176
     1
 62
   256
176
     0
 40
1.0
176
     0
 90
        2
176
     1
  1
strokes_ogs.tif
176
     1
290
     0
176
     1
 40
1.0
176
     1
 40
1.0
176
     1
  0
VISUALSTYLE
  5
42D
102
{ACAD_REACTORS
330
427
102
}
330
427
100
AcDbVisualStyle
  2
Wireframe
 70
     5
177
     3
291
     0
 70
    58
 90
        0
176
     1
 90
        2
176
     1
 90
        0
176
     1
 90
        0
176
     1
 40
0.6
176
     1
 40
30.0
176
     1
 62
     7
420
 16777215
176
     1
 90
        1
176
     1
 90
        4
176
     1
 62
     7
176
     1
 62
   257
176
     1
 90
        1
176
     1
 90
        1
176
     1
 40
1.0
176
     1
 90
        0
176
     1
 62
   257
176
     1
 40
1.0
176
     1
 90
        1
176
     1
 90
        6
176
     1
 90
        2
176
     1
 62
     7
176
     1
 90
        3
176
     1
 90
        0
176
     1
 90
        0
176
     1
290
     0
176
     1
 90
        1
176
     1
 40
0.0
176
     1
 90
        0
176
     1
290
     0
176
     1
290
     1
176
     1
290
     1
176
     1
290
     0
176
     1
290
     0
176
     1
290
     0
176
     1
290
     0
176
     1
290
     0
176
     1
290
     0
176
     1
 90
       50
176
     1
 40
0.0
176
     1
 40
1.0
176
     1
 90
        0
176
     1
 62
    18
420
        0
176
     1
 90
       50
176
     1
 90
        3
176
     1
 62
     5
420
      255
176
     1
290
     0
176
     1
 90
       50
176
     1
 90
       50
176
     1
 90
       50
176
     1
290
     0
176
     1
 90
       50
176
     1
 62
   256
176
     0
 40
1.0
176
     0
 90
        2
176
     1
  1
strokes_ogs.tif
176
     1
290
     0
176
     1
 40
1.0
176
     1
 40
1.0
176
     1
  0
VISUALSTYLE
  5
43D
102
{ACAD_REACTORS
330
427
102
}
330
427
100
AcDbVisualStyle
  2
X-Ray
 70
    25
177
     3
291
     0
 70
    58
 90
        2
176
     1
 90
        2
176
     1
 90
        1
176
     1
 90
        1
176
     1
 40
0.5
176
     1
 40
30.0
176
     1
 62
     7
420
 16777215
176
     1
 90
        1
176
     1
 90
        0
176
     1
 62
     7
176
     1
 62
   257
176
     1
 90
        1
176
     1
 90
        1
176
     1
 40
1.0
176
     1
 90
        8
176
     1
 62
     7
176
     1
 40
1.0
176
     1
 90
        1
176
     1
 90
        6
176
     1
 90
        2
176
     1
 62
     7
176
     1
 90
        3
176
     1
 90
        0
176
     1
 90
        0
176
     1
290
     0
176
     1
 90
       13
176
     1
 40
0.0
176
     1
 90
        0
176
     1
290
     0
176
     1
290
     1
176
     1
290
     1
176
     1
290
     0
176
     1
290
     0
176
     1
290
     0
176
     1
290
     0
176
     1
290
     0
176
     1
290
     0
176
     1
 90
       50
176
     1
 40
0.0
176
     1
 40
1.0
176
     1
 90
        0
176
     1
 62
    18
420
        0
176
     1
 90
       50
176
     1
 90
        3
176
     1
 62
     5
420
      255
176
     1
290
     0
176
     1
 90
       50
176
     1
 90
       50
176
     1
 90
       50
176
     1
290
     0
176
     1
 90
       50
176
     1
 62
   256
176
     0
 40
1.0
176
     0
 90
        2
176
     1
  1
strokes_ogs.tif
176
     1
290
     0
176
     1
 40
1.0
176
     1
 40
1.0
176
     1
  0
DICTIONARYVAR
  5
4E0
102
{ACAD_REACTORS
330
4DF
102
}
330
4DF
100
DictionaryVariables
280
     0
  1
1:1
  0
DICTIONARYVAR
  5
4E5
102
{ACAD_REACTORS
330
4DF
102
}
330
4DF
100
DictionaryVariables
280
     0
  1
Standard
  0
DICTIONARYVAR
  5
4E4
102
{ACAD_REACTORS
330
4DF
102
}
330
4DF
100
DictionaryVariables
280
     0
  1
Standard
  0
XRECORD
  5
46E
102
{ACAD_REACTORS
330
46C
102
}
330
46C
100
AcDbXrecord
280
     1
1000
#ffffff
  0
XRECORD
  5
46F
102
{ACAD_REACTORS
330
46C
102
}
330
46C
100
AcDbXrecord
280
     1
1000
FullColor
  0
XRECORD
  5
470
102
{ACAD_REACTORS
330
46C
102
}
330
46C
100
AcDbXrecord
280
     1
290
     1
  0
XRECORD
  5
471
102
{ACAD_REACTORS
330
46C
102
}
330
46C
100
AcDbXrecord
280
     1
290
     1
  0
XRECORD
  5
472
102
{ACAD_REACTORS
330
46C
102
}
330
46C
100
AcDbXrecord
280
     1
290
     1
  0
XRECORD
  5
473
102
{ACAD_REACTORS
330
46C
102
}
330
46C
100
AcDbXrecord
280
     1
290
     1
  0
XRECORD
  5
474
102
{ACAD_REACTORS
330
46C
102
}
330
46C
100
AcDbXrecord
280
     1
1000
auto
  0
XRECORD
  5
475
102
{ACAD_REACTORS
330
46C
102
}
330
46C
100
AcDbXrecord
280
     1
1000
auto
  0
XRECORD
  5
476
102
{ACAD_REACTORS
330
46C
102
}
330
46C
100
AcDbXrecord
280
     1
1000
auto
  0
XRECORD
  5
477
102
{ACAD_REACTORS
330
46C
102
}
330
46C
100
AcDbXrecord
280
     1
1000
auto
  0
XRECORD
  5
478
102
{ACAD_REACTORS
330
46C
102
}
330
46C
100
AcDbXrecord
280
     1
1000
auto
  0
XRECORD
  5
479
102
{ACAD_REACTORS
330
46C
102
}
330
46C
100
AcDbXrecord
280
     1
1000
auto
  0
XRECORD
  5
47A
102
{ACAD_REACTORS
330
46C
102
}
330
46C
100
AcDbXrecord
280
     1
1000
auto
  0
XRECORD
  5
47B
102
{ACAD_REACTORS
330
46C
102
}
330
46C
100
AcDbXrecord
280
     1
1000
auto
  0
XRECORD
  5
47C
102
{ACAD_REACTORS
330
46C
102
}
330
46C
100
AcDbXrecord
280
     1
290
     0
  0
XRECORD
  5
47D
102
{ACAD_REACTORS
330
46C
102
}
330
46C
100
AcDbXrecord
280
     1
290
     0
  0
XRECORD
  5
47E
102
{ACAD_REACTORS
330
46C
102
}
330
46C
100
AcDbXrecord
280
     1
290
     0
  0
XRECORD
  5
47F
102
{ACAD_REACTORS
330
46C
102
}
330
46C
100
AcDbXrecord
280
     1
290
     0
  0
XRECORD
  5
480
102
{ACAD_REACTORS
330
46C
102
}
330
46C
100
AcDbXrecord
280
     1
 90
        0
  0
XRECORD
  5
481
102
{ACAD_REACTORS
330
46C
102
}
330
46C
100
AcDbXrecord
280
     1
 90
        0
  0
XRECORD
  5
482
102
{ACAD_REACTORS
330
46C
102
}
330
46C
100
AcDbXrecord
280
     1
 90
        0
  0
XRECORD
  5
483
102
{ACAD_REACTORS
330
46C
102
}
330
46C
100
AcDbXrecord
280
     1
 90
        0
  0
XRECORD
  5
484
102
{ACAD_REACTORS
330
46C
102
}
330
46C
100
AcDbXrecord
280
     1
1000
auto
  0
XRECORD
  5
485
102
{ACAD_REACTORS
330
46C
102
}
330
46C
100
AcDbXrecord
280
     1
1000
auto
  0
XRECORD
  5
486
102
{ACAD_REACTORS
330
46C
102
}
330
46C
100
AcDbXrecord
280
     1
1000
auto
  0
XRECORD
  5
487
102
{ACAD_REACTORS
330
46C
102
}
330
46C
100
AcDbXrecord
280
     1
1000
auto
  0
XRECORD
  5
488
102
{ACAD_REACTORS
330
46C
102
}
330
46C
100
AcDbXrecord
280
     1
1000
auto
  0
XRECORD
  5
489
102
{ACAD_REACTORS
330
46C
102
}
330
46C
100
AcDbXrecord
280
     1
1000
auto
  0
XRECORD
  5
48A
102
{ACAD_REACTORS
330
46C
102
}
330
46C
100
AcDbXrecord
280
     1
1000
auto
  0
XRECORD
  5
48B
102
{ACAD_REACTORS
330
46C
102
}
330
46C
100
AcDbXrecord
280
     1
1000
auto
  0
XRECORD
  5
48C
102
{ACAD_REACTORS
330
46C
102
}
330
46C
100
AcDbXrecord
280
     1
 90
        1
  0
XRECORD
  5
48D
102
{ACAD_REACTORS
330
46C
102
}
330
46C
100
AcDbXrecord
280
     1
 40
10.0
  0
XRECORD
  5
48E
102
{ACAD_REACTORS
330
46C
102
}
330
46C
100
AcDbXrecord
280
     1
 40
10.0
  0
XRECORD
  5
48F
102
{ACAD_REACTORS
330
46C
102
}
330
46C
100
AcDbXrecord
280
     1
 40
10.0
  0
XRECORD
  5
490
102
{ACAD_REACTORS
330
46C
102
}
330
46C
100
AcDbXrecord
280
     1
 40
10.0
  0
XRECORD
  5
491
102
{ACAD_REACTORS
330
46C
102
}
330
46C
100
AcDbXrecord
280
     1
290
     0
  0
XRECORD
  5
492
102
{ACAD_REACTORS
330
46C
102
}
330
46C
100
AcDbXrecord
280
     1
 90
        1
  0
XRECORD
  5
493
102
{ACAD_REACTORS
330
46C
102
}
330
46C
100
AcDbXrecord
280
     1
 40
0.0
  0
XRECORD
  5
494
102
{ACAD_REACTORS
330
46C
102
}
330
46C
100
AcDbXrecord
280
     1
 40
0.0
  0
XRECORD
  5
495
102
{ACAD_REACTORS
330
46C
102
}
330
46C
100
AcDbXrecord
280
     1
1000
Portrait
  0
XRECORD
  5
496
102
{ACAD_REACTORS
330
46C
102
}
330
46C
100
AcDbXrecord
280
     1
 40
279.4
  0
XRECORD
  5
497
102
{ACAD_REACTORS
330
46C
102
}
330
46C
100
AcDbXrecord
280
     1
 40
215.9
  0
XRECORD
  5
498
102
{ACAD_REACTORS
330
46C
102
}
330
46C
100
AcDbXrecord
280
     1
1000
1:1
  0
XRECORD
  5
499
102
{ACAD_REACTORS
330
46C
102
}
330
46C
100
AcDbXrecord
280
     1
290
     1
  0
XRECORD
  5
49A
102
{ACAD_REACTORS
330
46C
102
}
330
46C
100
AcDbXrecord
280
     1
1000
3.15.5
  0
XRECORD
  5
49B
102
{ACAD_REACTORS
330
46C
102
}
330
46C
100
AcDbXrecord
280
     1
 90
        4
  0
XRECORD
  5
49C
102
{ACAD_REACTORS
330
46C
102
}
330
46C
100
AcDbXrecord
280
     1
  0
XRECORD
  5
49D
102
{ACAD_REACTORS
330
46C
102
}
330
46C
100
AcDbXrecord
280
     1
 40
1409.757151300179
  0
XRECORD
  5
49E
102
{ACAD_REACTORS
330
46C
102
}
330
46C
100
AcDbXrecord
280
     1
 40
3246.975123362128
  0
DICTIONARY
  5
4E1
330
467
100
AcDbDictionary
280
     1
281
     1
  3
ACAD_ROUNDTRIP_2008_TABLESTYLE_CELLSTYLEMAP
360
4E2
  0
CELLSTYLEMAP
  5
4E2
102
{ACAD_REACTORS
330
4E1
102
}
330
4E1
100
AcDbCellStyleMap
 90
        3
300
CELLSTYLE
  1
TABLEFORMAT_BEGIN
 90
        5
170
     1
 91
        0
 92
    32768
 62
   257
 93
        1
300
CONTENTFORMAT
  1
CONTENTFORMAT_BEGIN
 90
        0
 91
        0
 92
        4
 93
        0
300

 40
0.0
140
1.0
 94
        5
 62
     0
340
40F
144
0.25
309
CONTENTFORMAT_END
171
     1
301
MARGIN
  1
CELLMARGIN_BEGIN
 40
0.06
 40
0.06
 40
0.06
 40
0.06
 40
0.06
 40
0.06
309
CELLMARGIN_END
 94
        6
 95
        1
302
GRIDFORMAT
  1
GRIDFORMAT_BEGIN
 90
        0
 91
        1
 62
     0
 92
       -2
340
411
 93
        0
 40
0.045
309
GRIDFORMAT_END
 95
        2
302
GRIDFORMAT
  1
GRIDFORMAT_BEGIN
 90
        0
 91
        1
 62
     0
 92
       -2
340
411
 93
        0
 40
0.045
309
GRIDFORMAT_END
 95
        4
302
GRIDFORMAT
  1
GRIDFORMAT_BEGIN
 90
        0
 91
        1
 62
     0
 92
       -2
340
411
 93
        0
 40
0.045
309
GRIDFORMAT_END
 95
        8
302
GRIDFORMAT
  1
GRIDFORMAT_BEGIN
 90
        0
 91
        1
 62
     0
 92
       -2
340
411
 93
        0
 40
0.045
309
GRIDFORMAT_END
 95
       16
302
GRIDFORMAT
  1
GRIDFORMAT_BEGIN
 90
        0
 91
        1
 62
     0
 92
       -2
340
411
 93
        0
 40
0.045
309
GRIDFORMAT_END
 95
       32
302
GRIDFORMAT
  1
GRIDFORMAT_BEGIN
 90
        0
 91
        1
 62
     0
 92
       -2
340
411
 93
        0
 40
0.045
309
GRIDFORMAT_END
309
TABLEFORMAT_END
  1
CELLSTYLE_BEGIN
 90
        1
 91
        1
300
_TITLE
309
CELLSTYLE_END
300
CELLSTYLE
  1
TABLEFORMAT_BEGIN
 90
        5
170
     1
 91
        0
 92
        0
 62
   257
 93
        1
300
CONTENTFORMAT
  1
CONTENTFORMAT_BEGIN
 90
        0
 91
        0
 92
        4
 93
        0
300

 40
0.0
140
1.0
 94
        5
 62
     0
340
40F
144
0.18
309
CONTENTFORMAT_END
171
     1
301
MARGIN
  1
CELLMARGIN_BEGIN
 40
0.06
 40
0.06
 40
0.06
 40
0.06
 40
0.06
 40
0.06
309
CELLMARGIN_END
 94
        6
 95
        1
302
GRIDFORMAT
  1
GRIDFORMAT_BEGIN
 90
        0
 91
        1
 62
     0
 92
       -2
340
411
 93
        0
 40
0.045
309
GRIDFORMAT_END
 95
        2
302
GRIDFORMAT
  1
GRIDFORMAT_BEGIN
 90
        0
 91
        1
 62
     0
 92
       -2
340
411
 93
        0
 40
0.045
309
GRIDFORMAT_END
 95
        4
302
GRIDFORMAT
  1
GRIDFORMAT_BEGIN
 90
        0
 91
        1
 62
     0
 92
       -2
340
411
 93
        0
 40
0.045
309
GRIDFORMAT_END
 95
        8
302
GRIDFORMAT
  1
GRIDFORMAT_BEGIN
 90
        0
 91
        1
 62
     0
 92
       -2
340
411
 93
        0
 40
0.045
309
GRIDFORMAT_END
 95
       16
302
GRIDFORMAT
  1
GRIDFORMAT_BEGIN
 90
        0
 91
        1
 62
     0
 92
       -2
340
411
 93
        0
 40
0.045
309
GRIDFORMAT_END
 95
       32
302
GRIDFORMAT
  1
GRIDFORMAT_BEGIN
 90
        0
 91
        1
 62
     0
 92
       -2
340
411
 93
        0
 40
0.045
309
GRIDFORMAT_END
309
TABLEFORMAT_END
  1
CELLSTYLE_BEGIN
 90
        2
 91
        1
300
_HEADER
309
CELLSTYLE_END
300
CELLSTYLE
  1
TABLEFORMAT_BEGIN
 90
        5
170
     1
 91
        0
 92
        0
 62
   257
 93
        1
300
CONTENTFORMAT
  1
CONTENTFORMAT_BEGIN
 90
        0
 91
        0
 92
        4
 93
        0
300

 40
0.0
140
1.0
 94
        2
 62
     0
340
40F
144
0.18
309
CONTENTFORMAT_END
171
     1
301
MARGIN
  1
CELLMARGIN_BEGIN
 40
0.06
 40
0.06
 40
0.06
 40
0.06
 40
0.06
 40
0.06
309
CELLMARGIN_END
 94
        6
 95
        1
302
GRIDFORMAT
  1
GRIDFORMAT_BEGIN
 90
        0
 91
        1
 62
     0
 92
       -2
340
411
 93
        0
 40
0.045
309
GRIDFORMAT_END
 95
        2
302
GRIDFORMAT
  1
GRIDFORMAT_BEGIN
 90
        0
 91
        1
 62
     0
 92
       -2
340
411
 93
        0
 40
0.045
309
GRIDFORMAT_END
 95
        4
302
GRIDFORMAT
  1
GRIDFORMAT_BEGIN
 90
        0
 91
        1
 62
     0
 92
       -2
340
411
 93
        0
 40
0.045
309
GRIDFORMAT_END
 95
        8
302
GRIDFORMAT
  1
GRIDFORMAT_BEGIN
 90
        0
 91
        1
 62
     0
 92
       -2
340
411
 93
        0
 40
0.045
309
GRIDFORMAT_END
 95
       16
302
GRIDFORMAT
  1
GRIDFORMAT_BEGIN
 90
        0
 91
        1
 62
     0
 92
       -2
340
411
 93
        0
 40
0.045
309
GRIDFORMAT_END
 95
       32
302
GRIDFORMAT
  1
GRIDFORMAT_BEGIN
 90
        0
 91
        1
 62
     0
 92
       -2
340
411
 93
        0
 40
0.045
309
GRIDFORMAT_END
309
TABLEFORMAT_END
  1
CELLSTYLE_BEGIN
 90
        3
 91
        2
300
_DATA
309
CELLSTYLE_END
  0
ENDSEC
  0
EOF
